M48
; DRILL file {KiCad 9.0.6} date 2026-03-28T21:08:14-0400
; FORMAT={-:-/ absolute / metric / decimal}
; #@! TF.CreationDate,2026-03-28T21:08:14-04:00
; #@! TF.GenerationSoftware,Kicad,Pcbnew,9.0.6
; #@! TF.FileFunction,Plated,1,4,PTH
FMAT,2
METRIC
; #@! TA.AperFunction,Plated,PTH,ViaDrill
T1C0.300
; #@! TA.AperFunction,Plated,PTH,ComponentDrill
T2C0.600
; #@! TA.AperFunction,Plated,PTH,ComponentDrill
T3C0.650
; #@! TA.AperFunction,Plated,PTH,ComponentDrill
T4C0.850
; #@! TA.AperFunction,Plated,PTH,ComponentDrill
T5C1.300
%
G90
G05
T1
X96.15Y-107.2
X96.425Y-102.55
X97.35Y-100.65
X98.975Y-95.375
X99.33Y-120.88
X99.6Y-124.7
X101.225Y-104.3
X101.5Y-99.2
X101.55Y-100.8
X101.6Y-123.4
X103.2Y-112.8
X103.85Y-104.8
X103.95Y-99.0
X104.312Y-108.137
X104.85Y-115.45
X105.7Y-89.775
X105.7Y-118.56
X105.725Y-110.162
X105.8Y-111.775
X106.6Y-123.45
X106.65Y-124.705
X106.7Y-89.775
X106.95Y-119.8
X107.25Y-96.4
X107.35Y-106.05
X107.45Y-113.3
X107.641Y-125.1
X107.7Y-89.775
X107.8Y-103.75
X107.8Y-114.45
X107.8Y-122.05
X108.05Y-100.15
X108.05Y-108.35
X108.3Y-118.525
X108.725Y-89.775
X108.73Y-112.6
X109.45Y-114.6
X109.7Y-89.775
X109.85Y-118.7
X109.875Y-107.6
X109.9Y-115.6
X110.05Y-94.25
X110.547Y-119.503
X110.7Y-113.9
X110.8Y-100.45
X111.339Y-120.055
X111.4Y-115.75
X111.477Y-118.327
X111.6Y-125.55
X112.505Y-111.8
X112.65Y-123.35
X112.75Y-119.15
X112.9Y-96.95
X112.9Y-121.85
X113.55Y-96.4
X114.1Y-91.475
X114.275Y-95.675
X114.75Y-120.0
X115.2Y-107.15
X115.55Y-103.2
X115.85Y-110.92
X116.45Y-110.1
X116.675Y-121.125
X116.95Y-99.15
X117.27Y-119.897
X117.3Y-113.2
X117.3Y-118.122
X117.6Y-111.7
X118.45Y-107.4
X118.75Y-98.7
X118.75Y-106.1
X118.85Y-115.3
X118.97Y-119.067
X119.152Y-108.0
X119.284Y-103.634
X119.35Y-106.73
X119.45Y-125.05
X119.85Y-105.45
X119.875Y-117.822
X120.35Y-103.7
X120.6Y-104.65
X121.475Y-125.05
X121.85Y-107.05
X121.85Y-107.95
X121.85Y-108.85
X121.85Y-109.75
X122.475Y-125.075
X124.1Y-96.77
X124.55Y-118.0
X125.3Y-94.0
X125.45Y-107.05
X125.45Y-107.95
X125.45Y-108.85
X125.45Y-109.75
X126.9Y-94.364
X128.35Y-110.4
X128.35Y-111.4
X129.3Y-113.0
X129.3Y-113.95
X131.602Y-111.8
X131.633Y-118.68
X132.35Y-110.6
X132.65Y-98.475
X132.783Y-114.38
X132.8Y-119.8
X132.9Y-115.7
X133.25Y-110.6
X133.933Y-119.8
X134.15Y-103.45
X134.425Y-110.6
X134.425Y-111.35
X134.6Y-117.35
X134.85Y-107.95
X134.959Y-104.809
X135.067Y-119.8
X135.14Y-109.33
X135.2Y-110.6
X135.2Y-111.35
X135.47Y-115.87
X135.975Y-110.6
X135.975Y-111.35
X136.2Y-119.8
X136.36Y-93.03
X137.15Y-114.65
X137.4Y-105.8
X137.77Y-109.38
X137.85Y-93.2
X138.0Y-110.15
X138.15Y-114.65
X138.8Y-111.9
X138.83Y-93.2
X139.85Y-93.2
X139.96Y-108.39
X139.96Y-115.19
X140.3Y-97.65
X140.85Y-93.2
X141.87Y-93.2
X142.19Y-103.463
X142.85Y-93.2
X143.85Y-97.95
T3
X117.315Y-89.61
X117.315Y-90.88
X117.315Y-92.15
X117.315Y-93.42
X117.315Y-94.69
X118.585Y-89.61
X118.585Y-90.88
X118.585Y-92.15
X118.585Y-93.42
X118.585Y-94.69
T4
X124.1Y-92.65
X129.1Y-92.65
T5
X129.45Y-121.817
X134.45Y-121.817
T2
G00X123.1Y-90.3
M15
G01X123.1Y-89.6
M16
G05
G00X130.1Y-89.6
M15
G01X130.1Y-90.3
M16
G05
M30
