%TF.GenerationSoftware,KiCad,Pcbnew,9.0.6*%
%TF.CreationDate,2026-03-28T21:07:54-04:00*%
%TF.ProjectId,InvictusDES_V2,496e7669-6374-4757-9344-45535f56322e,rev?*%
%TF.SameCoordinates,Original*%
%TF.FileFunction,Legend,Bot*%
%TF.FilePolarity,Positive*%
%FSLAX46Y46*%
G04 Gerber Fmt 4.6, Leading zero omitted, Abs format (unit mm)*
G04 Created by KiCad (PCBNEW 9.0.6) date 2026-03-28 21:07:54*
%MOMM*%
%LPD*%
G01*
G04 APERTURE LIST*
%ADD10C,0.150000*%
%ADD11C,0.120000*%
G04 APERTURE END LIST*
D10*
X118007143Y-122812295D02*
X118257143Y-122431342D01*
X118435714Y-122812295D02*
X118435714Y-122012295D01*
X118435714Y-122012295D02*
X118150000Y-122012295D01*
X118150000Y-122012295D02*
X118078571Y-122050390D01*
X118078571Y-122050390D02*
X118042857Y-122088485D01*
X118042857Y-122088485D02*
X118007143Y-122164676D01*
X118007143Y-122164676D02*
X118007143Y-122278961D01*
X118007143Y-122278961D02*
X118042857Y-122355152D01*
X118042857Y-122355152D02*
X118078571Y-122393247D01*
X118078571Y-122393247D02*
X118150000Y-122431342D01*
X118150000Y-122431342D02*
X118435714Y-122431342D01*
X117292857Y-122812295D02*
X117721428Y-122812295D01*
X117507143Y-122812295D02*
X117507143Y-122012295D01*
X117507143Y-122012295D02*
X117578571Y-122126580D01*
X117578571Y-122126580D02*
X117650000Y-122202771D01*
X117650000Y-122202771D02*
X117721428Y-122240866D01*
X116828571Y-122012295D02*
X116757142Y-122012295D01*
X116757142Y-122012295D02*
X116685714Y-122050390D01*
X116685714Y-122050390D02*
X116650000Y-122088485D01*
X116650000Y-122088485D02*
X116614285Y-122164676D01*
X116614285Y-122164676D02*
X116578571Y-122317057D01*
X116578571Y-122317057D02*
X116578571Y-122507533D01*
X116578571Y-122507533D02*
X116614285Y-122659914D01*
X116614285Y-122659914D02*
X116650000Y-122736104D01*
X116650000Y-122736104D02*
X116685714Y-122774200D01*
X116685714Y-122774200D02*
X116757142Y-122812295D01*
X116757142Y-122812295D02*
X116828571Y-122812295D01*
X116828571Y-122812295D02*
X116900000Y-122774200D01*
X116900000Y-122774200D02*
X116935714Y-122736104D01*
X116935714Y-122736104D02*
X116971428Y-122659914D01*
X116971428Y-122659914D02*
X117007142Y-122507533D01*
X117007142Y-122507533D02*
X117007142Y-122317057D01*
X117007142Y-122317057D02*
X116971428Y-122164676D01*
X116971428Y-122164676D02*
X116935714Y-122088485D01*
X116935714Y-122088485D02*
X116900000Y-122050390D01*
X116900000Y-122050390D02*
X116828571Y-122012295D01*
X105360714Y-95993247D02*
X105253571Y-96031342D01*
X105253571Y-96031342D02*
X105217857Y-96069438D01*
X105217857Y-96069438D02*
X105182143Y-96145628D01*
X105182143Y-96145628D02*
X105182143Y-96259914D01*
X105182143Y-96259914D02*
X105217857Y-96336104D01*
X105217857Y-96336104D02*
X105253571Y-96374200D01*
X105253571Y-96374200D02*
X105325000Y-96412295D01*
X105325000Y-96412295D02*
X105610714Y-96412295D01*
X105610714Y-96412295D02*
X105610714Y-95612295D01*
X105610714Y-95612295D02*
X105360714Y-95612295D01*
X105360714Y-95612295D02*
X105289286Y-95650390D01*
X105289286Y-95650390D02*
X105253571Y-95688485D01*
X105253571Y-95688485D02*
X105217857Y-95764676D01*
X105217857Y-95764676D02*
X105217857Y-95840866D01*
X105217857Y-95840866D02*
X105253571Y-95917057D01*
X105253571Y-95917057D02*
X105289286Y-95955152D01*
X105289286Y-95955152D02*
X105360714Y-95993247D01*
X105360714Y-95993247D02*
X105610714Y-95993247D01*
X104932143Y-95612295D02*
X104432143Y-95612295D01*
X104432143Y-95612295D02*
X104932143Y-96412295D01*
X104932143Y-96412295D02*
X104432143Y-96412295D01*
X103753571Y-96412295D02*
X104182142Y-96412295D01*
X103967857Y-96412295D02*
X103967857Y-95612295D01*
X103967857Y-95612295D02*
X104039285Y-95726580D01*
X104039285Y-95726580D02*
X104110714Y-95802771D01*
X104110714Y-95802771D02*
X104182142Y-95840866D01*
X134871428Y-114562295D02*
X134871428Y-115209914D01*
X134871428Y-115209914D02*
X134835714Y-115286104D01*
X134835714Y-115286104D02*
X134800000Y-115324200D01*
X134800000Y-115324200D02*
X134728571Y-115362295D01*
X134728571Y-115362295D02*
X134585714Y-115362295D01*
X134585714Y-115362295D02*
X134514285Y-115324200D01*
X134514285Y-115324200D02*
X134478571Y-115286104D01*
X134478571Y-115286104D02*
X134442857Y-115209914D01*
X134442857Y-115209914D02*
X134442857Y-114562295D01*
X133692857Y-115362295D02*
X134121428Y-115362295D01*
X133907143Y-115362295D02*
X133907143Y-114562295D01*
X133907143Y-114562295D02*
X133978571Y-114676580D01*
X133978571Y-114676580D02*
X134050000Y-114752771D01*
X134050000Y-114752771D02*
X134121428Y-114790866D01*
X130662295Y-116779998D02*
X130281342Y-116529998D01*
X130662295Y-116351427D02*
X129862295Y-116351427D01*
X129862295Y-116351427D02*
X129862295Y-116637141D01*
X129862295Y-116637141D02*
X129900390Y-116708570D01*
X129900390Y-116708570D02*
X129938485Y-116744284D01*
X129938485Y-116744284D02*
X130014676Y-116779998D01*
X130014676Y-116779998D02*
X130128961Y-116779998D01*
X130128961Y-116779998D02*
X130205152Y-116744284D01*
X130205152Y-116744284D02*
X130243247Y-116708570D01*
X130243247Y-116708570D02*
X130281342Y-116637141D01*
X130281342Y-116637141D02*
X130281342Y-116351427D01*
X130662295Y-117494284D02*
X130662295Y-117065713D01*
X130662295Y-117279998D02*
X129862295Y-117279998D01*
X129862295Y-117279998D02*
X129976580Y-117208570D01*
X129976580Y-117208570D02*
X130052771Y-117137141D01*
X130052771Y-117137141D02*
X130090866Y-117065713D01*
X133871428Y-106112295D02*
X133871428Y-106759914D01*
X133871428Y-106759914D02*
X133835714Y-106836104D01*
X133835714Y-106836104D02*
X133800000Y-106874200D01*
X133800000Y-106874200D02*
X133728571Y-106912295D01*
X133728571Y-106912295D02*
X133585714Y-106912295D01*
X133585714Y-106912295D02*
X133514285Y-106874200D01*
X133514285Y-106874200D02*
X133478571Y-106836104D01*
X133478571Y-106836104D02*
X133442857Y-106759914D01*
X133442857Y-106759914D02*
X133442857Y-106112295D01*
X133157143Y-106112295D02*
X132692857Y-106112295D01*
X132692857Y-106112295D02*
X132942857Y-106417057D01*
X132942857Y-106417057D02*
X132835714Y-106417057D01*
X132835714Y-106417057D02*
X132764286Y-106455152D01*
X132764286Y-106455152D02*
X132728571Y-106493247D01*
X132728571Y-106493247D02*
X132692857Y-106569438D01*
X132692857Y-106569438D02*
X132692857Y-106759914D01*
X132692857Y-106759914D02*
X132728571Y-106836104D01*
X132728571Y-106836104D02*
X132764286Y-106874200D01*
X132764286Y-106874200D02*
X132835714Y-106912295D01*
X132835714Y-106912295D02*
X133050000Y-106912295D01*
X133050000Y-106912295D02*
X133121428Y-106874200D01*
X133121428Y-106874200D02*
X133157143Y-106836104D01*
X140515000Y-105412295D02*
X140765000Y-105031342D01*
X140943571Y-105412295D02*
X140943571Y-104612295D01*
X140943571Y-104612295D02*
X140657857Y-104612295D01*
X140657857Y-104612295D02*
X140586428Y-104650390D01*
X140586428Y-104650390D02*
X140550714Y-104688485D01*
X140550714Y-104688485D02*
X140515000Y-104764676D01*
X140515000Y-104764676D02*
X140515000Y-104878961D01*
X140515000Y-104878961D02*
X140550714Y-104955152D01*
X140550714Y-104955152D02*
X140586428Y-104993247D01*
X140586428Y-104993247D02*
X140657857Y-105031342D01*
X140657857Y-105031342D02*
X140943571Y-105031342D01*
X140157857Y-105412295D02*
X140015000Y-105412295D01*
X140015000Y-105412295D02*
X139943571Y-105374200D01*
X139943571Y-105374200D02*
X139907857Y-105336104D01*
X139907857Y-105336104D02*
X139836428Y-105221819D01*
X139836428Y-105221819D02*
X139800714Y-105069438D01*
X139800714Y-105069438D02*
X139800714Y-104764676D01*
X139800714Y-104764676D02*
X139836428Y-104688485D01*
X139836428Y-104688485D02*
X139872143Y-104650390D01*
X139872143Y-104650390D02*
X139943571Y-104612295D01*
X139943571Y-104612295D02*
X140086428Y-104612295D01*
X140086428Y-104612295D02*
X140157857Y-104650390D01*
X140157857Y-104650390D02*
X140193571Y-104688485D01*
X140193571Y-104688485D02*
X140229285Y-104764676D01*
X140229285Y-104764676D02*
X140229285Y-104955152D01*
X140229285Y-104955152D02*
X140193571Y-105031342D01*
X140193571Y-105031342D02*
X140157857Y-105069438D01*
X140157857Y-105069438D02*
X140086428Y-105107533D01*
X140086428Y-105107533D02*
X139943571Y-105107533D01*
X139943571Y-105107533D02*
X139872143Y-105069438D01*
X139872143Y-105069438D02*
X139836428Y-105031342D01*
X139836428Y-105031342D02*
X139800714Y-104955152D01*
X143896428Y-101012295D02*
X143467857Y-101012295D01*
X143682142Y-101812295D02*
X143682142Y-101012295D01*
X143217856Y-101812295D02*
X143217856Y-101012295D01*
X143217856Y-101012295D02*
X142932142Y-101012295D01*
X142932142Y-101012295D02*
X142860713Y-101050390D01*
X142860713Y-101050390D02*
X142824999Y-101088485D01*
X142824999Y-101088485D02*
X142789285Y-101164676D01*
X142789285Y-101164676D02*
X142789285Y-101278961D01*
X142789285Y-101278961D02*
X142824999Y-101355152D01*
X142824999Y-101355152D02*
X142860713Y-101393247D01*
X142860713Y-101393247D02*
X142932142Y-101431342D01*
X142932142Y-101431342D02*
X143217856Y-101431342D01*
X142146428Y-101012295D02*
X142289285Y-101012295D01*
X142289285Y-101012295D02*
X142360713Y-101050390D01*
X142360713Y-101050390D02*
X142396428Y-101088485D01*
X142396428Y-101088485D02*
X142467856Y-101202771D01*
X142467856Y-101202771D02*
X142503570Y-101355152D01*
X142503570Y-101355152D02*
X142503570Y-101659914D01*
X142503570Y-101659914D02*
X142467856Y-101736104D01*
X142467856Y-101736104D02*
X142432142Y-101774200D01*
X142432142Y-101774200D02*
X142360713Y-101812295D01*
X142360713Y-101812295D02*
X142217856Y-101812295D01*
X142217856Y-101812295D02*
X142146428Y-101774200D01*
X142146428Y-101774200D02*
X142110713Y-101736104D01*
X142110713Y-101736104D02*
X142074999Y-101659914D01*
X142074999Y-101659914D02*
X142074999Y-101469438D01*
X142074999Y-101469438D02*
X142110713Y-101393247D01*
X142110713Y-101393247D02*
X142146428Y-101355152D01*
X142146428Y-101355152D02*
X142217856Y-101317057D01*
X142217856Y-101317057D02*
X142360713Y-101317057D01*
X142360713Y-101317057D02*
X142432142Y-101355152D01*
X142432142Y-101355152D02*
X142467856Y-101393247D01*
X142467856Y-101393247D02*
X142503570Y-101469438D01*
X130712295Y-113424999D02*
X130331342Y-113174999D01*
X130712295Y-112996428D02*
X129912295Y-112996428D01*
X129912295Y-112996428D02*
X129912295Y-113282142D01*
X129912295Y-113282142D02*
X129950390Y-113353571D01*
X129950390Y-113353571D02*
X129988485Y-113389285D01*
X129988485Y-113389285D02*
X130064676Y-113424999D01*
X130064676Y-113424999D02*
X130178961Y-113424999D01*
X130178961Y-113424999D02*
X130255152Y-113389285D01*
X130255152Y-113389285D02*
X130293247Y-113353571D01*
X130293247Y-113353571D02*
X130331342Y-113282142D01*
X130331342Y-113282142D02*
X130331342Y-112996428D01*
X129912295Y-113674999D02*
X129912295Y-114139285D01*
X129912295Y-114139285D02*
X130217057Y-113889285D01*
X130217057Y-113889285D02*
X130217057Y-113996428D01*
X130217057Y-113996428D02*
X130255152Y-114067857D01*
X130255152Y-114067857D02*
X130293247Y-114103571D01*
X130293247Y-114103571D02*
X130369438Y-114139285D01*
X130369438Y-114139285D02*
X130559914Y-114139285D01*
X130559914Y-114139285D02*
X130636104Y-114103571D01*
X130636104Y-114103571D02*
X130674200Y-114067857D01*
X130674200Y-114067857D02*
X130712295Y-113996428D01*
X130712295Y-113996428D02*
X130712295Y-113782142D01*
X130712295Y-113782142D02*
X130674200Y-113710714D01*
X130674200Y-113710714D02*
X130636104Y-113674999D01*
X131696428Y-102162295D02*
X131267857Y-102162295D01*
X131482142Y-102962295D02*
X131482142Y-102162295D01*
X131017856Y-102962295D02*
X131017856Y-102162295D01*
X131017856Y-102162295D02*
X130732142Y-102162295D01*
X130732142Y-102162295D02*
X130660713Y-102200390D01*
X130660713Y-102200390D02*
X130624999Y-102238485D01*
X130624999Y-102238485D02*
X130589285Y-102314676D01*
X130589285Y-102314676D02*
X130589285Y-102428961D01*
X130589285Y-102428961D02*
X130624999Y-102505152D01*
X130624999Y-102505152D02*
X130660713Y-102543247D01*
X130660713Y-102543247D02*
X130732142Y-102581342D01*
X130732142Y-102581342D02*
X131017856Y-102581342D01*
X129910713Y-102162295D02*
X130267856Y-102162295D01*
X130267856Y-102162295D02*
X130303570Y-102543247D01*
X130303570Y-102543247D02*
X130267856Y-102505152D01*
X130267856Y-102505152D02*
X130196428Y-102467057D01*
X130196428Y-102467057D02*
X130017856Y-102467057D01*
X130017856Y-102467057D02*
X129946428Y-102505152D01*
X129946428Y-102505152D02*
X129910713Y-102543247D01*
X129910713Y-102543247D02*
X129874999Y-102619438D01*
X129874999Y-102619438D02*
X129874999Y-102809914D01*
X129874999Y-102809914D02*
X129910713Y-102886104D01*
X129910713Y-102886104D02*
X129946428Y-102924200D01*
X129946428Y-102924200D02*
X130017856Y-102962295D01*
X130017856Y-102962295D02*
X130196428Y-102962295D01*
X130196428Y-102962295D02*
X130267856Y-102924200D01*
X130267856Y-102924200D02*
X130303570Y-102886104D01*
X131446428Y-99662295D02*
X131017857Y-99662295D01*
X131232142Y-100462295D02*
X131232142Y-99662295D01*
X130767856Y-100462295D02*
X130767856Y-99662295D01*
X130767856Y-99662295D02*
X130482142Y-99662295D01*
X130482142Y-99662295D02*
X130410713Y-99700390D01*
X130410713Y-99700390D02*
X130374999Y-99738485D01*
X130374999Y-99738485D02*
X130339285Y-99814676D01*
X130339285Y-99814676D02*
X130339285Y-99928961D01*
X130339285Y-99928961D02*
X130374999Y-100005152D01*
X130374999Y-100005152D02*
X130410713Y-100043247D01*
X130410713Y-100043247D02*
X130482142Y-100081342D01*
X130482142Y-100081342D02*
X130767856Y-100081342D01*
X129696428Y-99928961D02*
X129696428Y-100462295D01*
X129874999Y-99624200D02*
X130053570Y-100195628D01*
X130053570Y-100195628D02*
X129589285Y-100195628D01*
X141762295Y-113264999D02*
X141381342Y-113014999D01*
X141762295Y-112836428D02*
X140962295Y-112836428D01*
X140962295Y-112836428D02*
X140962295Y-113122142D01*
X140962295Y-113122142D02*
X141000390Y-113193571D01*
X141000390Y-113193571D02*
X141038485Y-113229285D01*
X141038485Y-113229285D02*
X141114676Y-113264999D01*
X141114676Y-113264999D02*
X141228961Y-113264999D01*
X141228961Y-113264999D02*
X141305152Y-113229285D01*
X141305152Y-113229285D02*
X141343247Y-113193571D01*
X141343247Y-113193571D02*
X141381342Y-113122142D01*
X141381342Y-113122142D02*
X141381342Y-112836428D01*
X141228961Y-113907857D02*
X141762295Y-113907857D01*
X140924200Y-113729285D02*
X141495628Y-113550714D01*
X141495628Y-113550714D02*
X141495628Y-114014999D01*
X137375000Y-102259795D02*
X137625000Y-101878842D01*
X137803571Y-102259795D02*
X137803571Y-101459795D01*
X137803571Y-101459795D02*
X137517857Y-101459795D01*
X137517857Y-101459795D02*
X137446428Y-101497890D01*
X137446428Y-101497890D02*
X137410714Y-101535985D01*
X137410714Y-101535985D02*
X137375000Y-101612176D01*
X137375000Y-101612176D02*
X137375000Y-101726461D01*
X137375000Y-101726461D02*
X137410714Y-101802652D01*
X137410714Y-101802652D02*
X137446428Y-101840747D01*
X137446428Y-101840747D02*
X137517857Y-101878842D01*
X137517857Y-101878842D02*
X137803571Y-101878842D01*
X136946428Y-101802652D02*
X137017857Y-101764557D01*
X137017857Y-101764557D02*
X137053571Y-101726461D01*
X137053571Y-101726461D02*
X137089285Y-101650271D01*
X137089285Y-101650271D02*
X137089285Y-101612176D01*
X137089285Y-101612176D02*
X137053571Y-101535985D01*
X137053571Y-101535985D02*
X137017857Y-101497890D01*
X137017857Y-101497890D02*
X136946428Y-101459795D01*
X136946428Y-101459795D02*
X136803571Y-101459795D01*
X136803571Y-101459795D02*
X136732143Y-101497890D01*
X136732143Y-101497890D02*
X136696428Y-101535985D01*
X136696428Y-101535985D02*
X136660714Y-101612176D01*
X136660714Y-101612176D02*
X136660714Y-101650271D01*
X136660714Y-101650271D02*
X136696428Y-101726461D01*
X136696428Y-101726461D02*
X136732143Y-101764557D01*
X136732143Y-101764557D02*
X136803571Y-101802652D01*
X136803571Y-101802652D02*
X136946428Y-101802652D01*
X136946428Y-101802652D02*
X137017857Y-101840747D01*
X137017857Y-101840747D02*
X137053571Y-101878842D01*
X137053571Y-101878842D02*
X137089285Y-101955033D01*
X137089285Y-101955033D02*
X137089285Y-102107414D01*
X137089285Y-102107414D02*
X137053571Y-102183604D01*
X137053571Y-102183604D02*
X137017857Y-102221700D01*
X137017857Y-102221700D02*
X136946428Y-102259795D01*
X136946428Y-102259795D02*
X136803571Y-102259795D01*
X136803571Y-102259795D02*
X136732143Y-102221700D01*
X136732143Y-102221700D02*
X136696428Y-102183604D01*
X136696428Y-102183604D02*
X136660714Y-102107414D01*
X136660714Y-102107414D02*
X136660714Y-101955033D01*
X136660714Y-101955033D02*
X136696428Y-101878842D01*
X136696428Y-101878842D02*
X136732143Y-101840747D01*
X136732143Y-101840747D02*
X136803571Y-101802652D01*
X142886104Y-109707856D02*
X142924200Y-109672142D01*
X142924200Y-109672142D02*
X142962295Y-109564999D01*
X142962295Y-109564999D02*
X142962295Y-109493571D01*
X142962295Y-109493571D02*
X142924200Y-109386428D01*
X142924200Y-109386428D02*
X142848009Y-109314999D01*
X142848009Y-109314999D02*
X142771819Y-109279285D01*
X142771819Y-109279285D02*
X142619438Y-109243571D01*
X142619438Y-109243571D02*
X142505152Y-109243571D01*
X142505152Y-109243571D02*
X142352771Y-109279285D01*
X142352771Y-109279285D02*
X142276580Y-109314999D01*
X142276580Y-109314999D02*
X142200390Y-109386428D01*
X142200390Y-109386428D02*
X142162295Y-109493571D01*
X142162295Y-109493571D02*
X142162295Y-109564999D01*
X142162295Y-109564999D02*
X142200390Y-109672142D01*
X142200390Y-109672142D02*
X142238485Y-109707856D01*
X142962295Y-110422142D02*
X142962295Y-109993571D01*
X142962295Y-110207856D02*
X142162295Y-110207856D01*
X142162295Y-110207856D02*
X142276580Y-110136428D01*
X142276580Y-110136428D02*
X142352771Y-110064999D01*
X142352771Y-110064999D02*
X142390866Y-109993571D01*
X142162295Y-110672142D02*
X142162295Y-111136428D01*
X142162295Y-111136428D02*
X142467057Y-110886428D01*
X142467057Y-110886428D02*
X142467057Y-110993571D01*
X142467057Y-110993571D02*
X142505152Y-111065000D01*
X142505152Y-111065000D02*
X142543247Y-111100714D01*
X142543247Y-111100714D02*
X142619438Y-111136428D01*
X142619438Y-111136428D02*
X142809914Y-111136428D01*
X142809914Y-111136428D02*
X142886104Y-111100714D01*
X142886104Y-111100714D02*
X142924200Y-111065000D01*
X142924200Y-111065000D02*
X142962295Y-110993571D01*
X142962295Y-110993571D02*
X142962295Y-110779285D01*
X142962295Y-110779285D02*
X142924200Y-110707857D01*
X142924200Y-110707857D02*
X142886104Y-110672142D01*
X138575000Y-116156104D02*
X138610714Y-116194200D01*
X138610714Y-116194200D02*
X138717857Y-116232295D01*
X138717857Y-116232295D02*
X138789285Y-116232295D01*
X138789285Y-116232295D02*
X138896428Y-116194200D01*
X138896428Y-116194200D02*
X138967857Y-116118009D01*
X138967857Y-116118009D02*
X139003571Y-116041819D01*
X139003571Y-116041819D02*
X139039285Y-115889438D01*
X139039285Y-115889438D02*
X139039285Y-115775152D01*
X139039285Y-115775152D02*
X139003571Y-115622771D01*
X139003571Y-115622771D02*
X138967857Y-115546580D01*
X138967857Y-115546580D02*
X138896428Y-115470390D01*
X138896428Y-115470390D02*
X138789285Y-115432295D01*
X138789285Y-115432295D02*
X138717857Y-115432295D01*
X138717857Y-115432295D02*
X138610714Y-115470390D01*
X138610714Y-115470390D02*
X138575000Y-115508485D01*
X137896428Y-115432295D02*
X138253571Y-115432295D01*
X138253571Y-115432295D02*
X138289285Y-115813247D01*
X138289285Y-115813247D02*
X138253571Y-115775152D01*
X138253571Y-115775152D02*
X138182143Y-115737057D01*
X138182143Y-115737057D02*
X138003571Y-115737057D01*
X138003571Y-115737057D02*
X137932143Y-115775152D01*
X137932143Y-115775152D02*
X137896428Y-115813247D01*
X137896428Y-115813247D02*
X137860714Y-115889438D01*
X137860714Y-115889438D02*
X137860714Y-116079914D01*
X137860714Y-116079914D02*
X137896428Y-116156104D01*
X137896428Y-116156104D02*
X137932143Y-116194200D01*
X137932143Y-116194200D02*
X138003571Y-116232295D01*
X138003571Y-116232295D02*
X138182143Y-116232295D01*
X138182143Y-116232295D02*
X138253571Y-116194200D01*
X138253571Y-116194200D02*
X138289285Y-116156104D01*
X105632143Y-121286104D02*
X105667857Y-121324200D01*
X105667857Y-121324200D02*
X105775000Y-121362295D01*
X105775000Y-121362295D02*
X105846428Y-121362295D01*
X105846428Y-121362295D02*
X105953571Y-121324200D01*
X105953571Y-121324200D02*
X106025000Y-121248009D01*
X106025000Y-121248009D02*
X106060714Y-121171819D01*
X106060714Y-121171819D02*
X106096428Y-121019438D01*
X106096428Y-121019438D02*
X106096428Y-120905152D01*
X106096428Y-120905152D02*
X106060714Y-120752771D01*
X106060714Y-120752771D02*
X106025000Y-120676580D01*
X106025000Y-120676580D02*
X105953571Y-120600390D01*
X105953571Y-120600390D02*
X105846428Y-120562295D01*
X105846428Y-120562295D02*
X105775000Y-120562295D01*
X105775000Y-120562295D02*
X105667857Y-120600390D01*
X105667857Y-120600390D02*
X105632143Y-120638485D01*
X105346428Y-120638485D02*
X105310714Y-120600390D01*
X105310714Y-120600390D02*
X105239286Y-120562295D01*
X105239286Y-120562295D02*
X105060714Y-120562295D01*
X105060714Y-120562295D02*
X104989286Y-120600390D01*
X104989286Y-120600390D02*
X104953571Y-120638485D01*
X104953571Y-120638485D02*
X104917857Y-120714676D01*
X104917857Y-120714676D02*
X104917857Y-120790866D01*
X104917857Y-120790866D02*
X104953571Y-120905152D01*
X104953571Y-120905152D02*
X105382143Y-121362295D01*
X105382143Y-121362295D02*
X104917857Y-121362295D01*
X104453571Y-120562295D02*
X104382142Y-120562295D01*
X104382142Y-120562295D02*
X104310714Y-120600390D01*
X104310714Y-120600390D02*
X104275000Y-120638485D01*
X104275000Y-120638485D02*
X104239285Y-120714676D01*
X104239285Y-120714676D02*
X104203571Y-120867057D01*
X104203571Y-120867057D02*
X104203571Y-121057533D01*
X104203571Y-121057533D02*
X104239285Y-121209914D01*
X104239285Y-121209914D02*
X104275000Y-121286104D01*
X104275000Y-121286104D02*
X104310714Y-121324200D01*
X104310714Y-121324200D02*
X104382142Y-121362295D01*
X104382142Y-121362295D02*
X104453571Y-121362295D01*
X104453571Y-121362295D02*
X104525000Y-121324200D01*
X104525000Y-121324200D02*
X104560714Y-121286104D01*
X104560714Y-121286104D02*
X104596428Y-121209914D01*
X104596428Y-121209914D02*
X104632142Y-121057533D01*
X104632142Y-121057533D02*
X104632142Y-120867057D01*
X104632142Y-120867057D02*
X104596428Y-120714676D01*
X104596428Y-120714676D02*
X104560714Y-120638485D01*
X104560714Y-120638485D02*
X104525000Y-120600390D01*
X104525000Y-120600390D02*
X104453571Y-120562295D01*
X140125000Y-107862295D02*
X140375000Y-107481342D01*
X140553571Y-107862295D02*
X140553571Y-107062295D01*
X140553571Y-107062295D02*
X140267857Y-107062295D01*
X140267857Y-107062295D02*
X140196428Y-107100390D01*
X140196428Y-107100390D02*
X140160714Y-107138485D01*
X140160714Y-107138485D02*
X140125000Y-107214676D01*
X140125000Y-107214676D02*
X140125000Y-107328961D01*
X140125000Y-107328961D02*
X140160714Y-107405152D01*
X140160714Y-107405152D02*
X140196428Y-107443247D01*
X140196428Y-107443247D02*
X140267857Y-107481342D01*
X140267857Y-107481342D02*
X140553571Y-107481342D01*
X139446428Y-107062295D02*
X139803571Y-107062295D01*
X139803571Y-107062295D02*
X139839285Y-107443247D01*
X139839285Y-107443247D02*
X139803571Y-107405152D01*
X139803571Y-107405152D02*
X139732143Y-107367057D01*
X139732143Y-107367057D02*
X139553571Y-107367057D01*
X139553571Y-107367057D02*
X139482143Y-107405152D01*
X139482143Y-107405152D02*
X139446428Y-107443247D01*
X139446428Y-107443247D02*
X139410714Y-107519438D01*
X139410714Y-107519438D02*
X139410714Y-107709914D01*
X139410714Y-107709914D02*
X139446428Y-107786104D01*
X139446428Y-107786104D02*
X139482143Y-107824200D01*
X139482143Y-107824200D02*
X139553571Y-107862295D01*
X139553571Y-107862295D02*
X139732143Y-107862295D01*
X139732143Y-107862295D02*
X139803571Y-107824200D01*
X139803571Y-107824200D02*
X139839285Y-107786104D01*
X138925000Y-117656104D02*
X138960714Y-117694200D01*
X138960714Y-117694200D02*
X139067857Y-117732295D01*
X139067857Y-117732295D02*
X139139285Y-117732295D01*
X139139285Y-117732295D02*
X139246428Y-117694200D01*
X139246428Y-117694200D02*
X139317857Y-117618009D01*
X139317857Y-117618009D02*
X139353571Y-117541819D01*
X139353571Y-117541819D02*
X139389285Y-117389438D01*
X139389285Y-117389438D02*
X139389285Y-117275152D01*
X139389285Y-117275152D02*
X139353571Y-117122771D01*
X139353571Y-117122771D02*
X139317857Y-117046580D01*
X139317857Y-117046580D02*
X139246428Y-116970390D01*
X139246428Y-116970390D02*
X139139285Y-116932295D01*
X139139285Y-116932295D02*
X139067857Y-116932295D01*
X139067857Y-116932295D02*
X138960714Y-116970390D01*
X138960714Y-116970390D02*
X138925000Y-117008485D01*
X138675000Y-116932295D02*
X138210714Y-116932295D01*
X138210714Y-116932295D02*
X138460714Y-117237057D01*
X138460714Y-117237057D02*
X138353571Y-117237057D01*
X138353571Y-117237057D02*
X138282143Y-117275152D01*
X138282143Y-117275152D02*
X138246428Y-117313247D01*
X138246428Y-117313247D02*
X138210714Y-117389438D01*
X138210714Y-117389438D02*
X138210714Y-117579914D01*
X138210714Y-117579914D02*
X138246428Y-117656104D01*
X138246428Y-117656104D02*
X138282143Y-117694200D01*
X138282143Y-117694200D02*
X138353571Y-117732295D01*
X138353571Y-117732295D02*
X138567857Y-117732295D01*
X138567857Y-117732295D02*
X138639285Y-117694200D01*
X138639285Y-117694200D02*
X138675000Y-117656104D01*
X136982143Y-108636104D02*
X137017857Y-108674200D01*
X137017857Y-108674200D02*
X137125000Y-108712295D01*
X137125000Y-108712295D02*
X137196428Y-108712295D01*
X137196428Y-108712295D02*
X137303571Y-108674200D01*
X137303571Y-108674200D02*
X137375000Y-108598009D01*
X137375000Y-108598009D02*
X137410714Y-108521819D01*
X137410714Y-108521819D02*
X137446428Y-108369438D01*
X137446428Y-108369438D02*
X137446428Y-108255152D01*
X137446428Y-108255152D02*
X137410714Y-108102771D01*
X137410714Y-108102771D02*
X137375000Y-108026580D01*
X137375000Y-108026580D02*
X137303571Y-107950390D01*
X137303571Y-107950390D02*
X137196428Y-107912295D01*
X137196428Y-107912295D02*
X137125000Y-107912295D01*
X137125000Y-107912295D02*
X137017857Y-107950390D01*
X137017857Y-107950390D02*
X136982143Y-107988485D01*
X136267857Y-108712295D02*
X136696428Y-108712295D01*
X136482143Y-108712295D02*
X136482143Y-107912295D01*
X136482143Y-107912295D02*
X136553571Y-108026580D01*
X136553571Y-108026580D02*
X136625000Y-108102771D01*
X136625000Y-108102771D02*
X136696428Y-108140866D01*
X135625000Y-107912295D02*
X135767857Y-107912295D01*
X135767857Y-107912295D02*
X135839285Y-107950390D01*
X135839285Y-107950390D02*
X135875000Y-107988485D01*
X135875000Y-107988485D02*
X135946428Y-108102771D01*
X135946428Y-108102771D02*
X135982142Y-108255152D01*
X135982142Y-108255152D02*
X135982142Y-108559914D01*
X135982142Y-108559914D02*
X135946428Y-108636104D01*
X135946428Y-108636104D02*
X135910714Y-108674200D01*
X135910714Y-108674200D02*
X135839285Y-108712295D01*
X135839285Y-108712295D02*
X135696428Y-108712295D01*
X135696428Y-108712295D02*
X135625000Y-108674200D01*
X135625000Y-108674200D02*
X135589285Y-108636104D01*
X135589285Y-108636104D02*
X135553571Y-108559914D01*
X135553571Y-108559914D02*
X135553571Y-108369438D01*
X135553571Y-108369438D02*
X135589285Y-108293247D01*
X135589285Y-108293247D02*
X135625000Y-108255152D01*
X135625000Y-108255152D02*
X135696428Y-108217057D01*
X135696428Y-108217057D02*
X135839285Y-108217057D01*
X135839285Y-108217057D02*
X135910714Y-108255152D01*
X135910714Y-108255152D02*
X135946428Y-108293247D01*
X135946428Y-108293247D02*
X135982142Y-108369438D01*
D11*
%TO.C,J12*%
X134830000Y-87842500D02*
X137510000Y-87842500D01*
X134830000Y-88562500D02*
X134830000Y-87842500D01*
X134830000Y-92262500D02*
X134830000Y-89962500D01*
X134830000Y-98112500D02*
X134830000Y-93662500D01*
X136310000Y-99482500D02*
X137170000Y-99482500D01*
X139810000Y-87842500D02*
X143480000Y-87842500D01*
%TO.C,R10*%
X118337742Y-120602500D02*
X118812258Y-120602500D01*
X118337742Y-121647500D02*
X118812258Y-121647500D01*
%TO.C,BZ1*%
X100090000Y-97240000D02*
X100090000Y-106460000D01*
X100090000Y-106460000D02*
X102740000Y-106460000D01*
X102740000Y-97240000D02*
X100090000Y-97240000D01*
X106660000Y-106460000D02*
X109310000Y-106460000D01*
X109310000Y-97240000D02*
X106660000Y-97240000D01*
X109310000Y-106460000D02*
X109310000Y-97240000D01*
D10*
%TO.C,U1*%
X137985000Y-114215000D02*
X138234999Y-114215000D01*
X138234999Y-114215000D02*
X138234999Y-113965000D01*
X133685001Y-110065000D02*
X133935000Y-110065000D01*
X133685001Y-110315000D02*
X133685001Y-110065000D01*
X133685001Y-114215000D02*
X133685001Y-113965000D01*
X133685001Y-114215000D02*
X133935000Y-114215000D01*
D11*
%TO.C,R1*%
X131080000Y-117142257D02*
X131080000Y-116667741D01*
X132125000Y-117142257D02*
X132125000Y-116667741D01*
%TO.C,U3*%
X134530000Y-107038125D02*
X134530000Y-105988125D01*
X136850000Y-107038125D02*
X136850000Y-105738125D01*
X134530000Y-105628125D02*
X134250000Y-105628125D01*
X134530000Y-105348125D01*
X134530000Y-105628125D01*
G36*
X134530000Y-105628125D02*
G01*
X134250000Y-105628125D01*
X134530000Y-105348125D01*
X134530000Y-105628125D01*
G37*
%TO.C,R9*%
X140152742Y-102978125D02*
X140627258Y-102978125D01*
X140152742Y-104023125D02*
X140627258Y-104023125D01*
%TO.C,TP6*%
X141450000Y-101450000D02*
G75*
G02*
X140050000Y-101450000I-700000J0D01*
G01*
X140050000Y-101450000D02*
G75*
G02*
X141450000Y-101450000I700000J0D01*
G01*
%TO.C,R3*%
X131079998Y-113792258D02*
X131079998Y-113317742D01*
X132124998Y-113792258D02*
X132124998Y-113317742D01*
%TO.C,TP5*%
X133402500Y-102550000D02*
G75*
G02*
X132002500Y-102550000I-700000J0D01*
G01*
X132002500Y-102550000D02*
G75*
G02*
X133402500Y-102550000I700000J0D01*
G01*
%TO.C,TP4*%
X133300000Y-100100000D02*
G75*
G02*
X131900000Y-100100000I-700000J0D01*
G01*
X131900000Y-100100000D02*
G75*
G02*
X133300000Y-100100000I700000J0D01*
G01*
%TO.C,R4*%
X139437500Y-113152742D02*
X139437500Y-113627258D01*
X140482500Y-113152742D02*
X140482500Y-113627258D01*
%TO.C,R8*%
X137377258Y-102978125D02*
X136902742Y-102978125D01*
X137377258Y-104023125D02*
X136902742Y-104023125D01*
%TO.C,C13*%
X141100000Y-110297836D02*
X141100000Y-110082164D01*
X141820000Y-110297836D02*
X141820000Y-110082164D01*
%TO.C,C5*%
X136817835Y-115510000D02*
X136602163Y-115510000D01*
X136817835Y-116230000D02*
X136602163Y-116230000D01*
%TO.C,C20*%
X107890580Y-120390000D02*
X107609420Y-120390000D01*
X107890580Y-121410000D02*
X107609420Y-121410000D01*
%TO.C,R5*%
X139437500Y-110332258D02*
X139437500Y-109857742D01*
X140482500Y-110332258D02*
X140482500Y-109857742D01*
%TO.C,C3*%
X136580579Y-116860000D02*
X136299419Y-116860000D01*
X136580579Y-117880000D02*
X136299419Y-117880000D01*
%TO.C,C16*%
X136567836Y-108970000D02*
X136352164Y-108970000D01*
X136567836Y-109690000D02*
X136352164Y-109690000D01*
%TD*%
M02*
