%TF.GenerationSoftware,KiCad,Pcbnew,9.0.6*%
%TF.CreationDate,2026-03-28T21:07:54-04:00*%
%TF.ProjectId,InvictusDES_V2,496e7669-6374-4757-9344-45535f56322e,rev?*%
%TF.SameCoordinates,Original*%
%TF.FileFunction,Paste,Top*%
%TF.FilePolarity,Positive*%
%FSLAX46Y46*%
G04 Gerber Fmt 4.6, Leading zero omitted, Abs format (unit mm)*
G04 Created by KiCad (PCBNEW 9.0.6) date 2026-03-28 21:07:54*
%MOMM*%
%LPD*%
G01*
G04 APERTURE LIST*
G04 Aperture macros list*
%AMRoundRect*
0 Rectangle with rounded corners*
0 $1 Rounding radius*
0 $2 $3 $4 $5 $6 $7 $8 $9 X,Y pos of 4 corners*
0 Add a 4 corners polygon primitive as box body*
4,1,4,$2,$3,$4,$5,$6,$7,$8,$9,$2,$3,0*
0 Add four circle primitives for the rounded corners*
1,1,$1+$1,$2,$3*
1,1,$1+$1,$4,$5*
1,1,$1+$1,$6,$7*
1,1,$1+$1,$8,$9*
0 Add four rect primitives between the rounded corners*
20,1,$1+$1,$2,$3,$4,$5,0*
20,1,$1+$1,$4,$5,$6,$7,0*
20,1,$1+$1,$6,$7,$8,$9,0*
20,1,$1+$1,$8,$9,$2,$3,0*%
G04 Aperture macros list end*
%ADD10C,0.175000*%
%ADD11RoundRect,0.150000X0.150000X0.625000X-0.150000X0.625000X-0.150000X-0.625000X0.150000X-0.625000X0*%
%ADD12RoundRect,0.250000X0.350000X0.650000X-0.350000X0.650000X-0.350000X-0.650000X0.350000X-0.650000X0*%
%ADD13RoundRect,0.200000X-0.200000X-0.275000X0.200000X-0.275000X0.200000X0.275000X-0.200000X0.275000X0*%
%ADD14RoundRect,0.150000X-0.150000X-0.625000X0.150000X-0.625000X0.150000X0.625000X-0.150000X0.625000X0*%
%ADD15RoundRect,0.250000X-0.350000X-0.650000X0.350000X-0.650000X0.350000X0.650000X-0.350000X0.650000X0*%
%ADD16R,0.304800X0.533400*%
%ADD17R,0.533400X0.304800*%
%ADD18RoundRect,0.225000X0.250000X-0.225000X0.250000X0.225000X-0.250000X0.225000X-0.250000X-0.225000X0*%
%ADD19RoundRect,0.140000X-0.140000X-0.170000X0.140000X-0.170000X0.140000X0.170000X-0.140000X0.170000X0*%
%ADD20RoundRect,0.140000X-0.170000X0.140000X-0.170000X-0.140000X0.170000X-0.140000X0.170000X0.140000X0*%
%ADD21RoundRect,0.140000X0.170000X-0.140000X0.170000X0.140000X-0.170000X0.140000X-0.170000X-0.140000X0*%
%ADD22RoundRect,0.200000X0.275000X-0.200000X0.275000X0.200000X-0.275000X0.200000X-0.275000X-0.200000X0*%
%ADD23RoundRect,0.225000X0.225000X0.250000X-0.225000X0.250000X-0.225000X-0.250000X0.225000X-0.250000X0*%
%ADD24RoundRect,0.250000X-0.250000X-0.475000X0.250000X-0.475000X0.250000X0.475000X-0.250000X0.475000X0*%
%ADD25R,0.300000X0.450000*%
%ADD26R,0.450000X0.300000*%
%ADD27RoundRect,0.135000X0.135000X0.185000X-0.135000X0.185000X-0.135000X-0.185000X0.135000X-0.185000X0*%
%ADD28RoundRect,0.200000X0.200000X0.275000X-0.200000X0.275000X-0.200000X-0.275000X0.200000X-0.275000X0*%
%ADD29RoundRect,0.075000X-0.700000X-0.075000X0.700000X-0.075000X0.700000X0.075000X-0.700000X0.075000X0*%
%ADD30RoundRect,0.075000X-0.075000X-0.700000X0.075000X-0.700000X0.075000X0.700000X-0.075000X0.700000X0*%
%ADD31RoundRect,0.218750X0.218750X0.256250X-0.218750X0.256250X-0.218750X-0.256250X0.218750X-0.256250X0*%
%ADD32RoundRect,0.225000X-0.225000X-0.250000X0.225000X-0.250000X0.225000X0.250000X-0.225000X0.250000X0*%
%ADD33R,0.400000X1.350000*%
%ADD34R,1.500000X1.900000*%
%ADD35RoundRect,0.250000X-0.475000X0.250000X-0.475000X-0.250000X0.475000X-0.250000X0.475000X0.250000X0*%
%ADD36RoundRect,0.150000X-0.150000X0.512500X-0.150000X-0.512500X0.150000X-0.512500X0.150000X0.512500X0*%
%ADD37RoundRect,0.225000X-0.250000X0.225000X-0.250000X-0.225000X0.250000X-0.225000X0.250000X0.225000X0*%
%ADD38RoundRect,0.140000X0.140000X0.170000X-0.140000X0.170000X-0.140000X-0.170000X0.140000X-0.170000X0*%
%ADD39RoundRect,0.375000X0.625000X0.375000X-0.625000X0.375000X-0.625000X-0.375000X0.625000X-0.375000X0*%
%ADD40RoundRect,0.500000X0.500000X1.400000X-0.500000X1.400000X-0.500000X-1.400000X0.500000X-1.400000X0*%
%ADD41RoundRect,0.218750X-0.256250X0.218750X-0.256250X-0.218750X0.256250X-0.218750X0.256250X0.218750X0*%
%ADD42RoundRect,0.250000X0.450000X0.350000X-0.450000X0.350000X-0.450000X-0.350000X0.450000X-0.350000X0*%
%ADD43RoundRect,0.218750X0.256250X-0.218750X0.256250X0.218750X-0.256250X0.218750X-0.256250X-0.218750X0*%
%ADD44RoundRect,0.162500X-0.650000X-0.162500X0.650000X-0.162500X0.650000X0.162500X-0.650000X0.162500X0*%
%ADD45RoundRect,0.218750X-0.218750X-0.256250X0.218750X-0.256250X0.218750X0.256250X-0.218750X0.256250X0*%
G04 APERTURE END LIST*
D10*
%TO.C,U8*%
X106113000Y-115475000D02*
G75*
G02*
X105937000Y-115475000I-88000J0D01*
G01*
X105937000Y-115475000D02*
G75*
G02*
X106113000Y-115475000I88000J0D01*
G01*
X106113000Y-116925000D02*
G75*
G02*
X105937000Y-116925000I-88000J0D01*
G01*
X105937000Y-116925000D02*
G75*
G02*
X106113000Y-116925000I88000J0D01*
G01*
X106763000Y-115475000D02*
G75*
G02*
X106587000Y-115475000I-88000J0D01*
G01*
X106587000Y-115475000D02*
G75*
G02*
X106763000Y-115475000I88000J0D01*
G01*
X106763000Y-116925000D02*
G75*
G02*
X106587000Y-116925000I-88000J0D01*
G01*
X106587000Y-116925000D02*
G75*
G02*
X106763000Y-116925000I88000J0D01*
G01*
X107413000Y-115475000D02*
G75*
G02*
X107237000Y-115475000I-88000J0D01*
G01*
X107237000Y-115475000D02*
G75*
G02*
X107413000Y-115475000I88000J0D01*
G01*
X107413000Y-116925000D02*
G75*
G02*
X107237000Y-116925000I-88000J0D01*
G01*
X107237000Y-116925000D02*
G75*
G02*
X107413000Y-116925000I88000J0D01*
G01*
X108063000Y-115475000D02*
G75*
G02*
X107887000Y-115475000I-88000J0D01*
G01*
X107887000Y-115475000D02*
G75*
G02*
X108063000Y-115475000I88000J0D01*
G01*
X108063000Y-116925000D02*
G75*
G02*
X107887000Y-116925000I-88000J0D01*
G01*
X107887000Y-116925000D02*
G75*
G02*
X108063000Y-116925000I88000J0D01*
G01*
%TD*%
D11*
%TO.C,J9*%
X122475000Y-123625000D03*
X121475000Y-123625000D03*
X120475000Y-123625000D03*
X119475000Y-123625000D03*
D12*
X123775000Y-126150000D03*
X118175000Y-126150000D03*
%TD*%
D13*
%TO.C,R13*%
X114100000Y-92700000D03*
X112450000Y-92700000D03*
%TD*%
D14*
%TO.C,J3*%
X137850000Y-91450000D03*
X138850000Y-91450000D03*
X139850000Y-91450000D03*
X140850000Y-91450000D03*
X141850000Y-91450000D03*
X142850000Y-91450000D03*
D15*
X136550000Y-88925000D03*
X144150000Y-88925000D03*
%TD*%
D14*
%TO.C,J11*%
X105700000Y-91450000D03*
X106700000Y-91450000D03*
X107700000Y-91450000D03*
X108700000Y-91450000D03*
X109700000Y-91450000D03*
X110700000Y-91450000D03*
D15*
X104400000Y-88925000D03*
X112000000Y-88925000D03*
%TD*%
D16*
%TO.C,U6*%
X114249999Y-119128600D03*
X114750000Y-119128600D03*
X115250000Y-119128600D03*
X115750001Y-119128600D03*
D17*
X115927100Y-118447499D03*
X115927100Y-117947500D03*
X115927100Y-117447501D03*
D16*
X115750001Y-116766400D03*
X115250000Y-116766400D03*
X114750000Y-116766400D03*
X114249999Y-116766400D03*
D17*
X114072900Y-117447501D03*
X114072900Y-117947500D03*
X114072900Y-118447499D03*
%TD*%
D18*
%TO.C,C6*%
X119862500Y-101250000D03*
X119862500Y-99700000D03*
%TD*%
D19*
%TO.C,C22*%
X117240000Y-119097500D03*
X118200000Y-119097500D03*
%TD*%
D20*
%TO.C,C18*%
X117300000Y-116317500D03*
X117300000Y-117277500D03*
%TD*%
D21*
%TO.C,C12*%
X103900000Y-107230000D03*
X103900000Y-106270000D03*
%TD*%
D22*
%TO.C,R16*%
X124100000Y-99425000D03*
X124100000Y-97775000D03*
%TD*%
D23*
%TO.C,C14*%
X99900000Y-100650000D03*
X98350000Y-100650000D03*
%TD*%
D21*
%TO.C,C10*%
X103975000Y-100730000D03*
X103975000Y-99770000D03*
%TD*%
D23*
%TO.C,C17*%
X97725000Y-106250000D03*
X96175000Y-106250000D03*
%TD*%
D19*
%TO.C,C29*%
X131690000Y-100900000D03*
X132650000Y-100900000D03*
%TD*%
D18*
%TO.C,C1*%
X102550000Y-100775000D03*
X102550000Y-99225000D03*
%TD*%
D24*
%TO.C,C24*%
X126350000Y-113400000D03*
X128250000Y-113400000D03*
%TD*%
D25*
%TO.C,U4*%
X111340638Y-121325000D03*
X110840638Y-121325000D03*
X110340638Y-121325000D03*
X109840638Y-121325000D03*
D26*
X109315638Y-121850000D03*
X109315638Y-122350000D03*
X109315638Y-122850000D03*
X109315638Y-123350000D03*
D25*
X109840638Y-123875000D03*
X110340638Y-123875000D03*
X110840638Y-123875000D03*
X111340638Y-123875000D03*
D26*
X111865638Y-123350000D03*
X111865638Y-122850000D03*
X111865638Y-122350000D03*
X111865638Y-121850000D03*
%TD*%
D27*
%TO.C,R17*%
X123160000Y-101750000D03*
X122140000Y-101750000D03*
%TD*%
D13*
%TO.C,R2*%
X99950000Y-95375000D03*
X101600000Y-95375000D03*
%TD*%
D21*
%TO.C,C7*%
X117800000Y-99180000D03*
X117800000Y-98220000D03*
%TD*%
D28*
%TO.C,R7*%
X101275000Y-106250000D03*
X99625000Y-106250000D03*
%TD*%
D29*
%TO.C,U2*%
X105650000Y-100750000D03*
X105650000Y-101250000D03*
X105650000Y-101750000D03*
X105650000Y-102250000D03*
X105650000Y-102750000D03*
X105650000Y-103250000D03*
X105650000Y-103750000D03*
X105650000Y-104250000D03*
X105650000Y-104750000D03*
X105650000Y-105250000D03*
X105650000Y-105750000D03*
X105650000Y-106250000D03*
X105650000Y-106750000D03*
X105650000Y-107250000D03*
X105650000Y-107750000D03*
X105650000Y-108250000D03*
D30*
X107575000Y-110175000D03*
X108075000Y-110175000D03*
X108575000Y-110175000D03*
X109075000Y-110175000D03*
X109575000Y-110175000D03*
X110075000Y-110175000D03*
X110575000Y-110175000D03*
X111075000Y-110175000D03*
X111575000Y-110175000D03*
X112075000Y-110175000D03*
X112575000Y-110175000D03*
X113075000Y-110175000D03*
X113575000Y-110175000D03*
X114075000Y-110175000D03*
X114575000Y-110175000D03*
X115075000Y-110175000D03*
D29*
X117000000Y-108250000D03*
X117000000Y-107750000D03*
X117000000Y-107250000D03*
X117000000Y-106750000D03*
X117000000Y-106250000D03*
X117000000Y-105750000D03*
X117000000Y-105250000D03*
X117000000Y-104750000D03*
X117000000Y-104250000D03*
X117000000Y-103750000D03*
X117000000Y-103250000D03*
X117000000Y-102750000D03*
X117000000Y-102250000D03*
X117000000Y-101750000D03*
X117000000Y-101250000D03*
X117000000Y-100750000D03*
D30*
X115075000Y-98825000D03*
X114575000Y-98825000D03*
X114075000Y-98825000D03*
X113575000Y-98825000D03*
X113075000Y-98825000D03*
X112575000Y-98825000D03*
X112075000Y-98825000D03*
X111575000Y-98825000D03*
X111075000Y-98825000D03*
X110575000Y-98825000D03*
X110075000Y-98825000D03*
X109575000Y-98825000D03*
X109075000Y-98825000D03*
X108575000Y-98825000D03*
X108075000Y-98825000D03*
X107575000Y-98825000D03*
%TD*%
D23*
%TO.C,C19*%
X110315638Y-125100000D03*
X108765638Y-125100000D03*
%TD*%
D31*
%TO.C,D2*%
X128500000Y-115650000D03*
X126925000Y-115650000D03*
%TD*%
D32*
%TO.C,C11*%
X103200000Y-111762500D03*
X104750000Y-111762500D03*
%TD*%
D33*
%TO.C,J10*%
X127900000Y-92650000D03*
X127250000Y-92650000D03*
X126600000Y-92650000D03*
X125950000Y-92650000D03*
X125300000Y-92650000D03*
D34*
X127600000Y-89950000D03*
X125600000Y-89950000D03*
%TD*%
D19*
%TO.C,C27*%
X106595000Y-118550000D03*
X107555000Y-118550000D03*
%TD*%
D22*
%TO.C,R6*%
X110050000Y-96825000D03*
X110050000Y-95175000D03*
%TD*%
D35*
%TO.C,C23*%
X132800000Y-107550000D03*
X132800000Y-109450000D03*
%TD*%
D36*
%TO.C,U7*%
X127850000Y-95762500D03*
X126900000Y-95762500D03*
X125950000Y-95762500D03*
X125950000Y-98037500D03*
X126900000Y-98037500D03*
X127850000Y-98037500D03*
%TD*%
D37*
%TO.C,C21*%
X118800000Y-116272500D03*
X118800000Y-117822500D03*
%TD*%
D19*
%TO.C,C25*%
X141740000Y-97650000D03*
X142700000Y-97650000D03*
%TD*%
D28*
%TO.C,R12*%
X123575000Y-118000000D03*
X121925000Y-118000000D03*
%TD*%
D19*
%TO.C,C9*%
X107270000Y-97200000D03*
X108230000Y-97200000D03*
%TD*%
D27*
%TO.C,R18*%
X122560000Y-102900000D03*
X121540000Y-102900000D03*
%TD*%
D19*
%TO.C,C8*%
X115870000Y-111750000D03*
X116830000Y-111750000D03*
%TD*%
D38*
%TO.C,C4*%
X108730000Y-111750000D03*
X107770000Y-111750000D03*
%TD*%
D39*
%TO.C,U5*%
X129950000Y-110800000D03*
X129950000Y-108500000D03*
D40*
X123650000Y-108500000D03*
D39*
X129950000Y-106200000D03*
%TD*%
D41*
%TO.C,FB2*%
X130300000Y-99262500D03*
X130300000Y-100837500D03*
%TD*%
D42*
%TO.C,Y1*%
X99900000Y-102550000D03*
X97700000Y-102550000D03*
X97700000Y-104250000D03*
X99900000Y-104250000D03*
%TD*%
D32*
%TO.C,C2*%
X114725000Y-113170000D03*
X116275000Y-113170000D03*
%TD*%
D43*
%TO.C,FB1*%
X101425000Y-111262500D03*
X101425000Y-109687500D03*
%TD*%
D13*
%TO.C,R11*%
X130325000Y-115700000D03*
X131975000Y-115700000D03*
%TD*%
D21*
%TO.C,C28*%
X106960000Y-121530000D03*
X106960000Y-120570000D03*
%TD*%
D32*
%TO.C,C15*%
X103225000Y-109512500D03*
X104775000Y-109512500D03*
%TD*%
D19*
%TO.C,C26*%
X131700000Y-99250000D03*
X132660000Y-99250000D03*
%TD*%
D44*
%TO.C,U9*%
X98012500Y-120895000D03*
X98012500Y-122165000D03*
X98012500Y-123435000D03*
X98012500Y-124705000D03*
X105187500Y-124705000D03*
X105187500Y-123435000D03*
X105187500Y-122165000D03*
X105187500Y-120895000D03*
%TD*%
D45*
%TO.C,D1*%
X103387500Y-95325000D03*
X104962500Y-95325000D03*
%TD*%
M02*
