%TF.GenerationSoftware,KiCad,Pcbnew,9.0.6*%
%TF.CreationDate,2026-03-28T21:07:54-04:00*%
%TF.ProjectId,InvictusDES_V2,496e7669-6374-4757-9344-45535f56322e,rev?*%
%TF.SameCoordinates,Original*%
%TF.FileFunction,Copper,L1,Top*%
%TF.FilePolarity,Positive*%
%FSLAX46Y46*%
G04 Gerber Fmt 4.6, Leading zero omitted, Abs format (unit mm)*
G04 Created by KiCad (PCBNEW 9.0.6) date 2026-03-28 21:07:54*
%MOMM*%
%LPD*%
G01*
G04 APERTURE LIST*
G04 Aperture macros list*
%AMRoundRect*
0 Rectangle with rounded corners*
0 $1 Rounding radius*
0 $2 $3 $4 $5 $6 $7 $8 $9 X,Y pos of 4 corners*
0 Add a 4 corners polygon primitive as box body*
4,1,4,$2,$3,$4,$5,$6,$7,$8,$9,$2,$3,0*
0 Add four circle primitives for the rounded corners*
1,1,$1+$1,$2,$3*
1,1,$1+$1,$4,$5*
1,1,$1+$1,$6,$7*
1,1,$1+$1,$8,$9*
0 Add four rect primitives between the rounded corners*
20,1,$1+$1,$2,$3,$4,$5,0*
20,1,$1+$1,$4,$5,$6,$7,0*
20,1,$1+$1,$6,$7,$8,$9,0*
20,1,$1+$1,$8,$9,$2,$3,0*%
G04 Aperture macros list end*
%TA.AperFunction,SMDPad,CuDef*%
%ADD10RoundRect,0.150000X0.150000X0.625000X-0.150000X0.625000X-0.150000X-0.625000X0.150000X-0.625000X0*%
%TD*%
%TA.AperFunction,SMDPad,CuDef*%
%ADD11RoundRect,0.250000X0.350000X0.650000X-0.350000X0.650000X-0.350000X-0.650000X0.350000X-0.650000X0*%
%TD*%
%TA.AperFunction,SMDPad,CuDef*%
%ADD12RoundRect,0.200000X-0.200000X-0.275000X0.200000X-0.275000X0.200000X0.275000X-0.200000X0.275000X0*%
%TD*%
%TA.AperFunction,SMDPad,CuDef*%
%ADD13RoundRect,0.150000X-0.150000X-0.625000X0.150000X-0.625000X0.150000X0.625000X-0.150000X0.625000X0*%
%TD*%
%TA.AperFunction,SMDPad,CuDef*%
%ADD14RoundRect,0.250000X-0.350000X-0.650000X0.350000X-0.650000X0.350000X0.650000X-0.350000X0.650000X0*%
%TD*%
%TA.AperFunction,SMDPad,CuDef*%
%ADD15R,0.304800X0.533400*%
%TD*%
%TA.AperFunction,SMDPad,CuDef*%
%ADD16R,0.533400X0.304800*%
%TD*%
%TA.AperFunction,SMDPad,CuDef*%
%ADD17RoundRect,0.225000X0.250000X-0.225000X0.250000X0.225000X-0.250000X0.225000X-0.250000X-0.225000X0*%
%TD*%
%TA.AperFunction,SMDPad,CuDef*%
%ADD18RoundRect,0.140000X-0.140000X-0.170000X0.140000X-0.170000X0.140000X0.170000X-0.140000X0.170000X0*%
%TD*%
%TA.AperFunction,SMDPad,CuDef*%
%ADD19RoundRect,0.140000X-0.170000X0.140000X-0.170000X-0.140000X0.170000X-0.140000X0.170000X0.140000X0*%
%TD*%
%TA.AperFunction,SMDPad,CuDef*%
%ADD20RoundRect,0.140000X0.170000X-0.140000X0.170000X0.140000X-0.170000X0.140000X-0.170000X-0.140000X0*%
%TD*%
%TA.AperFunction,SMDPad,CuDef*%
%ADD21RoundRect,0.200000X0.275000X-0.200000X0.275000X0.200000X-0.275000X0.200000X-0.275000X-0.200000X0*%
%TD*%
%TA.AperFunction,SMDPad,CuDef*%
%ADD22RoundRect,0.225000X0.225000X0.250000X-0.225000X0.250000X-0.225000X-0.250000X0.225000X-0.250000X0*%
%TD*%
%TA.AperFunction,SMDPad,CuDef*%
%ADD23RoundRect,0.250000X-0.250000X-0.475000X0.250000X-0.475000X0.250000X0.475000X-0.250000X0.475000X0*%
%TD*%
%TA.AperFunction,SMDPad,CuDef*%
%ADD24R,0.300000X0.450000*%
%TD*%
%TA.AperFunction,SMDPad,CuDef*%
%ADD25R,0.450000X0.300000*%
%TD*%
%TA.AperFunction,SMDPad,CuDef*%
%ADD26RoundRect,0.135000X0.135000X0.185000X-0.135000X0.185000X-0.135000X-0.185000X0.135000X-0.185000X0*%
%TD*%
%TA.AperFunction,SMDPad,CuDef*%
%ADD27RoundRect,0.200000X0.200000X0.275000X-0.200000X0.275000X-0.200000X-0.275000X0.200000X-0.275000X0*%
%TD*%
%TA.AperFunction,SMDPad,CuDef*%
%ADD28RoundRect,0.075000X-0.700000X-0.075000X0.700000X-0.075000X0.700000X0.075000X-0.700000X0.075000X0*%
%TD*%
%TA.AperFunction,SMDPad,CuDef*%
%ADD29RoundRect,0.075000X-0.075000X-0.700000X0.075000X-0.700000X0.075000X0.700000X-0.075000X0.700000X0*%
%TD*%
%TA.AperFunction,SMDPad,CuDef*%
%ADD30R,0.350000X0.350000*%
%TD*%
%TA.AperFunction,ComponentPad*%
%ADD31RoundRect,0.250000X-1.050000X-1.050000X1.050000X-1.050000X1.050000X1.050000X-1.050000X1.050000X0*%
%TD*%
%TA.AperFunction,ComponentPad*%
%ADD32C,2.600000*%
%TD*%
%TA.AperFunction,ComponentPad*%
%ADD33R,1.000000X1.000000*%
%TD*%
%TA.AperFunction,ComponentPad*%
%ADD34C,1.000000*%
%TD*%
%TA.AperFunction,SMDPad,CuDef*%
%ADD35RoundRect,0.218750X0.218750X0.256250X-0.218750X0.256250X-0.218750X-0.256250X0.218750X-0.256250X0*%
%TD*%
%TA.AperFunction,SMDPad,CuDef*%
%ADD36RoundRect,0.225000X-0.225000X-0.250000X0.225000X-0.250000X0.225000X0.250000X-0.225000X0.250000X0*%
%TD*%
%TA.AperFunction,SMDPad,CuDef*%
%ADD37R,0.400000X1.350000*%
%TD*%
%TA.AperFunction,HeatsinkPad*%
%ADD38O,1.200000X1.900000*%
%TD*%
%TA.AperFunction,SMDPad,CuDef*%
%ADD39R,1.200000X1.900000*%
%TD*%
%TA.AperFunction,HeatsinkPad*%
%ADD40C,1.450000*%
%TD*%
%TA.AperFunction,SMDPad,CuDef*%
%ADD41R,1.500000X1.900000*%
%TD*%
%TA.AperFunction,SMDPad,CuDef*%
%ADD42RoundRect,0.250000X-0.475000X0.250000X-0.475000X-0.250000X0.475000X-0.250000X0.475000X0.250000X0*%
%TD*%
%TA.AperFunction,SMDPad,CuDef*%
%ADD43RoundRect,0.150000X-0.150000X0.512500X-0.150000X-0.512500X0.150000X-0.512500X0.150000X0.512500X0*%
%TD*%
%TA.AperFunction,SMDPad,CuDef*%
%ADD44RoundRect,0.225000X-0.250000X0.225000X-0.250000X-0.225000X0.250000X-0.225000X0.250000X0.225000X0*%
%TD*%
%TA.AperFunction,SMDPad,CuDef*%
%ADD45RoundRect,0.140000X0.140000X0.170000X-0.140000X0.170000X-0.140000X-0.170000X0.140000X-0.170000X0*%
%TD*%
%TA.AperFunction,SMDPad,CuDef*%
%ADD46RoundRect,0.375000X0.625000X0.375000X-0.625000X0.375000X-0.625000X-0.375000X0.625000X-0.375000X0*%
%TD*%
%TA.AperFunction,SMDPad,CuDef*%
%ADD47RoundRect,0.500000X0.500000X1.400000X-0.500000X1.400000X-0.500000X-1.400000X0.500000X-1.400000X0*%
%TD*%
%TA.AperFunction,SMDPad,CuDef*%
%ADD48RoundRect,0.218750X-0.256250X0.218750X-0.256250X-0.218750X0.256250X-0.218750X0.256250X0.218750X0*%
%TD*%
%TA.AperFunction,SMDPad,CuDef*%
%ADD49RoundRect,0.250000X0.450000X0.350000X-0.450000X0.350000X-0.450000X-0.350000X0.450000X-0.350000X0*%
%TD*%
%TA.AperFunction,SMDPad,CuDef*%
%ADD50RoundRect,0.218750X0.256250X-0.218750X0.256250X0.218750X-0.256250X0.218750X-0.256250X-0.218750X0*%
%TD*%
%TA.AperFunction,SMDPad,CuDef*%
%ADD51RoundRect,0.162500X-0.650000X-0.162500X0.650000X-0.162500X0.650000X0.162500X-0.650000X0.162500X0*%
%TD*%
%TA.AperFunction,SMDPad,CuDef*%
%ADD52RoundRect,0.218750X-0.218750X-0.256250X0.218750X-0.256250X0.218750X0.256250X-0.218750X0.256250X0*%
%TD*%
%TA.AperFunction,ViaPad*%
%ADD53C,0.600000*%
%TD*%
%TA.AperFunction,Conductor*%
%ADD54C,0.300000*%
%TD*%
%TA.AperFunction,Conductor*%
%ADD55C,0.254000*%
%TD*%
%TA.AperFunction,Conductor*%
%ADD56C,0.500000*%
%TD*%
%TA.AperFunction,Conductor*%
%ADD57C,0.250000*%
%TD*%
%TA.AperFunction,Conductor*%
%ADD58C,0.800000*%
%TD*%
%TA.AperFunction,Conductor*%
%ADD59C,0.200000*%
%TD*%
%TA.AperFunction,Conductor*%
%ADD60C,0.152000*%
%TD*%
%TA.AperFunction,Conductor*%
%ADD61C,0.750000*%
%TD*%
%TA.AperFunction,Conductor*%
%ADD62C,0.150000*%
%TD*%
G04 APERTURE END LIST*
D10*
%TO.P,J9,1,Pin_1*%
%TO.N,+3V3*%
X122475000Y-123625000D03*
%TO.P,J9,2,Pin_2*%
%TO.N,GND*%
X121475000Y-123625000D03*
%TO.P,J9,3,Pin_3*%
%TO.N,I2C2_SCL*%
X120475000Y-123625000D03*
%TO.P,J9,4,Pin_4*%
%TO.N,I2C2_SDA*%
X119475000Y-123625000D03*
D11*
%TO.P,J9,MP*%
%TO.N,N/C*%
X123775000Y-126150000D03*
X118175000Y-126150000D03*
%TD*%
D12*
%TO.P,R13,2*%
%TO.N,+3V3*%
X114100000Y-92700000D03*
%TO.P,R13,1*%
%TO.N,Net-(J11-Pin_6)*%
X112450000Y-92700000D03*
%TD*%
D13*
%TO.P,J3,1,Pin_1*%
%TO.N,SERVO_1*%
X137850000Y-91450000D03*
%TO.P,J3,2,Pin_2*%
%TO.N,SERVO_2*%
X138850000Y-91450000D03*
%TO.P,J3,3,Pin_3*%
%TO.N,SERVO_3*%
X139850000Y-91450000D03*
%TO.P,J3,4,Pin_4*%
%TO.N,SERVO_4*%
X140850000Y-91450000D03*
%TO.P,J3,5,Pin_5*%
%TO.N,SERVO_5*%
X141850000Y-91450000D03*
%TO.P,J3,6,Pin_6*%
%TO.N,SERVO_6*%
X142850000Y-91450000D03*
D14*
%TO.P,J3,MP*%
%TO.N,N/C*%
X136550000Y-88925000D03*
X144150000Y-88925000D03*
%TD*%
D13*
%TO.P,J11,1,Pin_1*%
%TO.N,+3V3*%
X105700000Y-91450000D03*
%TO.P,J11,2,Pin_2*%
%TO.N,GND*%
X106700000Y-91450000D03*
%TO.P,J11,3,Pin_3*%
%TO.N,USART3_RX*%
X107700000Y-91450000D03*
%TO.P,J11,4,Pin_4*%
%TO.N,USART3_TX*%
X108700000Y-91450000D03*
%TO.P,J11,5,Pin_5*%
%TO.N,TIM2_CH1*%
X109700000Y-91450000D03*
%TO.P,J11,6,Pin_6*%
%TO.N,Net-(J11-Pin_6)*%
X110700000Y-91450000D03*
D14*
%TO.P,J11,MP*%
%TO.N,N/C*%
X104400000Y-88925000D03*
X112000000Y-88925000D03*
%TD*%
D15*
%TO.P,U6,1,SDO/SA0*%
%TO.N,SPI1_MISO*%
X114249999Y-119128600D03*
%TO.P,U6,2,SDX/AH1/QVAR1*%
%TO.N,GND*%
X114750000Y-119128600D03*
%TO.P,U6,3,SCX/AH2/QVAR2*%
X115250000Y-119128600D03*
%TO.P,U6,4,INT1*%
%TO.N,unconnected-(U6-INT1-Pad4)*%
X115750001Y-119128600D03*
D16*
%TO.P,U6,5,VDD_IO*%
%TO.N,+3V3*%
X115927100Y-118447499D03*
%TO.P,U6,6,GND*%
%TO.N,GND*%
X115927100Y-117947500D03*
%TO.P,U6,7,GND*%
X115927100Y-117447501D03*
D15*
%TO.P,U6,8,VDD*%
%TO.N,+3V3*%
X115750001Y-116766400D03*
%TO.P,U6,9,INT2*%
%TO.N,unconnected-(U6-INT2-Pad9)*%
X115250000Y-116766400D03*
%TO.P,U6,10,OCS_AUX*%
%TO.N,unconnected-(U6-OCS_AUX-Pad10)*%
X114750000Y-116766400D03*
%TO.P,U6,11,SDO_AUX*%
%TO.N,unconnected-(U6-SDO_AUX-Pad11)*%
X114249999Y-116766400D03*
D16*
%TO.P,U6,12,CS*%
%TO.N,IMU_CS*%
X114072900Y-117447501D03*
%TO.P,U6,13,SCL*%
%TO.N,SPI1_SCK*%
X114072900Y-117947500D03*
%TO.P,U6,14,SDA*%
%TO.N,SPI1_MOSI*%
X114072900Y-118447499D03*
%TD*%
D17*
%TO.P,C6,1*%
%TO.N,Net-(U2-VCAP_2)*%
X119862500Y-101250000D03*
%TO.P,C6,2*%
%TO.N,GND*%
X119862500Y-99700000D03*
%TD*%
D18*
%TO.P,C22,1*%
%TO.N,+3V3*%
X117240000Y-119097500D03*
%TO.P,C22,2*%
%TO.N,GND*%
X118200000Y-119097500D03*
%TD*%
D19*
%TO.P,C18,1*%
%TO.N,+3V3*%
X117300000Y-116317500D03*
%TO.P,C18,2*%
%TO.N,GND*%
X117300000Y-117277500D03*
%TD*%
D20*
%TO.P,C12,1*%
%TO.N,+3V3A*%
X103900000Y-107230000D03*
%TO.P,C12,2*%
%TO.N,GND*%
X103900000Y-106270000D03*
%TD*%
D21*
%TO.P,R16,1*%
%TO.N,USB_D+*%
X124100000Y-99425000D03*
%TO.P,R16,2*%
%TO.N,+3V3*%
X124100000Y-97775000D03*
%TD*%
D22*
%TO.P,C14,1*%
%TO.N,HSE_IN*%
X99900000Y-100650000D03*
%TO.P,C14,2*%
%TO.N,GND*%
X98350000Y-100650000D03*
%TD*%
D20*
%TO.P,C10,1*%
%TO.N,+3V3*%
X103975000Y-100730000D03*
%TO.P,C10,2*%
%TO.N,GND*%
X103975000Y-99770000D03*
%TD*%
D22*
%TO.P,C17,1*%
%TO.N,Net-(C17-Pad1)*%
X97725000Y-106250000D03*
%TO.P,C17,2*%
%TO.N,GND*%
X96175000Y-106250000D03*
%TD*%
D18*
%TO.P,C29,1*%
%TO.N,VUSB*%
X131690000Y-100900000D03*
%TO.P,C29,2*%
%TO.N,GND*%
X132650000Y-100900000D03*
%TD*%
D17*
%TO.P,C1,1*%
%TO.N,+3V3*%
X102550000Y-100775000D03*
%TO.P,C1,2*%
%TO.N,GND*%
X102550000Y-99225000D03*
%TD*%
D23*
%TO.P,C24,1*%
%TO.N,+3V3*%
X126350000Y-113400000D03*
%TO.P,C24,2*%
%TO.N,GND*%
X128250000Y-113400000D03*
%TD*%
D24*
%TO.P,U4,1,SCL/SPI_SCK*%
%TO.N,SPI1_SCK*%
X111340638Y-121325000D03*
%TO.P,U4,2,VDD*%
%TO.N,+3V3*%
X110840638Y-121325000D03*
%TO.P,U4,3,NC*%
%TO.N,unconnected-(U4-NC-Pad3)*%
X110340638Y-121325000D03*
%TO.P,U4,4,~{SPI_CS}*%
%TO.N,MAG_CS*%
X109840638Y-121325000D03*
D25*
%TO.P,U4,5,SPI_SDO*%
%TO.N,SPI1_MISO*%
X109315638Y-121850000D03*
%TO.P,U4,6,NC*%
%TO.N,unconnected-(U4-NC-Pad6)*%
X109315638Y-122350000D03*
%TO.P,U4,7,NC*%
%TO.N,unconnected-(U4-NC-Pad7)*%
X109315638Y-122850000D03*
%TO.P,U4,8,NC*%
%TO.N,unconnected-(U4-NC-Pad8)*%
X109315638Y-123350000D03*
D24*
%TO.P,U4,9,GND*%
%TO.N,GND*%
X109840638Y-123875000D03*
%TO.P,U4,10,CAP*%
%TO.N,Net-(U4-CAP)*%
X110340638Y-123875000D03*
%TO.P,U4,11,GND*%
%TO.N,GND*%
X110840638Y-123875000D03*
%TO.P,U4,12,NC*%
%TO.N,unconnected-(U4-NC-Pad12)*%
X111340638Y-123875000D03*
D25*
%TO.P,U4,13,VDDIO*%
%TO.N,+3V3*%
X111865638Y-123350000D03*
%TO.P,U4,14,NC*%
%TO.N,unconnected-(U4-NC-Pad14)*%
X111865638Y-122850000D03*
%TO.P,U4,15,INT*%
%TO.N,unconnected-(U4-INT-Pad15)*%
X111865638Y-122350000D03*
%TO.P,U4,16,SDA/SPI_SDI*%
%TO.N,SPI1_MOSI*%
X111865638Y-121850000D03*
%TD*%
D26*
%TO.P,R17,1*%
%TO.N,USB_D+*%
X123160000Y-101750000D03*
%TO.P,R17,2*%
%TO.N,Net-(U2-PA12)*%
X122140000Y-101750000D03*
%TD*%
D12*
%TO.P,R2,1*%
%TO.N,GND*%
X99950000Y-95375000D03*
%TO.P,R2,2*%
%TO.N,Net-(D1-K)*%
X101600000Y-95375000D03*
%TD*%
D20*
%TO.P,C7,1*%
%TO.N,+3V3*%
X117800000Y-99180000D03*
%TO.P,C7,2*%
%TO.N,GND*%
X117800000Y-98220000D03*
%TD*%
D27*
%TO.P,R7,1*%
%TO.N,HSE_OUT*%
X101275000Y-106250000D03*
%TO.P,R7,2*%
%TO.N,Net-(C17-Pad1)*%
X99625000Y-106250000D03*
%TD*%
D28*
%TO.P,U2,1,VBAT*%
%TO.N,+3V3*%
X105650000Y-100750000D03*
%TO.P,U2,2,PC13*%
%TO.N,unconnected-(U2-PC13-Pad2)*%
X105650000Y-101250000D03*
%TO.P,U2,3,PC14*%
%TO.N,unconnected-(U2-PC14-Pad3)*%
X105650000Y-101750000D03*
%TO.P,U2,4,PC15*%
%TO.N,unconnected-(U2-PC15-Pad4)*%
X105650000Y-102250000D03*
%TO.P,U2,5,PH0*%
%TO.N,HSE_IN*%
X105650000Y-102750000D03*
%TO.P,U2,6,PH1*%
%TO.N,HSE_OUT*%
X105650000Y-103250000D03*
%TO.P,U2,7,NRST*%
%TO.N,NRST*%
X105650000Y-103750000D03*
%TO.P,U2,8,PC0*%
%TO.N,unconnected-(U2-PC0-Pad8)*%
X105650000Y-104250000D03*
%TO.P,U2,9,PC1*%
%TO.N,VOLTAGE_DIVIDER*%
X105650000Y-104750000D03*
%TO.P,U2,10,PC2*%
%TO.N,unconnected-(U2-PC2-Pad10)*%
X105650000Y-105250000D03*
%TO.P,U2,11,PC3*%
%TO.N,unconnected-(U2-PC3-Pad11)*%
X105650000Y-105750000D03*
%TO.P,U2,12,VSSA*%
%TO.N,GND*%
X105650000Y-106250000D03*
%TO.P,U2,13,VDDA*%
%TO.N,+3V3A*%
X105650000Y-106750000D03*
%TO.P,U2,14,PA0*%
%TO.N,unconnected-(U2-PA0-Pad14)*%
X105650000Y-107250000D03*
%TO.P,U2,15,PA1*%
%TO.N,FLASH_CS*%
X105650000Y-107750000D03*
%TO.P,U2,16,PA2*%
%TO.N,unconnected-(U2-PA2-Pad16)*%
X105650000Y-108250000D03*
D29*
%TO.P,U2,17,PA3*%
%TO.N,unconnected-(U2-PA3-Pad17)*%
X107575000Y-110175000D03*
%TO.P,U2,18,VSS*%
%TO.N,GND*%
X108075000Y-110175000D03*
%TO.P,U2,19,VDD*%
%TO.N,+3V3*%
X108575000Y-110175000D03*
%TO.P,U2,20,PA4*%
%TO.N,unconnected-(U2-PA4-Pad20)*%
X109075000Y-110175000D03*
%TO.P,U2,21,PA5*%
%TO.N,SPI1_SCK*%
X109575000Y-110175000D03*
%TO.P,U2,22,PA6*%
%TO.N,SPI1_MISO*%
X110075000Y-110175000D03*
%TO.P,U2,23,PA7*%
%TO.N,SPI1_MOSI*%
X110575000Y-110175000D03*
%TO.P,U2,24,PC4*%
%TO.N,IMU_CS*%
X111075000Y-110175000D03*
%TO.P,U2,25,PC5*%
%TO.N,BARO_CS*%
X111575000Y-110175000D03*
%TO.P,U2,26,PB0*%
%TO.N,unconnected-(U2-PB0-Pad26)*%
X112075000Y-110175000D03*
%TO.P,U2,27,PB1*%
%TO.N,unconnected-(U2-PB1-Pad27)*%
X112575000Y-110175000D03*
%TO.P,U2,28,PB2*%
%TO.N,unconnected-(U2-PB2-Pad28)*%
X113075000Y-110175000D03*
%TO.P,U2,29,PB10*%
%TO.N,I2C2_SCL*%
X113575000Y-110175000D03*
%TO.P,U2,30,PB11*%
%TO.N,I2C2_SDA*%
X114075000Y-110175000D03*
%TO.P,U2,31,VCAP_1*%
%TO.N,Net-(U2-VCAP_1)*%
X114575000Y-110175000D03*
%TO.P,U2,32,VDD*%
%TO.N,+3V3*%
X115075000Y-110175000D03*
D28*
%TO.P,U2,33,PB12*%
%TO.N,SD_CS*%
X117000000Y-108250000D03*
%TO.P,U2,34,PB13*%
%TO.N,SPI2_SCK*%
X117000000Y-107750000D03*
%TO.P,U2,35,PB14*%
%TO.N,SPI2_MISO*%
X117000000Y-107250000D03*
%TO.P,U2,36,PB15*%
%TO.N,SPI2_MOSI*%
X117000000Y-106750000D03*
%TO.P,U2,37,PC6*%
%TO.N,MAG_CS*%
X117000000Y-106250000D03*
%TO.P,U2,38,PC7*%
%TO.N,SERVO_6*%
X117000000Y-105750000D03*
%TO.P,U2,39,PC8*%
%TO.N,SERVO_5*%
X117000000Y-105250000D03*
%TO.P,U2,40,PC9*%
%TO.N,SERVO_4*%
X117000000Y-104750000D03*
%TO.P,U2,41,PA8*%
%TO.N,SERVO_3*%
X117000000Y-104250000D03*
%TO.P,U2,42,PA9*%
%TO.N,SERVO_2*%
X117000000Y-103750000D03*
%TO.P,U2,43,PA10*%
%TO.N,SERVO_1*%
X117000000Y-103250000D03*
%TO.P,U2,44,PA11*%
%TO.N,Net-(U2-PA11)*%
X117000000Y-102750000D03*
%TO.P,U2,45,PA12*%
%TO.N,Net-(U2-PA12)*%
X117000000Y-102250000D03*
%TO.P,U2,46,PA13*%
%TO.N,SWDIO*%
X117000000Y-101750000D03*
%TO.P,U2,47,VCAP_2*%
%TO.N,Net-(U2-VCAP_2)*%
X117000000Y-101250000D03*
%TO.P,U2,48,VDD*%
%TO.N,+3V3*%
X117000000Y-100750000D03*
D29*
%TO.P,U2,49,PA14*%
%TO.N,SWCLK*%
X115075000Y-98825000D03*
%TO.P,U2,50,PA15*%
%TO.N,TIM2_CH1*%
X114575000Y-98825000D03*
%TO.P,U2,51,PC10*%
%TO.N,USART3_TX*%
X114075000Y-98825000D03*
%TO.P,U2,52,PC11*%
%TO.N,USART3_RX*%
X113575000Y-98825000D03*
%TO.P,U2,53,PC12*%
%TO.N,unconnected-(U2-PC12-Pad53)*%
X113075000Y-98825000D03*
%TO.P,U2,54,PD2*%
%TO.N,unconnected-(U2-PD2-Pad54)*%
X112575000Y-98825000D03*
%TO.P,U2,55,PB3*%
%TO.N,SWO*%
X112075000Y-98825000D03*
%TO.P,U2,56,PB4*%
%TO.N,BUZZER*%
X111575000Y-98825000D03*
%TO.P,U2,57,PB5*%
%TO.N,unconnected-(U2-PB5-Pad57)*%
X111075000Y-98825000D03*
%TO.P,U2,58,PB6*%
%TO.N,unconnected-(U2-PB6-Pad58)*%
X110575000Y-98825000D03*
%TO.P,U2,59,PB7*%
%TO.N,unconnected-(U2-PB7-Pad59)*%
X110075000Y-98825000D03*
%TO.P,U2,60,BOOT0*%
%TO.N,BOOT0*%
X109575000Y-98825000D03*
%TO.P,U2,61,PB8*%
%TO.N,LED_STATUS*%
X109075000Y-98825000D03*
%TO.P,U2,62,PB9*%
%TO.N,unconnected-(U2-PB9-Pad62)*%
X108575000Y-98825000D03*
%TO.P,U2,63,VSS*%
%TO.N,GND*%
X108075000Y-98825000D03*
%TO.P,U2,64,VDD*%
%TO.N,+3V3*%
X107575000Y-98825000D03*
%TD*%
D30*
%TO.P,U8,1,GND_1*%
%TO.N,GND*%
X106025000Y-115475000D03*
%TO.P,U8,2,CSB_N*%
%TO.N,BARO_CS*%
X106675000Y-115475000D03*
%TO.P,U8,3,SDI*%
%TO.N,SPI1_MOSI*%
X107325000Y-115475000D03*
%TO.P,U8,4,SCK*%
%TO.N,SPI1_SCK*%
X107975000Y-115475000D03*
%TO.P,U8,5,SDO*%
%TO.N,SPI1_MISO*%
X107975000Y-116925000D03*
%TO.P,U8,6,VDDIO*%
%TO.N,+3V3*%
X107325000Y-116925000D03*
%TO.P,U8,7,GND_2*%
%TO.N,GND*%
X106675000Y-116925000D03*
%TO.P,U8,8,VDD*%
%TO.N,+3V3*%
X106025000Y-116925000D03*
%TD*%
D22*
%TO.P,C19,1*%
%TO.N,Net-(U4-CAP)*%
X110315638Y-125100000D03*
%TO.P,C19,2*%
%TO.N,GND*%
X108765638Y-125100000D03*
%TD*%
D31*
%TO.P,J1,1,Pin_1*%
%TO.N,GND*%
X129450000Y-121817500D03*
D32*
%TO.P,J1,2,Pin_2*%
%TO.N,+VBAT*%
X134450000Y-121817500D03*
%TD*%
D33*
%TO.P,J2,1,Pin_1*%
%TO.N,+3V3*%
X118585000Y-94690000D03*
D34*
%TO.P,J2,2,Pin_2*%
%TO.N,SWDIO*%
X117315000Y-94690000D03*
%TO.P,J2,3,Pin_3*%
%TO.N,GND*%
X118585000Y-93420000D03*
%TO.P,J2,4,Pin_4*%
%TO.N,SWCLK*%
X117315000Y-93420000D03*
%TO.P,J2,5,Pin_5*%
%TO.N,GND*%
X118585000Y-92150000D03*
%TO.P,J2,6,Pin_6*%
%TO.N,SWO*%
X117315000Y-92150000D03*
%TO.P,J2,7,Pin_7*%
%TO.N,unconnected-(J2-Pin_7-Pad7)*%
X118585000Y-90880000D03*
%TO.P,J2,8,Pin_8*%
%TO.N,unconnected-(J2-Pin_8-Pad8)*%
X117315000Y-90880000D03*
%TO.P,J2,9,Pin_9*%
%TO.N,GND*%
X118585000Y-89610000D03*
%TO.P,J2,10,Pin_10*%
%TO.N,NRST*%
X117315000Y-89610000D03*
%TD*%
D35*
%TO.P,D2,1,K*%
%TO.N,Net-(D2-K)*%
X128500000Y-115650000D03*
%TO.P,D2,2,A*%
%TO.N,+3V3*%
X126925000Y-115650000D03*
%TD*%
D36*
%TO.P,C11,1*%
%TO.N,+3V3*%
X103200000Y-111762500D03*
%TO.P,C11,2*%
%TO.N,GND*%
X104750000Y-111762500D03*
%TD*%
D37*
%TO.P,J10,1,VBUS*%
%TO.N,VBUS*%
X127900000Y-92650000D03*
%TO.P,J10,2,D-*%
%TO.N,USB_CONN_D-*%
X127250000Y-92650000D03*
%TO.P,J10,3,D+*%
%TO.N,USB_CONN_D+*%
X126600000Y-92650000D03*
%TO.P,J10,4,ID*%
%TO.N,unconnected-(J10-ID-Pad4)*%
X125950000Y-92650000D03*
%TO.P,J10,5,GND*%
%TO.N,GND*%
X125300000Y-92650000D03*
D38*
%TO.P,J10,6,Shield*%
X130100000Y-89950000D03*
D39*
X129500000Y-89950000D03*
D40*
X129100000Y-92650000D03*
D41*
X127600000Y-89950000D03*
X125600000Y-89950000D03*
D40*
X124100000Y-92650000D03*
D39*
X123700000Y-89950000D03*
D38*
X123100000Y-89950000D03*
%TD*%
D18*
%TO.P,C27,1*%
%TO.N,+3V3*%
X106595000Y-118550000D03*
%TO.P,C27,2*%
%TO.N,GND*%
X107555000Y-118550000D03*
%TD*%
D21*
%TO.P,R6,1*%
%TO.N,BOOT0*%
X110050000Y-96825000D03*
%TO.P,R6,2*%
%TO.N,GND*%
X110050000Y-95175000D03*
%TD*%
D42*
%TO.P,C23,1*%
%TO.N,5V_MUX*%
X132800000Y-107550000D03*
%TO.P,C23,2*%
%TO.N,GND*%
X132800000Y-109450000D03*
%TD*%
D43*
%TO.P,U7,1,I/O1*%
%TO.N,USB_CONN_D-*%
X127850000Y-95762500D03*
%TO.P,U7,2,GND*%
%TO.N,GND*%
X126900000Y-95762500D03*
%TO.P,U7,3,I/O2*%
%TO.N,USB_CONN_D+*%
X125950000Y-95762500D03*
%TO.P,U7,4,I/O2*%
%TO.N,USB_D+*%
X125950000Y-98037500D03*
%TO.P,U7,5,VBUS*%
%TO.N,VBUS*%
X126900000Y-98037500D03*
%TO.P,U7,6,I/O1*%
%TO.N,USB_D-*%
X127850000Y-98037500D03*
%TD*%
D44*
%TO.P,C21,1*%
%TO.N,+3V3*%
X118800000Y-116272500D03*
%TO.P,C21,2*%
%TO.N,GND*%
X118800000Y-117822500D03*
%TD*%
D18*
%TO.P,C25,1*%
%TO.N,+3V3*%
X141740000Y-97650000D03*
%TO.P,C25,2*%
%TO.N,GND*%
X142700000Y-97650000D03*
%TD*%
D27*
%TO.P,R12,1*%
%TO.N,+3V3*%
X123575000Y-118000000D03*
%TO.P,R12,2*%
%TO.N,I2C2_SCL*%
X121925000Y-118000000D03*
%TD*%
D18*
%TO.P,C9,1*%
%TO.N,+3V3*%
X107270000Y-97200000D03*
%TO.P,C9,2*%
%TO.N,GND*%
X108230000Y-97200000D03*
%TD*%
D26*
%TO.P,R18,1*%
%TO.N,USB_D-*%
X122560000Y-102900000D03*
%TO.P,R18,2*%
%TO.N,Net-(U2-PA11)*%
X121540000Y-102900000D03*
%TD*%
D18*
%TO.P,C8,1*%
%TO.N,+3V3*%
X115870000Y-111750000D03*
%TO.P,C8,2*%
%TO.N,GND*%
X116830000Y-111750000D03*
%TD*%
D45*
%TO.P,C4,1*%
%TO.N,+3V3*%
X108730000Y-111750000D03*
%TO.P,C4,2*%
%TO.N,GND*%
X107770000Y-111750000D03*
%TD*%
D46*
%TO.P,U5,1,GND*%
%TO.N,GND*%
X129950000Y-110800000D03*
%TO.P,U5,2,VO*%
%TO.N,+3V3*%
X129950000Y-108500000D03*
D47*
X123650000Y-108500000D03*
D46*
%TO.P,U5,3,VI*%
%TO.N,5V_MUX*%
X129950000Y-106200000D03*
%TD*%
D48*
%TO.P,FB2,1*%
%TO.N,VBUS*%
X130300000Y-99262500D03*
%TO.P,FB2,2*%
%TO.N,VUSB*%
X130300000Y-100837500D03*
%TD*%
D49*
%TO.P,Y1,1,1*%
%TO.N,HSE_IN*%
X99900000Y-102550000D03*
%TO.P,Y1,2,2*%
%TO.N,GND*%
X97700000Y-102550000D03*
%TO.P,Y1,3,3*%
%TO.N,Net-(C17-Pad1)*%
X97700000Y-104250000D03*
%TO.P,Y1,4,4*%
%TO.N,GND*%
X99900000Y-104250000D03*
%TD*%
D36*
%TO.P,C2,1*%
%TO.N,Net-(U2-VCAP_1)*%
X114725000Y-113170000D03*
%TO.P,C2,2*%
%TO.N,GND*%
X116275000Y-113170000D03*
%TD*%
D50*
%TO.P,FB1,1*%
%TO.N,+3V3*%
X101425000Y-111262500D03*
%TO.P,FB1,2*%
%TO.N,+3V3A*%
X101425000Y-109687500D03*
%TD*%
D12*
%TO.P,R11,1*%
%TO.N,Net-(D2-K)*%
X130325000Y-115700000D03*
%TO.P,R11,2*%
%TO.N,GND*%
X131975000Y-115700000D03*
%TD*%
D20*
%TO.P,C28,1*%
%TO.N,+3V3*%
X106960000Y-121530000D03*
%TO.P,C28,2*%
%TO.N,GND*%
X106960000Y-120570000D03*
%TD*%
D36*
%TO.P,C15,1*%
%TO.N,+3V3A*%
X103225000Y-109512500D03*
%TO.P,C15,2*%
%TO.N,GND*%
X104775000Y-109512500D03*
%TD*%
D18*
%TO.P,C26,1*%
%TO.N,VBUS*%
X131700000Y-99250000D03*
%TO.P,C26,2*%
%TO.N,GND*%
X132660000Y-99250000D03*
%TD*%
D51*
%TO.P,U9,1,~{CS}*%
%TO.N,FLASH_CS*%
X98012500Y-120895000D03*
%TO.P,U9,2,DO/IO_{1}*%
%TO.N,SPI1_MISO*%
X98012500Y-122165000D03*
%TO.P,U9,3,~{WP}/IO_{2}*%
%TO.N,+3V3*%
X98012500Y-123435000D03*
%TO.P,U9,4,GND*%
%TO.N,GND*%
X98012500Y-124705000D03*
%TO.P,U9,5,DI/IO_{0}*%
%TO.N,SPI1_MOSI*%
X105187500Y-124705000D03*
%TO.P,U9,6,CLK*%
%TO.N,SPI1_SCK*%
X105187500Y-123435000D03*
%TO.P,U9,7,~{HOLD}/~{RESET}/IO_{3}*%
%TO.N,+3V3*%
X105187500Y-122165000D03*
%TO.P,U9,8,VCC*%
X105187500Y-120895000D03*
%TD*%
D52*
%TO.P,D1,1,K*%
%TO.N,Net-(D1-K)*%
X103387500Y-95325000D03*
%TO.P,D1,2,A*%
%TO.N,LED_STATUS*%
X104962500Y-95325000D03*
%TD*%
D53*
%TO.N,SERVO_4*%
X140850000Y-93200000D03*
%TO.N,+3V3*%
X105700000Y-89775000D03*
%TO.N,USART3_RX*%
X107700000Y-89775000D03*
%TO.N,GND*%
X106700000Y-89775000D03*
%TO.N,USART3_TX*%
X108725000Y-89775000D03*
%TO.N,+3V3*%
X114100000Y-91475000D03*
%TO.N,BUZZER*%
X110800000Y-100450000D03*
%TO.N,GND*%
X104850000Y-115450000D03*
X135470000Y-115869999D03*
X134600000Y-117350000D03*
X131602498Y-111799995D03*
X143850000Y-97950000D03*
X103850000Y-104800000D03*
X101500000Y-99200000D03*
X121475000Y-125050000D03*
X117300000Y-113200000D03*
X108300000Y-118525000D03*
X117600000Y-111700000D03*
X117300000Y-118122500D03*
X133250000Y-110600000D03*
X111600000Y-125550000D03*
X138000000Y-110150000D03*
X110050000Y-94250000D03*
X128350000Y-110400000D03*
X108050000Y-100150000D03*
X97350000Y-100650000D03*
X101225000Y-104300000D03*
X125300000Y-94000000D03*
X129300000Y-113000000D03*
X96150000Y-107200000D03*
X126900000Y-94364500D03*
X132350000Y-110600000D03*
X142190000Y-103463125D03*
X129300000Y-113950000D03*
X118970000Y-119067500D03*
X105800000Y-111775000D03*
X132900000Y-115700000D03*
X118750000Y-98700000D03*
X96425000Y-102550000D03*
X99600000Y-124700000D03*
X107350000Y-106050000D03*
X107640638Y-125100000D03*
X114750000Y-120000000D03*
X106950000Y-119800000D03*
X105725000Y-110162500D03*
X137770000Y-109380000D03*
X119875000Y-117822500D03*
X108050000Y-108350000D03*
X98975000Y-95375000D03*
X132650000Y-98475000D03*
X137400000Y-105800000D03*
X136360000Y-93030000D03*
X128350000Y-111400000D03*
X139960000Y-115190000D03*
X134959415Y-104809415D03*
X107800000Y-122050000D03*
X103950000Y-99000000D03*
%TO.N,+3V3*%
X107250000Y-96400000D03*
X116950000Y-99150000D03*
X110547000Y-119503000D03*
X125450000Y-107050000D03*
X125450000Y-107950000D03*
X112650000Y-123350000D03*
X101550000Y-100800000D03*
X121850000Y-108850000D03*
X125450000Y-108850000D03*
X101600000Y-123400000D03*
X103200000Y-112800000D03*
X118850000Y-115300000D03*
X105700000Y-118560000D03*
X124100000Y-96770000D03*
X108730000Y-112600000D03*
X124550000Y-118000000D03*
X116675000Y-121125000D03*
X121850000Y-109750000D03*
X117270000Y-119897500D03*
X140300000Y-97650000D03*
X125450000Y-109750000D03*
X115850000Y-110920000D03*
X121850000Y-107950000D03*
X122475000Y-125075000D03*
X121850000Y-107050000D03*
%TO.N,5V_MUX*%
X134850000Y-107950000D03*
%TO.N,+VBAT*%
X133933333Y-119800000D03*
X138150000Y-114650000D03*
X137150000Y-114650000D03*
X135066667Y-119800000D03*
X131632501Y-118679998D03*
X132800000Y-119800000D03*
X136200000Y-119800000D03*
%TO.N,5V_REG*%
X134425000Y-111350000D03*
X135975000Y-110600000D03*
X135140001Y-109329998D03*
X135200000Y-111350000D03*
X135975000Y-111350000D03*
X134425000Y-110600000D03*
X139960000Y-108389998D03*
X135200000Y-110600000D03*
%TO.N,VUSB*%
X134150000Y-103450000D03*
%TO.N,USART3_RX*%
X112900000Y-96950000D03*
%TO.N,TIM2_CH1*%
X109700000Y-89775000D03*
X114275000Y-95675000D03*
%TO.N,USART3_TX*%
X113550000Y-96400000D03*
%TO.N,NRST*%
X107800000Y-103750000D03*
%TO.N,SERVO_2*%
X119284415Y-103634415D03*
X138830000Y-93200000D03*
%TO.N,SERVO_3*%
X139850000Y-93200000D03*
X120350000Y-103700000D03*
%TO.N,SERVO_6*%
X118750000Y-106100000D03*
X142850000Y-93200000D03*
%TO.N,SERVO_4*%
X120600000Y-104650000D03*
%TO.N,SERVO_5*%
X141870000Y-93200000D03*
X119850000Y-105450000D03*
%TO.N,I2C2_SDA*%
X116450000Y-110100000D03*
X119450000Y-125050000D03*
%TO.N,SERVO_1*%
X115550000Y-103200000D03*
X137850000Y-93200000D03*
%TO.N,SPI2_MOSI*%
X119350000Y-106730000D03*
%TO.N,SD_CS*%
X115200000Y-107150000D03*
%TO.N,SPI2_SCK*%
X119152000Y-108000000D03*
%TO.N,SPI2_MISO*%
X118450000Y-107400000D03*
%TO.N,SPI1_MOSI*%
X112900000Y-121850000D03*
X107800000Y-114450000D03*
X106650000Y-124705000D03*
X110700000Y-113900000D03*
%TO.N,SPI1_SCK*%
X106600000Y-123450000D03*
X109450000Y-114600000D03*
X111400000Y-115750000D03*
X111338638Y-120054577D03*
X111477354Y-118327354D03*
%TO.N,MAG_CS*%
X109875000Y-107600000D03*
X109850000Y-118700000D03*
%TO.N,SPI1_MISO*%
X112750000Y-119150000D03*
X109900000Y-115600000D03*
%TO.N,BARO_CS*%
X107450000Y-113300000D03*
X112505000Y-111800000D03*
%TO.N,FLASH_CS*%
X99329677Y-120879676D03*
X104312500Y-108137500D03*
%TO.N,Net-(U1-EN)*%
X138800000Y-111900000D03*
X132782501Y-114379998D03*
%TD*%
D54*
%TO.N,SERVO_6*%
X142850000Y-93200000D02*
X142850000Y-91450000D01*
%TO.N,SERVO_4*%
X140850000Y-93350000D02*
X140850000Y-91450000D01*
D55*
%TO.N,SERVO_5*%
X141870000Y-91470000D02*
X141850000Y-91450000D01*
X141870000Y-93200000D02*
X141870000Y-91470000D01*
D54*
%TO.N,SERVO_3*%
X139850000Y-93150000D02*
X139850000Y-91450000D01*
D55*
%TO.N,SERVO_2*%
X138830000Y-91470000D02*
X138850000Y-91450000D01*
X138830000Y-93200000D02*
X138830000Y-91470000D01*
%TO.N,SERVO_1*%
X137850000Y-93200000D02*
X137850000Y-91450000D01*
%TO.N,SERVO_4*%
X140900000Y-91500000D02*
X140850000Y-91450000D01*
D54*
%TO.N,+3V3*%
X105700000Y-91450000D02*
X105700000Y-89775000D01*
%TO.N,GND*%
X106700000Y-91450000D02*
X106700000Y-89775000D01*
%TO.N,USART3_RX*%
X107700000Y-91450000D02*
X107700000Y-89775000D01*
%TO.N,TIM2_CH1*%
X109700000Y-89775000D02*
X109700000Y-91450000D01*
%TO.N,USART3_TX*%
X108700000Y-89800000D02*
X108700000Y-91450000D01*
X108725000Y-89775000D02*
X108700000Y-89800000D01*
X108700000Y-91450000D02*
X108700000Y-90925000D01*
D56*
%TO.N,+3V3*%
X114100000Y-91475000D02*
X114100000Y-92700000D01*
X114125000Y-92675000D02*
X114100000Y-92700000D01*
D54*
%TO.N,GND*%
X107150000Y-106250000D02*
X105650000Y-106250000D01*
X107350000Y-106050000D02*
X107150000Y-106250000D01*
D56*
%TO.N,+3V3*%
X116950000Y-99150000D02*
X117770000Y-99150000D01*
D54*
%TO.N,BUZZER*%
X111575000Y-99675000D02*
X111575000Y-98825000D01*
X110800000Y-100450000D02*
X111575000Y-99675000D01*
%TO.N,GND*%
X117600000Y-111700000D02*
X117570000Y-111730000D01*
X108075000Y-97355000D02*
X108230000Y-97200000D01*
D56*
X119750000Y-99700000D02*
X118750000Y-98700000D01*
D54*
X108075000Y-111044361D02*
X107770000Y-111349361D01*
D56*
X143850000Y-97950000D02*
X143850000Y-97850000D01*
X101225000Y-104300000D02*
X99950000Y-104300000D01*
D54*
X115250000Y-119128600D02*
X114750000Y-119128600D01*
X106675000Y-116925000D02*
X106675000Y-116600000D01*
X125300000Y-94000000D02*
X125300000Y-92650000D01*
X108075000Y-98825000D02*
X108075000Y-97355000D01*
X110840638Y-124317940D02*
X110840638Y-123875000D01*
D56*
X132900000Y-115700000D02*
X131975000Y-115700000D01*
D54*
X118750000Y-98700000D02*
X118837500Y-98787500D01*
X117300000Y-117277500D02*
X117127500Y-117450000D01*
D56*
X102400000Y-99225000D02*
X102225000Y-99225000D01*
X96150000Y-107200000D02*
X96175000Y-107175000D01*
X107580000Y-118525000D02*
X107555000Y-118550000D01*
X132660000Y-99250000D02*
X132660000Y-100890000D01*
D54*
X117127500Y-117450000D02*
X115929599Y-117450000D01*
D57*
X119862500Y-99700000D02*
X119750000Y-99700000D01*
D54*
X106950000Y-120560000D02*
X106960000Y-120570000D01*
X109840638Y-123875000D02*
X109840638Y-124209362D01*
D56*
X105725000Y-110162500D02*
X105075000Y-109512500D01*
X105787500Y-111762500D02*
X105800000Y-111775000D01*
X103950000Y-99000000D02*
X103950000Y-99745000D01*
X99950000Y-104300000D02*
X99900000Y-104250000D01*
D54*
X115927100Y-117447501D02*
X115927100Y-117947500D01*
D56*
X98350000Y-100650000D02*
X97350000Y-100650000D01*
D54*
X109840638Y-123875000D02*
X109843638Y-123872000D01*
X108950000Y-125100000D02*
X108765638Y-125100000D01*
X111600000Y-125550000D02*
X111600000Y-125077302D01*
D56*
X102400000Y-99225000D02*
X102525000Y-99225000D01*
X143650000Y-97650000D02*
X142700000Y-97650000D01*
X118230000Y-119067500D02*
X118200000Y-119097500D01*
D54*
X117570000Y-111730000D02*
X116850000Y-111730000D01*
X103900000Y-106270000D02*
X103920000Y-106250000D01*
X115929599Y-117450000D02*
X115927100Y-117447501D01*
D56*
X108300000Y-118525000D02*
X107580000Y-118525000D01*
D54*
X114750000Y-120000000D02*
X114750000Y-119128600D01*
D56*
X118750000Y-98700000D02*
X118270000Y-98220000D01*
D58*
X127600000Y-89950000D02*
X129500000Y-89950000D01*
D54*
X108050000Y-108350000D02*
X108075000Y-108375000D01*
X108075000Y-100125000D02*
X108050000Y-100150000D01*
D56*
X116305000Y-113200000D02*
X116275000Y-113170000D01*
X134959415Y-104809415D02*
X135950000Y-105800000D01*
D58*
X125600000Y-89950000D02*
X127600000Y-89950000D01*
X123700000Y-89950000D02*
X125600000Y-89950000D01*
D56*
X104750000Y-111762500D02*
X105787500Y-111762500D01*
X98975000Y-95375000D02*
X99950000Y-95375000D01*
X126900000Y-94352000D02*
X126900000Y-95762500D01*
X119875000Y-117822500D02*
X118800000Y-117822500D01*
D59*
X116850000Y-111730000D02*
X116830000Y-111750000D01*
D56*
X103800000Y-99745000D02*
X103825000Y-99770000D01*
X116855000Y-111725000D02*
X116830000Y-111750000D01*
X118270000Y-98220000D02*
X117800000Y-98220000D01*
X97700000Y-102550000D02*
X96425000Y-102550000D01*
D54*
X105025000Y-115475000D02*
X106025000Y-115475000D01*
D56*
X118970000Y-119067500D02*
X118230000Y-119067500D01*
X107640638Y-125100000D02*
X108765638Y-125100000D01*
D54*
X106675000Y-116600000D02*
X106025000Y-115950000D01*
X108075000Y-110175000D02*
X108075000Y-111044361D01*
X103920000Y-106250000D02*
X105650000Y-106250000D01*
X108075000Y-98825000D02*
X108075000Y-100125000D01*
D56*
X132650000Y-99240000D02*
X132660000Y-99250000D01*
X121475000Y-123625000D02*
X121475000Y-125050000D01*
X99600000Y-124700000D02*
X99595000Y-124705000D01*
X108765638Y-125100000D02*
X108840638Y-125175000D01*
D54*
X105000000Y-115450000D02*
X105025000Y-115475000D01*
D56*
X117300000Y-113200000D02*
X116305000Y-113200000D01*
D54*
X111600000Y-125077302D02*
X110840638Y-124317940D01*
D56*
X132650000Y-98475000D02*
X132650000Y-99240000D01*
D54*
X107770000Y-111349361D02*
X107770000Y-111750000D01*
D56*
X135950000Y-105800000D02*
X137400000Y-105800000D01*
X143850000Y-97850000D02*
X143650000Y-97650000D01*
X99595000Y-124705000D02*
X98012500Y-124705000D01*
X132660000Y-100890000D02*
X132650000Y-100900000D01*
X101525000Y-99225000D02*
X102550000Y-99225000D01*
D54*
X104850000Y-115450000D02*
X105000000Y-115450000D01*
X108075000Y-108375000D02*
X108075000Y-110175000D01*
X106025000Y-115950000D02*
X106025000Y-115475000D01*
D56*
X106950000Y-119800000D02*
X106950000Y-120560000D01*
X96175000Y-107175000D02*
X96175000Y-106250000D01*
X110050000Y-94250000D02*
X110050000Y-95175000D01*
X117300000Y-117277500D02*
X117300000Y-118122500D01*
D54*
X109840638Y-124209362D02*
X108950000Y-125100000D01*
D56*
X105075000Y-109512500D02*
X104775000Y-109512500D01*
D54*
%TO.N,+3V3*%
X102325000Y-100775000D02*
X102400000Y-100775000D01*
X107270000Y-97200000D02*
X107270000Y-97420000D01*
X107575000Y-97725000D02*
X107575000Y-98825000D01*
D56*
X117300000Y-116317500D02*
X116198901Y-116317500D01*
X117800000Y-99870000D02*
X117800000Y-99180000D01*
D54*
X105650000Y-100750000D02*
X103995000Y-100750000D01*
X110547000Y-120506362D02*
X110840638Y-120800000D01*
X116349999Y-118447499D02*
X115927100Y-118447499D01*
X117240000Y-119097500D02*
X117000000Y-119097500D01*
X108730000Y-111750000D02*
X108730000Y-111330000D01*
X106595000Y-117880000D02*
X106595000Y-117950000D01*
X107325000Y-116925000D02*
X107325000Y-117150000D01*
X117800000Y-99870000D02*
X117780000Y-99890000D01*
D60*
X106585000Y-118560000D02*
X106595000Y-118550000D01*
D54*
X105192500Y-120900000D02*
X105187500Y-120895000D01*
X106595000Y-117880000D02*
X106025000Y-117310000D01*
X117270000Y-119127500D02*
X117240000Y-119097500D01*
D56*
X106880000Y-121530000D02*
X106480000Y-121530000D01*
D54*
X107270000Y-97420000D02*
X107575000Y-97725000D01*
X115825000Y-111750000D02*
X115075000Y-111000000D01*
D58*
X126350000Y-113400000D02*
X126350000Y-115075000D01*
D54*
X118755000Y-116317500D02*
X118800000Y-116272500D01*
D56*
X107270000Y-97160000D02*
X107250000Y-97180000D01*
X107250000Y-96400000D02*
X107270000Y-96420000D01*
X118875000Y-115325000D02*
X118875000Y-116197500D01*
D54*
X111865638Y-123350000D02*
X112650000Y-123350000D01*
D56*
X103200000Y-112800000D02*
X103200000Y-111762500D01*
D54*
X103175000Y-111787500D02*
X103200000Y-111762500D01*
D56*
X104375001Y-122165000D02*
X103105001Y-123435000D01*
D58*
X126350000Y-115075000D02*
X126925000Y-115650000D01*
D54*
X107325000Y-117150000D02*
X106595000Y-117880000D01*
X115870000Y-110940000D02*
X115870000Y-111750000D01*
D56*
X103975000Y-100730000D02*
X102595000Y-100730000D01*
D54*
X102300000Y-100800000D02*
X102325000Y-100775000D01*
D56*
X124550000Y-118000000D02*
X123575000Y-118000000D01*
X118850000Y-115300000D02*
X118875000Y-115325000D01*
D54*
X108730000Y-111330000D02*
X108575000Y-111175000D01*
D56*
X103105001Y-123435000D02*
X98012500Y-123435000D01*
D54*
X117270000Y-119897500D02*
X117270000Y-119127500D01*
D56*
X122475000Y-123625000D02*
X122475000Y-125075000D01*
X106480000Y-121530000D02*
X105845000Y-120895000D01*
X102700000Y-111262500D02*
X103200000Y-111762500D01*
D54*
X103995000Y-100750000D02*
X103975000Y-100730000D01*
D56*
X102445000Y-100730000D02*
X102400000Y-100775000D01*
D54*
X117770000Y-99150000D02*
X117800000Y-99180000D01*
D56*
X105187500Y-122165000D02*
X104375001Y-122165000D01*
D54*
X108730000Y-112600000D02*
X108730000Y-111750000D01*
X117000000Y-119097500D02*
X116349999Y-118447499D01*
X108575000Y-111175000D02*
X108575000Y-110175000D01*
D56*
X124100000Y-96770000D02*
X124100000Y-97775000D01*
D54*
X117780000Y-99890000D02*
X117780000Y-100750000D01*
X117240000Y-118982500D02*
X117240000Y-119097500D01*
X115870000Y-111750000D02*
X115825000Y-111750000D01*
X106595000Y-117950000D02*
X106595000Y-118550000D01*
X115750001Y-116766400D02*
X116198901Y-116317500D01*
D56*
X105845000Y-120895000D02*
X105187500Y-120895000D01*
X105187500Y-120895000D02*
X105187500Y-122165000D01*
D54*
X101550000Y-100800000D02*
X102450000Y-100800000D01*
X118875000Y-116197500D02*
X118800000Y-116272500D01*
X117780000Y-100750000D02*
X117000000Y-100750000D01*
X110840638Y-120800000D02*
X110840638Y-121325000D01*
X115850000Y-110920000D02*
X115870000Y-110940000D01*
D56*
X101425000Y-111262500D02*
X102700000Y-111262500D01*
X105700000Y-118560000D02*
X106585000Y-118560000D01*
X140300000Y-97650000D02*
X141740000Y-97650000D01*
D54*
X110547000Y-119503000D02*
X110547000Y-120506362D01*
X107120000Y-121550000D02*
X107100000Y-121530000D01*
D56*
X117300000Y-116317500D02*
X118755000Y-116317500D01*
D54*
X106960000Y-121530000D02*
X106880000Y-121530000D01*
X106025000Y-117310000D02*
X106025000Y-116925000D01*
D56*
X107270000Y-96420000D02*
X107270000Y-97160000D01*
D54*
X107100000Y-121530000D02*
X106960000Y-121530000D01*
X115075000Y-111000000D02*
X115075000Y-110175000D01*
D55*
X107250000Y-97180000D02*
X107270000Y-97200000D01*
D56*
X115850000Y-111770000D02*
X115870000Y-111750000D01*
D54*
%TO.N,Net-(U2-VCAP_1)*%
X114575000Y-110175000D02*
X114575000Y-112245000D01*
D56*
X114725000Y-113075000D02*
X114522000Y-112872000D01*
X114725000Y-113170000D02*
X114725000Y-113075000D01*
X114522000Y-112872000D02*
X114522000Y-111878000D01*
X114550000Y-113170000D02*
X114725000Y-113170000D01*
D54*
%TO.N,Net-(U2-VCAP_2)*%
X119862500Y-101250000D02*
X117000000Y-101250000D01*
%TO.N,HSE_IN*%
X105650000Y-102750000D02*
X100100000Y-102750000D01*
D57*
X99900000Y-102550000D02*
X99900000Y-100650000D01*
X100075000Y-100750000D02*
X100125000Y-100700000D01*
D54*
X100100000Y-102750000D02*
X99900000Y-102550000D01*
D57*
X100250000Y-102900000D02*
X99900000Y-102550000D01*
X100075000Y-100825000D02*
X99900000Y-100650000D01*
D56*
%TO.N,5V_MUX*%
X129875000Y-106125000D02*
X129950000Y-106200000D01*
D54*
%TO.N,Net-(U4-CAP)*%
X110340638Y-124600000D02*
X110340638Y-125075000D01*
D56*
X110340638Y-125075000D02*
X110315638Y-125100000D01*
D54*
X110340638Y-123875000D02*
X110340638Y-124600000D01*
%TO.N,Net-(C17-Pad1)*%
X97725000Y-106250000D02*
X97725000Y-104275000D01*
D61*
X97725000Y-104275000D02*
X97700000Y-104250000D01*
D54*
X97725000Y-106250000D02*
X99625000Y-106250000D01*
D59*
%TO.N,5V_REG*%
X139890001Y-108319999D02*
X136150000Y-108319999D01*
X139960000Y-108389998D02*
X139890001Y-108319999D01*
X136150000Y-108319999D02*
X135140001Y-109329998D01*
D56*
%TO.N,+3V3A*%
X103900000Y-107230000D02*
X103225000Y-107905000D01*
X101425000Y-109687500D02*
X103050000Y-109687500D01*
X103050000Y-109687500D02*
X103225000Y-109512500D01*
D54*
X104380000Y-106750000D02*
X105650000Y-106750000D01*
D56*
X103225000Y-107905000D02*
X103225000Y-109512500D01*
D54*
X103900000Y-107230000D02*
X104380000Y-106750000D01*
D61*
%TO.N,Net-(D2-K)*%
X128500000Y-115650000D02*
X130275000Y-115650000D01*
D56*
%TO.N,VUSB*%
X131665000Y-100925000D02*
X131690000Y-100900000D01*
X130300000Y-100837500D02*
X130387500Y-100925000D01*
D54*
X130363750Y-100901250D02*
X130300000Y-100837500D01*
D56*
X130387500Y-100925000D02*
X131665000Y-100925000D01*
D59*
%TO.N,USB_CONN_D+*%
X125950000Y-94461729D02*
X125950000Y-95762500D01*
X126600000Y-92650000D02*
X126600000Y-93811729D01*
X126600000Y-93811729D02*
X125950000Y-94461729D01*
%TO.N,USB_CONN_D-*%
X127250000Y-93861729D02*
X127850000Y-94461729D01*
X127250000Y-92650000D02*
X127250000Y-93861729D01*
X127850000Y-94461729D02*
X127850000Y-95762500D01*
D54*
%TO.N,USART3_RX*%
X113575000Y-97625000D02*
X113575000Y-98825000D01*
X112900000Y-96950000D02*
X113575000Y-97625000D01*
%TO.N,TIM2_CH1*%
X114575000Y-95975000D02*
X114575000Y-98825000D01*
X114275000Y-95675000D02*
X114575000Y-95975000D01*
%TO.N,USART3_TX*%
X113550000Y-96400000D02*
X113550000Y-96450000D01*
X114075000Y-96975000D02*
X114075000Y-98825000D01*
X113550000Y-96450000D02*
X114075000Y-96975000D01*
%TO.N,SWDIO*%
X115950000Y-101750000D02*
X115726194Y-101526194D01*
X117000000Y-101750000D02*
X115950000Y-101750000D01*
X115726194Y-101526194D02*
X115726194Y-98573806D01*
X115726194Y-98573806D02*
X117315000Y-96985000D01*
X117315000Y-96985000D02*
X117315000Y-94690000D01*
D59*
%TO.N,SWCLK*%
X115075000Y-97975000D02*
X116250000Y-96800000D01*
X115075000Y-98825000D02*
X115075000Y-97975000D01*
X117030000Y-93420000D02*
X117315000Y-93420000D01*
X116250000Y-96800000D02*
X116250000Y-94200000D01*
X116250000Y-94200000D02*
X117030000Y-93420000D01*
D54*
%TO.N,NRST*%
X107800000Y-103750000D02*
X105650000Y-103750000D01*
D55*
%TO.N,SWO*%
X112075000Y-98825000D02*
X112075000Y-96725000D01*
X112075000Y-96725000D02*
X116650000Y-92150000D01*
X116650000Y-92150000D02*
X117315000Y-92150000D01*
%TO.N,SERVO_2*%
X119158830Y-103760000D02*
X117010000Y-103760000D01*
X119284415Y-103634415D02*
X119158830Y-103760000D01*
X117010000Y-103760000D02*
X117000000Y-103750000D01*
%TO.N,SERVO_3*%
X119800000Y-104300000D02*
X117050000Y-104300000D01*
X120350000Y-103700000D02*
X120226758Y-103823242D01*
X120226758Y-103823242D02*
X120226758Y-103873242D01*
X117050000Y-104300000D02*
X117000000Y-104250000D01*
X120226758Y-103873242D02*
X119800000Y-104300000D01*
%TO.N,SERVO_6*%
X118750000Y-106100000D02*
X118450000Y-106100000D01*
X118100000Y-105750000D02*
X117000000Y-105750000D01*
X118450000Y-106100000D02*
X118100000Y-105750000D01*
%TO.N,SERVO_4*%
X120600000Y-104650000D02*
X120500000Y-104750000D01*
X120500000Y-104750000D02*
X117000000Y-104750000D01*
%TO.N,SERVO_5*%
X119850000Y-105450000D02*
X118850000Y-105450000D01*
X118850000Y-105450000D02*
X118650000Y-105250000D01*
X118650000Y-105250000D02*
X117000000Y-105250000D01*
D59*
%TO.N,I2C2_SDA*%
X116450000Y-110100000D02*
X115403000Y-109053000D01*
X119450000Y-125050000D02*
X119450000Y-123650000D01*
X114385348Y-109053000D02*
X114075000Y-109363348D01*
X119450000Y-123650000D02*
X119475000Y-123625000D01*
X115403000Y-109053000D02*
X114385348Y-109053000D01*
X114075000Y-109363348D02*
X114075000Y-110175000D01*
%TO.N,I2C2_SCL*%
X120683000Y-118833000D02*
X120737000Y-118833000D01*
X120475000Y-119353000D02*
X120213000Y-119353000D01*
X120475000Y-121745000D02*
X120475000Y-123625000D01*
X120005000Y-120601000D02*
X120005000Y-120705000D01*
X120945000Y-120081000D02*
X120945000Y-120185000D01*
X120683000Y-120913000D02*
X120737000Y-120913000D01*
X120005000Y-119561000D02*
X120005000Y-119665000D01*
X120475000Y-120393000D02*
X120213000Y-120393000D01*
X121925000Y-118000000D02*
X120475000Y-118000000D01*
X113575000Y-109222710D02*
X113575000Y-110175000D01*
X120683000Y-119353000D02*
X120475000Y-119353000D01*
X120945000Y-121121000D02*
X120945000Y-121225000D01*
X120737000Y-120393000D02*
X120475000Y-120393000D01*
X120945000Y-119041000D02*
X120945000Y-119145000D01*
X120475000Y-118625000D02*
X120475000Y-113175000D01*
X115900000Y-108600000D02*
X114197710Y-108600000D01*
X120475000Y-119873000D02*
X120737000Y-119873000D01*
X120213000Y-119873000D02*
X120475000Y-119873000D01*
X120475000Y-120913000D02*
X120683000Y-120913000D01*
X120737000Y-121433000D02*
X120683000Y-121433000D01*
X120475000Y-121641000D02*
X120475000Y-121745000D01*
X120213000Y-120913000D02*
X120475000Y-120913000D01*
X120737000Y-119353000D02*
X120683000Y-119353000D01*
X114197710Y-108600000D02*
X113575000Y-109222710D01*
X120475000Y-113175000D02*
X115900000Y-108600000D01*
X120737000Y-119873000D02*
G75*
G02*
X120945000Y-120081000I0J-208000D01*
G01*
X120005000Y-119665000D02*
G75*
G03*
X120213000Y-119873000I208000J0D01*
G01*
X120005000Y-120705000D02*
G75*
G03*
X120213000Y-120913000I208000J0D01*
G01*
X120945000Y-119145000D02*
G75*
G02*
X120737000Y-119353000I-208000J0D01*
G01*
X120683000Y-121433000D02*
G75*
G03*
X120475000Y-121641000I0J-208000D01*
G01*
X120945000Y-121225000D02*
G75*
G02*
X120737000Y-121433000I-208000J0D01*
G01*
X120737000Y-118833000D02*
G75*
G02*
X120945000Y-119041000I0J-208000D01*
G01*
X120213000Y-119353000D02*
G75*
G03*
X120005000Y-119561000I0J-208000D01*
G01*
X120213000Y-120393000D02*
G75*
G03*
X120005000Y-120601000I0J-208000D01*
G01*
X120475000Y-118625000D02*
G75*
G03*
X120683000Y-118833000I208000J0D01*
G01*
X120737000Y-120913000D02*
G75*
G02*
X120945000Y-121121000I0J-208000D01*
G01*
X120945000Y-120185000D02*
G75*
G02*
X120737000Y-120393000I-208000J0D01*
G01*
D55*
%TO.N,SERVO_1*%
X117000000Y-103250000D02*
X115600000Y-103250000D01*
D54*
X115600000Y-103250000D02*
X115550000Y-103200000D01*
D59*
%TO.N,SPI2_MOSI*%
X119350000Y-106730000D02*
X119330000Y-106750000D01*
X119330000Y-106750000D02*
X117000000Y-106750000D01*
D54*
%TO.N,SD_CS*%
X116158112Y-108250000D02*
X115200000Y-107291888D01*
X115200000Y-107291888D02*
X115200000Y-107150000D01*
X117000000Y-108250000D02*
X116158112Y-108250000D01*
D59*
%TO.N,SPI2_SCK*%
X119152000Y-108000000D02*
X118250000Y-108000000D01*
X118000000Y-107750000D02*
X117000000Y-107750000D01*
X118250000Y-108000000D02*
X118000000Y-107750000D01*
%TO.N,SPI2_MISO*%
X117002000Y-107248000D02*
X117000000Y-107250000D01*
X118298000Y-107248000D02*
X117002000Y-107248000D01*
X118450000Y-107400000D02*
X118298000Y-107248000D01*
D54*
%TO.N,HSE_OUT*%
X101275000Y-106250000D02*
X104275000Y-103250000D01*
X104275000Y-103250000D02*
X105650000Y-103250000D01*
%TO.N,BOOT0*%
X109575000Y-97300000D02*
X110050000Y-96825000D01*
X109575000Y-98825000D02*
X109575000Y-97300000D01*
D62*
%TO.N,SPI1_MOSI*%
X107800000Y-114450000D02*
X107325000Y-114925000D01*
X111318069Y-119231931D02*
X112102501Y-118447499D01*
X106650000Y-124705000D02*
X105187500Y-124705000D01*
X110700000Y-113900000D02*
X110575000Y-113775000D01*
X112900000Y-121850000D02*
X111865638Y-121850000D01*
X110622000Y-118535862D02*
X111318069Y-119231931D01*
X112900000Y-121850000D02*
X112900000Y-120813862D01*
X110622000Y-113986000D02*
X110622000Y-118535862D01*
X110575000Y-113775000D02*
X110575000Y-110175000D01*
X112102501Y-118447499D02*
X114072900Y-118447499D01*
D59*
X110700000Y-113900000D02*
X110692000Y-113900000D01*
D62*
X112900000Y-120813862D02*
X111318069Y-119231931D01*
X107325000Y-114925000D02*
X107325000Y-115475000D01*
X110700000Y-113908000D02*
X110622000Y-113986000D01*
D59*
%TO.N,IMU_CS*%
X112050000Y-113950000D02*
X111075000Y-112975000D01*
X111075000Y-112975000D02*
X111075000Y-110175000D01*
X112050000Y-115424601D02*
X112050000Y-113950000D01*
X114072900Y-117447501D02*
X112050000Y-115424601D01*
D62*
%TO.N,SPI1_SCK*%
X111450000Y-115800000D02*
X111400000Y-115750000D01*
X109575000Y-114575000D02*
X109575000Y-110175000D01*
X105202500Y-123450000D02*
X105187500Y-123435000D01*
X108850000Y-114600000D02*
X107975000Y-115475000D01*
X106600000Y-123450000D02*
X105202500Y-123450000D01*
X109450000Y-114600000D02*
X109550000Y-114600000D01*
X111477354Y-118077354D02*
X111450000Y-118050000D01*
X109450000Y-114600000D02*
X108850000Y-114600000D01*
X111400000Y-115750000D02*
X113597500Y-117947500D01*
X111450000Y-118050000D02*
X111450000Y-115800000D01*
X111338638Y-120054577D02*
X111338638Y-121323000D01*
X111338638Y-121323000D02*
X111340638Y-121325000D01*
X113597500Y-117947500D02*
X114072900Y-117947500D01*
X109550000Y-114600000D02*
X109575000Y-114575000D01*
D55*
%TO.N,MAG_CS*%
X109840638Y-120002000D02*
X109840638Y-121325000D01*
D54*
X117000000Y-106250000D02*
X111225000Y-106250000D01*
D55*
X109850000Y-119992638D02*
X109840638Y-120002000D01*
X109850000Y-118700000D02*
X109850000Y-119992638D01*
D54*
X111225000Y-106250000D02*
X109875000Y-107600000D01*
D62*
%TO.N,SPI1_MISO*%
X101520000Y-119470000D02*
X98824999Y-122165000D01*
X110075000Y-110175000D02*
X110050000Y-110200000D01*
X109315638Y-118434362D02*
X108503000Y-119247000D01*
X112771400Y-119128600D02*
X114249999Y-119128600D01*
X112750000Y-119150000D02*
X112771400Y-119128600D01*
X101742999Y-119247000D02*
X101520000Y-119470000D01*
X109315638Y-121850000D02*
X109315638Y-118134362D01*
X110050000Y-110200000D02*
X110050000Y-115450000D01*
X109315638Y-118134362D02*
X109315638Y-118434362D01*
X109900000Y-115600000D02*
X108575000Y-116925000D01*
X108503000Y-119247000D02*
X101742999Y-119247000D01*
X109900000Y-115600000D02*
X109900000Y-117550000D01*
X109900000Y-117550000D02*
X109315638Y-118134362D01*
X110050000Y-115450000D02*
X109900000Y-115600000D01*
X98824999Y-122165000D02*
X98012500Y-122165000D01*
X108575000Y-116925000D02*
X107975000Y-116925000D01*
D59*
%TO.N,BARO_CS*%
X112505000Y-111800000D02*
X112459058Y-111800000D01*
X111575000Y-110915942D02*
X111575000Y-110175000D01*
X106675000Y-114075000D02*
X106675000Y-115475000D01*
X107450000Y-113300000D02*
X106675000Y-114075000D01*
X112459058Y-111800000D02*
X111575000Y-110915942D01*
D54*
%TO.N,FLASH_CS*%
X104700000Y-107750000D02*
X105650000Y-107750000D01*
X98027824Y-120879676D02*
X98012500Y-120895000D01*
X104312500Y-108137500D02*
X104700000Y-107750000D01*
X99329677Y-120879676D02*
X98027824Y-120879676D01*
D56*
%TO.N,VBUS*%
X127150000Y-96900000D02*
X126900000Y-97150000D01*
X130250000Y-96000000D02*
X130250000Y-99187500D01*
X131687500Y-99262500D02*
X131700000Y-99250000D01*
X126900000Y-97150000D02*
X126900000Y-98037500D01*
D54*
X128400000Y-94100000D02*
X127900000Y-93600000D01*
D56*
X130200000Y-96900000D02*
X127150000Y-96900000D01*
D54*
X127900000Y-93600000D02*
X127900000Y-92650000D01*
D56*
X130300000Y-99262500D02*
X131687500Y-99262500D01*
X128400000Y-94150000D02*
X130250000Y-96000000D01*
D54*
X128400000Y-94150000D02*
X128400000Y-94100000D01*
D56*
X130250000Y-96850000D02*
X130200000Y-96900000D01*
D55*
%TO.N,USB_D+*%
X123700000Y-101750000D02*
X125525000Y-99925000D01*
X125525000Y-99925000D02*
X125950000Y-99500000D01*
X125075000Y-100375000D02*
X124200000Y-99500000D01*
X123160000Y-101750000D02*
X123700000Y-101750000D01*
D59*
X125957500Y-98045000D02*
X125950000Y-98037500D01*
D55*
X125950000Y-99500000D02*
X125950000Y-98037500D01*
%TO.N,USB_D-*%
X127850000Y-98699999D02*
X127850000Y-98037500D01*
X122560000Y-102900000D02*
X123649999Y-102900000D01*
X123649999Y-102900000D02*
X127850000Y-98699999D01*
%TO.N,Net-(U1-EN)*%
X138800000Y-111900000D02*
X136320002Y-114379998D01*
X136320002Y-114379998D02*
X132782501Y-114379998D01*
%TO.N,Net-(U2-PA12)*%
X121150000Y-101750000D02*
X122140000Y-101750000D01*
X120650000Y-102250000D02*
X121150000Y-101750000D01*
X117000000Y-102250000D02*
X120650000Y-102250000D01*
%TO.N,Net-(U2-PA11)*%
X121390000Y-102750000D02*
X121540000Y-102900000D01*
X117000000Y-102750000D02*
X121390000Y-102750000D01*
D54*
%TO.N,Net-(D1-K)*%
X103387500Y-95375000D02*
X101600000Y-95375000D01*
%TO.N,LED_STATUS*%
X109075000Y-96725000D02*
X109075000Y-98825000D01*
X104962500Y-95325000D02*
X107675000Y-95325000D01*
X107675000Y-95325000D02*
X109075000Y-96725000D01*
D56*
%TO.N,Net-(J11-Pin_6)*%
X111225000Y-91450000D02*
X110700000Y-91450000D01*
X111825000Y-92050000D02*
X111225000Y-91450000D01*
X111825000Y-92075000D02*
X111825000Y-92050000D01*
X112450000Y-92700000D02*
X111825000Y-92075000D01*
D54*
%TO.N,SERVO_4*%
X140950000Y-91550000D02*
X140850000Y-91450000D01*
D56*
%TO.N,VUSB*%
X130250000Y-101850000D02*
X131850000Y-103450000D01*
X131850000Y-103450000D02*
X134150000Y-103450000D01*
X130250000Y-100762500D02*
X130250000Y-101850000D01*
%TD*%
%TA.AperFunction,Conductor*%
%TO.N,GND*%
G36*
X133682335Y-108896877D02*
G01*
X133715032Y-108926568D01*
X133723075Y-108937050D01*
X133739260Y-108965084D01*
X133776715Y-109055509D01*
X133785093Y-109086775D01*
X133798939Y-109191939D01*
X133800000Y-109208125D01*
X133800000Y-110253723D01*
X133790561Y-110301175D01*
X133751421Y-110395667D01*
X133751418Y-110395677D01*
X133724500Y-110531004D01*
X133724500Y-110531007D01*
X133724500Y-110668993D01*
X133724500Y-110668995D01*
X133724499Y-110668995D01*
X133751418Y-110804322D01*
X133751420Y-110804328D01*
X133790561Y-110898822D01*
X133792187Y-110906999D01*
X133794977Y-110911340D01*
X133800000Y-110946275D01*
X133800000Y-111003723D01*
X133790561Y-111051175D01*
X133751421Y-111145667D01*
X133751418Y-111145677D01*
X133724500Y-111281004D01*
X133724500Y-111281007D01*
X133724500Y-111418993D01*
X133724500Y-111418995D01*
X133724499Y-111418995D01*
X133751418Y-111554322D01*
X133751421Y-111554332D01*
X133784858Y-111635057D01*
X133786950Y-111650972D01*
X133792824Y-111663453D01*
X133793230Y-111698745D01*
X133785000Y-111761061D01*
X133776568Y-111792421D01*
X133738880Y-111883086D01*
X133722597Y-111911182D01*
X133662663Y-111988953D01*
X133639644Y-112011857D01*
X133561575Y-112071400D01*
X133533398Y-112087543D01*
X133442543Y-112124777D01*
X133411141Y-112133050D01*
X133305581Y-112146454D01*
X133289339Y-112147440D01*
X130310241Y-112132506D01*
X130309989Y-112132506D01*
X130307577Y-112132493D01*
X129810000Y-112129999D01*
X129810000Y-112130000D01*
X129807889Y-112630392D01*
X129802135Y-113994001D01*
X129801012Y-114010139D01*
X129786797Y-114114976D01*
X129778331Y-114146130D01*
X129740692Y-114236192D01*
X129724472Y-114264106D01*
X129664853Y-114341408D01*
X129641976Y-114364188D01*
X129564428Y-114423476D01*
X129536447Y-114439578D01*
X129446223Y-114476839D01*
X129415033Y-114485173D01*
X129310140Y-114498945D01*
X129293998Y-114500000D01*
X128108126Y-114500000D01*
X128091941Y-114498939D01*
X128078917Y-114497224D01*
X127986775Y-114485093D01*
X127955508Y-114476715D01*
X127865081Y-114439259D01*
X127837048Y-114423074D01*
X127784973Y-114383115D01*
X127759397Y-114363490D01*
X127736508Y-114340601D01*
X127676925Y-114262951D01*
X127660740Y-114234918D01*
X127623284Y-114144491D01*
X127614906Y-114113223D01*
X127601061Y-114008059D01*
X127600000Y-113991874D01*
X127600000Y-110408125D01*
X127601061Y-110391940D01*
X127614906Y-110286776D01*
X127623284Y-110255508D01*
X127660740Y-110165079D01*
X127676923Y-110137050D01*
X127736513Y-110059392D01*
X127759392Y-110036513D01*
X127837050Y-109976923D01*
X127865079Y-109960740D01*
X127955509Y-109923283D01*
X127986775Y-109914906D01*
X128091941Y-109901061D01*
X128108126Y-109900000D01*
X131800000Y-109900000D01*
X131800000Y-109208125D01*
X131801061Y-109191940D01*
X131814906Y-109086776D01*
X131814906Y-109086775D01*
X131823284Y-109055509D01*
X131833328Y-109031259D01*
X131856227Y-108975976D01*
X131900066Y-108921574D01*
X131966360Y-108899509D01*
X131969141Y-108899440D01*
X133615049Y-108878065D01*
X133682335Y-108896877D01*
G37*
%TD.AperFunction*%
%TD*%
%TA.AperFunction,Conductor*%
%TO.N,5V_MUX*%
G36*
X132310007Y-105069685D02*
G01*
X132337116Y-105093302D01*
X133500000Y-106450000D01*
X135226000Y-106450000D01*
X135293039Y-106469685D01*
X135338794Y-106522489D01*
X135350000Y-106574000D01*
X135350000Y-108327598D01*
X135330315Y-108394637D01*
X135277511Y-108440392D01*
X135227610Y-108451588D01*
X134322388Y-108463345D01*
X131625610Y-108498368D01*
X131558321Y-108479555D01*
X131511884Y-108427350D01*
X131500000Y-108374378D01*
X131500000Y-107299999D01*
X128999933Y-107250978D01*
X128933292Y-107229983D01*
X128914683Y-107214683D01*
X128236319Y-106536319D01*
X128202834Y-106474996D01*
X128200000Y-106448638D01*
X128200000Y-105174000D01*
X128219685Y-105106961D01*
X128272489Y-105061206D01*
X128324000Y-105050000D01*
X132242968Y-105050000D01*
X132310007Y-105069685D01*
G37*
%TD.AperFunction*%
%TD*%
%TA.AperFunction,Conductor*%
%TO.N,+3V3*%
G36*
X127306473Y-106251009D02*
G01*
X127362040Y-106258139D01*
X127409078Y-106264176D01*
X127439620Y-106272145D01*
X127528175Y-106307813D01*
X127555711Y-106323234D01*
X127582183Y-106342868D01*
X127638799Y-106384860D01*
X127650875Y-106395072D01*
X127742811Y-106483471D01*
X127885414Y-106620590D01*
X128007533Y-106738012D01*
X128017302Y-106749065D01*
X128017393Y-106748987D01*
X128020293Y-106752334D01*
X128020298Y-106752340D01*
X128698662Y-107430704D01*
X128698678Y-107430719D01*
X128698689Y-107430729D01*
X128720655Y-107450657D01*
X128720672Y-107450671D01*
X128739273Y-107465964D01*
X128742430Y-107468525D01*
X128742435Y-107468528D01*
X128783025Y-107490179D01*
X128790332Y-107494076D01*
X128798208Y-107498277D01*
X128800000Y-107500000D01*
X128801438Y-107500000D01*
X128841493Y-107521365D01*
X128908134Y-107542360D01*
X128993944Y-107556419D01*
X130946428Y-107594702D01*
X130967103Y-107601216D01*
X130988708Y-107603020D01*
X131009000Y-107614415D01*
X131013067Y-107615697D01*
X131019460Y-107620286D01*
X131040607Y-107636513D01*
X131063491Y-107659398D01*
X131123074Y-107737048D01*
X131139259Y-107765081D01*
X131176715Y-107855508D01*
X131185093Y-107886774D01*
X131189783Y-107922399D01*
X131193439Y-107950167D01*
X131194500Y-107966347D01*
X131194500Y-108374383D01*
X131199246Y-108417215D01*
X131200000Y-108430870D01*
X131200000Y-108991874D01*
X131198939Y-109008060D01*
X131185093Y-109113224D01*
X131176715Y-109144491D01*
X131139259Y-109234918D01*
X131123074Y-109262951D01*
X131063491Y-109340601D01*
X131040601Y-109363491D01*
X130962951Y-109423074D01*
X130934918Y-109439259D01*
X130844491Y-109476715D01*
X130813224Y-109485093D01*
X130719398Y-109497446D01*
X130708058Y-109498939D01*
X130691874Y-109500000D01*
X127200000Y-109500000D01*
X127200000Y-113791874D01*
X127198939Y-113808059D01*
X127198939Y-113808060D01*
X127185093Y-113913224D01*
X127176715Y-113944491D01*
X127139259Y-114034918D01*
X127123074Y-114062951D01*
X127063491Y-114140601D01*
X127040601Y-114163491D01*
X126962951Y-114223074D01*
X126934918Y-114239259D01*
X126844491Y-114276715D01*
X126813224Y-114285093D01*
X126719398Y-114297446D01*
X126708058Y-114298939D01*
X126691874Y-114300000D01*
X121908126Y-114300000D01*
X121891941Y-114298939D01*
X121878917Y-114297224D01*
X121786775Y-114285093D01*
X121755508Y-114276715D01*
X121665081Y-114239259D01*
X121637048Y-114223074D01*
X121559398Y-114163491D01*
X121536508Y-114140601D01*
X121476925Y-114062951D01*
X121460740Y-114034918D01*
X121423284Y-113944491D01*
X121414906Y-113913223D01*
X121401061Y-113808059D01*
X121400000Y-113791874D01*
X121400000Y-106758125D01*
X121401061Y-106741940D01*
X121414906Y-106636776D01*
X121423284Y-106605508D01*
X121460740Y-106515081D01*
X121476923Y-106487050D01*
X121536513Y-106409392D01*
X121559392Y-106386513D01*
X121637050Y-106326923D01*
X121665079Y-106310740D01*
X121755509Y-106273283D01*
X121786775Y-106264906D01*
X121891941Y-106251061D01*
X121908126Y-106250000D01*
X127290690Y-106250000D01*
X127306473Y-106251009D01*
G37*
%TD.AperFunction*%
%TD*%
M02*
