%TF.GenerationSoftware,KiCad,Pcbnew,9.0.6*%
%TF.CreationDate,2026-03-28T21:07:54-04:00*%
%TF.ProjectId,InvictusDES_V2,496e7669-6374-4757-9344-45535f56322e,rev?*%
%TF.SameCoordinates,Original*%
%TF.FileFunction,Soldermask,Bot*%
%TF.FilePolarity,Negative*%
%FSLAX46Y46*%
G04 Gerber Fmt 4.6, Leading zero omitted, Abs format (unit mm)*
G04 Created by KiCad (PCBNEW 9.0.6) date 2026-03-28 21:07:54*
%MOMM*%
%LPD*%
G01*
G04 APERTURE LIST*
G04 APERTURE END LIST*
G36*
X145356790Y-123080393D02*
G01*
X145520952Y-123133733D01*
X145674748Y-123212096D01*
X145814393Y-123313553D01*
X145936447Y-123435607D01*
X146037904Y-123575252D01*
X146116267Y-123729048D01*
X146169607Y-123893210D01*
X146196609Y-124063695D01*
X146196609Y-124236305D01*
X146169607Y-124406790D01*
X146116267Y-124570952D01*
X146037904Y-124724748D01*
X145936447Y-124864393D01*
X145814393Y-124986447D01*
X145674748Y-125087904D01*
X145520952Y-125166267D01*
X145356790Y-125219607D01*
X145186305Y-125246609D01*
X145013695Y-125246609D01*
X144843210Y-125219607D01*
X144679048Y-125166267D01*
X144525252Y-125087904D01*
X144385607Y-124986447D01*
X144263553Y-124864393D01*
X144162096Y-124724748D01*
X144083733Y-124570952D01*
X144030393Y-124406790D01*
X144003391Y-124236305D01*
X144003391Y-124063695D01*
X144030393Y-123893210D01*
X144083733Y-123729048D01*
X144162096Y-123575252D01*
X144263553Y-123435607D01*
X144385607Y-123313553D01*
X144525252Y-123212096D01*
X144679048Y-123133733D01*
X144843210Y-123080393D01*
X145013695Y-123053391D01*
X145186305Y-123053391D01*
X145356790Y-123080393D01*
G37*
G36*
X130504047Y-120518305D02*
G01*
X130555408Y-120524264D01*
X130572954Y-120532011D01*
X130595671Y-120536530D01*
X130619991Y-120552780D01*
X130640793Y-120561965D01*
X130655000Y-120576172D01*
X130676777Y-120590723D01*
X130691327Y-120612499D01*
X130705534Y-120626706D01*
X130714718Y-120647506D01*
X130730970Y-120671829D01*
X130735489Y-120694548D01*
X130743235Y-120712091D01*
X130749192Y-120763440D01*
X130750000Y-120767500D01*
X130750000Y-122867500D01*
X130749192Y-122871559D01*
X130743235Y-122922908D01*
X130735489Y-122940450D01*
X130730970Y-122963171D01*
X130714716Y-122987495D01*
X130705534Y-123008293D01*
X130691329Y-123022497D01*
X130676777Y-123044277D01*
X130654997Y-123058829D01*
X130640793Y-123073034D01*
X130619995Y-123082216D01*
X130595671Y-123098470D01*
X130572950Y-123102989D01*
X130555408Y-123110735D01*
X130504061Y-123116692D01*
X130500000Y-123117500D01*
X128400000Y-123117500D01*
X128395941Y-123116692D01*
X128344591Y-123110735D01*
X128327048Y-123102989D01*
X128304329Y-123098470D01*
X128280006Y-123082218D01*
X128259206Y-123073034D01*
X128244999Y-123058827D01*
X128223223Y-123044277D01*
X128208672Y-123022500D01*
X128194465Y-123008293D01*
X128185280Y-122987491D01*
X128169030Y-122963171D01*
X128164511Y-122940454D01*
X128156764Y-122922908D01*
X128150805Y-122871549D01*
X128150000Y-122867500D01*
X128150000Y-120767500D01*
X128150804Y-120763453D01*
X128156764Y-120712091D01*
X128164511Y-120694543D01*
X128169030Y-120671829D01*
X128185278Y-120647510D01*
X128194465Y-120626706D01*
X128208674Y-120612496D01*
X128223223Y-120590723D01*
X128244996Y-120576174D01*
X128259206Y-120561965D01*
X128280010Y-120552778D01*
X128304329Y-120536530D01*
X128327043Y-120532011D01*
X128344591Y-120524264D01*
X128395952Y-120518305D01*
X128400000Y-120517500D01*
X130500000Y-120517500D01*
X130504047Y-120518305D01*
G37*
G36*
X134753479Y-120553419D02*
G01*
X134947488Y-120616457D01*
X135129248Y-120709068D01*
X135294282Y-120828972D01*
X135438528Y-120973218D01*
X135558432Y-121138252D01*
X135651043Y-121320012D01*
X135714081Y-121514021D01*
X135745993Y-121715503D01*
X135745993Y-121919497D01*
X135714081Y-122120979D01*
X135651043Y-122314988D01*
X135558432Y-122496748D01*
X135438528Y-122661782D01*
X135294282Y-122806028D01*
X135129248Y-122925932D01*
X134947488Y-123018543D01*
X134753479Y-123081581D01*
X134551997Y-123113493D01*
X134348003Y-123113493D01*
X134146521Y-123081581D01*
X133952512Y-123018543D01*
X133770752Y-122925932D01*
X133605718Y-122806028D01*
X133461472Y-122661782D01*
X133341568Y-122496748D01*
X133248957Y-122314988D01*
X133185919Y-122120979D01*
X133154007Y-121919497D01*
X133154007Y-121715503D01*
X133185919Y-121514021D01*
X133248957Y-121320012D01*
X133341568Y-121138252D01*
X133461472Y-120973218D01*
X133605718Y-120828972D01*
X133770752Y-120709068D01*
X133952512Y-120616457D01*
X134146521Y-120553419D01*
X134348003Y-120521507D01*
X134551997Y-120521507D01*
X134753479Y-120553419D01*
G37*
G36*
X118026537Y-120665224D02*
G01*
X118091421Y-120708579D01*
X118134776Y-120773463D01*
X118150000Y-120850000D01*
X118150000Y-121400000D01*
X118134776Y-121476537D01*
X118091421Y-121541421D01*
X118026537Y-121584776D01*
X117950000Y-121600000D01*
X117550000Y-121600000D01*
X117473463Y-121584776D01*
X117408579Y-121541421D01*
X117365224Y-121476537D01*
X117350000Y-121400000D01*
X117350000Y-120850000D01*
X117365224Y-120773463D01*
X117408579Y-120708579D01*
X117473463Y-120665224D01*
X117550000Y-120650000D01*
X117950000Y-120650000D01*
X118026537Y-120665224D01*
G37*
G36*
X119676537Y-120665224D02*
G01*
X119741421Y-120708579D01*
X119784776Y-120773463D01*
X119800000Y-120850000D01*
X119800000Y-121400000D01*
X119784776Y-121476537D01*
X119741421Y-121541421D01*
X119676537Y-121584776D01*
X119600000Y-121600000D01*
X119200000Y-121600000D01*
X119123463Y-121584776D01*
X119058579Y-121541421D01*
X119015224Y-121476537D01*
X119000000Y-121400000D01*
X119000000Y-120850000D01*
X119015224Y-120773463D01*
X119058579Y-120708579D01*
X119123463Y-120665224D01*
X119200000Y-120650000D01*
X119600000Y-120650000D01*
X119676537Y-120665224D01*
G37*
G36*
X107286104Y-120442127D02*
G01*
X107359099Y-120490901D01*
X107407873Y-120563896D01*
X107425000Y-120650000D01*
X107425000Y-121150000D01*
X107407873Y-121236104D01*
X107359099Y-121309099D01*
X107286104Y-121357873D01*
X107200000Y-121375000D01*
X106750000Y-121375000D01*
X106663896Y-121357873D01*
X106590901Y-121309099D01*
X106542127Y-121236104D01*
X106525000Y-121150000D01*
X106525000Y-120650000D01*
X106542127Y-120563896D01*
X106590901Y-120490901D01*
X106663896Y-120442127D01*
X106750000Y-120425000D01*
X107200000Y-120425000D01*
X107286104Y-120442127D01*
G37*
G36*
X108836104Y-120442127D02*
G01*
X108909099Y-120490901D01*
X108957873Y-120563896D01*
X108975000Y-120650000D01*
X108975000Y-121150000D01*
X108957873Y-121236104D01*
X108909099Y-121309099D01*
X108836104Y-121357873D01*
X108750000Y-121375000D01*
X108300000Y-121375000D01*
X108213896Y-121357873D01*
X108140901Y-121309099D01*
X108092127Y-121236104D01*
X108075000Y-121150000D01*
X108075000Y-120650000D01*
X108092127Y-120563896D01*
X108140901Y-120490901D01*
X108213896Y-120442127D01*
X108300000Y-120425000D01*
X108750000Y-120425000D01*
X108836104Y-120442127D01*
G37*
G36*
X131954037Y-117345223D02*
G01*
X132018921Y-117388578D01*
X132062276Y-117453462D01*
X132077500Y-117529999D01*
X132077500Y-117929999D01*
X132062276Y-118006536D01*
X132018921Y-118071420D01*
X131954037Y-118114775D01*
X131877500Y-118129999D01*
X131327500Y-118129999D01*
X131250963Y-118114775D01*
X131186079Y-118071420D01*
X131142724Y-118006536D01*
X131127500Y-117929999D01*
X131127500Y-117529999D01*
X131142724Y-117453462D01*
X131186079Y-117388578D01*
X131250963Y-117345223D01*
X131327500Y-117329999D01*
X131877500Y-117329999D01*
X131954037Y-117345223D01*
G37*
G36*
X135976103Y-116912127D02*
G01*
X136049098Y-116960901D01*
X136097872Y-117033896D01*
X136114999Y-117120000D01*
X136114999Y-117620000D01*
X136097872Y-117706104D01*
X136049098Y-117779099D01*
X135976103Y-117827873D01*
X135889999Y-117845000D01*
X135439999Y-117845000D01*
X135353895Y-117827873D01*
X135280900Y-117779099D01*
X135232126Y-117706104D01*
X135214999Y-117620000D01*
X135214999Y-117120000D01*
X135232126Y-117033896D01*
X135280900Y-116960901D01*
X135353895Y-116912127D01*
X135439999Y-116895000D01*
X135889999Y-116895000D01*
X135976103Y-116912127D01*
G37*
G36*
X137526103Y-116912127D02*
G01*
X137599098Y-116960901D01*
X137647872Y-117033896D01*
X137664999Y-117120000D01*
X137664999Y-117620000D01*
X137647872Y-117706104D01*
X137599098Y-117779099D01*
X137526103Y-117827873D01*
X137439999Y-117845000D01*
X136989999Y-117845000D01*
X136903895Y-117827873D01*
X136830900Y-117779099D01*
X136782126Y-117706104D01*
X136764999Y-117620000D01*
X136764999Y-117120000D01*
X136782126Y-117033896D01*
X136830900Y-116960901D01*
X136903895Y-116912127D01*
X136989999Y-116895000D01*
X137439999Y-116895000D01*
X137526103Y-116912127D01*
G37*
G36*
X131954037Y-115695223D02*
G01*
X132018921Y-115738578D01*
X132062276Y-115803462D01*
X132077500Y-115879999D01*
X132077500Y-116279999D01*
X132062276Y-116356536D01*
X132018921Y-116421420D01*
X131954037Y-116464775D01*
X131877500Y-116479999D01*
X131327500Y-116479999D01*
X131250963Y-116464775D01*
X131186079Y-116421420D01*
X131142724Y-116356536D01*
X131127500Y-116279999D01*
X131127500Y-115879999D01*
X131142724Y-115803462D01*
X131186079Y-115738578D01*
X131250963Y-115695223D01*
X131327500Y-115679999D01*
X131877500Y-115679999D01*
X131954037Y-115695223D01*
G37*
G36*
X136423575Y-115570657D02*
G01*
X136468994Y-115601005D01*
X136499342Y-115646424D01*
X136509999Y-115700000D01*
X136509999Y-116040000D01*
X136499342Y-116093576D01*
X136468994Y-116138995D01*
X136423575Y-116169343D01*
X136369999Y-116180000D01*
X136089999Y-116180000D01*
X136036423Y-116169343D01*
X135991004Y-116138995D01*
X135960656Y-116093576D01*
X135949999Y-116040000D01*
X135949999Y-115700000D01*
X135960656Y-115646424D01*
X135991004Y-115601005D01*
X136036423Y-115570657D01*
X136089999Y-115560000D01*
X136369999Y-115560000D01*
X136423575Y-115570657D01*
G37*
G36*
X137383575Y-115570657D02*
G01*
X137428994Y-115601005D01*
X137459342Y-115646424D01*
X137469999Y-115700000D01*
X137469999Y-116040000D01*
X137459342Y-116093576D01*
X137428994Y-116138995D01*
X137383575Y-116169343D01*
X137329999Y-116180000D01*
X137049999Y-116180000D01*
X136996423Y-116169343D01*
X136951004Y-116138995D01*
X136920656Y-116093576D01*
X136909999Y-116040000D01*
X136909999Y-115700000D01*
X136920656Y-115646424D01*
X136951004Y-115601005D01*
X136996423Y-115570657D01*
X137049999Y-115560000D01*
X137329999Y-115560000D01*
X137383575Y-115570657D01*
G37*
G36*
X131954035Y-113995224D02*
G01*
X132018919Y-114038579D01*
X132062274Y-114103463D01*
X132077498Y-114180000D01*
X132077498Y-114580000D01*
X132062274Y-114656537D01*
X132018919Y-114721421D01*
X131954035Y-114764776D01*
X131877498Y-114780000D01*
X131327498Y-114780000D01*
X131250961Y-114764776D01*
X131186077Y-114721421D01*
X131142722Y-114656537D01*
X131127498Y-114580000D01*
X131127498Y-114180000D01*
X131142722Y-114103463D01*
X131186077Y-114038579D01*
X131250961Y-113995224D01*
X131327498Y-113980000D01*
X131877498Y-113980000D01*
X131954035Y-113995224D01*
G37*
G36*
X140311537Y-113830224D02*
G01*
X140376421Y-113873579D01*
X140419776Y-113938463D01*
X140435000Y-114015000D01*
X140435000Y-114415000D01*
X140419776Y-114491537D01*
X140376421Y-114556421D01*
X140311537Y-114599776D01*
X140235000Y-114615000D01*
X139685000Y-114615000D01*
X139608463Y-114599776D01*
X139543579Y-114556421D01*
X139500224Y-114491537D01*
X139485000Y-114415000D01*
X139485000Y-114015000D01*
X139500224Y-113938463D01*
X139543579Y-113873579D01*
X139608463Y-113830224D01*
X139685000Y-113815000D01*
X140235000Y-113815000D01*
X140311537Y-113830224D01*
G37*
G36*
X136245570Y-112593496D02*
G01*
X136281503Y-112629432D01*
X136289999Y-112649947D01*
X136289998Y-113530055D01*
X136281502Y-113550565D01*
X136245566Y-113586504D01*
X136225058Y-113595000D01*
X136132836Y-113595000D01*
X136114460Y-113602611D01*
X136082611Y-113634458D01*
X136074999Y-113652835D01*
X136074997Y-113930055D01*
X136066501Y-113950566D01*
X136030567Y-113986503D01*
X136010056Y-113995000D01*
X135879941Y-113994999D01*
X135859431Y-113986503D01*
X135823495Y-113950565D01*
X135815000Y-113930054D01*
X135815002Y-113652835D01*
X135807390Y-113634458D01*
X135775541Y-113602611D01*
X135757165Y-113595000D01*
X135632838Y-113595000D01*
X135614462Y-113602611D01*
X135582613Y-113634458D01*
X135575001Y-113652835D01*
X135575001Y-113930053D01*
X135566504Y-113950565D01*
X135530567Y-113986502D01*
X135510055Y-113994999D01*
X135379947Y-113994999D01*
X135359434Y-113986502D01*
X135323497Y-113950565D01*
X135315001Y-113930053D01*
X135315001Y-113652836D01*
X135307389Y-113634459D01*
X135275542Y-113602612D01*
X135257165Y-113595000D01*
X135132835Y-113595000D01*
X135114458Y-113602612D01*
X135082613Y-113634459D01*
X135075002Y-113652835D01*
X135075002Y-113930053D01*
X135066505Y-113950564D01*
X135030564Y-113986503D01*
X135010055Y-113994999D01*
X134879945Y-113994999D01*
X134859428Y-113986500D01*
X134823496Y-113950567D01*
X134815000Y-113930054D01*
X134815000Y-113652836D01*
X134807388Y-113634459D01*
X134775541Y-113602612D01*
X134757164Y-113595000D01*
X134632836Y-113595000D01*
X134614459Y-113602612D01*
X134582612Y-113634459D01*
X134575000Y-113652836D01*
X134575000Y-113930053D01*
X134566503Y-113950565D01*
X134530566Y-113986502D01*
X134510054Y-113994999D01*
X134379946Y-113994999D01*
X134359429Y-113986500D01*
X134323497Y-113950567D01*
X134315001Y-113930054D01*
X134315001Y-113652836D01*
X134307389Y-113634459D01*
X134275542Y-113602612D01*
X134257165Y-113595000D01*
X134144946Y-113595000D01*
X134124434Y-113586504D01*
X134088498Y-113550569D01*
X134080000Y-113530053D01*
X134080000Y-112649944D01*
X134088497Y-112629431D01*
X134124434Y-112593494D01*
X134144946Y-112584999D01*
X136225055Y-112584999D01*
X136245570Y-112593496D01*
G37*
G36*
X137008535Y-112476461D02*
G01*
X137008535Y-112476462D01*
X137033535Y-112501463D01*
X137051503Y-112519431D01*
X137051503Y-112519432D01*
X137058535Y-112526464D01*
X137059999Y-112529999D01*
X137059999Y-112539943D01*
X137059999Y-112610947D01*
X137061940Y-112620656D01*
X137072313Y-112645553D01*
X137077757Y-112653684D01*
X137416307Y-112992236D01*
X137424444Y-112997685D01*
X137449340Y-113008058D01*
X137459049Y-113010000D01*
X137650055Y-113010000D01*
X137659999Y-113010000D01*
X137663534Y-113011464D01*
X137670565Y-113018495D01*
X137670567Y-113018496D01*
X137706501Y-113054429D01*
X137706501Y-113054430D01*
X137713534Y-113061463D01*
X137714999Y-113064999D01*
X137714999Y-113540000D01*
X137713535Y-113543536D01*
X137663535Y-113593536D01*
X137659999Y-113595000D01*
X137650053Y-113595000D01*
X137547837Y-113595000D01*
X137529460Y-113602612D01*
X137497613Y-113634459D01*
X137490001Y-113652835D01*
X137490001Y-113939999D01*
X137488537Y-113943535D01*
X137438537Y-113993535D01*
X137435001Y-113994999D01*
X137425055Y-113994999D01*
X137294947Y-113994999D01*
X137285001Y-113994999D01*
X137281465Y-113993535D01*
X137231465Y-113943535D01*
X137230001Y-113939999D01*
X137230001Y-113652835D01*
X137222389Y-113634459D01*
X137190538Y-113602610D01*
X137172164Y-113595000D01*
X137047835Y-113595000D01*
X137029459Y-113602611D01*
X136997610Y-113634460D01*
X136989999Y-113652835D01*
X136989999Y-113939999D01*
X136988535Y-113943535D01*
X136938535Y-113993535D01*
X136934999Y-113994999D01*
X136925053Y-113994999D01*
X136794945Y-113994999D01*
X136784999Y-113994999D01*
X136781463Y-113993535D01*
X136781463Y-113993534D01*
X136774429Y-113986500D01*
X136774428Y-113986500D01*
X136738496Y-113950567D01*
X136738495Y-113950565D01*
X136731464Y-113943534D01*
X136730000Y-113939999D01*
X136730000Y-113652835D01*
X136722388Y-113634460D01*
X136631464Y-113543536D01*
X136630000Y-113540000D01*
X136630000Y-112529999D01*
X136631464Y-112526463D01*
X136681464Y-112476463D01*
X136685000Y-112474999D01*
X136694942Y-112474998D01*
X136694945Y-112474998D01*
X136995053Y-112474997D01*
X137004999Y-112474997D01*
X137008535Y-112476461D01*
G37*
G36*
X131954035Y-112345224D02*
G01*
X132018919Y-112388579D01*
X132062274Y-112453463D01*
X132077498Y-112530000D01*
X132077498Y-112930000D01*
X132062274Y-113006537D01*
X132018919Y-113071421D01*
X131954035Y-113114776D01*
X131877498Y-113130000D01*
X131327498Y-113130000D01*
X131250961Y-113114776D01*
X131186077Y-113071421D01*
X131142722Y-113006537D01*
X131127498Y-112930000D01*
X131127498Y-112530000D01*
X131142722Y-112453463D01*
X131186077Y-112388579D01*
X131250961Y-112345224D01*
X131327498Y-112330000D01*
X131877498Y-112330000D01*
X131954035Y-112345224D01*
G37*
G36*
X140311537Y-112180224D02*
G01*
X140376421Y-112223579D01*
X140419776Y-112288463D01*
X140435000Y-112365000D01*
X140435000Y-112765000D01*
X140419776Y-112841537D01*
X140376421Y-112906421D01*
X140311537Y-112949776D01*
X140235000Y-112965000D01*
X139685000Y-112965000D01*
X139608463Y-112949776D01*
X139543579Y-112906421D01*
X139500224Y-112841537D01*
X139485000Y-112765000D01*
X139485000Y-112365000D01*
X139500224Y-112288463D01*
X139543579Y-112223579D01*
X139608463Y-112180224D01*
X139685000Y-112165000D01*
X140235000Y-112165000D01*
X140311537Y-112180224D01*
G37*
G36*
X138020567Y-112483495D02*
G01*
X138106504Y-112569432D01*
X138115001Y-112589944D01*
X138115001Y-112690054D01*
X138106504Y-112710567D01*
X138020570Y-112796503D01*
X138000056Y-112805001D01*
X137519945Y-112805001D01*
X137499428Y-112796502D01*
X137413495Y-112710567D01*
X137404999Y-112690054D01*
X137404999Y-112589944D01*
X137413495Y-112569432D01*
X137499432Y-112483495D01*
X137519945Y-112474999D01*
X138000055Y-112474999D01*
X138020567Y-112483495D01*
G37*
G36*
X138020567Y-111983496D02*
G01*
X138106504Y-112069433D01*
X138115001Y-112089945D01*
X138115001Y-112190054D01*
X138106504Y-112210566D01*
X138020567Y-112296503D01*
X138000055Y-112305000D01*
X137519945Y-112305000D01*
X137499432Y-112296503D01*
X137413495Y-112210566D01*
X137404999Y-112190054D01*
X137404999Y-112089945D01*
X137413495Y-112069433D01*
X137499432Y-111983496D01*
X137519945Y-111975000D01*
X138000055Y-111975000D01*
X138020567Y-111983496D01*
G37*
G36*
X136938535Y-110286465D02*
G01*
X136988535Y-110336465D01*
X136989999Y-110340001D01*
X136989999Y-110349945D01*
X136989999Y-110349946D01*
X136989999Y-110627164D01*
X136997610Y-110645539D01*
X137029459Y-110677388D01*
X137047835Y-110685000D01*
X137172164Y-110685000D01*
X137190539Y-110677388D01*
X137222389Y-110645539D01*
X137230001Y-110627163D01*
X137230001Y-110349946D01*
X137230001Y-110349945D01*
X137230001Y-110340001D01*
X137231465Y-110336465D01*
X137281465Y-110286465D01*
X137285001Y-110285001D01*
X137435001Y-110285001D01*
X137438537Y-110286465D01*
X137488537Y-110336465D01*
X137490001Y-110340001D01*
X137490001Y-110349945D01*
X137490001Y-110349946D01*
X137490001Y-110627163D01*
X137497612Y-110645539D01*
X137529459Y-110677388D01*
X137547836Y-110685000D01*
X137650053Y-110685000D01*
X137659999Y-110685000D01*
X137663535Y-110686464D01*
X137713535Y-110736464D01*
X137714999Y-110740000D01*
X137714999Y-111215001D01*
X137713535Y-111218537D01*
X137713534Y-111218537D01*
X137663534Y-111268536D01*
X137659999Y-111270000D01*
X137650055Y-111270000D01*
X137459050Y-111270000D01*
X137449342Y-111271941D01*
X137424446Y-111282313D01*
X137416310Y-111287759D01*
X137077757Y-111626314D01*
X137072314Y-111634444D01*
X137068051Y-111644673D01*
X137061940Y-111659343D01*
X137059999Y-111669052D01*
X137059999Y-111750001D01*
X137058535Y-111753536D01*
X137008535Y-111803538D01*
X137004999Y-111805003D01*
X136685000Y-111805001D01*
X136681464Y-111803537D01*
X136631464Y-111753537D01*
X136630000Y-111750001D01*
X136630000Y-110740000D01*
X136631464Y-110736464D01*
X136722388Y-110645539D01*
X136730000Y-110627164D01*
X136730000Y-110349945D01*
X136730000Y-110349944D01*
X136730000Y-110340001D01*
X136731464Y-110336466D01*
X136738494Y-110329435D01*
X136738496Y-110329432D01*
X136774429Y-110293498D01*
X136774432Y-110293496D01*
X136781463Y-110286466D01*
X136784999Y-110285001D01*
X136934999Y-110285001D01*
X136938535Y-110286465D01*
G37*
G36*
X138020571Y-111483497D02*
G01*
X138106504Y-111569432D01*
X138115001Y-111589945D01*
X138115001Y-111690055D01*
X138106504Y-111710567D01*
X138020567Y-111796504D01*
X138000055Y-111805001D01*
X137519945Y-111805001D01*
X137499432Y-111796504D01*
X137413495Y-111710567D01*
X137404999Y-111690055D01*
X137404999Y-111589945D01*
X137413495Y-111569432D01*
X137499429Y-111483496D01*
X137519944Y-111474999D01*
X138000055Y-111474999D01*
X138020571Y-111483497D01*
G37*
G36*
X136030566Y-110293495D02*
G01*
X136066501Y-110329433D01*
X136074997Y-110349944D01*
X136074999Y-110627164D01*
X136082611Y-110645540D01*
X136114459Y-110677388D01*
X136132836Y-110685000D01*
X136225055Y-110685000D01*
X136245566Y-110693495D01*
X136281503Y-110729437D01*
X136289998Y-110749947D01*
X136289999Y-111630052D01*
X136281503Y-111650567D01*
X136245570Y-111686502D01*
X136225056Y-111695001D01*
X134144946Y-111695001D01*
X134124434Y-111686505D01*
X134088497Y-111650571D01*
X134080000Y-111630060D01*
X134080000Y-110749945D01*
X134088497Y-110729432D01*
X134124434Y-110693495D01*
X134144946Y-110685000D01*
X134257165Y-110685000D01*
X134275542Y-110677388D01*
X134307389Y-110645541D01*
X134315001Y-110627164D01*
X134315001Y-110349944D01*
X134323499Y-110329428D01*
X134359431Y-110293497D01*
X134379944Y-110285001D01*
X134510054Y-110285001D01*
X134530566Y-110293497D01*
X134566503Y-110329434D01*
X134575000Y-110349946D01*
X134575000Y-110627164D01*
X134582612Y-110645541D01*
X134614459Y-110677388D01*
X134632836Y-110685000D01*
X134757164Y-110685000D01*
X134775541Y-110677388D01*
X134807388Y-110645541D01*
X134815000Y-110627164D01*
X134815000Y-110349945D01*
X134823496Y-110329432D01*
X134859429Y-110293498D01*
X134879944Y-110285001D01*
X135010055Y-110285001D01*
X135030564Y-110293496D01*
X135066506Y-110329435D01*
X135075001Y-110349943D01*
X135074999Y-110627163D01*
X135082611Y-110645540D01*
X135114459Y-110677388D01*
X135132836Y-110685000D01*
X135257164Y-110685000D01*
X135275541Y-110677388D01*
X135307389Y-110645540D01*
X135315001Y-110627163D01*
X135315001Y-110349946D01*
X135323497Y-110329434D01*
X135359434Y-110293497D01*
X135379947Y-110285001D01*
X135510055Y-110285001D01*
X135530567Y-110293497D01*
X135566504Y-110329434D01*
X135575001Y-110349946D01*
X135575001Y-110627163D01*
X135582613Y-110645540D01*
X135614461Y-110677388D01*
X135632838Y-110685000D01*
X135757166Y-110685000D01*
X135775543Y-110677388D01*
X135807392Y-110645539D01*
X135815004Y-110627162D01*
X135815000Y-110349945D01*
X135823495Y-110329435D01*
X135859431Y-110293496D01*
X135879940Y-110285000D01*
X136010053Y-110284999D01*
X136030566Y-110293495D01*
G37*
G36*
X140311537Y-110535224D02*
G01*
X140376421Y-110578579D01*
X140419776Y-110643463D01*
X140435000Y-110720000D01*
X140435000Y-111120000D01*
X140419776Y-111196537D01*
X140376421Y-111261421D01*
X140311537Y-111304776D01*
X140235000Y-111320000D01*
X139685000Y-111320000D01*
X139608463Y-111304776D01*
X139543579Y-111261421D01*
X139500224Y-111196537D01*
X139485000Y-111120000D01*
X139485000Y-110720000D01*
X139500224Y-110643463D01*
X139543579Y-110578579D01*
X139608463Y-110535224D01*
X139685000Y-110520000D01*
X140235000Y-110520000D01*
X140311537Y-110535224D01*
G37*
G36*
X141683576Y-110400657D02*
G01*
X141728995Y-110431005D01*
X141759343Y-110476424D01*
X141770000Y-110530000D01*
X141770000Y-110810000D01*
X141759343Y-110863576D01*
X141728995Y-110908995D01*
X141683576Y-110939343D01*
X141630000Y-110950000D01*
X141290000Y-110950000D01*
X141236424Y-110939343D01*
X141191005Y-110908995D01*
X141160657Y-110863576D01*
X141150000Y-110810000D01*
X141150000Y-110530000D01*
X141160657Y-110476424D01*
X141191005Y-110431005D01*
X141236424Y-110400657D01*
X141290000Y-110390000D01*
X141630000Y-110390000D01*
X141683576Y-110400657D01*
G37*
G36*
X141683576Y-109440657D02*
G01*
X141728995Y-109471005D01*
X141759343Y-109516424D01*
X141770000Y-109570000D01*
X141770000Y-109850000D01*
X141759343Y-109903576D01*
X141728995Y-109948995D01*
X141683576Y-109979343D01*
X141630000Y-109990000D01*
X141290000Y-109990000D01*
X141236424Y-109979343D01*
X141191005Y-109948995D01*
X141160657Y-109903576D01*
X141150000Y-109850000D01*
X141150000Y-109570000D01*
X141160657Y-109516424D01*
X141191005Y-109471005D01*
X141236424Y-109440657D01*
X141290000Y-109430000D01*
X141630000Y-109430000D01*
X141683576Y-109440657D01*
G37*
G36*
X140311537Y-108885224D02*
G01*
X140376421Y-108928579D01*
X140419776Y-108993463D01*
X140435000Y-109070000D01*
X140435000Y-109470000D01*
X140419776Y-109546537D01*
X140376421Y-109611421D01*
X140311537Y-109654776D01*
X140235000Y-109670000D01*
X139685000Y-109670000D01*
X139608463Y-109654776D01*
X139543579Y-109611421D01*
X139500224Y-109546537D01*
X139485000Y-109470000D01*
X139485000Y-109070000D01*
X139500224Y-108993463D01*
X139543579Y-108928579D01*
X139608463Y-108885224D01*
X139685000Y-108870000D01*
X140235000Y-108870000D01*
X140311537Y-108885224D01*
G37*
G36*
X136173576Y-109030657D02*
G01*
X136218995Y-109061005D01*
X136249343Y-109106424D01*
X136260000Y-109160000D01*
X136260000Y-109500000D01*
X136249343Y-109553576D01*
X136218995Y-109598995D01*
X136173576Y-109629343D01*
X136120000Y-109640000D01*
X135840000Y-109640000D01*
X135786424Y-109629343D01*
X135741005Y-109598995D01*
X135710657Y-109553576D01*
X135700000Y-109500000D01*
X135700000Y-109160000D01*
X135710657Y-109106424D01*
X135741005Y-109061005D01*
X135786424Y-109030657D01*
X135840000Y-109020000D01*
X136120000Y-109020000D01*
X136173576Y-109030657D01*
G37*
G36*
X137133576Y-109030657D02*
G01*
X137178995Y-109061005D01*
X137209343Y-109106424D01*
X137220000Y-109160000D01*
X137220000Y-109500000D01*
X137209343Y-109553576D01*
X137178995Y-109598995D01*
X137133576Y-109629343D01*
X137080000Y-109640000D01*
X136800000Y-109640000D01*
X136746424Y-109629343D01*
X136701005Y-109598995D01*
X136670657Y-109553576D01*
X136660000Y-109500000D01*
X136660000Y-109160000D01*
X136670657Y-109106424D01*
X136701005Y-109061005D01*
X136746424Y-109030657D01*
X136800000Y-109020000D01*
X137080000Y-109020000D01*
X137133576Y-109030657D01*
G37*
G36*
X135059134Y-106796931D02*
G01*
X135075355Y-106807770D01*
X135086194Y-106823991D01*
X135090000Y-106843125D01*
X135090000Y-107413125D01*
X135086194Y-107432259D01*
X135075355Y-107448480D01*
X135059134Y-107459319D01*
X135040000Y-107463125D01*
X134840000Y-107463125D01*
X134820866Y-107459319D01*
X134804645Y-107448480D01*
X134793806Y-107432259D01*
X134790000Y-107413125D01*
X134790000Y-106843125D01*
X134793806Y-106823991D01*
X134804645Y-106807770D01*
X134820866Y-106796931D01*
X134840000Y-106793125D01*
X135040000Y-106793125D01*
X135059134Y-106796931D01*
G37*
G36*
X135559134Y-106796931D02*
G01*
X135575355Y-106807770D01*
X135586194Y-106823991D01*
X135590000Y-106843125D01*
X135590000Y-107413125D01*
X135586194Y-107432259D01*
X135575355Y-107448480D01*
X135559134Y-107459319D01*
X135540000Y-107463125D01*
X135340000Y-107463125D01*
X135320866Y-107459319D01*
X135304645Y-107448480D01*
X135293806Y-107432259D01*
X135290000Y-107413125D01*
X135290000Y-106843125D01*
X135293806Y-106823991D01*
X135304645Y-106807770D01*
X135320866Y-106796931D01*
X135340000Y-106793125D01*
X135540000Y-106793125D01*
X135559134Y-106796931D01*
G37*
G36*
X136059134Y-106796931D02*
G01*
X136075355Y-106807770D01*
X136086194Y-106823991D01*
X136090000Y-106843125D01*
X136090000Y-107413125D01*
X136086194Y-107432259D01*
X136075355Y-107448480D01*
X136059134Y-107459319D01*
X136040000Y-107463125D01*
X135840000Y-107463125D01*
X135820866Y-107459319D01*
X135804645Y-107448480D01*
X135793806Y-107432259D01*
X135790000Y-107413125D01*
X135790000Y-106843125D01*
X135793806Y-106823991D01*
X135804645Y-106807770D01*
X135820866Y-106796931D01*
X135840000Y-106793125D01*
X136040000Y-106793125D01*
X136059134Y-106796931D01*
G37*
G36*
X136559134Y-106796931D02*
G01*
X136575355Y-106807770D01*
X136586194Y-106823991D01*
X136590000Y-106843125D01*
X136590000Y-107413125D01*
X136586194Y-107432259D01*
X136575355Y-107448480D01*
X136559134Y-107459319D01*
X136540000Y-107463125D01*
X136340000Y-107463125D01*
X136320866Y-107459319D01*
X136304645Y-107448480D01*
X136293806Y-107432259D01*
X136290000Y-107413125D01*
X136290000Y-106843125D01*
X136293806Y-106823991D01*
X136304645Y-106807770D01*
X136320866Y-106796931D01*
X136340000Y-106793125D01*
X136540000Y-106793125D01*
X136559134Y-106796931D01*
G37*
G36*
X106400000Y-106850000D02*
G01*
X103000000Y-106850000D01*
X103000000Y-105550000D01*
X106400000Y-105550000D01*
X106400000Y-106850000D01*
G37*
G36*
X135059134Y-105316931D02*
G01*
X135075355Y-105327770D01*
X135086194Y-105343991D01*
X135090000Y-105363125D01*
X135090000Y-105933125D01*
X135086194Y-105952259D01*
X135075355Y-105968480D01*
X135059134Y-105979319D01*
X135040000Y-105983125D01*
X134840000Y-105983125D01*
X134820866Y-105979319D01*
X134804645Y-105968480D01*
X134793806Y-105952259D01*
X134790000Y-105933125D01*
X134790000Y-105363125D01*
X134793806Y-105343991D01*
X134804645Y-105327770D01*
X134820866Y-105316931D01*
X134840000Y-105313125D01*
X135040000Y-105313125D01*
X135059134Y-105316931D01*
G37*
G36*
X135559134Y-105316931D02*
G01*
X135575355Y-105327770D01*
X135586194Y-105343991D01*
X135590000Y-105363125D01*
X135590000Y-105933125D01*
X135586194Y-105952259D01*
X135575355Y-105968480D01*
X135559134Y-105979319D01*
X135540000Y-105983125D01*
X135340000Y-105983125D01*
X135320866Y-105979319D01*
X135304645Y-105968480D01*
X135293806Y-105952259D01*
X135290000Y-105933125D01*
X135290000Y-105363125D01*
X135293806Y-105343991D01*
X135304645Y-105327770D01*
X135320866Y-105316931D01*
X135340000Y-105313125D01*
X135540000Y-105313125D01*
X135559134Y-105316931D01*
G37*
G36*
X136059134Y-105316931D02*
G01*
X136075355Y-105327770D01*
X136086194Y-105343991D01*
X136090000Y-105363125D01*
X136090000Y-105933125D01*
X136086194Y-105952259D01*
X136075355Y-105968480D01*
X136059134Y-105979319D01*
X136040000Y-105983125D01*
X135840000Y-105983125D01*
X135820866Y-105979319D01*
X135804645Y-105968480D01*
X135793806Y-105952259D01*
X135790000Y-105933125D01*
X135790000Y-105363125D01*
X135793806Y-105343991D01*
X135804645Y-105327770D01*
X135820866Y-105316931D01*
X135840000Y-105313125D01*
X136040000Y-105313125D01*
X136059134Y-105316931D01*
G37*
G36*
X136559134Y-105316931D02*
G01*
X136575355Y-105327770D01*
X136586194Y-105343991D01*
X136590000Y-105363125D01*
X136590000Y-105933125D01*
X136586194Y-105952259D01*
X136575355Y-105968480D01*
X136559134Y-105979319D01*
X136540000Y-105983125D01*
X136340000Y-105983125D01*
X136320866Y-105979319D01*
X136304645Y-105968480D01*
X136293806Y-105952259D01*
X136290000Y-105933125D01*
X136290000Y-105363125D01*
X136293806Y-105343991D01*
X136304645Y-105327770D01*
X136320866Y-105316931D01*
X136340000Y-105313125D01*
X136540000Y-105313125D01*
X136559134Y-105316931D01*
G37*
G36*
X136591537Y-103040849D02*
G01*
X136656421Y-103084204D01*
X136699776Y-103149088D01*
X136715000Y-103225625D01*
X136715000Y-103775625D01*
X136699776Y-103852162D01*
X136656421Y-103917046D01*
X136591537Y-103960401D01*
X136515000Y-103975625D01*
X136115000Y-103975625D01*
X136038463Y-103960401D01*
X135973579Y-103917046D01*
X135930224Y-103852162D01*
X135915000Y-103775625D01*
X135915000Y-103225625D01*
X135930224Y-103149088D01*
X135973579Y-103084204D01*
X136038463Y-103040849D01*
X136115000Y-103025625D01*
X136515000Y-103025625D01*
X136591537Y-103040849D01*
G37*
G36*
X138241537Y-103040849D02*
G01*
X138306421Y-103084204D01*
X138349776Y-103149088D01*
X138365000Y-103225625D01*
X138365000Y-103775625D01*
X138349776Y-103852162D01*
X138306421Y-103917046D01*
X138241537Y-103960401D01*
X138165000Y-103975625D01*
X137765000Y-103975625D01*
X137688463Y-103960401D01*
X137623579Y-103917046D01*
X137580224Y-103852162D01*
X137565000Y-103775625D01*
X137565000Y-103225625D01*
X137580224Y-103149088D01*
X137623579Y-103084204D01*
X137688463Y-103040849D01*
X137765000Y-103025625D01*
X138165000Y-103025625D01*
X138241537Y-103040849D01*
G37*
G36*
X139841537Y-103040849D02*
G01*
X139906421Y-103084204D01*
X139949776Y-103149088D01*
X139965000Y-103225625D01*
X139965000Y-103775625D01*
X139949776Y-103852162D01*
X139906421Y-103917046D01*
X139841537Y-103960401D01*
X139765000Y-103975625D01*
X139365000Y-103975625D01*
X139288463Y-103960401D01*
X139223579Y-103917046D01*
X139180224Y-103852162D01*
X139165000Y-103775625D01*
X139165000Y-103225625D01*
X139180224Y-103149088D01*
X139223579Y-103084204D01*
X139288463Y-103040849D01*
X139365000Y-103025625D01*
X139765000Y-103025625D01*
X139841537Y-103040849D01*
G37*
G36*
X141491537Y-103040849D02*
G01*
X141556421Y-103084204D01*
X141599776Y-103149088D01*
X141615000Y-103225625D01*
X141615000Y-103775625D01*
X141599776Y-103852162D01*
X141556421Y-103917046D01*
X141491537Y-103960401D01*
X141415000Y-103975625D01*
X141015000Y-103975625D01*
X140938463Y-103960401D01*
X140873579Y-103917046D01*
X140830224Y-103852162D01*
X140815000Y-103775625D01*
X140815000Y-103225625D01*
X140830224Y-103149088D01*
X140873579Y-103084204D01*
X140938463Y-103040849D01*
X141015000Y-103025625D01*
X141415000Y-103025625D01*
X141491537Y-103040849D01*
G37*
G36*
X132893842Y-102088060D02*
G01*
X133006881Y-102153323D01*
X133099177Y-102245619D01*
X133164440Y-102358658D01*
X133198222Y-102484737D01*
X133198222Y-102615263D01*
X133164440Y-102741342D01*
X133099177Y-102854381D01*
X133006881Y-102946677D01*
X132893842Y-103011940D01*
X132767763Y-103045722D01*
X132637237Y-103045722D01*
X132511158Y-103011940D01*
X132398119Y-102946677D01*
X132305823Y-102854381D01*
X132240560Y-102741342D01*
X132206778Y-102615263D01*
X132206778Y-102484737D01*
X132240560Y-102358658D01*
X132305823Y-102245619D01*
X132398119Y-102153323D01*
X132511158Y-102088060D01*
X132637237Y-102054278D01*
X132767763Y-102054278D01*
X132893842Y-102088060D01*
G37*
G36*
X140941342Y-100988060D02*
G01*
X141054381Y-101053323D01*
X141146677Y-101145619D01*
X141211940Y-101258658D01*
X141245722Y-101384737D01*
X141245722Y-101515263D01*
X141211940Y-101641342D01*
X141146677Y-101754381D01*
X141054381Y-101846677D01*
X140941342Y-101911940D01*
X140815263Y-101945722D01*
X140684737Y-101945722D01*
X140558658Y-101911940D01*
X140445619Y-101846677D01*
X140353323Y-101754381D01*
X140288060Y-101641342D01*
X140254278Y-101515263D01*
X140254278Y-101384737D01*
X140288060Y-101258658D01*
X140353323Y-101145619D01*
X140445619Y-101053323D01*
X140558658Y-100988060D01*
X140684737Y-100954278D01*
X140815263Y-100954278D01*
X140941342Y-100988060D01*
G37*
G36*
X132791342Y-99638060D02*
G01*
X132904381Y-99703323D01*
X132996677Y-99795619D01*
X133061940Y-99908658D01*
X133095722Y-100034737D01*
X133095722Y-100165263D01*
X133061940Y-100291342D01*
X132996677Y-100404381D01*
X132904381Y-100496677D01*
X132791342Y-100561940D01*
X132665263Y-100595722D01*
X132534737Y-100595722D01*
X132408658Y-100561940D01*
X132295619Y-100496677D01*
X132203323Y-100404381D01*
X132138060Y-100291342D01*
X132104278Y-100165263D01*
X132104278Y-100034737D01*
X132138060Y-99908658D01*
X132203323Y-99795619D01*
X132295619Y-99703323D01*
X132408658Y-99638060D01*
X132534737Y-99604278D01*
X132665263Y-99604278D01*
X132791342Y-99638060D01*
G37*
G36*
X136110000Y-99662500D02*
G01*
X134560000Y-99662500D01*
X134560000Y-98312500D01*
X136110000Y-98312500D01*
X136110000Y-99662500D01*
G37*
G36*
X138220000Y-99662500D02*
G01*
X137370000Y-99662500D01*
X137370000Y-98562500D01*
X138220000Y-98562500D01*
X138220000Y-99662500D01*
G37*
G36*
X139320000Y-99662500D02*
G01*
X138470000Y-99662500D01*
X138470000Y-98562500D01*
X139320000Y-98562500D01*
X139320000Y-99662500D01*
G37*
G36*
X140420000Y-99662500D02*
G01*
X139570000Y-99662500D01*
X139570000Y-98562500D01*
X140420000Y-98562500D01*
X140420000Y-99662500D01*
G37*
G36*
X141520000Y-99662500D02*
G01*
X140670000Y-99662500D01*
X140670000Y-98562500D01*
X141520000Y-98562500D01*
X141520000Y-99662500D01*
G37*
G36*
X142620000Y-99662500D02*
G01*
X141770000Y-99662500D01*
X141770000Y-98562500D01*
X142620000Y-98562500D01*
X142620000Y-99662500D01*
G37*
G36*
X143720000Y-99662500D02*
G01*
X142870000Y-99662500D01*
X142870000Y-98562500D01*
X143720000Y-98562500D01*
X143720000Y-99662500D01*
G37*
G36*
X144820000Y-99662500D02*
G01*
X143970000Y-99662500D01*
X143970000Y-98562500D01*
X144820000Y-98562500D01*
X144820000Y-99662500D01*
G37*
G36*
X145820000Y-99662500D02*
G01*
X145070000Y-99662500D01*
X145070000Y-98562500D01*
X145820000Y-98562500D01*
X145820000Y-99662500D01*
G37*
G36*
X147240000Y-99662500D02*
G01*
X146070000Y-99662500D01*
X146070000Y-97862500D01*
X147240000Y-97862500D01*
X147240000Y-99662500D01*
G37*
G36*
X106400000Y-98150000D02*
G01*
X103000000Y-98150000D01*
X103000000Y-96850000D01*
X106400000Y-96850000D01*
X106400000Y-98150000D01*
G37*
G36*
X119085000Y-95190000D02*
G01*
X118085000Y-95190000D01*
X118085000Y-94190000D01*
X119085000Y-94190000D01*
X119085000Y-95190000D01*
G37*
G36*
X117506342Y-94228060D02*
G01*
X117619381Y-94293323D01*
X117711677Y-94385619D01*
X117776940Y-94498658D01*
X117810722Y-94624737D01*
X117810722Y-94755263D01*
X117776940Y-94881342D01*
X117711677Y-94994381D01*
X117619381Y-95086677D01*
X117506342Y-95151940D01*
X117380263Y-95185722D01*
X117249737Y-95185722D01*
X117123658Y-95151940D01*
X117010619Y-95086677D01*
X116918323Y-94994381D01*
X116853060Y-94881342D01*
X116819278Y-94755263D01*
X116819278Y-94624737D01*
X116853060Y-94498658D01*
X116918323Y-94385619D01*
X117010619Y-94293323D01*
X117123658Y-94228060D01*
X117249737Y-94194278D01*
X117380263Y-94194278D01*
X117506342Y-94228060D01*
G37*
G36*
X117506342Y-92958060D02*
G01*
X117619381Y-93023323D01*
X117711677Y-93115619D01*
X117776940Y-93228658D01*
X117810722Y-93354737D01*
X117810722Y-93485263D01*
X117776940Y-93611342D01*
X117711677Y-93724381D01*
X117619381Y-93816677D01*
X117506342Y-93881940D01*
X117380263Y-93915722D01*
X117249737Y-93915722D01*
X117123658Y-93881940D01*
X117010619Y-93816677D01*
X116918323Y-93724381D01*
X116853060Y-93611342D01*
X116819278Y-93485263D01*
X116819278Y-93354737D01*
X116853060Y-93228658D01*
X116918323Y-93115619D01*
X117010619Y-93023323D01*
X117123658Y-92958060D01*
X117249737Y-92924278D01*
X117380263Y-92924278D01*
X117506342Y-92958060D01*
G37*
G36*
X118776342Y-92958060D02*
G01*
X118889381Y-93023323D01*
X118981677Y-93115619D01*
X119046940Y-93228658D01*
X119080722Y-93354737D01*
X119080722Y-93485263D01*
X119046940Y-93611342D01*
X118981677Y-93724381D01*
X118889381Y-93816677D01*
X118776342Y-93881940D01*
X118650263Y-93915722D01*
X118519737Y-93915722D01*
X118393658Y-93881940D01*
X118280619Y-93816677D01*
X118188323Y-93724381D01*
X118123060Y-93611342D01*
X118089278Y-93485263D01*
X118089278Y-93354737D01*
X118123060Y-93228658D01*
X118188323Y-93115619D01*
X118280619Y-93023323D01*
X118393658Y-92958060D01*
X118519737Y-92924278D01*
X118650263Y-92924278D01*
X118776342Y-92958060D01*
G37*
G36*
X135760000Y-93462500D02*
G01*
X134560000Y-93462500D01*
X134560000Y-92462500D01*
X135760000Y-92462500D01*
X135760000Y-93462500D01*
G37*
G36*
X124310456Y-91956218D02*
G01*
X124441763Y-92010607D01*
X124559935Y-92089567D01*
X124660433Y-92190065D01*
X124739393Y-92308237D01*
X124793782Y-92439544D01*
X124821509Y-92578938D01*
X124821509Y-92721062D01*
X124793782Y-92860456D01*
X124739393Y-92991763D01*
X124660433Y-93109935D01*
X124559935Y-93210433D01*
X124441763Y-93289393D01*
X124310456Y-93343782D01*
X124171062Y-93371509D01*
X124028938Y-93371509D01*
X123889544Y-93343782D01*
X123758237Y-93289393D01*
X123640065Y-93210433D01*
X123539567Y-93109935D01*
X123460607Y-92991763D01*
X123406218Y-92860456D01*
X123378491Y-92721062D01*
X123378491Y-92578938D01*
X123406218Y-92439544D01*
X123460607Y-92308237D01*
X123539567Y-92190065D01*
X123640065Y-92089567D01*
X123758237Y-92010607D01*
X123889544Y-91956218D01*
X124028938Y-91928491D01*
X124171062Y-91928491D01*
X124310456Y-91956218D01*
G37*
G36*
X129310456Y-91956218D02*
G01*
X129441763Y-92010607D01*
X129559935Y-92089567D01*
X129660433Y-92190065D01*
X129739393Y-92308237D01*
X129793782Y-92439544D01*
X129821509Y-92578938D01*
X129821509Y-92721062D01*
X129793782Y-92860456D01*
X129739393Y-92991763D01*
X129660433Y-93109935D01*
X129559935Y-93210433D01*
X129441763Y-93289393D01*
X129310456Y-93343782D01*
X129171062Y-93371509D01*
X129028938Y-93371509D01*
X128889544Y-93343782D01*
X128758237Y-93289393D01*
X128640065Y-93210433D01*
X128539567Y-93109935D01*
X128460607Y-92991763D01*
X128406218Y-92860456D01*
X128378491Y-92721062D01*
X128378491Y-92578938D01*
X128406218Y-92439544D01*
X128460607Y-92308237D01*
X128539567Y-92190065D01*
X128640065Y-92089567D01*
X128758237Y-92010607D01*
X128889544Y-91956218D01*
X129028938Y-91928491D01*
X129171062Y-91928491D01*
X129310456Y-91956218D01*
G37*
G36*
X117506342Y-91688060D02*
G01*
X117619381Y-91753323D01*
X117711677Y-91845619D01*
X117776940Y-91958658D01*
X117810722Y-92084737D01*
X117810722Y-92215263D01*
X117776940Y-92341342D01*
X117711677Y-92454381D01*
X117619381Y-92546677D01*
X117506342Y-92611940D01*
X117380263Y-92645722D01*
X117249737Y-92645722D01*
X117123658Y-92611940D01*
X117010619Y-92546677D01*
X116918323Y-92454381D01*
X116853060Y-92341342D01*
X116819278Y-92215263D01*
X116819278Y-92084737D01*
X116853060Y-91958658D01*
X116918323Y-91845619D01*
X117010619Y-91753323D01*
X117123658Y-91688060D01*
X117249737Y-91654278D01*
X117380263Y-91654278D01*
X117506342Y-91688060D01*
G37*
G36*
X118776342Y-91688060D02*
G01*
X118889381Y-91753323D01*
X118981677Y-91845619D01*
X119046940Y-91958658D01*
X119080722Y-92084737D01*
X119080722Y-92215263D01*
X119046940Y-92341342D01*
X118981677Y-92454381D01*
X118889381Y-92546677D01*
X118776342Y-92611940D01*
X118650263Y-92645722D01*
X118519737Y-92645722D01*
X118393658Y-92611940D01*
X118280619Y-92546677D01*
X118188323Y-92454381D01*
X118123060Y-92341342D01*
X118089278Y-92215263D01*
X118089278Y-92084737D01*
X118123060Y-91958658D01*
X118188323Y-91845619D01*
X118280619Y-91753323D01*
X118393658Y-91688060D01*
X118519737Y-91654278D01*
X118650263Y-91654278D01*
X118776342Y-91688060D01*
G37*
G36*
X99056790Y-89630393D02*
G01*
X99220952Y-89683733D01*
X99374748Y-89762096D01*
X99514393Y-89863553D01*
X99636447Y-89985607D01*
X99737904Y-90125252D01*
X99816267Y-90279048D01*
X99869607Y-90443210D01*
X99896609Y-90613695D01*
X99896609Y-90786305D01*
X99869607Y-90956790D01*
X99816267Y-91120952D01*
X99737904Y-91274748D01*
X99636447Y-91414393D01*
X99514393Y-91536447D01*
X99374748Y-91637904D01*
X99220952Y-91716267D01*
X99056790Y-91769607D01*
X98886305Y-91796609D01*
X98713695Y-91796609D01*
X98543210Y-91769607D01*
X98379048Y-91716267D01*
X98225252Y-91637904D01*
X98085607Y-91536447D01*
X97963553Y-91414393D01*
X97862096Y-91274748D01*
X97783733Y-91120952D01*
X97730393Y-90956790D01*
X97703391Y-90786305D01*
X97703391Y-90613695D01*
X97730393Y-90443210D01*
X97783733Y-90279048D01*
X97862096Y-90125252D01*
X97963553Y-89985607D01*
X98085607Y-89863553D01*
X98225252Y-89762096D01*
X98379048Y-89683733D01*
X98543210Y-89630393D01*
X98713695Y-89603391D01*
X98886305Y-89603391D01*
X99056790Y-89630393D01*
G37*
G36*
X117506342Y-90418060D02*
G01*
X117619381Y-90483323D01*
X117711677Y-90575619D01*
X117776940Y-90688658D01*
X117810722Y-90814737D01*
X117810722Y-90945263D01*
X117776940Y-91071342D01*
X117711677Y-91184381D01*
X117619381Y-91276677D01*
X117506342Y-91341940D01*
X117380263Y-91375722D01*
X117249737Y-91375722D01*
X117123658Y-91341940D01*
X117010619Y-91276677D01*
X116918323Y-91184381D01*
X116853060Y-91071342D01*
X116819278Y-90945263D01*
X116819278Y-90814737D01*
X116853060Y-90688658D01*
X116918323Y-90575619D01*
X117010619Y-90483323D01*
X117123658Y-90418060D01*
X117249737Y-90384278D01*
X117380263Y-90384278D01*
X117506342Y-90418060D01*
G37*
G36*
X118776342Y-90418060D02*
G01*
X118889381Y-90483323D01*
X118981677Y-90575619D01*
X119046940Y-90688658D01*
X119080722Y-90814737D01*
X119080722Y-90945263D01*
X119046940Y-91071342D01*
X118981677Y-91184381D01*
X118889381Y-91276677D01*
X118776342Y-91341940D01*
X118650263Y-91375722D01*
X118519737Y-91375722D01*
X118393658Y-91341940D01*
X118280619Y-91276677D01*
X118188323Y-91184381D01*
X118123060Y-91071342D01*
X118089278Y-90945263D01*
X118089278Y-90814737D01*
X118123060Y-90688658D01*
X118188323Y-90575619D01*
X118280619Y-90483323D01*
X118393658Y-90418060D01*
X118519737Y-90384278D01*
X118650263Y-90384278D01*
X118776342Y-90418060D01*
G37*
G36*
X123168858Y-89005133D02*
G01*
X123178316Y-89005133D01*
X123205563Y-89012433D01*
X123274099Y-89026066D01*
X123306448Y-89039465D01*
X123329610Y-89045672D01*
X123350377Y-89057662D01*
X123382722Y-89071060D01*
X123440816Y-89109877D01*
X123465257Y-89123988D01*
X123471946Y-89130677D01*
X123480481Y-89136380D01*
X123563619Y-89219518D01*
X123569321Y-89228052D01*
X123576012Y-89234743D01*
X123590124Y-89259186D01*
X123628939Y-89317277D01*
X123642335Y-89349618D01*
X123654328Y-89370390D01*
X123660535Y-89393555D01*
X123673933Y-89425900D01*
X123687563Y-89494426D01*
X123694867Y-89521684D01*
X123695791Y-89535795D01*
X123697110Y-89542422D01*
X123699758Y-89596311D01*
X123700000Y-89600000D01*
X123700000Y-90300000D01*
X123699758Y-90303691D01*
X123697110Y-90357577D01*
X123695791Y-90364203D01*
X123694867Y-90378316D01*
X123687562Y-90405576D01*
X123673933Y-90474099D01*
X123660535Y-90506441D01*
X123654328Y-90529610D01*
X123642334Y-90550383D01*
X123628939Y-90582722D01*
X123590128Y-90640805D01*
X123576012Y-90665257D01*
X123569319Y-90671949D01*
X123563619Y-90680481D01*
X123480481Y-90763619D01*
X123471949Y-90769319D01*
X123465257Y-90776012D01*
X123440805Y-90790128D01*
X123382722Y-90828939D01*
X123350383Y-90842334D01*
X123329610Y-90854328D01*
X123306441Y-90860535D01*
X123274099Y-90873933D01*
X123205569Y-90887564D01*
X123178316Y-90894867D01*
X123168858Y-90894867D01*
X123158788Y-90896870D01*
X123041212Y-90896870D01*
X123031142Y-90894867D01*
X123021684Y-90894867D01*
X122994432Y-90887564D01*
X122925900Y-90873933D01*
X122893555Y-90860535D01*
X122870390Y-90854328D01*
X122849618Y-90842335D01*
X122817277Y-90828939D01*
X122759186Y-90790124D01*
X122734743Y-90776012D01*
X122728052Y-90769321D01*
X122719518Y-90763619D01*
X122636380Y-90680481D01*
X122630677Y-90671946D01*
X122623988Y-90665257D01*
X122609877Y-90640816D01*
X122571060Y-90582722D01*
X122557662Y-90550377D01*
X122545672Y-90529610D01*
X122539465Y-90506448D01*
X122526066Y-90474099D01*
X122512433Y-90405562D01*
X122505133Y-90378316D01*
X122504208Y-90364210D01*
X122502889Y-90357577D01*
X122500241Y-90303686D01*
X122500000Y-90300000D01*
X122500000Y-89600000D01*
X122500241Y-89596316D01*
X122502889Y-89542422D01*
X122504208Y-89535787D01*
X122505133Y-89521684D01*
X122512432Y-89494440D01*
X122526066Y-89425900D01*
X122539466Y-89393548D01*
X122545672Y-89370390D01*
X122557660Y-89349624D01*
X122571060Y-89317277D01*
X122609881Y-89259175D01*
X122623988Y-89234743D01*
X122630675Y-89228055D01*
X122636380Y-89219518D01*
X122719518Y-89136380D01*
X122728055Y-89130675D01*
X122734743Y-89123988D01*
X122759175Y-89109881D01*
X122817277Y-89071060D01*
X122849624Y-89057660D01*
X122870390Y-89045672D01*
X122893548Y-89039466D01*
X122925900Y-89026066D01*
X122994437Y-89012433D01*
X123021684Y-89005133D01*
X123031142Y-89005133D01*
X123041212Y-89003130D01*
X123158788Y-89003130D01*
X123168858Y-89005133D01*
G37*
G36*
X130168858Y-89005133D02*
G01*
X130178316Y-89005133D01*
X130205563Y-89012433D01*
X130274099Y-89026066D01*
X130306448Y-89039465D01*
X130329610Y-89045672D01*
X130350377Y-89057662D01*
X130382722Y-89071060D01*
X130440816Y-89109877D01*
X130465257Y-89123988D01*
X130471946Y-89130677D01*
X130480481Y-89136380D01*
X130563619Y-89219518D01*
X130569321Y-89228052D01*
X130576012Y-89234743D01*
X130590124Y-89259186D01*
X130628939Y-89317277D01*
X130642335Y-89349618D01*
X130654328Y-89370390D01*
X130660535Y-89393555D01*
X130673933Y-89425900D01*
X130687563Y-89494426D01*
X130694867Y-89521684D01*
X130695791Y-89535795D01*
X130697110Y-89542422D01*
X130699758Y-89596311D01*
X130700000Y-89600000D01*
X130700000Y-90300000D01*
X130699758Y-90303691D01*
X130697110Y-90357577D01*
X130695791Y-90364203D01*
X130694867Y-90378316D01*
X130687562Y-90405576D01*
X130673933Y-90474099D01*
X130660535Y-90506441D01*
X130654328Y-90529610D01*
X130642334Y-90550383D01*
X130628939Y-90582722D01*
X130590128Y-90640805D01*
X130576012Y-90665257D01*
X130569319Y-90671949D01*
X130563619Y-90680481D01*
X130480481Y-90763619D01*
X130471949Y-90769319D01*
X130465257Y-90776012D01*
X130440805Y-90790128D01*
X130382722Y-90828939D01*
X130350383Y-90842334D01*
X130329610Y-90854328D01*
X130306441Y-90860535D01*
X130274099Y-90873933D01*
X130205569Y-90887564D01*
X130178316Y-90894867D01*
X130168858Y-90894867D01*
X130158788Y-90896870D01*
X130041212Y-90896870D01*
X130031142Y-90894867D01*
X130021684Y-90894867D01*
X129994432Y-90887564D01*
X129925900Y-90873933D01*
X129893555Y-90860535D01*
X129870390Y-90854328D01*
X129849618Y-90842335D01*
X129817277Y-90828939D01*
X129759186Y-90790124D01*
X129734743Y-90776012D01*
X129728052Y-90769321D01*
X129719518Y-90763619D01*
X129636380Y-90680481D01*
X129630677Y-90671946D01*
X129623988Y-90665257D01*
X129609877Y-90640816D01*
X129571060Y-90582722D01*
X129557662Y-90550377D01*
X129545672Y-90529610D01*
X129539465Y-90506448D01*
X129526066Y-90474099D01*
X129512433Y-90405562D01*
X129505133Y-90378316D01*
X129504208Y-90364210D01*
X129502889Y-90357577D01*
X129500241Y-90303686D01*
X129500000Y-90300000D01*
X129500000Y-89600000D01*
X129500241Y-89596316D01*
X129502889Y-89542422D01*
X129504208Y-89535787D01*
X129505133Y-89521684D01*
X129512432Y-89494440D01*
X129526066Y-89425900D01*
X129539466Y-89393548D01*
X129545672Y-89370390D01*
X129557660Y-89349624D01*
X129571060Y-89317277D01*
X129609881Y-89259175D01*
X129623988Y-89234743D01*
X129630675Y-89228055D01*
X129636380Y-89219518D01*
X129719518Y-89136380D01*
X129728055Y-89130675D01*
X129734743Y-89123988D01*
X129759175Y-89109881D01*
X129817277Y-89071060D01*
X129849624Y-89057660D01*
X129870390Y-89045672D01*
X129893548Y-89039466D01*
X129925900Y-89026066D01*
X129994437Y-89012433D01*
X130021684Y-89005133D01*
X130031142Y-89005133D01*
X130041212Y-89003130D01*
X130158788Y-89003130D01*
X130168858Y-89005133D01*
G37*
G36*
X117506342Y-89148060D02*
G01*
X117619381Y-89213323D01*
X117711677Y-89305619D01*
X117776940Y-89418658D01*
X117810722Y-89544737D01*
X117810722Y-89675263D01*
X117776940Y-89801342D01*
X117711677Y-89914381D01*
X117619381Y-90006677D01*
X117506342Y-90071940D01*
X117380263Y-90105722D01*
X117249737Y-90105722D01*
X117123658Y-90071940D01*
X117010619Y-90006677D01*
X116918323Y-89914381D01*
X116853060Y-89801342D01*
X116819278Y-89675263D01*
X116819278Y-89544737D01*
X116853060Y-89418658D01*
X116918323Y-89305619D01*
X117010619Y-89213323D01*
X117123658Y-89148060D01*
X117249737Y-89114278D01*
X117380263Y-89114278D01*
X117506342Y-89148060D01*
G37*
G36*
X118776342Y-89148060D02*
G01*
X118889381Y-89213323D01*
X118981677Y-89305619D01*
X119046940Y-89418658D01*
X119080722Y-89544737D01*
X119080722Y-89675263D01*
X119046940Y-89801342D01*
X118981677Y-89914381D01*
X118889381Y-90006677D01*
X118776342Y-90071940D01*
X118650263Y-90105722D01*
X118519737Y-90105722D01*
X118393658Y-90071940D01*
X118280619Y-90006677D01*
X118188323Y-89914381D01*
X118123060Y-89801342D01*
X118089278Y-89675263D01*
X118089278Y-89544737D01*
X118123060Y-89418658D01*
X118188323Y-89305619D01*
X118280619Y-89213323D01*
X118393658Y-89148060D01*
X118519737Y-89114278D01*
X118650263Y-89114278D01*
X118776342Y-89148060D01*
G37*
G36*
X135760000Y-89762500D02*
G01*
X134560000Y-89762500D01*
X134560000Y-88762500D01*
X135760000Y-88762500D01*
X135760000Y-89762500D01*
G37*
G36*
X139610000Y-88962500D02*
G01*
X137710000Y-88962500D01*
X137710000Y-87612500D01*
X139610000Y-87612500D01*
X139610000Y-88962500D01*
G37*
G36*
X145580000Y-88962500D02*
G01*
X143680000Y-88962500D01*
X143680000Y-87612500D01*
X145580000Y-87612500D01*
X145580000Y-88962500D01*
G37*
M02*
