%TF.GenerationSoftware,KiCad,Pcbnew,9.0.6*%
%TF.CreationDate,2026-03-28T21:07:54-04:00*%
%TF.ProjectId,InvictusDES_V2,496e7669-6374-4757-9344-45535f56322e,rev?*%
%TF.SameCoordinates,Original*%
%TF.FileFunction,Soldermask,Top*%
%TF.FilePolarity,Negative*%
%FSLAX46Y46*%
G04 Gerber Fmt 4.6, Leading zero omitted, Abs format (unit mm)*
G04 Created by KiCad (PCBNEW 9.0.6) date 2026-03-28 21:07:54*
%MOMM*%
%LPD*%
G01*
G04 APERTURE LIST*
G04 APERTURE END LIST*
G36*
X118529047Y-125250805D02*
G01*
X118580408Y-125256764D01*
X118597954Y-125264511D01*
X118620671Y-125269030D01*
X118644991Y-125285280D01*
X118665793Y-125294465D01*
X118680000Y-125308672D01*
X118701777Y-125323223D01*
X118716327Y-125344999D01*
X118730534Y-125359206D01*
X118739718Y-125380006D01*
X118755970Y-125404329D01*
X118760489Y-125427048D01*
X118768235Y-125444591D01*
X118774192Y-125495940D01*
X118775000Y-125500000D01*
X118775000Y-126800000D01*
X118774192Y-126804059D01*
X118768235Y-126855408D01*
X118760489Y-126872950D01*
X118755970Y-126895671D01*
X118739716Y-126919995D01*
X118730534Y-126940793D01*
X118716329Y-126954997D01*
X118701777Y-126976777D01*
X118679997Y-126991329D01*
X118665793Y-127005534D01*
X118644995Y-127014716D01*
X118620671Y-127030970D01*
X118597950Y-127035489D01*
X118580408Y-127043235D01*
X118529061Y-127049192D01*
X118525000Y-127050000D01*
X117825000Y-127050000D01*
X117820941Y-127049192D01*
X117769591Y-127043235D01*
X117752048Y-127035489D01*
X117729329Y-127030970D01*
X117705006Y-127014718D01*
X117684206Y-127005534D01*
X117669999Y-126991327D01*
X117648223Y-126976777D01*
X117633672Y-126955000D01*
X117619465Y-126940793D01*
X117610280Y-126919991D01*
X117594030Y-126895671D01*
X117589511Y-126872954D01*
X117581764Y-126855408D01*
X117575805Y-126804049D01*
X117575000Y-126800000D01*
X117575000Y-125500000D01*
X117575804Y-125495953D01*
X117581764Y-125444591D01*
X117589511Y-125427043D01*
X117594030Y-125404329D01*
X117610278Y-125380010D01*
X117619465Y-125359206D01*
X117633674Y-125344996D01*
X117648223Y-125323223D01*
X117669996Y-125308674D01*
X117684206Y-125294465D01*
X117705010Y-125285278D01*
X117729329Y-125269030D01*
X117752043Y-125264511D01*
X117769591Y-125256764D01*
X117820952Y-125250805D01*
X117825000Y-125250000D01*
X118525000Y-125250000D01*
X118529047Y-125250805D01*
G37*
G36*
X124129047Y-125250805D02*
G01*
X124180408Y-125256764D01*
X124197954Y-125264511D01*
X124220671Y-125269030D01*
X124244991Y-125285280D01*
X124265793Y-125294465D01*
X124280000Y-125308672D01*
X124301777Y-125323223D01*
X124316327Y-125344999D01*
X124330534Y-125359206D01*
X124339718Y-125380006D01*
X124355970Y-125404329D01*
X124360489Y-125427048D01*
X124368235Y-125444591D01*
X124374192Y-125495940D01*
X124375000Y-125500000D01*
X124375000Y-126800000D01*
X124374192Y-126804059D01*
X124368235Y-126855408D01*
X124360489Y-126872950D01*
X124355970Y-126895671D01*
X124339716Y-126919995D01*
X124330534Y-126940793D01*
X124316329Y-126954997D01*
X124301777Y-126976777D01*
X124279997Y-126991329D01*
X124265793Y-127005534D01*
X124244995Y-127014716D01*
X124220671Y-127030970D01*
X124197950Y-127035489D01*
X124180408Y-127043235D01*
X124129061Y-127049192D01*
X124125000Y-127050000D01*
X123425000Y-127050000D01*
X123420941Y-127049192D01*
X123369591Y-127043235D01*
X123352048Y-127035489D01*
X123329329Y-127030970D01*
X123305006Y-127014718D01*
X123284206Y-127005534D01*
X123269999Y-126991327D01*
X123248223Y-126976777D01*
X123233672Y-126955000D01*
X123219465Y-126940793D01*
X123210280Y-126919991D01*
X123194030Y-126895671D01*
X123189511Y-126872954D01*
X123181764Y-126855408D01*
X123175805Y-126804049D01*
X123175000Y-126800000D01*
X123175000Y-125500000D01*
X123175804Y-125495953D01*
X123181764Y-125444591D01*
X123189511Y-125427043D01*
X123194030Y-125404329D01*
X123210278Y-125380010D01*
X123219465Y-125359206D01*
X123233674Y-125344996D01*
X123248223Y-125323223D01*
X123269996Y-125308674D01*
X123284206Y-125294465D01*
X123305010Y-125285278D01*
X123329329Y-125269030D01*
X123352043Y-125264511D01*
X123369591Y-125256764D01*
X123420952Y-125250805D01*
X123425000Y-125250000D01*
X124125000Y-125250000D01*
X124129047Y-125250805D01*
G37*
G36*
X109076742Y-124642127D02*
G01*
X109149737Y-124690901D01*
X109198511Y-124763896D01*
X109215638Y-124850000D01*
X109215638Y-125350000D01*
X109198511Y-125436104D01*
X109149737Y-125509099D01*
X109076742Y-125557873D01*
X108990638Y-125575000D01*
X108540638Y-125575000D01*
X108454534Y-125557873D01*
X108381539Y-125509099D01*
X108332765Y-125436104D01*
X108315638Y-125350000D01*
X108315638Y-124850000D01*
X108332765Y-124763896D01*
X108381539Y-124690901D01*
X108454534Y-124642127D01*
X108540638Y-124625000D01*
X108990638Y-124625000D01*
X109076742Y-124642127D01*
G37*
G36*
X110626742Y-124642127D02*
G01*
X110699737Y-124690901D01*
X110748511Y-124763896D01*
X110765638Y-124850000D01*
X110765638Y-125350000D01*
X110748511Y-125436104D01*
X110699737Y-125509099D01*
X110626742Y-125557873D01*
X110540638Y-125575000D01*
X110090638Y-125575000D01*
X110004534Y-125557873D01*
X109931539Y-125509099D01*
X109882765Y-125436104D01*
X109865638Y-125350000D01*
X109865638Y-124850000D01*
X109882765Y-124763896D01*
X109931539Y-124690901D01*
X110004534Y-124642127D01*
X110090638Y-124625000D01*
X110540638Y-124625000D01*
X110626742Y-124642127D01*
G37*
G36*
X145356790Y-123080393D02*
G01*
X145520952Y-123133733D01*
X145674748Y-123212096D01*
X145814393Y-123313553D01*
X145936447Y-123435607D01*
X146037904Y-123575252D01*
X146116267Y-123729048D01*
X146169607Y-123893210D01*
X146196609Y-124063695D01*
X146196609Y-124236305D01*
X146169607Y-124406790D01*
X146116267Y-124570952D01*
X146037904Y-124724748D01*
X145936447Y-124864393D01*
X145814393Y-124986447D01*
X145674748Y-125087904D01*
X145520952Y-125166267D01*
X145356790Y-125219607D01*
X145186305Y-125246609D01*
X145013695Y-125246609D01*
X144843210Y-125219607D01*
X144679048Y-125166267D01*
X144525252Y-125087904D01*
X144385607Y-124986447D01*
X144263553Y-124864393D01*
X144162096Y-124724748D01*
X144083733Y-124570952D01*
X144030393Y-124406790D01*
X144003391Y-124236305D01*
X144003391Y-124063695D01*
X144030393Y-123893210D01*
X144083733Y-123729048D01*
X144162096Y-123575252D01*
X144263553Y-123435607D01*
X144385607Y-123313553D01*
X144525252Y-123212096D01*
X144679048Y-123133733D01*
X144843210Y-123080393D01*
X145013695Y-123053391D01*
X145186305Y-123053391D01*
X145356790Y-123080393D01*
G37*
G36*
X98724686Y-124392370D02*
G01*
X98777405Y-124427595D01*
X98812630Y-124480314D01*
X98825000Y-124542500D01*
X98825000Y-124867500D01*
X98812630Y-124929686D01*
X98777405Y-124982405D01*
X98724686Y-125017630D01*
X98662500Y-125030000D01*
X97362500Y-125030000D01*
X97300314Y-125017630D01*
X97247595Y-124982405D01*
X97212370Y-124929686D01*
X97200000Y-124867500D01*
X97200000Y-124542500D01*
X97212370Y-124480314D01*
X97247595Y-124427595D01*
X97300314Y-124392370D01*
X97362500Y-124380000D01*
X98662500Y-124380000D01*
X98724686Y-124392370D01*
G37*
G36*
X105899686Y-124392370D02*
G01*
X105952405Y-124427595D01*
X105987630Y-124480314D01*
X106000000Y-124542500D01*
X106000000Y-124867500D01*
X105987630Y-124929686D01*
X105952405Y-124982405D01*
X105899686Y-125017630D01*
X105837500Y-125030000D01*
X104537500Y-125030000D01*
X104475314Y-125017630D01*
X104422595Y-124982405D01*
X104387370Y-124929686D01*
X104375000Y-124867500D01*
X104375000Y-124542500D01*
X104387370Y-124480314D01*
X104422595Y-124427595D01*
X104475314Y-124392370D01*
X104537500Y-124380000D01*
X105837500Y-124380000D01*
X105899686Y-124392370D01*
G37*
G36*
X119682403Y-122861418D02*
G01*
X119731066Y-122893934D01*
X119763582Y-122942597D01*
X119775000Y-123000000D01*
X119775000Y-124250000D01*
X119763582Y-124307403D01*
X119731066Y-124356066D01*
X119682403Y-124388582D01*
X119625000Y-124400000D01*
X119325000Y-124400000D01*
X119267597Y-124388582D01*
X119218934Y-124356066D01*
X119186418Y-124307403D01*
X119175000Y-124250000D01*
X119175000Y-123000000D01*
X119186418Y-122942597D01*
X119218934Y-122893934D01*
X119267597Y-122861418D01*
X119325000Y-122850000D01*
X119625000Y-122850000D01*
X119682403Y-122861418D01*
G37*
G36*
X120682403Y-122861418D02*
G01*
X120731066Y-122893934D01*
X120763582Y-122942597D01*
X120775000Y-123000000D01*
X120775000Y-124250000D01*
X120763582Y-124307403D01*
X120731066Y-124356066D01*
X120682403Y-124388582D01*
X120625000Y-124400000D01*
X120325000Y-124400000D01*
X120267597Y-124388582D01*
X120218934Y-124356066D01*
X120186418Y-124307403D01*
X120175000Y-124250000D01*
X120175000Y-123000000D01*
X120186418Y-122942597D01*
X120218934Y-122893934D01*
X120267597Y-122861418D01*
X120325000Y-122850000D01*
X120625000Y-122850000D01*
X120682403Y-122861418D01*
G37*
G36*
X121682403Y-122861418D02*
G01*
X121731066Y-122893934D01*
X121763582Y-122942597D01*
X121775000Y-123000000D01*
X121775000Y-124250000D01*
X121763582Y-124307403D01*
X121731066Y-124356066D01*
X121682403Y-124388582D01*
X121625000Y-124400000D01*
X121325000Y-124400000D01*
X121267597Y-124388582D01*
X121218934Y-124356066D01*
X121186418Y-124307403D01*
X121175000Y-124250000D01*
X121175000Y-123000000D01*
X121186418Y-122942597D01*
X121218934Y-122893934D01*
X121267597Y-122861418D01*
X121325000Y-122850000D01*
X121625000Y-122850000D01*
X121682403Y-122861418D01*
G37*
G36*
X122682403Y-122861418D02*
G01*
X122731066Y-122893934D01*
X122763582Y-122942597D01*
X122775000Y-123000000D01*
X122775000Y-124250000D01*
X122763582Y-124307403D01*
X122731066Y-124356066D01*
X122682403Y-124388582D01*
X122625000Y-124400000D01*
X122325000Y-124400000D01*
X122267597Y-124388582D01*
X122218934Y-124356066D01*
X122186418Y-124307403D01*
X122175000Y-124250000D01*
X122175000Y-123000000D01*
X122186418Y-122942597D01*
X122218934Y-122893934D01*
X122267597Y-122861418D01*
X122325000Y-122850000D01*
X122625000Y-122850000D01*
X122682403Y-122861418D01*
G37*
G36*
X109990638Y-124100000D02*
G01*
X109690638Y-124100000D01*
X109690638Y-123650000D01*
X109990638Y-123650000D01*
X109990638Y-124100000D01*
G37*
G36*
X110490638Y-124100000D02*
G01*
X110190638Y-124100000D01*
X110190638Y-123650000D01*
X110490638Y-123650000D01*
X110490638Y-124100000D01*
G37*
G36*
X110990638Y-124100000D02*
G01*
X110690638Y-124100000D01*
X110690638Y-123650000D01*
X110990638Y-123650000D01*
X110990638Y-124100000D01*
G37*
G36*
X111490638Y-124100000D02*
G01*
X111190638Y-124100000D01*
X111190638Y-123650000D01*
X111490638Y-123650000D01*
X111490638Y-124100000D01*
G37*
G36*
X98724686Y-123122370D02*
G01*
X98777405Y-123157595D01*
X98812630Y-123210314D01*
X98825000Y-123272500D01*
X98825000Y-123597500D01*
X98812630Y-123659686D01*
X98777405Y-123712405D01*
X98724686Y-123747630D01*
X98662500Y-123760000D01*
X97362500Y-123760000D01*
X97300314Y-123747630D01*
X97247595Y-123712405D01*
X97212370Y-123659686D01*
X97200000Y-123597500D01*
X97200000Y-123272500D01*
X97212370Y-123210314D01*
X97247595Y-123157595D01*
X97300314Y-123122370D01*
X97362500Y-123110000D01*
X98662500Y-123110000D01*
X98724686Y-123122370D01*
G37*
G36*
X105899686Y-123122370D02*
G01*
X105952405Y-123157595D01*
X105987630Y-123210314D01*
X106000000Y-123272500D01*
X106000000Y-123597500D01*
X105987630Y-123659686D01*
X105952405Y-123712405D01*
X105899686Y-123747630D01*
X105837500Y-123760000D01*
X104537500Y-123760000D01*
X104475314Y-123747630D01*
X104422595Y-123712405D01*
X104387370Y-123659686D01*
X104375000Y-123597500D01*
X104375000Y-123272500D01*
X104387370Y-123210314D01*
X104422595Y-123157595D01*
X104475314Y-123122370D01*
X104537500Y-123110000D01*
X105837500Y-123110000D01*
X105899686Y-123122370D01*
G37*
G36*
X109540638Y-123500000D02*
G01*
X109090638Y-123500000D01*
X109090638Y-123200000D01*
X109540638Y-123200000D01*
X109540638Y-123500000D01*
G37*
G36*
X112090638Y-123500000D02*
G01*
X111640638Y-123500000D01*
X111640638Y-123200000D01*
X112090638Y-123200000D01*
X112090638Y-123500000D01*
G37*
G36*
X130504047Y-120518305D02*
G01*
X130555408Y-120524264D01*
X130572954Y-120532011D01*
X130595671Y-120536530D01*
X130619991Y-120552780D01*
X130640793Y-120561965D01*
X130655000Y-120576172D01*
X130676777Y-120590723D01*
X130691327Y-120612499D01*
X130705534Y-120626706D01*
X130714718Y-120647506D01*
X130730970Y-120671829D01*
X130735489Y-120694548D01*
X130743235Y-120712091D01*
X130749192Y-120763440D01*
X130750000Y-120767500D01*
X130750000Y-122867500D01*
X130749192Y-122871559D01*
X130743235Y-122922908D01*
X130735489Y-122940450D01*
X130730970Y-122963171D01*
X130714716Y-122987495D01*
X130705534Y-123008293D01*
X130691329Y-123022497D01*
X130676777Y-123044277D01*
X130654997Y-123058829D01*
X130640793Y-123073034D01*
X130619995Y-123082216D01*
X130595671Y-123098470D01*
X130572950Y-123102989D01*
X130555408Y-123110735D01*
X130504061Y-123116692D01*
X130500000Y-123117500D01*
X128400000Y-123117500D01*
X128395941Y-123116692D01*
X128344591Y-123110735D01*
X128327048Y-123102989D01*
X128304329Y-123098470D01*
X128280006Y-123082218D01*
X128259206Y-123073034D01*
X128244999Y-123058827D01*
X128223223Y-123044277D01*
X128208672Y-123022500D01*
X128194465Y-123008293D01*
X128185280Y-122987491D01*
X128169030Y-122963171D01*
X128164511Y-122940454D01*
X128156764Y-122922908D01*
X128150805Y-122871549D01*
X128150000Y-122867500D01*
X128150000Y-120767500D01*
X128150804Y-120763453D01*
X128156764Y-120712091D01*
X128164511Y-120694543D01*
X128169030Y-120671829D01*
X128185278Y-120647510D01*
X128194465Y-120626706D01*
X128208674Y-120612496D01*
X128223223Y-120590723D01*
X128244996Y-120576174D01*
X128259206Y-120561965D01*
X128280010Y-120552778D01*
X128304329Y-120536530D01*
X128327043Y-120532011D01*
X128344591Y-120524264D01*
X128395952Y-120518305D01*
X128400000Y-120517500D01*
X130500000Y-120517500D01*
X130504047Y-120518305D01*
G37*
G36*
X134753479Y-120553419D02*
G01*
X134947488Y-120616457D01*
X135129248Y-120709068D01*
X135294282Y-120828972D01*
X135438528Y-120973218D01*
X135558432Y-121138252D01*
X135651043Y-121320012D01*
X135714081Y-121514021D01*
X135745993Y-121715503D01*
X135745993Y-121919497D01*
X135714081Y-122120979D01*
X135651043Y-122314988D01*
X135558432Y-122496748D01*
X135438528Y-122661782D01*
X135294282Y-122806028D01*
X135129248Y-122925932D01*
X134947488Y-123018543D01*
X134753479Y-123081581D01*
X134551997Y-123113493D01*
X134348003Y-123113493D01*
X134146521Y-123081581D01*
X133952512Y-123018543D01*
X133770752Y-122925932D01*
X133605718Y-122806028D01*
X133461472Y-122661782D01*
X133341568Y-122496748D01*
X133248957Y-122314988D01*
X133185919Y-122120979D01*
X133154007Y-121919497D01*
X133154007Y-121715503D01*
X133185919Y-121514021D01*
X133248957Y-121320012D01*
X133341568Y-121138252D01*
X133461472Y-120973218D01*
X133605718Y-120828972D01*
X133770752Y-120709068D01*
X133952512Y-120616457D01*
X134146521Y-120553419D01*
X134348003Y-120521507D01*
X134551997Y-120521507D01*
X134753479Y-120553419D01*
G37*
G36*
X109540638Y-123000000D02*
G01*
X109090638Y-123000000D01*
X109090638Y-122700000D01*
X109540638Y-122700000D01*
X109540638Y-123000000D01*
G37*
G36*
X112090638Y-123000000D02*
G01*
X111640638Y-123000000D01*
X111640638Y-122700000D01*
X112090638Y-122700000D01*
X112090638Y-123000000D01*
G37*
G36*
X109540638Y-122500000D02*
G01*
X109090638Y-122500000D01*
X109090638Y-122200000D01*
X109540638Y-122200000D01*
X109540638Y-122500000D01*
G37*
G36*
X112090638Y-122500000D02*
G01*
X111640638Y-122500000D01*
X111640638Y-122200000D01*
X112090638Y-122200000D01*
X112090638Y-122500000D01*
G37*
G36*
X98724686Y-121852370D02*
G01*
X98777405Y-121887595D01*
X98812630Y-121940314D01*
X98825000Y-122002500D01*
X98825000Y-122327500D01*
X98812630Y-122389686D01*
X98777405Y-122442405D01*
X98724686Y-122477630D01*
X98662500Y-122490000D01*
X97362500Y-122490000D01*
X97300314Y-122477630D01*
X97247595Y-122442405D01*
X97212370Y-122389686D01*
X97200000Y-122327500D01*
X97200000Y-122002500D01*
X97212370Y-121940314D01*
X97247595Y-121887595D01*
X97300314Y-121852370D01*
X97362500Y-121840000D01*
X98662500Y-121840000D01*
X98724686Y-121852370D01*
G37*
G36*
X105899686Y-121852370D02*
G01*
X105952405Y-121887595D01*
X105987630Y-121940314D01*
X106000000Y-122002500D01*
X106000000Y-122327500D01*
X105987630Y-122389686D01*
X105952405Y-122442405D01*
X105899686Y-122477630D01*
X105837500Y-122490000D01*
X104537500Y-122490000D01*
X104475314Y-122477630D01*
X104422595Y-122442405D01*
X104387370Y-122389686D01*
X104375000Y-122327500D01*
X104375000Y-122002500D01*
X104387370Y-121940314D01*
X104422595Y-121887595D01*
X104475314Y-121852370D01*
X104537500Y-121840000D01*
X105837500Y-121840000D01*
X105899686Y-121852370D01*
G37*
G36*
X109540638Y-122000000D02*
G01*
X109090638Y-122000000D01*
X109090638Y-121700000D01*
X109540638Y-121700000D01*
X109540638Y-122000000D01*
G37*
G36*
X112090638Y-122000000D02*
G01*
X111640638Y-122000000D01*
X111640638Y-121700000D01*
X112090638Y-121700000D01*
X112090638Y-122000000D01*
G37*
G36*
X107183576Y-121260657D02*
G01*
X107228995Y-121291005D01*
X107259343Y-121336424D01*
X107270000Y-121390000D01*
X107270000Y-121670000D01*
X107259343Y-121723576D01*
X107228995Y-121768995D01*
X107183576Y-121799343D01*
X107130000Y-121810000D01*
X106790000Y-121810000D01*
X106736424Y-121799343D01*
X106691005Y-121768995D01*
X106660657Y-121723576D01*
X106650000Y-121670000D01*
X106650000Y-121390000D01*
X106660657Y-121336424D01*
X106691005Y-121291005D01*
X106736424Y-121260657D01*
X106790000Y-121250000D01*
X107130000Y-121250000D01*
X107183576Y-121260657D01*
G37*
G36*
X109990638Y-121550000D02*
G01*
X109690638Y-121550000D01*
X109690638Y-121100000D01*
X109990638Y-121100000D01*
X109990638Y-121550000D01*
G37*
G36*
X110490638Y-121550000D02*
G01*
X110190638Y-121550000D01*
X110190638Y-121100000D01*
X110490638Y-121100000D01*
X110490638Y-121550000D01*
G37*
G36*
X110990638Y-121550000D02*
G01*
X110690638Y-121550000D01*
X110690638Y-121100000D01*
X110990638Y-121100000D01*
X110990638Y-121550000D01*
G37*
G36*
X111490638Y-121550000D02*
G01*
X111190638Y-121550000D01*
X111190638Y-121100000D01*
X111490638Y-121100000D01*
X111490638Y-121550000D01*
G37*
G36*
X98724686Y-120582370D02*
G01*
X98777405Y-120617595D01*
X98812630Y-120670314D01*
X98825000Y-120732500D01*
X98825000Y-121057500D01*
X98812630Y-121119686D01*
X98777405Y-121172405D01*
X98724686Y-121207630D01*
X98662500Y-121220000D01*
X97362500Y-121220000D01*
X97300314Y-121207630D01*
X97247595Y-121172405D01*
X97212370Y-121119686D01*
X97200000Y-121057500D01*
X97200000Y-120732500D01*
X97212370Y-120670314D01*
X97247595Y-120617595D01*
X97300314Y-120582370D01*
X97362500Y-120570000D01*
X98662500Y-120570000D01*
X98724686Y-120582370D01*
G37*
G36*
X105899686Y-120582370D02*
G01*
X105952405Y-120617595D01*
X105987630Y-120670314D01*
X106000000Y-120732500D01*
X106000000Y-121057500D01*
X105987630Y-121119686D01*
X105952405Y-121172405D01*
X105899686Y-121207630D01*
X105837500Y-121220000D01*
X104537500Y-121220000D01*
X104475314Y-121207630D01*
X104422595Y-121172405D01*
X104387370Y-121119686D01*
X104375000Y-121057500D01*
X104375000Y-120732500D01*
X104387370Y-120670314D01*
X104422595Y-120617595D01*
X104475314Y-120582370D01*
X104537500Y-120570000D01*
X105837500Y-120570000D01*
X105899686Y-120582370D01*
G37*
G36*
X107183576Y-120300657D02*
G01*
X107228995Y-120331005D01*
X107259343Y-120376424D01*
X107270000Y-120430000D01*
X107270000Y-120710000D01*
X107259343Y-120763576D01*
X107228995Y-120808995D01*
X107183576Y-120839343D01*
X107130000Y-120850000D01*
X106790000Y-120850000D01*
X106736424Y-120839343D01*
X106691005Y-120808995D01*
X106660657Y-120763576D01*
X106650000Y-120710000D01*
X106650000Y-120430000D01*
X106660657Y-120376424D01*
X106691005Y-120331005D01*
X106736424Y-120300657D01*
X106790000Y-120290000D01*
X107130000Y-120290000D01*
X107183576Y-120300657D01*
G37*
G36*
X117433576Y-118798157D02*
G01*
X117478995Y-118828505D01*
X117509343Y-118873924D01*
X117520000Y-118927500D01*
X117520000Y-119267500D01*
X117509343Y-119321076D01*
X117478995Y-119366495D01*
X117433576Y-119396843D01*
X117380000Y-119407500D01*
X117100000Y-119407500D01*
X117046424Y-119396843D01*
X117001005Y-119366495D01*
X116970657Y-119321076D01*
X116960000Y-119267500D01*
X116960000Y-118927500D01*
X116970657Y-118873924D01*
X117001005Y-118828505D01*
X117046424Y-118798157D01*
X117100000Y-118787500D01*
X117380000Y-118787500D01*
X117433576Y-118798157D01*
G37*
G36*
X118393576Y-118798157D02*
G01*
X118438995Y-118828505D01*
X118469343Y-118873924D01*
X118480000Y-118927500D01*
X118480000Y-119267500D01*
X118469343Y-119321076D01*
X118438995Y-119366495D01*
X118393576Y-119396843D01*
X118340000Y-119407500D01*
X118060000Y-119407500D01*
X118006424Y-119396843D01*
X117961005Y-119366495D01*
X117930657Y-119321076D01*
X117920000Y-119267500D01*
X117920000Y-118927500D01*
X117930657Y-118873924D01*
X117961005Y-118828505D01*
X118006424Y-118798157D01*
X118060000Y-118787500D01*
X118340000Y-118787500D01*
X118393576Y-118798157D01*
G37*
G36*
X114402399Y-119395300D02*
G01*
X114097599Y-119395300D01*
X114097599Y-118861900D01*
X114402399Y-118861900D01*
X114402399Y-119395300D01*
G37*
G36*
X114902400Y-119395300D02*
G01*
X114597600Y-119395300D01*
X114597600Y-118861900D01*
X114902400Y-118861900D01*
X114902400Y-119395300D01*
G37*
G36*
X115402400Y-119395300D02*
G01*
X115097600Y-119395300D01*
X115097600Y-118861900D01*
X115402400Y-118861900D01*
X115402400Y-119395300D01*
G37*
G36*
X115902401Y-119395300D02*
G01*
X115597601Y-119395300D01*
X115597601Y-118861900D01*
X115902401Y-118861900D01*
X115902401Y-119395300D01*
G37*
G36*
X106788576Y-118250657D02*
G01*
X106833995Y-118281005D01*
X106864343Y-118326424D01*
X106875000Y-118380000D01*
X106875000Y-118720000D01*
X106864343Y-118773576D01*
X106833995Y-118818995D01*
X106788576Y-118849343D01*
X106735000Y-118860000D01*
X106455000Y-118860000D01*
X106401424Y-118849343D01*
X106356005Y-118818995D01*
X106325657Y-118773576D01*
X106315000Y-118720000D01*
X106315000Y-118380000D01*
X106325657Y-118326424D01*
X106356005Y-118281005D01*
X106401424Y-118250657D01*
X106455000Y-118240000D01*
X106735000Y-118240000D01*
X106788576Y-118250657D01*
G37*
G36*
X107748576Y-118250657D02*
G01*
X107793995Y-118281005D01*
X107824343Y-118326424D01*
X107835000Y-118380000D01*
X107835000Y-118720000D01*
X107824343Y-118773576D01*
X107793995Y-118818995D01*
X107748576Y-118849343D01*
X107695000Y-118860000D01*
X107415000Y-118860000D01*
X107361424Y-118849343D01*
X107316005Y-118818995D01*
X107285657Y-118773576D01*
X107275000Y-118720000D01*
X107275000Y-118380000D01*
X107285657Y-118326424D01*
X107316005Y-118281005D01*
X107361424Y-118250657D01*
X107415000Y-118240000D01*
X107695000Y-118240000D01*
X107748576Y-118250657D01*
G37*
G36*
X114339600Y-118599899D02*
G01*
X113806200Y-118599899D01*
X113806200Y-118295099D01*
X114339600Y-118295099D01*
X114339600Y-118599899D01*
G37*
G36*
X116193800Y-118599899D02*
G01*
X115660400Y-118599899D01*
X115660400Y-118295099D01*
X116193800Y-118295099D01*
X116193800Y-118599899D01*
G37*
G36*
X122201537Y-117540224D02*
G01*
X122266421Y-117583579D01*
X122309776Y-117648463D01*
X122325000Y-117725000D01*
X122325000Y-118275000D01*
X122309776Y-118351537D01*
X122266421Y-118416421D01*
X122201537Y-118459776D01*
X122125000Y-118475000D01*
X121725000Y-118475000D01*
X121648463Y-118459776D01*
X121583579Y-118416421D01*
X121540224Y-118351537D01*
X121525000Y-118275000D01*
X121525000Y-117725000D01*
X121540224Y-117648463D01*
X121583579Y-117583579D01*
X121648463Y-117540224D01*
X121725000Y-117525000D01*
X122125000Y-117525000D01*
X122201537Y-117540224D01*
G37*
G36*
X123851537Y-117540224D02*
G01*
X123916421Y-117583579D01*
X123959776Y-117648463D01*
X123975000Y-117725000D01*
X123975000Y-118275000D01*
X123959776Y-118351537D01*
X123916421Y-118416421D01*
X123851537Y-118459776D01*
X123775000Y-118475000D01*
X123375000Y-118475000D01*
X123298463Y-118459776D01*
X123233579Y-118416421D01*
X123190224Y-118351537D01*
X123175000Y-118275000D01*
X123175000Y-117725000D01*
X123190224Y-117648463D01*
X123233579Y-117583579D01*
X123298463Y-117540224D01*
X123375000Y-117525000D01*
X123775000Y-117525000D01*
X123851537Y-117540224D01*
G37*
G36*
X119136104Y-117389627D02*
G01*
X119209099Y-117438401D01*
X119257873Y-117511396D01*
X119275000Y-117597500D01*
X119275000Y-118047500D01*
X119257873Y-118133604D01*
X119209099Y-118206599D01*
X119136104Y-118255373D01*
X119050000Y-118272500D01*
X118550000Y-118272500D01*
X118463896Y-118255373D01*
X118390901Y-118206599D01*
X118342127Y-118133604D01*
X118325000Y-118047500D01*
X118325000Y-117597500D01*
X118342127Y-117511396D01*
X118390901Y-117438401D01*
X118463896Y-117389627D01*
X118550000Y-117372500D01*
X119050000Y-117372500D01*
X119136104Y-117389627D01*
G37*
G36*
X114339600Y-118099900D02*
G01*
X113806200Y-118099900D01*
X113806200Y-117795100D01*
X114339600Y-117795100D01*
X114339600Y-118099900D01*
G37*
G36*
X116193800Y-118099900D02*
G01*
X115660400Y-118099900D01*
X115660400Y-117795100D01*
X116193800Y-117795100D01*
X116193800Y-118099900D01*
G37*
G36*
X114339600Y-117599901D02*
G01*
X113806200Y-117599901D01*
X113806200Y-117295101D01*
X114339600Y-117295101D01*
X114339600Y-117599901D01*
G37*
G36*
X116193800Y-117599901D02*
G01*
X115660400Y-117599901D01*
X115660400Y-117295101D01*
X116193800Y-117295101D01*
X116193800Y-117599901D01*
G37*
G36*
X117523576Y-117008157D02*
G01*
X117568995Y-117038505D01*
X117599343Y-117083924D01*
X117610000Y-117137500D01*
X117610000Y-117417500D01*
X117599343Y-117471076D01*
X117568995Y-117516495D01*
X117523576Y-117546843D01*
X117470000Y-117557500D01*
X117130000Y-117557500D01*
X117076424Y-117546843D01*
X117031005Y-117516495D01*
X117000657Y-117471076D01*
X116990000Y-117417500D01*
X116990000Y-117137500D01*
X117000657Y-117083924D01*
X117031005Y-117038505D01*
X117076424Y-117008157D01*
X117130000Y-116997500D01*
X117470000Y-116997500D01*
X117523576Y-117008157D01*
G37*
G36*
X106200000Y-117100000D02*
G01*
X105850000Y-117100000D01*
X105850000Y-116750000D01*
X106200000Y-116750000D01*
X106200000Y-117100000D01*
G37*
G36*
X106850000Y-117100000D02*
G01*
X106500000Y-117100000D01*
X106500000Y-116750000D01*
X106850000Y-116750000D01*
X106850000Y-117100000D01*
G37*
G36*
X107500000Y-117100000D02*
G01*
X107150000Y-117100000D01*
X107150000Y-116750000D01*
X107500000Y-116750000D01*
X107500000Y-117100000D01*
G37*
G36*
X108150000Y-117100000D02*
G01*
X107800000Y-117100000D01*
X107800000Y-116750000D01*
X108150000Y-116750000D01*
X108150000Y-117100000D01*
G37*
G36*
X114402399Y-117033100D02*
G01*
X114097599Y-117033100D01*
X114097599Y-116499700D01*
X114402399Y-116499700D01*
X114402399Y-117033100D01*
G37*
G36*
X114902400Y-117033100D02*
G01*
X114597600Y-117033100D01*
X114597600Y-116499700D01*
X114902400Y-116499700D01*
X114902400Y-117033100D01*
G37*
G36*
X115402400Y-117033100D02*
G01*
X115097600Y-117033100D01*
X115097600Y-116499700D01*
X115402400Y-116499700D01*
X115402400Y-117033100D01*
G37*
G36*
X115902401Y-117033100D02*
G01*
X115597601Y-117033100D01*
X115597601Y-116499700D01*
X115902401Y-116499700D01*
X115902401Y-117033100D01*
G37*
G36*
X119136104Y-115839627D02*
G01*
X119209099Y-115888401D01*
X119257873Y-115961396D01*
X119275000Y-116047500D01*
X119275000Y-116497500D01*
X119257873Y-116583604D01*
X119209099Y-116656599D01*
X119136104Y-116705373D01*
X119050000Y-116722500D01*
X118550000Y-116722500D01*
X118463896Y-116705373D01*
X118390901Y-116656599D01*
X118342127Y-116583604D01*
X118325000Y-116497500D01*
X118325000Y-116047500D01*
X118342127Y-115961396D01*
X118390901Y-115888401D01*
X118463896Y-115839627D01*
X118550000Y-115822500D01*
X119050000Y-115822500D01*
X119136104Y-115839627D01*
G37*
G36*
X117523576Y-116048157D02*
G01*
X117568995Y-116078505D01*
X117599343Y-116123924D01*
X117610000Y-116177500D01*
X117610000Y-116457500D01*
X117599343Y-116511076D01*
X117568995Y-116556495D01*
X117523576Y-116586843D01*
X117470000Y-116597500D01*
X117130000Y-116597500D01*
X117076424Y-116586843D01*
X117031005Y-116556495D01*
X117000657Y-116511076D01*
X116990000Y-116457500D01*
X116990000Y-116177500D01*
X117000657Y-116123924D01*
X117031005Y-116078505D01*
X117076424Y-116048157D01*
X117130000Y-116037500D01*
X117470000Y-116037500D01*
X117523576Y-116048157D01*
G37*
G36*
X130601537Y-115240224D02*
G01*
X130666421Y-115283579D01*
X130709776Y-115348463D01*
X130725000Y-115425000D01*
X130725000Y-115975000D01*
X130709776Y-116051537D01*
X130666421Y-116116421D01*
X130601537Y-116159776D01*
X130525000Y-116175000D01*
X130125000Y-116175000D01*
X130048463Y-116159776D01*
X129983579Y-116116421D01*
X129940224Y-116051537D01*
X129925000Y-115975000D01*
X129925000Y-115425000D01*
X129940224Y-115348463D01*
X129983579Y-115283579D01*
X130048463Y-115240224D01*
X130125000Y-115225000D01*
X130525000Y-115225000D01*
X130601537Y-115240224D01*
G37*
G36*
X132251537Y-115240224D02*
G01*
X132316421Y-115283579D01*
X132359776Y-115348463D01*
X132375000Y-115425000D01*
X132375000Y-115975000D01*
X132359776Y-116051537D01*
X132316421Y-116116421D01*
X132251537Y-116159776D01*
X132175000Y-116175000D01*
X131775000Y-116175000D01*
X131698463Y-116159776D01*
X131633579Y-116116421D01*
X131590224Y-116051537D01*
X131575000Y-115975000D01*
X131575000Y-115425000D01*
X131590224Y-115348463D01*
X131633579Y-115283579D01*
X131698463Y-115240224D01*
X131775000Y-115225000D01*
X132175000Y-115225000D01*
X132251537Y-115240224D01*
G37*
G36*
X127227462Y-115191651D02*
G01*
X127298430Y-115239070D01*
X127345849Y-115310038D01*
X127362500Y-115393750D01*
X127362500Y-115906250D01*
X127345849Y-115989962D01*
X127298430Y-116060930D01*
X127227462Y-116108349D01*
X127143750Y-116125000D01*
X126706250Y-116125000D01*
X126622538Y-116108349D01*
X126551570Y-116060930D01*
X126504151Y-115989962D01*
X126487500Y-115906250D01*
X126487500Y-115393750D01*
X126504151Y-115310038D01*
X126551570Y-115239070D01*
X126622538Y-115191651D01*
X126706250Y-115175000D01*
X127143750Y-115175000D01*
X127227462Y-115191651D01*
G37*
G36*
X128802462Y-115191651D02*
G01*
X128873430Y-115239070D01*
X128920849Y-115310038D01*
X128937500Y-115393750D01*
X128937500Y-115906250D01*
X128920849Y-115989962D01*
X128873430Y-116060930D01*
X128802462Y-116108349D01*
X128718750Y-116125000D01*
X128281250Y-116125000D01*
X128197538Y-116108349D01*
X128126570Y-116060930D01*
X128079151Y-115989962D01*
X128062500Y-115906250D01*
X128062500Y-115393750D01*
X128079151Y-115310038D01*
X128126570Y-115239070D01*
X128197538Y-115191651D01*
X128281250Y-115175000D01*
X128718750Y-115175000D01*
X128802462Y-115191651D01*
G37*
G36*
X108189034Y-115205764D02*
G01*
X108222125Y-115227875D01*
X108244236Y-115260966D01*
X108252000Y-115300000D01*
X108252000Y-115650000D01*
X108244236Y-115689034D01*
X108222125Y-115722125D01*
X108189034Y-115744236D01*
X108150000Y-115752000D01*
X107800000Y-115752000D01*
X107760966Y-115744236D01*
X107727875Y-115722125D01*
X107705764Y-115689034D01*
X107698000Y-115650000D01*
X107698000Y-115300000D01*
X107705764Y-115260966D01*
X107727875Y-115227875D01*
X107760966Y-115205764D01*
X107800000Y-115198000D01*
X108150000Y-115198000D01*
X108189034Y-115205764D01*
G37*
G36*
X106200000Y-115650000D02*
G01*
X105850000Y-115650000D01*
X105850000Y-115300000D01*
X106200000Y-115300000D01*
X106200000Y-115650000D01*
G37*
G36*
X106850000Y-115650000D02*
G01*
X106500000Y-115650000D01*
X106500000Y-115300000D01*
X106850000Y-115300000D01*
X106850000Y-115650000D01*
G37*
G36*
X107500000Y-115650000D02*
G01*
X107150000Y-115650000D01*
X107150000Y-115300000D01*
X107500000Y-115300000D01*
X107500000Y-115650000D01*
G37*
G36*
X126604047Y-112675805D02*
G01*
X126655408Y-112681764D01*
X126672954Y-112689511D01*
X126695671Y-112694030D01*
X126719991Y-112710280D01*
X126740793Y-112719465D01*
X126755000Y-112733672D01*
X126776777Y-112748223D01*
X126791327Y-112769999D01*
X126805534Y-112784206D01*
X126814718Y-112805006D01*
X126830970Y-112829329D01*
X126835489Y-112852048D01*
X126843235Y-112869591D01*
X126849192Y-112920940D01*
X126850000Y-112925000D01*
X126850000Y-113875000D01*
X126849192Y-113879059D01*
X126843235Y-113930408D01*
X126835489Y-113947950D01*
X126830970Y-113970671D01*
X126814716Y-113994995D01*
X126805534Y-114015793D01*
X126791329Y-114029997D01*
X126776777Y-114051777D01*
X126754997Y-114066329D01*
X126740793Y-114080534D01*
X126719995Y-114089716D01*
X126695671Y-114105970D01*
X126672950Y-114110489D01*
X126655408Y-114118235D01*
X126604061Y-114124192D01*
X126600000Y-114125000D01*
X126100000Y-114125000D01*
X126095941Y-114124192D01*
X126044591Y-114118235D01*
X126027048Y-114110489D01*
X126004329Y-114105970D01*
X125980006Y-114089718D01*
X125959206Y-114080534D01*
X125944999Y-114066327D01*
X125923223Y-114051777D01*
X125908672Y-114030000D01*
X125894465Y-114015793D01*
X125885280Y-113994991D01*
X125869030Y-113970671D01*
X125864511Y-113947954D01*
X125856764Y-113930408D01*
X125850805Y-113879049D01*
X125850000Y-113875000D01*
X125850000Y-112925000D01*
X125850804Y-112920953D01*
X125856764Y-112869591D01*
X125864511Y-112852043D01*
X125869030Y-112829329D01*
X125885278Y-112805010D01*
X125894465Y-112784206D01*
X125908674Y-112769996D01*
X125923223Y-112748223D01*
X125944996Y-112733674D01*
X125959206Y-112719465D01*
X125980010Y-112710278D01*
X126004329Y-112694030D01*
X126027043Y-112689511D01*
X126044591Y-112681764D01*
X126095952Y-112675805D01*
X126100000Y-112675000D01*
X126600000Y-112675000D01*
X126604047Y-112675805D01*
G37*
G36*
X128504047Y-112675805D02*
G01*
X128555408Y-112681764D01*
X128572954Y-112689511D01*
X128595671Y-112694030D01*
X128619991Y-112710280D01*
X128640793Y-112719465D01*
X128655000Y-112733672D01*
X128676777Y-112748223D01*
X128691327Y-112769999D01*
X128705534Y-112784206D01*
X128714718Y-112805006D01*
X128730970Y-112829329D01*
X128735489Y-112852048D01*
X128743235Y-112869591D01*
X128749192Y-112920940D01*
X128750000Y-112925000D01*
X128750000Y-113875000D01*
X128749192Y-113879059D01*
X128743235Y-113930408D01*
X128735489Y-113947950D01*
X128730970Y-113970671D01*
X128714716Y-113994995D01*
X128705534Y-114015793D01*
X128691329Y-114029997D01*
X128676777Y-114051777D01*
X128654997Y-114066329D01*
X128640793Y-114080534D01*
X128619995Y-114089716D01*
X128595671Y-114105970D01*
X128572950Y-114110489D01*
X128555408Y-114118235D01*
X128504061Y-114124192D01*
X128500000Y-114125000D01*
X128000000Y-114125000D01*
X127995941Y-114124192D01*
X127944591Y-114118235D01*
X127927048Y-114110489D01*
X127904329Y-114105970D01*
X127880006Y-114089718D01*
X127859206Y-114080534D01*
X127844999Y-114066327D01*
X127823223Y-114051777D01*
X127808672Y-114030000D01*
X127794465Y-114015793D01*
X127785280Y-113994991D01*
X127769030Y-113970671D01*
X127764511Y-113947954D01*
X127756764Y-113930408D01*
X127750805Y-113879049D01*
X127750000Y-113875000D01*
X127750000Y-112925000D01*
X127750804Y-112920953D01*
X127756764Y-112869591D01*
X127764511Y-112852043D01*
X127769030Y-112829329D01*
X127785278Y-112805010D01*
X127794465Y-112784206D01*
X127808674Y-112769996D01*
X127823223Y-112748223D01*
X127844996Y-112733674D01*
X127859206Y-112719465D01*
X127880010Y-112710278D01*
X127904329Y-112694030D01*
X127927043Y-112689511D01*
X127944591Y-112681764D01*
X127995952Y-112675805D01*
X128000000Y-112675000D01*
X128500000Y-112675000D01*
X128504047Y-112675805D01*
G37*
G36*
X115036104Y-112712127D02*
G01*
X115109099Y-112760901D01*
X115157873Y-112833896D01*
X115175000Y-112920000D01*
X115175000Y-113420000D01*
X115157873Y-113506104D01*
X115109099Y-113579099D01*
X115036104Y-113627873D01*
X114950000Y-113645000D01*
X114500000Y-113645000D01*
X114413896Y-113627873D01*
X114340901Y-113579099D01*
X114292127Y-113506104D01*
X114275000Y-113420000D01*
X114275000Y-112920000D01*
X114292127Y-112833896D01*
X114340901Y-112760901D01*
X114413896Y-112712127D01*
X114500000Y-112695000D01*
X114950000Y-112695000D01*
X115036104Y-112712127D01*
G37*
G36*
X116586104Y-112712127D02*
G01*
X116659099Y-112760901D01*
X116707873Y-112833896D01*
X116725000Y-112920000D01*
X116725000Y-113420000D01*
X116707873Y-113506104D01*
X116659099Y-113579099D01*
X116586104Y-113627873D01*
X116500000Y-113645000D01*
X116050000Y-113645000D01*
X115963896Y-113627873D01*
X115890901Y-113579099D01*
X115842127Y-113506104D01*
X115825000Y-113420000D01*
X115825000Y-112920000D01*
X115842127Y-112833896D01*
X115890901Y-112760901D01*
X115963896Y-112712127D01*
X116050000Y-112695000D01*
X116500000Y-112695000D01*
X116586104Y-112712127D01*
G37*
G36*
X103511104Y-111304627D02*
G01*
X103584099Y-111353401D01*
X103632873Y-111426396D01*
X103650000Y-111512500D01*
X103650000Y-112012500D01*
X103632873Y-112098604D01*
X103584099Y-112171599D01*
X103511104Y-112220373D01*
X103425000Y-112237500D01*
X102975000Y-112237500D01*
X102888896Y-112220373D01*
X102815901Y-112171599D01*
X102767127Y-112098604D01*
X102750000Y-112012500D01*
X102750000Y-111512500D01*
X102767127Y-111426396D01*
X102815901Y-111353401D01*
X102888896Y-111304627D01*
X102975000Y-111287500D01*
X103425000Y-111287500D01*
X103511104Y-111304627D01*
G37*
G36*
X105061104Y-111304627D02*
G01*
X105134099Y-111353401D01*
X105182873Y-111426396D01*
X105200000Y-111512500D01*
X105200000Y-112012500D01*
X105182873Y-112098604D01*
X105134099Y-112171599D01*
X105061104Y-112220373D01*
X104975000Y-112237500D01*
X104525000Y-112237500D01*
X104438896Y-112220373D01*
X104365901Y-112171599D01*
X104317127Y-112098604D01*
X104300000Y-112012500D01*
X104300000Y-111512500D01*
X104317127Y-111426396D01*
X104365901Y-111353401D01*
X104438896Y-111304627D01*
X104525000Y-111287500D01*
X104975000Y-111287500D01*
X105061104Y-111304627D01*
G37*
G36*
X107963576Y-111450657D02*
G01*
X108008995Y-111481005D01*
X108039343Y-111526424D01*
X108050000Y-111580000D01*
X108050000Y-111920000D01*
X108039343Y-111973576D01*
X108008995Y-112018995D01*
X107963576Y-112049343D01*
X107910000Y-112060000D01*
X107630000Y-112060000D01*
X107576424Y-112049343D01*
X107531005Y-112018995D01*
X107500657Y-111973576D01*
X107490000Y-111920000D01*
X107490000Y-111580000D01*
X107500657Y-111526424D01*
X107531005Y-111481005D01*
X107576424Y-111450657D01*
X107630000Y-111440000D01*
X107910000Y-111440000D01*
X107963576Y-111450657D01*
G37*
G36*
X108923576Y-111450657D02*
G01*
X108968995Y-111481005D01*
X108999343Y-111526424D01*
X109010000Y-111580000D01*
X109010000Y-111920000D01*
X108999343Y-111973576D01*
X108968995Y-112018995D01*
X108923576Y-112049343D01*
X108870000Y-112060000D01*
X108590000Y-112060000D01*
X108536424Y-112049343D01*
X108491005Y-112018995D01*
X108460657Y-111973576D01*
X108450000Y-111920000D01*
X108450000Y-111580000D01*
X108460657Y-111526424D01*
X108491005Y-111481005D01*
X108536424Y-111450657D01*
X108590000Y-111440000D01*
X108870000Y-111440000D01*
X108923576Y-111450657D01*
G37*
G36*
X116063576Y-111450657D02*
G01*
X116108995Y-111481005D01*
X116139343Y-111526424D01*
X116150000Y-111580000D01*
X116150000Y-111920000D01*
X116139343Y-111973576D01*
X116108995Y-112018995D01*
X116063576Y-112049343D01*
X116010000Y-112060000D01*
X115730000Y-112060000D01*
X115676424Y-112049343D01*
X115631005Y-112018995D01*
X115600657Y-111973576D01*
X115590000Y-111920000D01*
X115590000Y-111580000D01*
X115600657Y-111526424D01*
X115631005Y-111481005D01*
X115676424Y-111450657D01*
X115730000Y-111440000D01*
X116010000Y-111440000D01*
X116063576Y-111450657D01*
G37*
G36*
X117023576Y-111450657D02*
G01*
X117068995Y-111481005D01*
X117099343Y-111526424D01*
X117110000Y-111580000D01*
X117110000Y-111920000D01*
X117099343Y-111973576D01*
X117068995Y-112018995D01*
X117023576Y-112049343D01*
X116970000Y-112060000D01*
X116690000Y-112060000D01*
X116636424Y-112049343D01*
X116591005Y-112018995D01*
X116560657Y-111973576D01*
X116550000Y-111920000D01*
X116550000Y-111580000D01*
X116560657Y-111526424D01*
X116591005Y-111481005D01*
X116636424Y-111450657D01*
X116690000Y-111440000D01*
X116970000Y-111440000D01*
X117023576Y-111450657D01*
G37*
G36*
X101764962Y-110841651D02*
G01*
X101835930Y-110889070D01*
X101883349Y-110960038D01*
X101900000Y-111043750D01*
X101900000Y-111481250D01*
X101883349Y-111564962D01*
X101835930Y-111635930D01*
X101764962Y-111683349D01*
X101681250Y-111700000D01*
X101168750Y-111700000D01*
X101085038Y-111683349D01*
X101014070Y-111635930D01*
X100966651Y-111564962D01*
X100950000Y-111481250D01*
X100950000Y-111043750D01*
X100966651Y-110960038D01*
X101014070Y-110889070D01*
X101085038Y-110841651D01*
X101168750Y-110825000D01*
X101681250Y-110825000D01*
X101764962Y-110841651D01*
G37*
G36*
X130682001Y-110065590D02*
G01*
X130687992Y-110068518D01*
X130690689Y-110068946D01*
X130733828Y-110090926D01*
X130792904Y-110119807D01*
X130880193Y-110207096D01*
X130909091Y-110266209D01*
X130931053Y-110309311D01*
X130931479Y-110312004D01*
X130934410Y-110317999D01*
X130950000Y-110425000D01*
X130950000Y-111175000D01*
X130934410Y-111282001D01*
X130931479Y-111287995D01*
X130931053Y-111290689D01*
X130909096Y-111333779D01*
X130880193Y-111392904D01*
X130792904Y-111480193D01*
X130733765Y-111509104D01*
X130690688Y-111531053D01*
X130687995Y-111531479D01*
X130682001Y-111534410D01*
X130575000Y-111550000D01*
X129325000Y-111550000D01*
X129217999Y-111534410D01*
X129212005Y-111531479D01*
X129209310Y-111531053D01*
X129166195Y-111509084D01*
X129107096Y-111480193D01*
X129019807Y-111392904D01*
X128990919Y-111333813D01*
X128968946Y-111290688D01*
X128968519Y-111287992D01*
X128965590Y-111282001D01*
X128950000Y-111175000D01*
X128950000Y-110425000D01*
X128965590Y-110317999D01*
X128968518Y-110312008D01*
X128968946Y-110309310D01*
X128990938Y-110266147D01*
X129019807Y-110207096D01*
X129107096Y-110119807D01*
X129166161Y-110090931D01*
X129209311Y-110068946D01*
X129212007Y-110068518D01*
X129217999Y-110065590D01*
X129325000Y-110050000D01*
X130575000Y-110050000D01*
X130682001Y-110065590D01*
G37*
G36*
X107678701Y-109405709D02*
G01*
X107703033Y-109421967D01*
X107719291Y-109446299D01*
X107725000Y-109475000D01*
X107725000Y-110875000D01*
X107719291Y-110903701D01*
X107703033Y-110928033D01*
X107678701Y-110944291D01*
X107650000Y-110950000D01*
X107500000Y-110950000D01*
X107471299Y-110944291D01*
X107446967Y-110928033D01*
X107430709Y-110903701D01*
X107425000Y-110875000D01*
X107425000Y-109475000D01*
X107430709Y-109446299D01*
X107446967Y-109421967D01*
X107471299Y-109405709D01*
X107500000Y-109400000D01*
X107650000Y-109400000D01*
X107678701Y-109405709D01*
G37*
G36*
X108178701Y-109405709D02*
G01*
X108203033Y-109421967D01*
X108219291Y-109446299D01*
X108225000Y-109475000D01*
X108225000Y-110875000D01*
X108219291Y-110903701D01*
X108203033Y-110928033D01*
X108178701Y-110944291D01*
X108150000Y-110950000D01*
X108000000Y-110950000D01*
X107971299Y-110944291D01*
X107946967Y-110928033D01*
X107930709Y-110903701D01*
X107925000Y-110875000D01*
X107925000Y-109475000D01*
X107930709Y-109446299D01*
X107946967Y-109421967D01*
X107971299Y-109405709D01*
X108000000Y-109400000D01*
X108150000Y-109400000D01*
X108178701Y-109405709D01*
G37*
G36*
X108678701Y-109405709D02*
G01*
X108703033Y-109421967D01*
X108719291Y-109446299D01*
X108725000Y-109475000D01*
X108725000Y-110875000D01*
X108719291Y-110903701D01*
X108703033Y-110928033D01*
X108678701Y-110944291D01*
X108650000Y-110950000D01*
X108500000Y-110950000D01*
X108471299Y-110944291D01*
X108446967Y-110928033D01*
X108430709Y-110903701D01*
X108425000Y-110875000D01*
X108425000Y-109475000D01*
X108430709Y-109446299D01*
X108446967Y-109421967D01*
X108471299Y-109405709D01*
X108500000Y-109400000D01*
X108650000Y-109400000D01*
X108678701Y-109405709D01*
G37*
G36*
X109178701Y-109405709D02*
G01*
X109203033Y-109421967D01*
X109219291Y-109446299D01*
X109225000Y-109475000D01*
X109225000Y-110875000D01*
X109219291Y-110903701D01*
X109203033Y-110928033D01*
X109178701Y-110944291D01*
X109150000Y-110950000D01*
X109000000Y-110950000D01*
X108971299Y-110944291D01*
X108946967Y-110928033D01*
X108930709Y-110903701D01*
X108925000Y-110875000D01*
X108925000Y-109475000D01*
X108930709Y-109446299D01*
X108946967Y-109421967D01*
X108971299Y-109405709D01*
X109000000Y-109400000D01*
X109150000Y-109400000D01*
X109178701Y-109405709D01*
G37*
G36*
X109678701Y-109405709D02*
G01*
X109703033Y-109421967D01*
X109719291Y-109446299D01*
X109725000Y-109475000D01*
X109725000Y-110875000D01*
X109719291Y-110903701D01*
X109703033Y-110928033D01*
X109678701Y-110944291D01*
X109650000Y-110950000D01*
X109500000Y-110950000D01*
X109471299Y-110944291D01*
X109446967Y-110928033D01*
X109430709Y-110903701D01*
X109425000Y-110875000D01*
X109425000Y-109475000D01*
X109430709Y-109446299D01*
X109446967Y-109421967D01*
X109471299Y-109405709D01*
X109500000Y-109400000D01*
X109650000Y-109400000D01*
X109678701Y-109405709D01*
G37*
G36*
X110178701Y-109405709D02*
G01*
X110203033Y-109421967D01*
X110219291Y-109446299D01*
X110225000Y-109475000D01*
X110225000Y-110875000D01*
X110219291Y-110903701D01*
X110203033Y-110928033D01*
X110178701Y-110944291D01*
X110150000Y-110950000D01*
X110000000Y-110950000D01*
X109971299Y-110944291D01*
X109946967Y-110928033D01*
X109930709Y-110903701D01*
X109925000Y-110875000D01*
X109925000Y-109475000D01*
X109930709Y-109446299D01*
X109946967Y-109421967D01*
X109971299Y-109405709D01*
X110000000Y-109400000D01*
X110150000Y-109400000D01*
X110178701Y-109405709D01*
G37*
G36*
X110678701Y-109405709D02*
G01*
X110703033Y-109421967D01*
X110719291Y-109446299D01*
X110725000Y-109475000D01*
X110725000Y-110875000D01*
X110719291Y-110903701D01*
X110703033Y-110928033D01*
X110678701Y-110944291D01*
X110650000Y-110950000D01*
X110500000Y-110950000D01*
X110471299Y-110944291D01*
X110446967Y-110928033D01*
X110430709Y-110903701D01*
X110425000Y-110875000D01*
X110425000Y-109475000D01*
X110430709Y-109446299D01*
X110446967Y-109421967D01*
X110471299Y-109405709D01*
X110500000Y-109400000D01*
X110650000Y-109400000D01*
X110678701Y-109405709D01*
G37*
G36*
X111178701Y-109405709D02*
G01*
X111203033Y-109421967D01*
X111219291Y-109446299D01*
X111225000Y-109475000D01*
X111225000Y-110875000D01*
X111219291Y-110903701D01*
X111203033Y-110928033D01*
X111178701Y-110944291D01*
X111150000Y-110950000D01*
X111000000Y-110950000D01*
X110971299Y-110944291D01*
X110946967Y-110928033D01*
X110930709Y-110903701D01*
X110925000Y-110875000D01*
X110925000Y-109475000D01*
X110930709Y-109446299D01*
X110946967Y-109421967D01*
X110971299Y-109405709D01*
X111000000Y-109400000D01*
X111150000Y-109400000D01*
X111178701Y-109405709D01*
G37*
G36*
X111678701Y-109405709D02*
G01*
X111703033Y-109421967D01*
X111719291Y-109446299D01*
X111725000Y-109475000D01*
X111725000Y-110875000D01*
X111719291Y-110903701D01*
X111703033Y-110928033D01*
X111678701Y-110944291D01*
X111650000Y-110950000D01*
X111500000Y-110950000D01*
X111471299Y-110944291D01*
X111446967Y-110928033D01*
X111430709Y-110903701D01*
X111425000Y-110875000D01*
X111425000Y-109475000D01*
X111430709Y-109446299D01*
X111446967Y-109421967D01*
X111471299Y-109405709D01*
X111500000Y-109400000D01*
X111650000Y-109400000D01*
X111678701Y-109405709D01*
G37*
G36*
X112178701Y-109405709D02*
G01*
X112203033Y-109421967D01*
X112219291Y-109446299D01*
X112225000Y-109475000D01*
X112225000Y-110875000D01*
X112219291Y-110903701D01*
X112203033Y-110928033D01*
X112178701Y-110944291D01*
X112150000Y-110950000D01*
X112000000Y-110950000D01*
X111971299Y-110944291D01*
X111946967Y-110928033D01*
X111930709Y-110903701D01*
X111925000Y-110875000D01*
X111925000Y-109475000D01*
X111930709Y-109446299D01*
X111946967Y-109421967D01*
X111971299Y-109405709D01*
X112000000Y-109400000D01*
X112150000Y-109400000D01*
X112178701Y-109405709D01*
G37*
G36*
X112678701Y-109405709D02*
G01*
X112703033Y-109421967D01*
X112719291Y-109446299D01*
X112725000Y-109475000D01*
X112725000Y-110875000D01*
X112719291Y-110903701D01*
X112703033Y-110928033D01*
X112678701Y-110944291D01*
X112650000Y-110950000D01*
X112500000Y-110950000D01*
X112471299Y-110944291D01*
X112446967Y-110928033D01*
X112430709Y-110903701D01*
X112425000Y-110875000D01*
X112425000Y-109475000D01*
X112430709Y-109446299D01*
X112446967Y-109421967D01*
X112471299Y-109405709D01*
X112500000Y-109400000D01*
X112650000Y-109400000D01*
X112678701Y-109405709D01*
G37*
G36*
X113178701Y-109405709D02*
G01*
X113203033Y-109421967D01*
X113219291Y-109446299D01*
X113225000Y-109475000D01*
X113225000Y-110875000D01*
X113219291Y-110903701D01*
X113203033Y-110928033D01*
X113178701Y-110944291D01*
X113150000Y-110950000D01*
X113000000Y-110950000D01*
X112971299Y-110944291D01*
X112946967Y-110928033D01*
X112930709Y-110903701D01*
X112925000Y-110875000D01*
X112925000Y-109475000D01*
X112930709Y-109446299D01*
X112946967Y-109421967D01*
X112971299Y-109405709D01*
X113000000Y-109400000D01*
X113150000Y-109400000D01*
X113178701Y-109405709D01*
G37*
G36*
X113678701Y-109405709D02*
G01*
X113703033Y-109421967D01*
X113719291Y-109446299D01*
X113725000Y-109475000D01*
X113725000Y-110875000D01*
X113719291Y-110903701D01*
X113703033Y-110928033D01*
X113678701Y-110944291D01*
X113650000Y-110950000D01*
X113500000Y-110950000D01*
X113471299Y-110944291D01*
X113446967Y-110928033D01*
X113430709Y-110903701D01*
X113425000Y-110875000D01*
X113425000Y-109475000D01*
X113430709Y-109446299D01*
X113446967Y-109421967D01*
X113471299Y-109405709D01*
X113500000Y-109400000D01*
X113650000Y-109400000D01*
X113678701Y-109405709D01*
G37*
G36*
X114178701Y-109405709D02*
G01*
X114203033Y-109421967D01*
X114219291Y-109446299D01*
X114225000Y-109475000D01*
X114225000Y-110875000D01*
X114219291Y-110903701D01*
X114203033Y-110928033D01*
X114178701Y-110944291D01*
X114150000Y-110950000D01*
X114000000Y-110950000D01*
X113971299Y-110944291D01*
X113946967Y-110928033D01*
X113930709Y-110903701D01*
X113925000Y-110875000D01*
X113925000Y-109475000D01*
X113930709Y-109446299D01*
X113946967Y-109421967D01*
X113971299Y-109405709D01*
X114000000Y-109400000D01*
X114150000Y-109400000D01*
X114178701Y-109405709D01*
G37*
G36*
X114678701Y-109405709D02*
G01*
X114703033Y-109421967D01*
X114719291Y-109446299D01*
X114725000Y-109475000D01*
X114725000Y-110875000D01*
X114719291Y-110903701D01*
X114703033Y-110928033D01*
X114678701Y-110944291D01*
X114650000Y-110950000D01*
X114500000Y-110950000D01*
X114471299Y-110944291D01*
X114446967Y-110928033D01*
X114430709Y-110903701D01*
X114425000Y-110875000D01*
X114425000Y-109475000D01*
X114430709Y-109446299D01*
X114446967Y-109421967D01*
X114471299Y-109405709D01*
X114500000Y-109400000D01*
X114650000Y-109400000D01*
X114678701Y-109405709D01*
G37*
G36*
X115178701Y-109405709D02*
G01*
X115203033Y-109421967D01*
X115219291Y-109446299D01*
X115225000Y-109475000D01*
X115225000Y-110875000D01*
X115219291Y-110903701D01*
X115203033Y-110928033D01*
X115178701Y-110944291D01*
X115150000Y-110950000D01*
X115000000Y-110950000D01*
X114971299Y-110944291D01*
X114946967Y-110928033D01*
X114930709Y-110903701D01*
X114925000Y-110875000D01*
X114925000Y-109475000D01*
X114930709Y-109446299D01*
X114946967Y-109421967D01*
X114971299Y-109405709D01*
X115000000Y-109400000D01*
X115150000Y-109400000D01*
X115178701Y-109405709D01*
G37*
G36*
X124256283Y-106611427D02*
G01*
X124262985Y-106613926D01*
X124267866Y-106614513D01*
X124325621Y-106637289D01*
X124389624Y-106661161D01*
X124393485Y-106664051D01*
X124394823Y-106664579D01*
X124443506Y-106701497D01*
X124503553Y-106746447D01*
X124548521Y-106806518D01*
X124585420Y-106855176D01*
X124585947Y-106856513D01*
X124588839Y-106860376D01*
X124612725Y-106924416D01*
X124635486Y-106982134D01*
X124636071Y-106987010D01*
X124638573Y-106993717D01*
X124650000Y-107100000D01*
X124650000Y-109900000D01*
X124638573Y-110006283D01*
X124636071Y-110012989D01*
X124635486Y-110017866D01*
X124612728Y-110075575D01*
X124588839Y-110139624D01*
X124585946Y-110143487D01*
X124585420Y-110144823D01*
X124548579Y-110193404D01*
X124503553Y-110253553D01*
X124443404Y-110298579D01*
X124394823Y-110335420D01*
X124393487Y-110335946D01*
X124389624Y-110338839D01*
X124325565Y-110362731D01*
X124267865Y-110385486D01*
X124262989Y-110386071D01*
X124256283Y-110388573D01*
X124150000Y-110400000D01*
X123150000Y-110400000D01*
X123043717Y-110388573D01*
X123037011Y-110386071D01*
X123032133Y-110385486D01*
X122974406Y-110362721D01*
X122910376Y-110338839D01*
X122906513Y-110335947D01*
X122905176Y-110335420D01*
X122856518Y-110298521D01*
X122796447Y-110253553D01*
X122751497Y-110193506D01*
X122714579Y-110144823D01*
X122714051Y-110143485D01*
X122711161Y-110139624D01*
X122687285Y-110075611D01*
X122664513Y-110017865D01*
X122663927Y-110012985D01*
X122661427Y-110006283D01*
X122650000Y-109900000D01*
X122650000Y-107100000D01*
X122661427Y-106993717D01*
X122663926Y-106987014D01*
X122664513Y-106982133D01*
X122687296Y-106924359D01*
X122711161Y-106860376D01*
X122714050Y-106856515D01*
X122714579Y-106855176D01*
X122751555Y-106806415D01*
X122796447Y-106746447D01*
X122856415Y-106701555D01*
X122905176Y-106664579D01*
X122906515Y-106664050D01*
X122910376Y-106661161D01*
X122974369Y-106637292D01*
X123032134Y-106614513D01*
X123037014Y-106613926D01*
X123043717Y-106611427D01*
X123150000Y-106600000D01*
X124150000Y-106600000D01*
X124256283Y-106611427D01*
G37*
G36*
X101764962Y-109266651D02*
G01*
X101835930Y-109314070D01*
X101883349Y-109385038D01*
X101900000Y-109468750D01*
X101900000Y-109906250D01*
X101883349Y-109989962D01*
X101835930Y-110060930D01*
X101764962Y-110108349D01*
X101681250Y-110125000D01*
X101168750Y-110125000D01*
X101085038Y-110108349D01*
X101014070Y-110060930D01*
X100966651Y-109989962D01*
X100950000Y-109906250D01*
X100950000Y-109468750D01*
X100966651Y-109385038D01*
X101014070Y-109314070D01*
X101085038Y-109266651D01*
X101168750Y-109250000D01*
X101681250Y-109250000D01*
X101764962Y-109266651D01*
G37*
G36*
X103536104Y-109054627D02*
G01*
X103609099Y-109103401D01*
X103657873Y-109176396D01*
X103675000Y-109262500D01*
X103675000Y-109762500D01*
X103657873Y-109848604D01*
X103609099Y-109921599D01*
X103536104Y-109970373D01*
X103450000Y-109987500D01*
X103000000Y-109987500D01*
X102913896Y-109970373D01*
X102840901Y-109921599D01*
X102792127Y-109848604D01*
X102775000Y-109762500D01*
X102775000Y-109262500D01*
X102792127Y-109176396D01*
X102840901Y-109103401D01*
X102913896Y-109054627D01*
X103000000Y-109037500D01*
X103450000Y-109037500D01*
X103536104Y-109054627D01*
G37*
G36*
X105086104Y-109054627D02*
G01*
X105159099Y-109103401D01*
X105207873Y-109176396D01*
X105225000Y-109262500D01*
X105225000Y-109762500D01*
X105207873Y-109848604D01*
X105159099Y-109921599D01*
X105086104Y-109970373D01*
X105000000Y-109987500D01*
X104550000Y-109987500D01*
X104463896Y-109970373D01*
X104390901Y-109921599D01*
X104342127Y-109848604D01*
X104325000Y-109762500D01*
X104325000Y-109262500D01*
X104342127Y-109176396D01*
X104390901Y-109103401D01*
X104463896Y-109054627D01*
X104550000Y-109037500D01*
X105000000Y-109037500D01*
X105086104Y-109054627D01*
G37*
G36*
X133279047Y-108950805D02*
G01*
X133330408Y-108956764D01*
X133347954Y-108964511D01*
X133370671Y-108969030D01*
X133394991Y-108985280D01*
X133415793Y-108994465D01*
X133430000Y-109008672D01*
X133451777Y-109023223D01*
X133466327Y-109044999D01*
X133480534Y-109059206D01*
X133489718Y-109080006D01*
X133505970Y-109104329D01*
X133510489Y-109127048D01*
X133518235Y-109144591D01*
X133524192Y-109195940D01*
X133525000Y-109200000D01*
X133525000Y-109700000D01*
X133524192Y-109704059D01*
X133518235Y-109755408D01*
X133510489Y-109772950D01*
X133505970Y-109795671D01*
X133489716Y-109819995D01*
X133480534Y-109840793D01*
X133466329Y-109854997D01*
X133451777Y-109876777D01*
X133429997Y-109891329D01*
X133415793Y-109905534D01*
X133394995Y-109914716D01*
X133370671Y-109930970D01*
X133347950Y-109935489D01*
X133330408Y-109943235D01*
X133279061Y-109949192D01*
X133275000Y-109950000D01*
X132325000Y-109950000D01*
X132320941Y-109949192D01*
X132269591Y-109943235D01*
X132252048Y-109935489D01*
X132229329Y-109930970D01*
X132205006Y-109914718D01*
X132184206Y-109905534D01*
X132169999Y-109891327D01*
X132148223Y-109876777D01*
X132133672Y-109855000D01*
X132119465Y-109840793D01*
X132110280Y-109819991D01*
X132094030Y-109795671D01*
X132089511Y-109772954D01*
X132081764Y-109755408D01*
X132075805Y-109704049D01*
X132075000Y-109700000D01*
X132075000Y-109200000D01*
X132075804Y-109195953D01*
X132081764Y-109144591D01*
X132089511Y-109127043D01*
X132094030Y-109104329D01*
X132110278Y-109080010D01*
X132119465Y-109059206D01*
X132133674Y-109044996D01*
X132148223Y-109023223D01*
X132169996Y-109008674D01*
X132184206Y-108994465D01*
X132205010Y-108985278D01*
X132229329Y-108969030D01*
X132252043Y-108964511D01*
X132269591Y-108956764D01*
X132320952Y-108950805D01*
X132325000Y-108950000D01*
X133275000Y-108950000D01*
X133279047Y-108950805D01*
G37*
G36*
X130682001Y-107765590D02*
G01*
X130687992Y-107768518D01*
X130690689Y-107768946D01*
X130733828Y-107790926D01*
X130792904Y-107819807D01*
X130880193Y-107907096D01*
X130909091Y-107966209D01*
X130931053Y-108009311D01*
X130931479Y-108012004D01*
X130934410Y-108017999D01*
X130950000Y-108125000D01*
X130950000Y-108875000D01*
X130934410Y-108982001D01*
X130931479Y-108987995D01*
X130931053Y-108990689D01*
X130909096Y-109033779D01*
X130880193Y-109092904D01*
X130792904Y-109180193D01*
X130733765Y-109209104D01*
X130690688Y-109231053D01*
X130687995Y-109231479D01*
X130682001Y-109234410D01*
X130575000Y-109250000D01*
X129325000Y-109250000D01*
X129217999Y-109234410D01*
X129212005Y-109231479D01*
X129209310Y-109231053D01*
X129166195Y-109209084D01*
X129107096Y-109180193D01*
X129019807Y-109092904D01*
X128990919Y-109033813D01*
X128968946Y-108990688D01*
X128968519Y-108987992D01*
X128965590Y-108982001D01*
X128950000Y-108875000D01*
X128950000Y-108125000D01*
X128965590Y-108017999D01*
X128968518Y-108012008D01*
X128968946Y-108009310D01*
X128990938Y-107966147D01*
X129019807Y-107907096D01*
X129107096Y-107819807D01*
X129166161Y-107790931D01*
X129209311Y-107768946D01*
X129212007Y-107768518D01*
X129217999Y-107765590D01*
X129325000Y-107750000D01*
X130575000Y-107750000D01*
X130682001Y-107765590D01*
G37*
G36*
X106378701Y-108105709D02*
G01*
X106403033Y-108121967D01*
X106419291Y-108146299D01*
X106425000Y-108175000D01*
X106425000Y-108325000D01*
X106419291Y-108353701D01*
X106403033Y-108378033D01*
X106378701Y-108394291D01*
X106350000Y-108400000D01*
X104950000Y-108400000D01*
X104921299Y-108394291D01*
X104896967Y-108378033D01*
X104880709Y-108353701D01*
X104875000Y-108325000D01*
X104875000Y-108175000D01*
X104880709Y-108146299D01*
X104896967Y-108121967D01*
X104921299Y-108105709D01*
X104950000Y-108100000D01*
X106350000Y-108100000D01*
X106378701Y-108105709D01*
G37*
G36*
X117728701Y-108105709D02*
G01*
X117753033Y-108121967D01*
X117769291Y-108146299D01*
X117775000Y-108175000D01*
X117775000Y-108325000D01*
X117769291Y-108353701D01*
X117753033Y-108378033D01*
X117728701Y-108394291D01*
X117700000Y-108400000D01*
X116300000Y-108400000D01*
X116271299Y-108394291D01*
X116246967Y-108378033D01*
X116230709Y-108353701D01*
X116225000Y-108325000D01*
X116225000Y-108175000D01*
X116230709Y-108146299D01*
X116246967Y-108121967D01*
X116271299Y-108105709D01*
X116300000Y-108100000D01*
X117700000Y-108100000D01*
X117728701Y-108105709D01*
G37*
G36*
X133279047Y-107050805D02*
G01*
X133330408Y-107056764D01*
X133347954Y-107064511D01*
X133370671Y-107069030D01*
X133394991Y-107085280D01*
X133415793Y-107094465D01*
X133430000Y-107108672D01*
X133451777Y-107123223D01*
X133466327Y-107144999D01*
X133480534Y-107159206D01*
X133489718Y-107180006D01*
X133505970Y-107204329D01*
X133510489Y-107227048D01*
X133518235Y-107244591D01*
X133524192Y-107295940D01*
X133525000Y-107300000D01*
X133525000Y-107800000D01*
X133524192Y-107804059D01*
X133518235Y-107855408D01*
X133510489Y-107872950D01*
X133505970Y-107895671D01*
X133489716Y-107919995D01*
X133480534Y-107940793D01*
X133466329Y-107954997D01*
X133451777Y-107976777D01*
X133429997Y-107991329D01*
X133415793Y-108005534D01*
X133394995Y-108014716D01*
X133370671Y-108030970D01*
X133347950Y-108035489D01*
X133330408Y-108043235D01*
X133279061Y-108049192D01*
X133275000Y-108050000D01*
X132325000Y-108050000D01*
X132320941Y-108049192D01*
X132269591Y-108043235D01*
X132252048Y-108035489D01*
X132229329Y-108030970D01*
X132205006Y-108014718D01*
X132184206Y-108005534D01*
X132169999Y-107991327D01*
X132148223Y-107976777D01*
X132133672Y-107955000D01*
X132119465Y-107940793D01*
X132110280Y-107919991D01*
X132094030Y-107895671D01*
X132089511Y-107872954D01*
X132081764Y-107855408D01*
X132075805Y-107804049D01*
X132075000Y-107800000D01*
X132075000Y-107300000D01*
X132075804Y-107295953D01*
X132081764Y-107244591D01*
X132089511Y-107227043D01*
X132094030Y-107204329D01*
X132110278Y-107180010D01*
X132119465Y-107159206D01*
X132133674Y-107144996D01*
X132148223Y-107123223D01*
X132169996Y-107108674D01*
X132184206Y-107094465D01*
X132205010Y-107085278D01*
X132229329Y-107069030D01*
X132252043Y-107064511D01*
X132269591Y-107056764D01*
X132320952Y-107050805D01*
X132325000Y-107050000D01*
X133275000Y-107050000D01*
X133279047Y-107050805D01*
G37*
G36*
X106378701Y-107605709D02*
G01*
X106403033Y-107621967D01*
X106419291Y-107646299D01*
X106425000Y-107675000D01*
X106425000Y-107825000D01*
X106419291Y-107853701D01*
X106403033Y-107878033D01*
X106378701Y-107894291D01*
X106350000Y-107900000D01*
X104950000Y-107900000D01*
X104921299Y-107894291D01*
X104896967Y-107878033D01*
X104880709Y-107853701D01*
X104875000Y-107825000D01*
X104875000Y-107675000D01*
X104880709Y-107646299D01*
X104896967Y-107621967D01*
X104921299Y-107605709D01*
X104950000Y-107600000D01*
X106350000Y-107600000D01*
X106378701Y-107605709D01*
G37*
G36*
X117728701Y-107605709D02*
G01*
X117753033Y-107621967D01*
X117769291Y-107646299D01*
X117775000Y-107675000D01*
X117775000Y-107825000D01*
X117769291Y-107853701D01*
X117753033Y-107878033D01*
X117728701Y-107894291D01*
X117700000Y-107900000D01*
X116300000Y-107900000D01*
X116271299Y-107894291D01*
X116246967Y-107878033D01*
X116230709Y-107853701D01*
X116225000Y-107825000D01*
X116225000Y-107675000D01*
X116230709Y-107646299D01*
X116246967Y-107621967D01*
X116271299Y-107605709D01*
X116300000Y-107600000D01*
X117700000Y-107600000D01*
X117728701Y-107605709D01*
G37*
G36*
X104123576Y-106960657D02*
G01*
X104168995Y-106991005D01*
X104199343Y-107036424D01*
X104210000Y-107090000D01*
X104210000Y-107370000D01*
X104199343Y-107423576D01*
X104168995Y-107468995D01*
X104123576Y-107499343D01*
X104070000Y-107510000D01*
X103730000Y-107510000D01*
X103676424Y-107499343D01*
X103631005Y-107468995D01*
X103600657Y-107423576D01*
X103590000Y-107370000D01*
X103590000Y-107090000D01*
X103600657Y-107036424D01*
X103631005Y-106991005D01*
X103676424Y-106960657D01*
X103730000Y-106950000D01*
X104070000Y-106950000D01*
X104123576Y-106960657D01*
G37*
G36*
X106378701Y-107105709D02*
G01*
X106403033Y-107121967D01*
X106419291Y-107146299D01*
X106425000Y-107175000D01*
X106425000Y-107325000D01*
X106419291Y-107353701D01*
X106403033Y-107378033D01*
X106378701Y-107394291D01*
X106350000Y-107400000D01*
X104950000Y-107400000D01*
X104921299Y-107394291D01*
X104896967Y-107378033D01*
X104880709Y-107353701D01*
X104875000Y-107325000D01*
X104875000Y-107175000D01*
X104880709Y-107146299D01*
X104896967Y-107121967D01*
X104921299Y-107105709D01*
X104950000Y-107100000D01*
X106350000Y-107100000D01*
X106378701Y-107105709D01*
G37*
G36*
X117728701Y-107105709D02*
G01*
X117753033Y-107121967D01*
X117769291Y-107146299D01*
X117775000Y-107175000D01*
X117775000Y-107325000D01*
X117769291Y-107353701D01*
X117753033Y-107378033D01*
X117728701Y-107394291D01*
X117700000Y-107400000D01*
X116300000Y-107400000D01*
X116271299Y-107394291D01*
X116246967Y-107378033D01*
X116230709Y-107353701D01*
X116225000Y-107325000D01*
X116225000Y-107175000D01*
X116230709Y-107146299D01*
X116246967Y-107121967D01*
X116271299Y-107105709D01*
X116300000Y-107100000D01*
X117700000Y-107100000D01*
X117728701Y-107105709D01*
G37*
G36*
X130682001Y-105465590D02*
G01*
X130687992Y-105468518D01*
X130690689Y-105468946D01*
X130733828Y-105490926D01*
X130792904Y-105519807D01*
X130880193Y-105607096D01*
X130909091Y-105666209D01*
X130931053Y-105709311D01*
X130931479Y-105712004D01*
X130934410Y-105717999D01*
X130950000Y-105825000D01*
X130950000Y-106575000D01*
X130934410Y-106682001D01*
X130931479Y-106687995D01*
X130931053Y-106690689D01*
X130909096Y-106733779D01*
X130880193Y-106792904D01*
X130792904Y-106880193D01*
X130733765Y-106909104D01*
X130690688Y-106931053D01*
X130687995Y-106931479D01*
X130682001Y-106934410D01*
X130575000Y-106950000D01*
X129325000Y-106950000D01*
X129217999Y-106934410D01*
X129212005Y-106931479D01*
X129209310Y-106931053D01*
X129166195Y-106909084D01*
X129107096Y-106880193D01*
X129019807Y-106792904D01*
X128990919Y-106733813D01*
X128968946Y-106690688D01*
X128968519Y-106687992D01*
X128965590Y-106682001D01*
X128950000Y-106575000D01*
X128950000Y-105825000D01*
X128965590Y-105717999D01*
X128968518Y-105712008D01*
X128968946Y-105709310D01*
X128990938Y-105666147D01*
X129019807Y-105607096D01*
X129107096Y-105519807D01*
X129166161Y-105490931D01*
X129209311Y-105468946D01*
X129212007Y-105468518D01*
X129217999Y-105465590D01*
X129325000Y-105450000D01*
X130575000Y-105450000D01*
X130682001Y-105465590D01*
G37*
G36*
X106378701Y-106605709D02*
G01*
X106403033Y-106621967D01*
X106419291Y-106646299D01*
X106425000Y-106675000D01*
X106425000Y-106825000D01*
X106419291Y-106853701D01*
X106403033Y-106878033D01*
X106378701Y-106894291D01*
X106350000Y-106900000D01*
X104950000Y-106900000D01*
X104921299Y-106894291D01*
X104896967Y-106878033D01*
X104880709Y-106853701D01*
X104875000Y-106825000D01*
X104875000Y-106675000D01*
X104880709Y-106646299D01*
X104896967Y-106621967D01*
X104921299Y-106605709D01*
X104950000Y-106600000D01*
X106350000Y-106600000D01*
X106378701Y-106605709D01*
G37*
G36*
X117728701Y-106605709D02*
G01*
X117753033Y-106621967D01*
X117769291Y-106646299D01*
X117775000Y-106675000D01*
X117775000Y-106825000D01*
X117769291Y-106853701D01*
X117753033Y-106878033D01*
X117728701Y-106894291D01*
X117700000Y-106900000D01*
X116300000Y-106900000D01*
X116271299Y-106894291D01*
X116246967Y-106878033D01*
X116230709Y-106853701D01*
X116225000Y-106825000D01*
X116225000Y-106675000D01*
X116230709Y-106646299D01*
X116246967Y-106621967D01*
X116271299Y-106605709D01*
X116300000Y-106600000D01*
X117700000Y-106600000D01*
X117728701Y-106605709D01*
G37*
G36*
X96486104Y-105792127D02*
G01*
X96559099Y-105840901D01*
X96607873Y-105913896D01*
X96625000Y-106000000D01*
X96625000Y-106500000D01*
X96607873Y-106586104D01*
X96559099Y-106659099D01*
X96486104Y-106707873D01*
X96400000Y-106725000D01*
X95950000Y-106725000D01*
X95863896Y-106707873D01*
X95790901Y-106659099D01*
X95742127Y-106586104D01*
X95725000Y-106500000D01*
X95725000Y-106000000D01*
X95742127Y-105913896D01*
X95790901Y-105840901D01*
X95863896Y-105792127D01*
X95950000Y-105775000D01*
X96400000Y-105775000D01*
X96486104Y-105792127D01*
G37*
G36*
X98036104Y-105792127D02*
G01*
X98109099Y-105840901D01*
X98157873Y-105913896D01*
X98175000Y-106000000D01*
X98175000Y-106500000D01*
X98157873Y-106586104D01*
X98109099Y-106659099D01*
X98036104Y-106707873D01*
X97950000Y-106725000D01*
X97500000Y-106725000D01*
X97413896Y-106707873D01*
X97340901Y-106659099D01*
X97292127Y-106586104D01*
X97275000Y-106500000D01*
X97275000Y-106000000D01*
X97292127Y-105913896D01*
X97340901Y-105840901D01*
X97413896Y-105792127D01*
X97500000Y-105775000D01*
X97950000Y-105775000D01*
X98036104Y-105792127D01*
G37*
G36*
X99901537Y-105790224D02*
G01*
X99966421Y-105833579D01*
X100009776Y-105898463D01*
X100025000Y-105975000D01*
X100025000Y-106525000D01*
X100009776Y-106601537D01*
X99966421Y-106666421D01*
X99901537Y-106709776D01*
X99825000Y-106725000D01*
X99425000Y-106725000D01*
X99348463Y-106709776D01*
X99283579Y-106666421D01*
X99240224Y-106601537D01*
X99225000Y-106525000D01*
X99225000Y-105975000D01*
X99240224Y-105898463D01*
X99283579Y-105833579D01*
X99348463Y-105790224D01*
X99425000Y-105775000D01*
X99825000Y-105775000D01*
X99901537Y-105790224D01*
G37*
G36*
X101551537Y-105790224D02*
G01*
X101616421Y-105833579D01*
X101659776Y-105898463D01*
X101675000Y-105975000D01*
X101675000Y-106525000D01*
X101659776Y-106601537D01*
X101616421Y-106666421D01*
X101551537Y-106709776D01*
X101475000Y-106725000D01*
X101075000Y-106725000D01*
X100998463Y-106709776D01*
X100933579Y-106666421D01*
X100890224Y-106601537D01*
X100875000Y-106525000D01*
X100875000Y-105975000D01*
X100890224Y-105898463D01*
X100933579Y-105833579D01*
X100998463Y-105790224D01*
X101075000Y-105775000D01*
X101475000Y-105775000D01*
X101551537Y-105790224D01*
G37*
G36*
X104123576Y-106000657D02*
G01*
X104168995Y-106031005D01*
X104199343Y-106076424D01*
X104210000Y-106130000D01*
X104210000Y-106410000D01*
X104199343Y-106463576D01*
X104168995Y-106508995D01*
X104123576Y-106539343D01*
X104070000Y-106550000D01*
X103730000Y-106550000D01*
X103676424Y-106539343D01*
X103631005Y-106508995D01*
X103600657Y-106463576D01*
X103590000Y-106410000D01*
X103590000Y-106130000D01*
X103600657Y-106076424D01*
X103631005Y-106031005D01*
X103676424Y-106000657D01*
X103730000Y-105990000D01*
X104070000Y-105990000D01*
X104123576Y-106000657D01*
G37*
G36*
X106378701Y-106105709D02*
G01*
X106403033Y-106121967D01*
X106419291Y-106146299D01*
X106425000Y-106175000D01*
X106425000Y-106325000D01*
X106419291Y-106353701D01*
X106403033Y-106378033D01*
X106378701Y-106394291D01*
X106350000Y-106400000D01*
X104950000Y-106400000D01*
X104921299Y-106394291D01*
X104896967Y-106378033D01*
X104880709Y-106353701D01*
X104875000Y-106325000D01*
X104875000Y-106175000D01*
X104880709Y-106146299D01*
X104896967Y-106121967D01*
X104921299Y-106105709D01*
X104950000Y-106100000D01*
X106350000Y-106100000D01*
X106378701Y-106105709D01*
G37*
G36*
X117728701Y-106105709D02*
G01*
X117753033Y-106121967D01*
X117769291Y-106146299D01*
X117775000Y-106175000D01*
X117775000Y-106325000D01*
X117769291Y-106353701D01*
X117753033Y-106378033D01*
X117728701Y-106394291D01*
X117700000Y-106400000D01*
X116300000Y-106400000D01*
X116271299Y-106394291D01*
X116246967Y-106378033D01*
X116230709Y-106353701D01*
X116225000Y-106325000D01*
X116225000Y-106175000D01*
X116230709Y-106146299D01*
X116246967Y-106121967D01*
X116271299Y-106105709D01*
X116300000Y-106100000D01*
X117700000Y-106100000D01*
X117728701Y-106105709D01*
G37*
G36*
X106378701Y-105605709D02*
G01*
X106403033Y-105621967D01*
X106419291Y-105646299D01*
X106425000Y-105675000D01*
X106425000Y-105825000D01*
X106419291Y-105853701D01*
X106403033Y-105878033D01*
X106378701Y-105894291D01*
X106350000Y-105900000D01*
X104950000Y-105900000D01*
X104921299Y-105894291D01*
X104896967Y-105878033D01*
X104880709Y-105853701D01*
X104875000Y-105825000D01*
X104875000Y-105675000D01*
X104880709Y-105646299D01*
X104896967Y-105621967D01*
X104921299Y-105605709D01*
X104950000Y-105600000D01*
X106350000Y-105600000D01*
X106378701Y-105605709D01*
G37*
G36*
X117728701Y-105605709D02*
G01*
X117753033Y-105621967D01*
X117769291Y-105646299D01*
X117775000Y-105675000D01*
X117775000Y-105825000D01*
X117769291Y-105853701D01*
X117753033Y-105878033D01*
X117728701Y-105894291D01*
X117700000Y-105900000D01*
X116300000Y-105900000D01*
X116271299Y-105894291D01*
X116246967Y-105878033D01*
X116230709Y-105853701D01*
X116225000Y-105825000D01*
X116225000Y-105675000D01*
X116230709Y-105646299D01*
X116246967Y-105621967D01*
X116271299Y-105605709D01*
X116300000Y-105600000D01*
X117700000Y-105600000D01*
X117728701Y-105605709D01*
G37*
G36*
X106378701Y-105105709D02*
G01*
X106403033Y-105121967D01*
X106419291Y-105146299D01*
X106425000Y-105175000D01*
X106425000Y-105325000D01*
X106419291Y-105353701D01*
X106403033Y-105378033D01*
X106378701Y-105394291D01*
X106350000Y-105400000D01*
X104950000Y-105400000D01*
X104921299Y-105394291D01*
X104896967Y-105378033D01*
X104880709Y-105353701D01*
X104875000Y-105325000D01*
X104875000Y-105175000D01*
X104880709Y-105146299D01*
X104896967Y-105121967D01*
X104921299Y-105105709D01*
X104950000Y-105100000D01*
X106350000Y-105100000D01*
X106378701Y-105105709D01*
G37*
G36*
X117728701Y-105105709D02*
G01*
X117753033Y-105121967D01*
X117769291Y-105146299D01*
X117775000Y-105175000D01*
X117775000Y-105325000D01*
X117769291Y-105353701D01*
X117753033Y-105378033D01*
X117728701Y-105394291D01*
X117700000Y-105400000D01*
X116300000Y-105400000D01*
X116271299Y-105394291D01*
X116246967Y-105378033D01*
X116230709Y-105353701D01*
X116225000Y-105325000D01*
X116225000Y-105175000D01*
X116230709Y-105146299D01*
X116246967Y-105121967D01*
X116271299Y-105105709D01*
X116300000Y-105100000D01*
X117700000Y-105100000D01*
X117728701Y-105105709D01*
G37*
G36*
X106378701Y-104605709D02*
G01*
X106403033Y-104621967D01*
X106419291Y-104646299D01*
X106425000Y-104675000D01*
X106425000Y-104825000D01*
X106419291Y-104853701D01*
X106403033Y-104878033D01*
X106378701Y-104894291D01*
X106350000Y-104900000D01*
X104950000Y-104900000D01*
X104921299Y-104894291D01*
X104896967Y-104878033D01*
X104880709Y-104853701D01*
X104875000Y-104825000D01*
X104875000Y-104675000D01*
X104880709Y-104646299D01*
X104896967Y-104621967D01*
X104921299Y-104605709D01*
X104950000Y-104600000D01*
X106350000Y-104600000D01*
X106378701Y-104605709D01*
G37*
G36*
X117728701Y-104605709D02*
G01*
X117753033Y-104621967D01*
X117769291Y-104646299D01*
X117775000Y-104675000D01*
X117775000Y-104825000D01*
X117769291Y-104853701D01*
X117753033Y-104878033D01*
X117728701Y-104894291D01*
X117700000Y-104900000D01*
X116300000Y-104900000D01*
X116271299Y-104894291D01*
X116246967Y-104878033D01*
X116230709Y-104853701D01*
X116225000Y-104825000D01*
X116225000Y-104675000D01*
X116230709Y-104646299D01*
X116246967Y-104621967D01*
X116271299Y-104605709D01*
X116300000Y-104600000D01*
X117700000Y-104600000D01*
X117728701Y-104605709D01*
G37*
G36*
X98154047Y-103650805D02*
G01*
X98205408Y-103656764D01*
X98222954Y-103664511D01*
X98245671Y-103669030D01*
X98269991Y-103685280D01*
X98290793Y-103694465D01*
X98305000Y-103708672D01*
X98326777Y-103723223D01*
X98341327Y-103744999D01*
X98355534Y-103759206D01*
X98364718Y-103780006D01*
X98380970Y-103804329D01*
X98385489Y-103827048D01*
X98393235Y-103844591D01*
X98399192Y-103895940D01*
X98400000Y-103900000D01*
X98400000Y-104600000D01*
X98399192Y-104604059D01*
X98393235Y-104655408D01*
X98385489Y-104672950D01*
X98380970Y-104695671D01*
X98364716Y-104719995D01*
X98355534Y-104740793D01*
X98341329Y-104754997D01*
X98326777Y-104776777D01*
X98304997Y-104791329D01*
X98290793Y-104805534D01*
X98269995Y-104814716D01*
X98245671Y-104830970D01*
X98222950Y-104835489D01*
X98205408Y-104843235D01*
X98154061Y-104849192D01*
X98150000Y-104850000D01*
X97250000Y-104850000D01*
X97245941Y-104849192D01*
X97194591Y-104843235D01*
X97177048Y-104835489D01*
X97154329Y-104830970D01*
X97130006Y-104814718D01*
X97109206Y-104805534D01*
X97094999Y-104791327D01*
X97073223Y-104776777D01*
X97058672Y-104755000D01*
X97044465Y-104740793D01*
X97035280Y-104719991D01*
X97019030Y-104695671D01*
X97014511Y-104672954D01*
X97006764Y-104655408D01*
X97000805Y-104604049D01*
X97000000Y-104600000D01*
X97000000Y-103900000D01*
X97000804Y-103895953D01*
X97006764Y-103844591D01*
X97014511Y-103827043D01*
X97019030Y-103804329D01*
X97035278Y-103780010D01*
X97044465Y-103759206D01*
X97058674Y-103744996D01*
X97073223Y-103723223D01*
X97094996Y-103708674D01*
X97109206Y-103694465D01*
X97130010Y-103685278D01*
X97154329Y-103669030D01*
X97177043Y-103664511D01*
X97194591Y-103656764D01*
X97245952Y-103650805D01*
X97250000Y-103650000D01*
X98150000Y-103650000D01*
X98154047Y-103650805D01*
G37*
G36*
X100354047Y-103650805D02*
G01*
X100405408Y-103656764D01*
X100422954Y-103664511D01*
X100445671Y-103669030D01*
X100469991Y-103685280D01*
X100490793Y-103694465D01*
X100505000Y-103708672D01*
X100526777Y-103723223D01*
X100541327Y-103744999D01*
X100555534Y-103759206D01*
X100564718Y-103780006D01*
X100580970Y-103804329D01*
X100585489Y-103827048D01*
X100593235Y-103844591D01*
X100599192Y-103895940D01*
X100600000Y-103900000D01*
X100600000Y-104600000D01*
X100599192Y-104604059D01*
X100593235Y-104655408D01*
X100585489Y-104672950D01*
X100580970Y-104695671D01*
X100564716Y-104719995D01*
X100555534Y-104740793D01*
X100541329Y-104754997D01*
X100526777Y-104776777D01*
X100504997Y-104791329D01*
X100490793Y-104805534D01*
X100469995Y-104814716D01*
X100445671Y-104830970D01*
X100422950Y-104835489D01*
X100405408Y-104843235D01*
X100354061Y-104849192D01*
X100350000Y-104850000D01*
X99450000Y-104850000D01*
X99445941Y-104849192D01*
X99394591Y-104843235D01*
X99377048Y-104835489D01*
X99354329Y-104830970D01*
X99330006Y-104814718D01*
X99309206Y-104805534D01*
X99294999Y-104791327D01*
X99273223Y-104776777D01*
X99258672Y-104755000D01*
X99244465Y-104740793D01*
X99235280Y-104719991D01*
X99219030Y-104695671D01*
X99214511Y-104672954D01*
X99206764Y-104655408D01*
X99200805Y-104604049D01*
X99200000Y-104600000D01*
X99200000Y-103900000D01*
X99200804Y-103895953D01*
X99206764Y-103844591D01*
X99214511Y-103827043D01*
X99219030Y-103804329D01*
X99235278Y-103780010D01*
X99244465Y-103759206D01*
X99258674Y-103744996D01*
X99273223Y-103723223D01*
X99294996Y-103708674D01*
X99309206Y-103694465D01*
X99330010Y-103685278D01*
X99354329Y-103669030D01*
X99377043Y-103664511D01*
X99394591Y-103656764D01*
X99445952Y-103650805D01*
X99450000Y-103650000D01*
X100350000Y-103650000D01*
X100354047Y-103650805D01*
G37*
G36*
X106378701Y-104105709D02*
G01*
X106403033Y-104121967D01*
X106419291Y-104146299D01*
X106425000Y-104175000D01*
X106425000Y-104325000D01*
X106419291Y-104353701D01*
X106403033Y-104378033D01*
X106378701Y-104394291D01*
X106350000Y-104400000D01*
X104950000Y-104400000D01*
X104921299Y-104394291D01*
X104896967Y-104378033D01*
X104880709Y-104353701D01*
X104875000Y-104325000D01*
X104875000Y-104175000D01*
X104880709Y-104146299D01*
X104896967Y-104121967D01*
X104921299Y-104105709D01*
X104950000Y-104100000D01*
X106350000Y-104100000D01*
X106378701Y-104105709D01*
G37*
G36*
X117728701Y-104105709D02*
G01*
X117753033Y-104121967D01*
X117769291Y-104146299D01*
X117775000Y-104175000D01*
X117775000Y-104325000D01*
X117769291Y-104353701D01*
X117753033Y-104378033D01*
X117728701Y-104394291D01*
X117700000Y-104400000D01*
X116300000Y-104400000D01*
X116271299Y-104394291D01*
X116246967Y-104378033D01*
X116230709Y-104353701D01*
X116225000Y-104325000D01*
X116225000Y-104175000D01*
X116230709Y-104146299D01*
X116246967Y-104121967D01*
X116271299Y-104105709D01*
X116300000Y-104100000D01*
X117700000Y-104100000D01*
X117728701Y-104105709D01*
G37*
G36*
X106378701Y-103605709D02*
G01*
X106403033Y-103621967D01*
X106419291Y-103646299D01*
X106425000Y-103675000D01*
X106425000Y-103825000D01*
X106419291Y-103853701D01*
X106403033Y-103878033D01*
X106378701Y-103894291D01*
X106350000Y-103900000D01*
X104950000Y-103900000D01*
X104921299Y-103894291D01*
X104896967Y-103878033D01*
X104880709Y-103853701D01*
X104875000Y-103825000D01*
X104875000Y-103675000D01*
X104880709Y-103646299D01*
X104896967Y-103621967D01*
X104921299Y-103605709D01*
X104950000Y-103600000D01*
X106350000Y-103600000D01*
X106378701Y-103605709D01*
G37*
G36*
X117728701Y-103605709D02*
G01*
X117753033Y-103621967D01*
X117769291Y-103646299D01*
X117775000Y-103675000D01*
X117775000Y-103825000D01*
X117769291Y-103853701D01*
X117753033Y-103878033D01*
X117728701Y-103894291D01*
X117700000Y-103900000D01*
X116300000Y-103900000D01*
X116271299Y-103894291D01*
X116246967Y-103878033D01*
X116230709Y-103853701D01*
X116225000Y-103825000D01*
X116225000Y-103675000D01*
X116230709Y-103646299D01*
X116246967Y-103621967D01*
X116271299Y-103605709D01*
X116300000Y-103600000D01*
X117700000Y-103600000D01*
X117728701Y-103605709D01*
G37*
G36*
X106378701Y-103105709D02*
G01*
X106403033Y-103121967D01*
X106419291Y-103146299D01*
X106425000Y-103175000D01*
X106425000Y-103325000D01*
X106419291Y-103353701D01*
X106403033Y-103378033D01*
X106378701Y-103394291D01*
X106350000Y-103400000D01*
X104950000Y-103400000D01*
X104921299Y-103394291D01*
X104896967Y-103378033D01*
X104880709Y-103353701D01*
X104875000Y-103325000D01*
X104875000Y-103175000D01*
X104880709Y-103146299D01*
X104896967Y-103121967D01*
X104921299Y-103105709D01*
X104950000Y-103100000D01*
X106350000Y-103100000D01*
X106378701Y-103105709D01*
G37*
G36*
X117728701Y-103105709D02*
G01*
X117753033Y-103121967D01*
X117769291Y-103146299D01*
X117775000Y-103175000D01*
X117775000Y-103325000D01*
X117769291Y-103353701D01*
X117753033Y-103378033D01*
X117728701Y-103394291D01*
X117700000Y-103400000D01*
X116300000Y-103400000D01*
X116271299Y-103394291D01*
X116246967Y-103378033D01*
X116230709Y-103353701D01*
X116225000Y-103325000D01*
X116225000Y-103175000D01*
X116230709Y-103146299D01*
X116246967Y-103121967D01*
X116271299Y-103105709D01*
X116300000Y-103100000D01*
X117700000Y-103100000D01*
X117728701Y-103105709D01*
G37*
G36*
X121726662Y-102590276D02*
G01*
X121770459Y-102619541D01*
X121799724Y-102663338D01*
X121810000Y-102715000D01*
X121810000Y-103085000D01*
X121799724Y-103136662D01*
X121770459Y-103180459D01*
X121726662Y-103209724D01*
X121675000Y-103220000D01*
X121405000Y-103220000D01*
X121353338Y-103209724D01*
X121309541Y-103180459D01*
X121280276Y-103136662D01*
X121270000Y-103085000D01*
X121270000Y-102715000D01*
X121280276Y-102663338D01*
X121309541Y-102619541D01*
X121353338Y-102590276D01*
X121405000Y-102580000D01*
X121675000Y-102580000D01*
X121726662Y-102590276D01*
G37*
G36*
X122746662Y-102590276D02*
G01*
X122790459Y-102619541D01*
X122819724Y-102663338D01*
X122830000Y-102715000D01*
X122830000Y-103085000D01*
X122819724Y-103136662D01*
X122790459Y-103180459D01*
X122746662Y-103209724D01*
X122695000Y-103220000D01*
X122425000Y-103220000D01*
X122373338Y-103209724D01*
X122329541Y-103180459D01*
X122300276Y-103136662D01*
X122290000Y-103085000D01*
X122290000Y-102715000D01*
X122300276Y-102663338D01*
X122329541Y-102619541D01*
X122373338Y-102590276D01*
X122425000Y-102580000D01*
X122695000Y-102580000D01*
X122746662Y-102590276D01*
G37*
G36*
X98154047Y-101950805D02*
G01*
X98205408Y-101956764D01*
X98222954Y-101964511D01*
X98245671Y-101969030D01*
X98269991Y-101985280D01*
X98290793Y-101994465D01*
X98305000Y-102008672D01*
X98326777Y-102023223D01*
X98341327Y-102044999D01*
X98355534Y-102059206D01*
X98364718Y-102080006D01*
X98380970Y-102104329D01*
X98385489Y-102127048D01*
X98393235Y-102144591D01*
X98399192Y-102195940D01*
X98400000Y-102200000D01*
X98400000Y-102900000D01*
X98399192Y-102904059D01*
X98393235Y-102955408D01*
X98385489Y-102972950D01*
X98380970Y-102995671D01*
X98364716Y-103019995D01*
X98355534Y-103040793D01*
X98341329Y-103054997D01*
X98326777Y-103076777D01*
X98304997Y-103091329D01*
X98290793Y-103105534D01*
X98269995Y-103114716D01*
X98245671Y-103130970D01*
X98222950Y-103135489D01*
X98205408Y-103143235D01*
X98154061Y-103149192D01*
X98150000Y-103150000D01*
X97250000Y-103150000D01*
X97245941Y-103149192D01*
X97194591Y-103143235D01*
X97177048Y-103135489D01*
X97154329Y-103130970D01*
X97130006Y-103114718D01*
X97109206Y-103105534D01*
X97094999Y-103091327D01*
X97073223Y-103076777D01*
X97058672Y-103055000D01*
X97044465Y-103040793D01*
X97035280Y-103019991D01*
X97019030Y-102995671D01*
X97014511Y-102972954D01*
X97006764Y-102955408D01*
X97000805Y-102904049D01*
X97000000Y-102900000D01*
X97000000Y-102200000D01*
X97000804Y-102195953D01*
X97006764Y-102144591D01*
X97014511Y-102127043D01*
X97019030Y-102104329D01*
X97035278Y-102080010D01*
X97044465Y-102059206D01*
X97058674Y-102044996D01*
X97073223Y-102023223D01*
X97094996Y-102008674D01*
X97109206Y-101994465D01*
X97130010Y-101985278D01*
X97154329Y-101969030D01*
X97177043Y-101964511D01*
X97194591Y-101956764D01*
X97245952Y-101950805D01*
X97250000Y-101950000D01*
X98150000Y-101950000D01*
X98154047Y-101950805D01*
G37*
G36*
X100354047Y-101950805D02*
G01*
X100405408Y-101956764D01*
X100422954Y-101964511D01*
X100445671Y-101969030D01*
X100469991Y-101985280D01*
X100490793Y-101994465D01*
X100505000Y-102008672D01*
X100526777Y-102023223D01*
X100541327Y-102044999D01*
X100555534Y-102059206D01*
X100564718Y-102080006D01*
X100580970Y-102104329D01*
X100585489Y-102127048D01*
X100593235Y-102144591D01*
X100599192Y-102195940D01*
X100600000Y-102200000D01*
X100600000Y-102900000D01*
X100599192Y-102904059D01*
X100593235Y-102955408D01*
X100585489Y-102972950D01*
X100580970Y-102995671D01*
X100564716Y-103019995D01*
X100555534Y-103040793D01*
X100541329Y-103054997D01*
X100526777Y-103076777D01*
X100504997Y-103091329D01*
X100490793Y-103105534D01*
X100469995Y-103114716D01*
X100445671Y-103130970D01*
X100422950Y-103135489D01*
X100405408Y-103143235D01*
X100354061Y-103149192D01*
X100350000Y-103150000D01*
X99450000Y-103150000D01*
X99445941Y-103149192D01*
X99394591Y-103143235D01*
X99377048Y-103135489D01*
X99354329Y-103130970D01*
X99330006Y-103114718D01*
X99309206Y-103105534D01*
X99294999Y-103091327D01*
X99273223Y-103076777D01*
X99258672Y-103055000D01*
X99244465Y-103040793D01*
X99235280Y-103019991D01*
X99219030Y-102995671D01*
X99214511Y-102972954D01*
X99206764Y-102955408D01*
X99200805Y-102904049D01*
X99200000Y-102900000D01*
X99200000Y-102200000D01*
X99200804Y-102195953D01*
X99206764Y-102144591D01*
X99214511Y-102127043D01*
X99219030Y-102104329D01*
X99235278Y-102080010D01*
X99244465Y-102059206D01*
X99258674Y-102044996D01*
X99273223Y-102023223D01*
X99294996Y-102008674D01*
X99309206Y-101994465D01*
X99330010Y-101985278D01*
X99354329Y-101969030D01*
X99377043Y-101964511D01*
X99394591Y-101956764D01*
X99445952Y-101950805D01*
X99450000Y-101950000D01*
X100350000Y-101950000D01*
X100354047Y-101950805D01*
G37*
G36*
X106378701Y-102605709D02*
G01*
X106403033Y-102621967D01*
X106419291Y-102646299D01*
X106425000Y-102675000D01*
X106425000Y-102825000D01*
X106419291Y-102853701D01*
X106403033Y-102878033D01*
X106378701Y-102894291D01*
X106350000Y-102900000D01*
X104950000Y-102900000D01*
X104921299Y-102894291D01*
X104896967Y-102878033D01*
X104880709Y-102853701D01*
X104875000Y-102825000D01*
X104875000Y-102675000D01*
X104880709Y-102646299D01*
X104896967Y-102621967D01*
X104921299Y-102605709D01*
X104950000Y-102600000D01*
X106350000Y-102600000D01*
X106378701Y-102605709D01*
G37*
G36*
X117728701Y-102605709D02*
G01*
X117753033Y-102621967D01*
X117769291Y-102646299D01*
X117775000Y-102675000D01*
X117775000Y-102825000D01*
X117769291Y-102853701D01*
X117753033Y-102878033D01*
X117728701Y-102894291D01*
X117700000Y-102900000D01*
X116300000Y-102900000D01*
X116271299Y-102894291D01*
X116246967Y-102878033D01*
X116230709Y-102853701D01*
X116225000Y-102825000D01*
X116225000Y-102675000D01*
X116230709Y-102646299D01*
X116246967Y-102621967D01*
X116271299Y-102605709D01*
X116300000Y-102600000D01*
X117700000Y-102600000D01*
X117728701Y-102605709D01*
G37*
G36*
X106378701Y-102105709D02*
G01*
X106403033Y-102121967D01*
X106419291Y-102146299D01*
X106425000Y-102175000D01*
X106425000Y-102325000D01*
X106419291Y-102353701D01*
X106403033Y-102378033D01*
X106378701Y-102394291D01*
X106350000Y-102400000D01*
X104950000Y-102400000D01*
X104921299Y-102394291D01*
X104896967Y-102378033D01*
X104880709Y-102353701D01*
X104875000Y-102325000D01*
X104875000Y-102175000D01*
X104880709Y-102146299D01*
X104896967Y-102121967D01*
X104921299Y-102105709D01*
X104950000Y-102100000D01*
X106350000Y-102100000D01*
X106378701Y-102105709D01*
G37*
G36*
X117728701Y-102105709D02*
G01*
X117753033Y-102121967D01*
X117769291Y-102146299D01*
X117775000Y-102175000D01*
X117775000Y-102325000D01*
X117769291Y-102353701D01*
X117753033Y-102378033D01*
X117728701Y-102394291D01*
X117700000Y-102400000D01*
X116300000Y-102400000D01*
X116271299Y-102394291D01*
X116246967Y-102378033D01*
X116230709Y-102353701D01*
X116225000Y-102325000D01*
X116225000Y-102175000D01*
X116230709Y-102146299D01*
X116246967Y-102121967D01*
X116271299Y-102105709D01*
X116300000Y-102100000D01*
X117700000Y-102100000D01*
X117728701Y-102105709D01*
G37*
G36*
X122326662Y-101440276D02*
G01*
X122370459Y-101469541D01*
X122399724Y-101513338D01*
X122410000Y-101565000D01*
X122410000Y-101935000D01*
X122399724Y-101986662D01*
X122370459Y-102030459D01*
X122326662Y-102059724D01*
X122275000Y-102070000D01*
X122005000Y-102070000D01*
X121953338Y-102059724D01*
X121909541Y-102030459D01*
X121880276Y-101986662D01*
X121870000Y-101935000D01*
X121870000Y-101565000D01*
X121880276Y-101513338D01*
X121909541Y-101469541D01*
X121953338Y-101440276D01*
X122005000Y-101430000D01*
X122275000Y-101430000D01*
X122326662Y-101440276D01*
G37*
G36*
X123346662Y-101440276D02*
G01*
X123390459Y-101469541D01*
X123419724Y-101513338D01*
X123430000Y-101565000D01*
X123430000Y-101935000D01*
X123419724Y-101986662D01*
X123390459Y-102030459D01*
X123346662Y-102059724D01*
X123295000Y-102070000D01*
X123025000Y-102070000D01*
X122973338Y-102059724D01*
X122929541Y-102030459D01*
X122900276Y-101986662D01*
X122890000Y-101935000D01*
X122890000Y-101565000D01*
X122900276Y-101513338D01*
X122929541Y-101469541D01*
X122973338Y-101440276D01*
X123025000Y-101430000D01*
X123295000Y-101430000D01*
X123346662Y-101440276D01*
G37*
G36*
X106378701Y-101605709D02*
G01*
X106403033Y-101621967D01*
X106419291Y-101646299D01*
X106425000Y-101675000D01*
X106425000Y-101825000D01*
X106419291Y-101853701D01*
X106403033Y-101878033D01*
X106378701Y-101894291D01*
X106350000Y-101900000D01*
X104950000Y-101900000D01*
X104921299Y-101894291D01*
X104896967Y-101878033D01*
X104880709Y-101853701D01*
X104875000Y-101825000D01*
X104875000Y-101675000D01*
X104880709Y-101646299D01*
X104896967Y-101621967D01*
X104921299Y-101605709D01*
X104950000Y-101600000D01*
X106350000Y-101600000D01*
X106378701Y-101605709D01*
G37*
G36*
X117728701Y-101605709D02*
G01*
X117753033Y-101621967D01*
X117769291Y-101646299D01*
X117775000Y-101675000D01*
X117775000Y-101825000D01*
X117769291Y-101853701D01*
X117753033Y-101878033D01*
X117728701Y-101894291D01*
X117700000Y-101900000D01*
X116300000Y-101900000D01*
X116271299Y-101894291D01*
X116246967Y-101878033D01*
X116230709Y-101853701D01*
X116225000Y-101825000D01*
X116225000Y-101675000D01*
X116230709Y-101646299D01*
X116246967Y-101621967D01*
X116271299Y-101605709D01*
X116300000Y-101600000D01*
X117700000Y-101600000D01*
X117728701Y-101605709D01*
G37*
G36*
X120198604Y-100817127D02*
G01*
X120271599Y-100865901D01*
X120320373Y-100938896D01*
X120337500Y-101025000D01*
X120337500Y-101475000D01*
X120320373Y-101561104D01*
X120271599Y-101634099D01*
X120198604Y-101682873D01*
X120112500Y-101700000D01*
X119612500Y-101700000D01*
X119526396Y-101682873D01*
X119453401Y-101634099D01*
X119404627Y-101561104D01*
X119387500Y-101475000D01*
X119387500Y-101025000D01*
X119404627Y-100938896D01*
X119453401Y-100865901D01*
X119526396Y-100817127D01*
X119612500Y-100800000D01*
X120112500Y-100800000D01*
X120198604Y-100817127D01*
G37*
G36*
X106378701Y-101105709D02*
G01*
X106403033Y-101121967D01*
X106419291Y-101146299D01*
X106425000Y-101175000D01*
X106425000Y-101325000D01*
X106419291Y-101353701D01*
X106403033Y-101378033D01*
X106378701Y-101394291D01*
X106350000Y-101400000D01*
X104950000Y-101400000D01*
X104921299Y-101394291D01*
X104896967Y-101378033D01*
X104880709Y-101353701D01*
X104875000Y-101325000D01*
X104875000Y-101175000D01*
X104880709Y-101146299D01*
X104896967Y-101121967D01*
X104921299Y-101105709D01*
X104950000Y-101100000D01*
X106350000Y-101100000D01*
X106378701Y-101105709D01*
G37*
G36*
X117728701Y-101105709D02*
G01*
X117753033Y-101121967D01*
X117769291Y-101146299D01*
X117775000Y-101175000D01*
X117775000Y-101325000D01*
X117769291Y-101353701D01*
X117753033Y-101378033D01*
X117728701Y-101394291D01*
X117700000Y-101400000D01*
X116300000Y-101400000D01*
X116271299Y-101394291D01*
X116246967Y-101378033D01*
X116230709Y-101353701D01*
X116225000Y-101325000D01*
X116225000Y-101175000D01*
X116230709Y-101146299D01*
X116246967Y-101121967D01*
X116271299Y-101105709D01*
X116300000Y-101100000D01*
X117700000Y-101100000D01*
X117728701Y-101105709D01*
G37*
G36*
X130639962Y-100416651D02*
G01*
X130710930Y-100464070D01*
X130758349Y-100535038D01*
X130775000Y-100618750D01*
X130775000Y-101056250D01*
X130758349Y-101139962D01*
X130710930Y-101210930D01*
X130639962Y-101258349D01*
X130556250Y-101275000D01*
X130043750Y-101275000D01*
X129960038Y-101258349D01*
X129889070Y-101210930D01*
X129841651Y-101139962D01*
X129825000Y-101056250D01*
X129825000Y-100618750D01*
X129841651Y-100535038D01*
X129889070Y-100464070D01*
X129960038Y-100416651D01*
X130043750Y-100400000D01*
X130556250Y-100400000D01*
X130639962Y-100416651D01*
G37*
G36*
X102886104Y-100342127D02*
G01*
X102959099Y-100390901D01*
X103007873Y-100463896D01*
X103025000Y-100550000D01*
X103025000Y-101000000D01*
X103007873Y-101086104D01*
X102959099Y-101159099D01*
X102886104Y-101207873D01*
X102800000Y-101225000D01*
X102300000Y-101225000D01*
X102213896Y-101207873D01*
X102140901Y-101159099D01*
X102092127Y-101086104D01*
X102075000Y-101000000D01*
X102075000Y-100550000D01*
X102092127Y-100463896D01*
X102140901Y-100390901D01*
X102213896Y-100342127D01*
X102300000Y-100325000D01*
X102800000Y-100325000D01*
X102886104Y-100342127D01*
G37*
G36*
X131883576Y-100600657D02*
G01*
X131928995Y-100631005D01*
X131959343Y-100676424D01*
X131970000Y-100730000D01*
X131970000Y-101070000D01*
X131959343Y-101123576D01*
X131928995Y-101168995D01*
X131883576Y-101199343D01*
X131830000Y-101210000D01*
X131550000Y-101210000D01*
X131496424Y-101199343D01*
X131451005Y-101168995D01*
X131420657Y-101123576D01*
X131410000Y-101070000D01*
X131410000Y-100730000D01*
X131420657Y-100676424D01*
X131451005Y-100631005D01*
X131496424Y-100600657D01*
X131550000Y-100590000D01*
X131830000Y-100590000D01*
X131883576Y-100600657D01*
G37*
G36*
X132843576Y-100600657D02*
G01*
X132888995Y-100631005D01*
X132919343Y-100676424D01*
X132930000Y-100730000D01*
X132930000Y-101070000D01*
X132919343Y-101123576D01*
X132888995Y-101168995D01*
X132843576Y-101199343D01*
X132790000Y-101210000D01*
X132510000Y-101210000D01*
X132456424Y-101199343D01*
X132411005Y-101168995D01*
X132380657Y-101123576D01*
X132370000Y-101070000D01*
X132370000Y-100730000D01*
X132380657Y-100676424D01*
X132411005Y-100631005D01*
X132456424Y-100600657D01*
X132510000Y-100590000D01*
X132790000Y-100590000D01*
X132843576Y-100600657D01*
G37*
G36*
X98661104Y-100192127D02*
G01*
X98734099Y-100240901D01*
X98782873Y-100313896D01*
X98800000Y-100400000D01*
X98800000Y-100900000D01*
X98782873Y-100986104D01*
X98734099Y-101059099D01*
X98661104Y-101107873D01*
X98575000Y-101125000D01*
X98125000Y-101125000D01*
X98038896Y-101107873D01*
X97965901Y-101059099D01*
X97917127Y-100986104D01*
X97900000Y-100900000D01*
X97900000Y-100400000D01*
X97917127Y-100313896D01*
X97965901Y-100240901D01*
X98038896Y-100192127D01*
X98125000Y-100175000D01*
X98575000Y-100175000D01*
X98661104Y-100192127D01*
G37*
G36*
X100211104Y-100192127D02*
G01*
X100284099Y-100240901D01*
X100332873Y-100313896D01*
X100350000Y-100400000D01*
X100350000Y-100900000D01*
X100332873Y-100986104D01*
X100284099Y-101059099D01*
X100211104Y-101107873D01*
X100125000Y-101125000D01*
X99675000Y-101125000D01*
X99588896Y-101107873D01*
X99515901Y-101059099D01*
X99467127Y-100986104D01*
X99450000Y-100900000D01*
X99450000Y-100400000D01*
X99467127Y-100313896D01*
X99515901Y-100240901D01*
X99588896Y-100192127D01*
X99675000Y-100175000D01*
X100125000Y-100175000D01*
X100211104Y-100192127D01*
G37*
G36*
X104198576Y-100460657D02*
G01*
X104243995Y-100491005D01*
X104274343Y-100536424D01*
X104285000Y-100590000D01*
X104285000Y-100870000D01*
X104274343Y-100923576D01*
X104243995Y-100968995D01*
X104198576Y-100999343D01*
X104145000Y-101010000D01*
X103805000Y-101010000D01*
X103751424Y-100999343D01*
X103706005Y-100968995D01*
X103675657Y-100923576D01*
X103665000Y-100870000D01*
X103665000Y-100590000D01*
X103675657Y-100536424D01*
X103706005Y-100491005D01*
X103751424Y-100460657D01*
X103805000Y-100450000D01*
X104145000Y-100450000D01*
X104198576Y-100460657D01*
G37*
G36*
X106378701Y-100605709D02*
G01*
X106403033Y-100621967D01*
X106419291Y-100646299D01*
X106425000Y-100675000D01*
X106425000Y-100825000D01*
X106419291Y-100853701D01*
X106403033Y-100878033D01*
X106378701Y-100894291D01*
X106350000Y-100900000D01*
X104950000Y-100900000D01*
X104921299Y-100894291D01*
X104896967Y-100878033D01*
X104880709Y-100853701D01*
X104875000Y-100825000D01*
X104875000Y-100675000D01*
X104880709Y-100646299D01*
X104896967Y-100621967D01*
X104921299Y-100605709D01*
X104950000Y-100600000D01*
X106350000Y-100600000D01*
X106378701Y-100605709D01*
G37*
G36*
X117728701Y-100605709D02*
G01*
X117753033Y-100621967D01*
X117769291Y-100646299D01*
X117775000Y-100675000D01*
X117775000Y-100825000D01*
X117769291Y-100853701D01*
X117753033Y-100878033D01*
X117728701Y-100894291D01*
X117700000Y-100900000D01*
X116300000Y-100900000D01*
X116271299Y-100894291D01*
X116246967Y-100878033D01*
X116230709Y-100853701D01*
X116225000Y-100825000D01*
X116225000Y-100675000D01*
X116230709Y-100646299D01*
X116246967Y-100621967D01*
X116271299Y-100605709D01*
X116300000Y-100600000D01*
X117700000Y-100600000D01*
X117728701Y-100605709D01*
G37*
G36*
X120198604Y-99267127D02*
G01*
X120271599Y-99315901D01*
X120320373Y-99388896D01*
X120337500Y-99475000D01*
X120337500Y-99925000D01*
X120320373Y-100011104D01*
X120271599Y-100084099D01*
X120198604Y-100132873D01*
X120112500Y-100150000D01*
X119612500Y-100150000D01*
X119526396Y-100132873D01*
X119453401Y-100084099D01*
X119404627Y-100011104D01*
X119387500Y-99925000D01*
X119387500Y-99475000D01*
X119404627Y-99388896D01*
X119453401Y-99315901D01*
X119526396Y-99267127D01*
X119612500Y-99250000D01*
X120112500Y-99250000D01*
X120198604Y-99267127D01*
G37*
G36*
X104198576Y-99500657D02*
G01*
X104243995Y-99531005D01*
X104274343Y-99576424D01*
X104285000Y-99630000D01*
X104285000Y-99910000D01*
X104274343Y-99963576D01*
X104243995Y-100008995D01*
X104198576Y-100039343D01*
X104145000Y-100050000D01*
X103805000Y-100050000D01*
X103751424Y-100039343D01*
X103706005Y-100008995D01*
X103675657Y-99963576D01*
X103665000Y-99910000D01*
X103665000Y-99630000D01*
X103675657Y-99576424D01*
X103706005Y-99531005D01*
X103751424Y-99500657D01*
X103805000Y-99490000D01*
X104145000Y-99490000D01*
X104198576Y-99500657D01*
G37*
G36*
X124451537Y-99040224D02*
G01*
X124516421Y-99083579D01*
X124559776Y-99148463D01*
X124575000Y-99225000D01*
X124575000Y-99625000D01*
X124559776Y-99701537D01*
X124516421Y-99766421D01*
X124451537Y-99809776D01*
X124375000Y-99825000D01*
X123825000Y-99825000D01*
X123748463Y-99809776D01*
X123683579Y-99766421D01*
X123640224Y-99701537D01*
X123625000Y-99625000D01*
X123625000Y-99225000D01*
X123640224Y-99148463D01*
X123683579Y-99083579D01*
X123748463Y-99040224D01*
X123825000Y-99025000D01*
X124375000Y-99025000D01*
X124451537Y-99040224D01*
G37*
G36*
X130639962Y-98841651D02*
G01*
X130710930Y-98889070D01*
X130758349Y-98960038D01*
X130775000Y-99043750D01*
X130775000Y-99481250D01*
X130758349Y-99564962D01*
X130710930Y-99635930D01*
X130639962Y-99683349D01*
X130556250Y-99700000D01*
X130043750Y-99700000D01*
X129960038Y-99683349D01*
X129889070Y-99635930D01*
X129841651Y-99564962D01*
X129825000Y-99481250D01*
X129825000Y-99043750D01*
X129841651Y-98960038D01*
X129889070Y-98889070D01*
X129960038Y-98841651D01*
X130043750Y-98825000D01*
X130556250Y-98825000D01*
X130639962Y-98841651D01*
G37*
G36*
X102886104Y-98792127D02*
G01*
X102959099Y-98840901D01*
X103007873Y-98913896D01*
X103025000Y-99000000D01*
X103025000Y-99450000D01*
X103007873Y-99536104D01*
X102959099Y-99609099D01*
X102886104Y-99657873D01*
X102800000Y-99675000D01*
X102300000Y-99675000D01*
X102213896Y-99657873D01*
X102140901Y-99609099D01*
X102092127Y-99536104D01*
X102075000Y-99450000D01*
X102075000Y-99000000D01*
X102092127Y-98913896D01*
X102140901Y-98840901D01*
X102213896Y-98792127D01*
X102300000Y-98775000D01*
X102800000Y-98775000D01*
X102886104Y-98792127D01*
G37*
G36*
X107678701Y-98055709D02*
G01*
X107703033Y-98071967D01*
X107719291Y-98096299D01*
X107725000Y-98125000D01*
X107725000Y-99525000D01*
X107719291Y-99553701D01*
X107703033Y-99578033D01*
X107678701Y-99594291D01*
X107650000Y-99600000D01*
X107500000Y-99600000D01*
X107471299Y-99594291D01*
X107446967Y-99578033D01*
X107430709Y-99553701D01*
X107425000Y-99525000D01*
X107425000Y-98125000D01*
X107430709Y-98096299D01*
X107446967Y-98071967D01*
X107471299Y-98055709D01*
X107500000Y-98050000D01*
X107650000Y-98050000D01*
X107678701Y-98055709D01*
G37*
G36*
X108178701Y-98055709D02*
G01*
X108203033Y-98071967D01*
X108219291Y-98096299D01*
X108225000Y-98125000D01*
X108225000Y-99525000D01*
X108219291Y-99553701D01*
X108203033Y-99578033D01*
X108178701Y-99594291D01*
X108150000Y-99600000D01*
X108000000Y-99600000D01*
X107971299Y-99594291D01*
X107946967Y-99578033D01*
X107930709Y-99553701D01*
X107925000Y-99525000D01*
X107925000Y-98125000D01*
X107930709Y-98096299D01*
X107946967Y-98071967D01*
X107971299Y-98055709D01*
X108000000Y-98050000D01*
X108150000Y-98050000D01*
X108178701Y-98055709D01*
G37*
G36*
X108678701Y-98055709D02*
G01*
X108703033Y-98071967D01*
X108719291Y-98096299D01*
X108725000Y-98125000D01*
X108725000Y-99525000D01*
X108719291Y-99553701D01*
X108703033Y-99578033D01*
X108678701Y-99594291D01*
X108650000Y-99600000D01*
X108500000Y-99600000D01*
X108471299Y-99594291D01*
X108446967Y-99578033D01*
X108430709Y-99553701D01*
X108425000Y-99525000D01*
X108425000Y-98125000D01*
X108430709Y-98096299D01*
X108446967Y-98071967D01*
X108471299Y-98055709D01*
X108500000Y-98050000D01*
X108650000Y-98050000D01*
X108678701Y-98055709D01*
G37*
G36*
X109178701Y-98055709D02*
G01*
X109203033Y-98071967D01*
X109219291Y-98096299D01*
X109225000Y-98125000D01*
X109225000Y-99525000D01*
X109219291Y-99553701D01*
X109203033Y-99578033D01*
X109178701Y-99594291D01*
X109150000Y-99600000D01*
X109000000Y-99600000D01*
X108971299Y-99594291D01*
X108946967Y-99578033D01*
X108930709Y-99553701D01*
X108925000Y-99525000D01*
X108925000Y-98125000D01*
X108930709Y-98096299D01*
X108946967Y-98071967D01*
X108971299Y-98055709D01*
X109000000Y-98050000D01*
X109150000Y-98050000D01*
X109178701Y-98055709D01*
G37*
G36*
X109678701Y-98055709D02*
G01*
X109703033Y-98071967D01*
X109719291Y-98096299D01*
X109725000Y-98125000D01*
X109725000Y-99525000D01*
X109719291Y-99553701D01*
X109703033Y-99578033D01*
X109678701Y-99594291D01*
X109650000Y-99600000D01*
X109500000Y-99600000D01*
X109471299Y-99594291D01*
X109446967Y-99578033D01*
X109430709Y-99553701D01*
X109425000Y-99525000D01*
X109425000Y-98125000D01*
X109430709Y-98096299D01*
X109446967Y-98071967D01*
X109471299Y-98055709D01*
X109500000Y-98050000D01*
X109650000Y-98050000D01*
X109678701Y-98055709D01*
G37*
G36*
X110178701Y-98055709D02*
G01*
X110203033Y-98071967D01*
X110219291Y-98096299D01*
X110225000Y-98125000D01*
X110225000Y-99525000D01*
X110219291Y-99553701D01*
X110203033Y-99578033D01*
X110178701Y-99594291D01*
X110150000Y-99600000D01*
X110000000Y-99600000D01*
X109971299Y-99594291D01*
X109946967Y-99578033D01*
X109930709Y-99553701D01*
X109925000Y-99525000D01*
X109925000Y-98125000D01*
X109930709Y-98096299D01*
X109946967Y-98071967D01*
X109971299Y-98055709D01*
X110000000Y-98050000D01*
X110150000Y-98050000D01*
X110178701Y-98055709D01*
G37*
G36*
X110678701Y-98055709D02*
G01*
X110703033Y-98071967D01*
X110719291Y-98096299D01*
X110725000Y-98125000D01*
X110725000Y-99525000D01*
X110719291Y-99553701D01*
X110703033Y-99578033D01*
X110678701Y-99594291D01*
X110650000Y-99600000D01*
X110500000Y-99600000D01*
X110471299Y-99594291D01*
X110446967Y-99578033D01*
X110430709Y-99553701D01*
X110425000Y-99525000D01*
X110425000Y-98125000D01*
X110430709Y-98096299D01*
X110446967Y-98071967D01*
X110471299Y-98055709D01*
X110500000Y-98050000D01*
X110650000Y-98050000D01*
X110678701Y-98055709D01*
G37*
G36*
X111178701Y-98055709D02*
G01*
X111203033Y-98071967D01*
X111219291Y-98096299D01*
X111225000Y-98125000D01*
X111225000Y-99525000D01*
X111219291Y-99553701D01*
X111203033Y-99578033D01*
X111178701Y-99594291D01*
X111150000Y-99600000D01*
X111000000Y-99600000D01*
X110971299Y-99594291D01*
X110946967Y-99578033D01*
X110930709Y-99553701D01*
X110925000Y-99525000D01*
X110925000Y-98125000D01*
X110930709Y-98096299D01*
X110946967Y-98071967D01*
X110971299Y-98055709D01*
X111000000Y-98050000D01*
X111150000Y-98050000D01*
X111178701Y-98055709D01*
G37*
G36*
X111678701Y-98055709D02*
G01*
X111703033Y-98071967D01*
X111719291Y-98096299D01*
X111725000Y-98125000D01*
X111725000Y-99525000D01*
X111719291Y-99553701D01*
X111703033Y-99578033D01*
X111678701Y-99594291D01*
X111650000Y-99600000D01*
X111500000Y-99600000D01*
X111471299Y-99594291D01*
X111446967Y-99578033D01*
X111430709Y-99553701D01*
X111425000Y-99525000D01*
X111425000Y-98125000D01*
X111430709Y-98096299D01*
X111446967Y-98071967D01*
X111471299Y-98055709D01*
X111500000Y-98050000D01*
X111650000Y-98050000D01*
X111678701Y-98055709D01*
G37*
G36*
X112178701Y-98055709D02*
G01*
X112203033Y-98071967D01*
X112219291Y-98096299D01*
X112225000Y-98125000D01*
X112225000Y-99525000D01*
X112219291Y-99553701D01*
X112203033Y-99578033D01*
X112178701Y-99594291D01*
X112150000Y-99600000D01*
X112000000Y-99600000D01*
X111971299Y-99594291D01*
X111946967Y-99578033D01*
X111930709Y-99553701D01*
X111925000Y-99525000D01*
X111925000Y-98125000D01*
X111930709Y-98096299D01*
X111946967Y-98071967D01*
X111971299Y-98055709D01*
X112000000Y-98050000D01*
X112150000Y-98050000D01*
X112178701Y-98055709D01*
G37*
G36*
X112678701Y-98055709D02*
G01*
X112703033Y-98071967D01*
X112719291Y-98096299D01*
X112725000Y-98125000D01*
X112725000Y-99525000D01*
X112719291Y-99553701D01*
X112703033Y-99578033D01*
X112678701Y-99594291D01*
X112650000Y-99600000D01*
X112500000Y-99600000D01*
X112471299Y-99594291D01*
X112446967Y-99578033D01*
X112430709Y-99553701D01*
X112425000Y-99525000D01*
X112425000Y-98125000D01*
X112430709Y-98096299D01*
X112446967Y-98071967D01*
X112471299Y-98055709D01*
X112500000Y-98050000D01*
X112650000Y-98050000D01*
X112678701Y-98055709D01*
G37*
G36*
X113178701Y-98055709D02*
G01*
X113203033Y-98071967D01*
X113219291Y-98096299D01*
X113225000Y-98125000D01*
X113225000Y-99525000D01*
X113219291Y-99553701D01*
X113203033Y-99578033D01*
X113178701Y-99594291D01*
X113150000Y-99600000D01*
X113000000Y-99600000D01*
X112971299Y-99594291D01*
X112946967Y-99578033D01*
X112930709Y-99553701D01*
X112925000Y-99525000D01*
X112925000Y-98125000D01*
X112930709Y-98096299D01*
X112946967Y-98071967D01*
X112971299Y-98055709D01*
X113000000Y-98050000D01*
X113150000Y-98050000D01*
X113178701Y-98055709D01*
G37*
G36*
X113678701Y-98055709D02*
G01*
X113703033Y-98071967D01*
X113719291Y-98096299D01*
X113725000Y-98125000D01*
X113725000Y-99525000D01*
X113719291Y-99553701D01*
X113703033Y-99578033D01*
X113678701Y-99594291D01*
X113650000Y-99600000D01*
X113500000Y-99600000D01*
X113471299Y-99594291D01*
X113446967Y-99578033D01*
X113430709Y-99553701D01*
X113425000Y-99525000D01*
X113425000Y-98125000D01*
X113430709Y-98096299D01*
X113446967Y-98071967D01*
X113471299Y-98055709D01*
X113500000Y-98050000D01*
X113650000Y-98050000D01*
X113678701Y-98055709D01*
G37*
G36*
X114178701Y-98055709D02*
G01*
X114203033Y-98071967D01*
X114219291Y-98096299D01*
X114225000Y-98125000D01*
X114225000Y-99525000D01*
X114219291Y-99553701D01*
X114203033Y-99578033D01*
X114178701Y-99594291D01*
X114150000Y-99600000D01*
X114000000Y-99600000D01*
X113971299Y-99594291D01*
X113946967Y-99578033D01*
X113930709Y-99553701D01*
X113925000Y-99525000D01*
X113925000Y-98125000D01*
X113930709Y-98096299D01*
X113946967Y-98071967D01*
X113971299Y-98055709D01*
X114000000Y-98050000D01*
X114150000Y-98050000D01*
X114178701Y-98055709D01*
G37*
G36*
X114678701Y-98055709D02*
G01*
X114703033Y-98071967D01*
X114719291Y-98096299D01*
X114725000Y-98125000D01*
X114725000Y-99525000D01*
X114719291Y-99553701D01*
X114703033Y-99578033D01*
X114678701Y-99594291D01*
X114650000Y-99600000D01*
X114500000Y-99600000D01*
X114471299Y-99594291D01*
X114446967Y-99578033D01*
X114430709Y-99553701D01*
X114425000Y-99525000D01*
X114425000Y-98125000D01*
X114430709Y-98096299D01*
X114446967Y-98071967D01*
X114471299Y-98055709D01*
X114500000Y-98050000D01*
X114650000Y-98050000D01*
X114678701Y-98055709D01*
G37*
G36*
X115178701Y-98055709D02*
G01*
X115203033Y-98071967D01*
X115219291Y-98096299D01*
X115225000Y-98125000D01*
X115225000Y-99525000D01*
X115219291Y-99553701D01*
X115203033Y-99578033D01*
X115178701Y-99594291D01*
X115150000Y-99600000D01*
X115000000Y-99600000D01*
X114971299Y-99594291D01*
X114946967Y-99578033D01*
X114930709Y-99553701D01*
X114925000Y-99525000D01*
X114925000Y-98125000D01*
X114930709Y-98096299D01*
X114946967Y-98071967D01*
X114971299Y-98055709D01*
X115000000Y-98050000D01*
X115150000Y-98050000D01*
X115178701Y-98055709D01*
G37*
G36*
X131893576Y-98950657D02*
G01*
X131938995Y-98981005D01*
X131969343Y-99026424D01*
X131980000Y-99080000D01*
X131980000Y-99420000D01*
X131969343Y-99473576D01*
X131938995Y-99518995D01*
X131893576Y-99549343D01*
X131840000Y-99560000D01*
X131560000Y-99560000D01*
X131506424Y-99549343D01*
X131461005Y-99518995D01*
X131430657Y-99473576D01*
X131420000Y-99420000D01*
X131420000Y-99080000D01*
X131430657Y-99026424D01*
X131461005Y-98981005D01*
X131506424Y-98950657D01*
X131560000Y-98940000D01*
X131840000Y-98940000D01*
X131893576Y-98950657D01*
G37*
G36*
X132853576Y-98950657D02*
G01*
X132898995Y-98981005D01*
X132929343Y-99026424D01*
X132940000Y-99080000D01*
X132940000Y-99420000D01*
X132929343Y-99473576D01*
X132898995Y-99518995D01*
X132853576Y-99549343D01*
X132800000Y-99560000D01*
X132520000Y-99560000D01*
X132466424Y-99549343D01*
X132421005Y-99518995D01*
X132390657Y-99473576D01*
X132380000Y-99420000D01*
X132380000Y-99080000D01*
X132390657Y-99026424D01*
X132421005Y-98981005D01*
X132466424Y-98950657D01*
X132520000Y-98940000D01*
X132800000Y-98940000D01*
X132853576Y-98950657D01*
G37*
G36*
X118023576Y-98910657D02*
G01*
X118068995Y-98941005D01*
X118099343Y-98986424D01*
X118110000Y-99040000D01*
X118110000Y-99320000D01*
X118099343Y-99373576D01*
X118068995Y-99418995D01*
X118023576Y-99449343D01*
X117970000Y-99460000D01*
X117630000Y-99460000D01*
X117576424Y-99449343D01*
X117531005Y-99418995D01*
X117500657Y-99373576D01*
X117490000Y-99320000D01*
X117490000Y-99040000D01*
X117500657Y-98986424D01*
X117531005Y-98941005D01*
X117576424Y-98910657D01*
X117630000Y-98900000D01*
X117970000Y-98900000D01*
X118023576Y-98910657D01*
G37*
G36*
X126157403Y-97386418D02*
G01*
X126206066Y-97418934D01*
X126238582Y-97467597D01*
X126250000Y-97525000D01*
X126250000Y-98550000D01*
X126238582Y-98607403D01*
X126206066Y-98656066D01*
X126157403Y-98688582D01*
X126100000Y-98700000D01*
X125800000Y-98700000D01*
X125742597Y-98688582D01*
X125693934Y-98656066D01*
X125661418Y-98607403D01*
X125650000Y-98550000D01*
X125650000Y-97525000D01*
X125661418Y-97467597D01*
X125693934Y-97418934D01*
X125742597Y-97386418D01*
X125800000Y-97375000D01*
X126100000Y-97375000D01*
X126157403Y-97386418D01*
G37*
G36*
X127107403Y-97386418D02*
G01*
X127156066Y-97418934D01*
X127188582Y-97467597D01*
X127200000Y-97525000D01*
X127200000Y-98550000D01*
X127188582Y-98607403D01*
X127156066Y-98656066D01*
X127107403Y-98688582D01*
X127050000Y-98700000D01*
X126750000Y-98700000D01*
X126692597Y-98688582D01*
X126643934Y-98656066D01*
X126611418Y-98607403D01*
X126600000Y-98550000D01*
X126600000Y-97525000D01*
X126611418Y-97467597D01*
X126643934Y-97418934D01*
X126692597Y-97386418D01*
X126750000Y-97375000D01*
X127050000Y-97375000D01*
X127107403Y-97386418D01*
G37*
G36*
X128057403Y-97386418D02*
G01*
X128106066Y-97418934D01*
X128138582Y-97467597D01*
X128150000Y-97525000D01*
X128150000Y-98550000D01*
X128138582Y-98607403D01*
X128106066Y-98656066D01*
X128057403Y-98688582D01*
X128000000Y-98700000D01*
X127700000Y-98700000D01*
X127642597Y-98688582D01*
X127593934Y-98656066D01*
X127561418Y-98607403D01*
X127550000Y-98550000D01*
X127550000Y-97525000D01*
X127561418Y-97467597D01*
X127593934Y-97418934D01*
X127642597Y-97386418D01*
X127700000Y-97375000D01*
X128000000Y-97375000D01*
X128057403Y-97386418D01*
G37*
G36*
X118023576Y-97950657D02*
G01*
X118068995Y-97981005D01*
X118099343Y-98026424D01*
X118110000Y-98080000D01*
X118110000Y-98360000D01*
X118099343Y-98413576D01*
X118068995Y-98458995D01*
X118023576Y-98489343D01*
X117970000Y-98500000D01*
X117630000Y-98500000D01*
X117576424Y-98489343D01*
X117531005Y-98458995D01*
X117500657Y-98413576D01*
X117490000Y-98360000D01*
X117490000Y-98080000D01*
X117500657Y-98026424D01*
X117531005Y-97981005D01*
X117576424Y-97950657D01*
X117630000Y-97940000D01*
X117970000Y-97940000D01*
X118023576Y-97950657D01*
G37*
G36*
X124451537Y-97390224D02*
G01*
X124516421Y-97433579D01*
X124559776Y-97498463D01*
X124575000Y-97575000D01*
X124575000Y-97975000D01*
X124559776Y-98051537D01*
X124516421Y-98116421D01*
X124451537Y-98159776D01*
X124375000Y-98175000D01*
X123825000Y-98175000D01*
X123748463Y-98159776D01*
X123683579Y-98116421D01*
X123640224Y-98051537D01*
X123625000Y-97975000D01*
X123625000Y-97575000D01*
X123640224Y-97498463D01*
X123683579Y-97433579D01*
X123748463Y-97390224D01*
X123825000Y-97375000D01*
X124375000Y-97375000D01*
X124451537Y-97390224D01*
G37*
G36*
X141933576Y-97350657D02*
G01*
X141978995Y-97381005D01*
X142009343Y-97426424D01*
X142020000Y-97480000D01*
X142020000Y-97820000D01*
X142009343Y-97873576D01*
X141978995Y-97918995D01*
X141933576Y-97949343D01*
X141880000Y-97960000D01*
X141600000Y-97960000D01*
X141546424Y-97949343D01*
X141501005Y-97918995D01*
X141470657Y-97873576D01*
X141460000Y-97820000D01*
X141460000Y-97480000D01*
X141470657Y-97426424D01*
X141501005Y-97381005D01*
X141546424Y-97350657D01*
X141600000Y-97340000D01*
X141880000Y-97340000D01*
X141933576Y-97350657D01*
G37*
G36*
X142893576Y-97350657D02*
G01*
X142938995Y-97381005D01*
X142969343Y-97426424D01*
X142980000Y-97480000D01*
X142980000Y-97820000D01*
X142969343Y-97873576D01*
X142938995Y-97918995D01*
X142893576Y-97949343D01*
X142840000Y-97960000D01*
X142560000Y-97960000D01*
X142506424Y-97949343D01*
X142461005Y-97918995D01*
X142430657Y-97873576D01*
X142420000Y-97820000D01*
X142420000Y-97480000D01*
X142430657Y-97426424D01*
X142461005Y-97381005D01*
X142506424Y-97350657D01*
X142560000Y-97340000D01*
X142840000Y-97340000D01*
X142893576Y-97350657D01*
G37*
G36*
X107463576Y-96900657D02*
G01*
X107508995Y-96931005D01*
X107539343Y-96976424D01*
X107550000Y-97030000D01*
X107550000Y-97370000D01*
X107539343Y-97423576D01*
X107508995Y-97468995D01*
X107463576Y-97499343D01*
X107410000Y-97510000D01*
X107130000Y-97510000D01*
X107076424Y-97499343D01*
X107031005Y-97468995D01*
X107000657Y-97423576D01*
X106990000Y-97370000D01*
X106990000Y-97030000D01*
X107000657Y-96976424D01*
X107031005Y-96931005D01*
X107076424Y-96900657D01*
X107130000Y-96890000D01*
X107410000Y-96890000D01*
X107463576Y-96900657D01*
G37*
G36*
X108423576Y-96900657D02*
G01*
X108468995Y-96931005D01*
X108499343Y-96976424D01*
X108510000Y-97030000D01*
X108510000Y-97370000D01*
X108499343Y-97423576D01*
X108468995Y-97468995D01*
X108423576Y-97499343D01*
X108370000Y-97510000D01*
X108090000Y-97510000D01*
X108036424Y-97499343D01*
X107991005Y-97468995D01*
X107960657Y-97423576D01*
X107950000Y-97370000D01*
X107950000Y-97030000D01*
X107960657Y-96976424D01*
X107991005Y-96931005D01*
X108036424Y-96900657D01*
X108090000Y-96890000D01*
X108370000Y-96890000D01*
X108423576Y-96900657D01*
G37*
G36*
X110401537Y-96440224D02*
G01*
X110466421Y-96483579D01*
X110509776Y-96548463D01*
X110525000Y-96625000D01*
X110525000Y-97025000D01*
X110509776Y-97101537D01*
X110466421Y-97166421D01*
X110401537Y-97209776D01*
X110325000Y-97225000D01*
X109775000Y-97225000D01*
X109698463Y-97209776D01*
X109633579Y-97166421D01*
X109590224Y-97101537D01*
X109575000Y-97025000D01*
X109575000Y-96625000D01*
X109590224Y-96548463D01*
X109633579Y-96483579D01*
X109698463Y-96440224D01*
X109775000Y-96425000D01*
X110325000Y-96425000D01*
X110401537Y-96440224D01*
G37*
G36*
X126157403Y-95111418D02*
G01*
X126206066Y-95143934D01*
X126238582Y-95192597D01*
X126250000Y-95250000D01*
X126250000Y-96275000D01*
X126238582Y-96332403D01*
X126206066Y-96381066D01*
X126157403Y-96413582D01*
X126100000Y-96425000D01*
X125800000Y-96425000D01*
X125742597Y-96413582D01*
X125693934Y-96381066D01*
X125661418Y-96332403D01*
X125650000Y-96275000D01*
X125650000Y-95250000D01*
X125661418Y-95192597D01*
X125693934Y-95143934D01*
X125742597Y-95111418D01*
X125800000Y-95100000D01*
X126100000Y-95100000D01*
X126157403Y-95111418D01*
G37*
G36*
X127107403Y-95111418D02*
G01*
X127156066Y-95143934D01*
X127188582Y-95192597D01*
X127200000Y-95250000D01*
X127200000Y-96275000D01*
X127188582Y-96332403D01*
X127156066Y-96381066D01*
X127107403Y-96413582D01*
X127050000Y-96425000D01*
X126750000Y-96425000D01*
X126692597Y-96413582D01*
X126643934Y-96381066D01*
X126611418Y-96332403D01*
X126600000Y-96275000D01*
X126600000Y-95250000D01*
X126611418Y-95192597D01*
X126643934Y-95143934D01*
X126692597Y-95111418D01*
X126750000Y-95100000D01*
X127050000Y-95100000D01*
X127107403Y-95111418D01*
G37*
G36*
X128057403Y-95111418D02*
G01*
X128106066Y-95143934D01*
X128138582Y-95192597D01*
X128150000Y-95250000D01*
X128150000Y-96275000D01*
X128138582Y-96332403D01*
X128106066Y-96381066D01*
X128057403Y-96413582D01*
X128000000Y-96425000D01*
X127700000Y-96425000D01*
X127642597Y-96413582D01*
X127593934Y-96381066D01*
X127561418Y-96332403D01*
X127550000Y-96275000D01*
X127550000Y-95250000D01*
X127561418Y-95192597D01*
X127593934Y-95143934D01*
X127642597Y-95111418D01*
X127700000Y-95100000D01*
X128000000Y-95100000D01*
X128057403Y-95111418D01*
G37*
G36*
X100226537Y-94915224D02*
G01*
X100291421Y-94958579D01*
X100334776Y-95023463D01*
X100350000Y-95100000D01*
X100350000Y-95650000D01*
X100334776Y-95726537D01*
X100291421Y-95791421D01*
X100226537Y-95834776D01*
X100150000Y-95850000D01*
X99750000Y-95850000D01*
X99673463Y-95834776D01*
X99608579Y-95791421D01*
X99565224Y-95726537D01*
X99550000Y-95650000D01*
X99550000Y-95100000D01*
X99565224Y-95023463D01*
X99608579Y-94958579D01*
X99673463Y-94915224D01*
X99750000Y-94900000D01*
X100150000Y-94900000D01*
X100226537Y-94915224D01*
G37*
G36*
X101876537Y-94915224D02*
G01*
X101941421Y-94958579D01*
X101984776Y-95023463D01*
X102000000Y-95100000D01*
X102000000Y-95650000D01*
X101984776Y-95726537D01*
X101941421Y-95791421D01*
X101876537Y-95834776D01*
X101800000Y-95850000D01*
X101400000Y-95850000D01*
X101323463Y-95834776D01*
X101258579Y-95791421D01*
X101215224Y-95726537D01*
X101200000Y-95650000D01*
X101200000Y-95100000D01*
X101215224Y-95023463D01*
X101258579Y-94958579D01*
X101323463Y-94915224D01*
X101400000Y-94900000D01*
X101800000Y-94900000D01*
X101876537Y-94915224D01*
G37*
G36*
X103689962Y-94866651D02*
G01*
X103760930Y-94914070D01*
X103808349Y-94985038D01*
X103825000Y-95068750D01*
X103825000Y-95581250D01*
X103808349Y-95664962D01*
X103760930Y-95735930D01*
X103689962Y-95783349D01*
X103606250Y-95800000D01*
X103168750Y-95800000D01*
X103085038Y-95783349D01*
X103014070Y-95735930D01*
X102966651Y-95664962D01*
X102950000Y-95581250D01*
X102950000Y-95068750D01*
X102966651Y-94985038D01*
X103014070Y-94914070D01*
X103085038Y-94866651D01*
X103168750Y-94850000D01*
X103606250Y-94850000D01*
X103689962Y-94866651D01*
G37*
G36*
X105264962Y-94866651D02*
G01*
X105335930Y-94914070D01*
X105383349Y-94985038D01*
X105400000Y-95068750D01*
X105400000Y-95581250D01*
X105383349Y-95664962D01*
X105335930Y-95735930D01*
X105264962Y-95783349D01*
X105181250Y-95800000D01*
X104743750Y-95800000D01*
X104660038Y-95783349D01*
X104589070Y-95735930D01*
X104541651Y-95664962D01*
X104525000Y-95581250D01*
X104525000Y-95068750D01*
X104541651Y-94985038D01*
X104589070Y-94914070D01*
X104660038Y-94866651D01*
X104743750Y-94850000D01*
X105181250Y-94850000D01*
X105264962Y-94866651D01*
G37*
G36*
X110401537Y-94790224D02*
G01*
X110466421Y-94833579D01*
X110509776Y-94898463D01*
X110525000Y-94975000D01*
X110525000Y-95375000D01*
X110509776Y-95451537D01*
X110466421Y-95516421D01*
X110401537Y-95559776D01*
X110325000Y-95575000D01*
X109775000Y-95575000D01*
X109698463Y-95559776D01*
X109633579Y-95516421D01*
X109590224Y-95451537D01*
X109575000Y-95375000D01*
X109575000Y-94975000D01*
X109590224Y-94898463D01*
X109633579Y-94833579D01*
X109698463Y-94790224D01*
X109775000Y-94775000D01*
X110325000Y-94775000D01*
X110401537Y-94790224D01*
G37*
G36*
X119085000Y-95190000D02*
G01*
X118085000Y-95190000D01*
X118085000Y-94190000D01*
X119085000Y-94190000D01*
X119085000Y-95190000D01*
G37*
G36*
X117506342Y-94228060D02*
G01*
X117619381Y-94293323D01*
X117711677Y-94385619D01*
X117776940Y-94498658D01*
X117810722Y-94624737D01*
X117810722Y-94755263D01*
X117776940Y-94881342D01*
X117711677Y-94994381D01*
X117619381Y-95086677D01*
X117506342Y-95151940D01*
X117380263Y-95185722D01*
X117249737Y-95185722D01*
X117123658Y-95151940D01*
X117010619Y-95086677D01*
X116918323Y-94994381D01*
X116853060Y-94881342D01*
X116819278Y-94755263D01*
X116819278Y-94624737D01*
X116853060Y-94498658D01*
X116918323Y-94385619D01*
X117010619Y-94293323D01*
X117123658Y-94228060D01*
X117249737Y-94194278D01*
X117380263Y-94194278D01*
X117506342Y-94228060D01*
G37*
G36*
X117506342Y-92958060D02*
G01*
X117619381Y-93023323D01*
X117711677Y-93115619D01*
X117776940Y-93228658D01*
X117810722Y-93354737D01*
X117810722Y-93485263D01*
X117776940Y-93611342D01*
X117711677Y-93724381D01*
X117619381Y-93816677D01*
X117506342Y-93881940D01*
X117380263Y-93915722D01*
X117249737Y-93915722D01*
X117123658Y-93881940D01*
X117010619Y-93816677D01*
X116918323Y-93724381D01*
X116853060Y-93611342D01*
X116819278Y-93485263D01*
X116819278Y-93354737D01*
X116853060Y-93228658D01*
X116918323Y-93115619D01*
X117010619Y-93023323D01*
X117123658Y-92958060D01*
X117249737Y-92924278D01*
X117380263Y-92924278D01*
X117506342Y-92958060D01*
G37*
G36*
X118776342Y-92958060D02*
G01*
X118889381Y-93023323D01*
X118981677Y-93115619D01*
X119046940Y-93228658D01*
X119080722Y-93354737D01*
X119080722Y-93485263D01*
X119046940Y-93611342D01*
X118981677Y-93724381D01*
X118889381Y-93816677D01*
X118776342Y-93881940D01*
X118650263Y-93915722D01*
X118519737Y-93915722D01*
X118393658Y-93881940D01*
X118280619Y-93816677D01*
X118188323Y-93724381D01*
X118123060Y-93611342D01*
X118089278Y-93485263D01*
X118089278Y-93354737D01*
X118123060Y-93228658D01*
X118188323Y-93115619D01*
X118280619Y-93023323D01*
X118393658Y-92958060D01*
X118519737Y-92924278D01*
X118650263Y-92924278D01*
X118776342Y-92958060D01*
G37*
G36*
X124310456Y-91956218D02*
G01*
X124441763Y-92010607D01*
X124559935Y-92089567D01*
X124660433Y-92190065D01*
X124739393Y-92308237D01*
X124793782Y-92439544D01*
X124821509Y-92578938D01*
X124821509Y-92721062D01*
X124793782Y-92860456D01*
X124739393Y-92991763D01*
X124660433Y-93109935D01*
X124559935Y-93210433D01*
X124441763Y-93289393D01*
X124310456Y-93343782D01*
X124171062Y-93371509D01*
X124028938Y-93371509D01*
X123889544Y-93343782D01*
X123758237Y-93289393D01*
X123640065Y-93210433D01*
X123539567Y-93109935D01*
X123460607Y-92991763D01*
X123406218Y-92860456D01*
X123378491Y-92721062D01*
X123378491Y-92578938D01*
X123406218Y-92439544D01*
X123460607Y-92308237D01*
X123539567Y-92190065D01*
X123640065Y-92089567D01*
X123758237Y-92010607D01*
X123889544Y-91956218D01*
X124028938Y-91928491D01*
X124171062Y-91928491D01*
X124310456Y-91956218D01*
G37*
G36*
X129310456Y-91956218D02*
G01*
X129441763Y-92010607D01*
X129559935Y-92089567D01*
X129660433Y-92190065D01*
X129739393Y-92308237D01*
X129793782Y-92439544D01*
X129821509Y-92578938D01*
X129821509Y-92721062D01*
X129793782Y-92860456D01*
X129739393Y-92991763D01*
X129660433Y-93109935D01*
X129559935Y-93210433D01*
X129441763Y-93289393D01*
X129310456Y-93343782D01*
X129171062Y-93371509D01*
X129028938Y-93371509D01*
X128889544Y-93343782D01*
X128758237Y-93289393D01*
X128640065Y-93210433D01*
X128539567Y-93109935D01*
X128460607Y-92991763D01*
X128406218Y-92860456D01*
X128378491Y-92721062D01*
X128378491Y-92578938D01*
X128406218Y-92439544D01*
X128460607Y-92308237D01*
X128539567Y-92190065D01*
X128640065Y-92089567D01*
X128758237Y-92010607D01*
X128889544Y-91956218D01*
X129028938Y-91928491D01*
X129171062Y-91928491D01*
X129310456Y-91956218D01*
G37*
G36*
X125500000Y-93325000D02*
G01*
X125100000Y-93325000D01*
X125100000Y-91975000D01*
X125500000Y-91975000D01*
X125500000Y-93325000D01*
G37*
G36*
X126150000Y-93325000D02*
G01*
X125750000Y-93325000D01*
X125750000Y-91975000D01*
X126150000Y-91975000D01*
X126150000Y-93325000D01*
G37*
G36*
X126800000Y-93325000D02*
G01*
X126400000Y-93325000D01*
X126400000Y-91975000D01*
X126800000Y-91975000D01*
X126800000Y-93325000D01*
G37*
G36*
X127450000Y-93325000D02*
G01*
X127050000Y-93325000D01*
X127050000Y-91975000D01*
X127450000Y-91975000D01*
X127450000Y-93325000D01*
G37*
G36*
X128100000Y-93325000D02*
G01*
X127700000Y-93325000D01*
X127700000Y-91975000D01*
X128100000Y-91975000D01*
X128100000Y-93325000D01*
G37*
G36*
X112726537Y-92240224D02*
G01*
X112791421Y-92283579D01*
X112834776Y-92348463D01*
X112850000Y-92425000D01*
X112850000Y-92975000D01*
X112834776Y-93051537D01*
X112791421Y-93116421D01*
X112726537Y-93159776D01*
X112650000Y-93175000D01*
X112250000Y-93175000D01*
X112173463Y-93159776D01*
X112108579Y-93116421D01*
X112065224Y-93051537D01*
X112050000Y-92975000D01*
X112050000Y-92425000D01*
X112065224Y-92348463D01*
X112108579Y-92283579D01*
X112173463Y-92240224D01*
X112250000Y-92225000D01*
X112650000Y-92225000D01*
X112726537Y-92240224D01*
G37*
G36*
X114376537Y-92240224D02*
G01*
X114441421Y-92283579D01*
X114484776Y-92348463D01*
X114500000Y-92425000D01*
X114500000Y-92975000D01*
X114484776Y-93051537D01*
X114441421Y-93116421D01*
X114376537Y-93159776D01*
X114300000Y-93175000D01*
X113900000Y-93175000D01*
X113823463Y-93159776D01*
X113758579Y-93116421D01*
X113715224Y-93051537D01*
X113700000Y-92975000D01*
X113700000Y-92425000D01*
X113715224Y-92348463D01*
X113758579Y-92283579D01*
X113823463Y-92240224D01*
X113900000Y-92225000D01*
X114300000Y-92225000D01*
X114376537Y-92240224D01*
G37*
G36*
X117506342Y-91688060D02*
G01*
X117619381Y-91753323D01*
X117711677Y-91845619D01*
X117776940Y-91958658D01*
X117810722Y-92084737D01*
X117810722Y-92215263D01*
X117776940Y-92341342D01*
X117711677Y-92454381D01*
X117619381Y-92546677D01*
X117506342Y-92611940D01*
X117380263Y-92645722D01*
X117249737Y-92645722D01*
X117123658Y-92611940D01*
X117010619Y-92546677D01*
X116918323Y-92454381D01*
X116853060Y-92341342D01*
X116819278Y-92215263D01*
X116819278Y-92084737D01*
X116853060Y-91958658D01*
X116918323Y-91845619D01*
X117010619Y-91753323D01*
X117123658Y-91688060D01*
X117249737Y-91654278D01*
X117380263Y-91654278D01*
X117506342Y-91688060D01*
G37*
G36*
X118776342Y-91688060D02*
G01*
X118889381Y-91753323D01*
X118981677Y-91845619D01*
X119046940Y-91958658D01*
X119080722Y-92084737D01*
X119080722Y-92215263D01*
X119046940Y-92341342D01*
X118981677Y-92454381D01*
X118889381Y-92546677D01*
X118776342Y-92611940D01*
X118650263Y-92645722D01*
X118519737Y-92645722D01*
X118393658Y-92611940D01*
X118280619Y-92546677D01*
X118188323Y-92454381D01*
X118123060Y-92341342D01*
X118089278Y-92215263D01*
X118089278Y-92084737D01*
X118123060Y-91958658D01*
X118188323Y-91845619D01*
X118280619Y-91753323D01*
X118393658Y-91688060D01*
X118519737Y-91654278D01*
X118650263Y-91654278D01*
X118776342Y-91688060D01*
G37*
G36*
X105907403Y-90686418D02*
G01*
X105956066Y-90718934D01*
X105988582Y-90767597D01*
X106000000Y-90825000D01*
X106000000Y-92075000D01*
X105988582Y-92132403D01*
X105956066Y-92181066D01*
X105907403Y-92213582D01*
X105850000Y-92225000D01*
X105550000Y-92225000D01*
X105492597Y-92213582D01*
X105443934Y-92181066D01*
X105411418Y-92132403D01*
X105400000Y-92075000D01*
X105400000Y-90825000D01*
X105411418Y-90767597D01*
X105443934Y-90718934D01*
X105492597Y-90686418D01*
X105550000Y-90675000D01*
X105850000Y-90675000D01*
X105907403Y-90686418D01*
G37*
G36*
X106907403Y-90686418D02*
G01*
X106956066Y-90718934D01*
X106988582Y-90767597D01*
X107000000Y-90825000D01*
X107000000Y-92075000D01*
X106988582Y-92132403D01*
X106956066Y-92181066D01*
X106907403Y-92213582D01*
X106850000Y-92225000D01*
X106550000Y-92225000D01*
X106492597Y-92213582D01*
X106443934Y-92181066D01*
X106411418Y-92132403D01*
X106400000Y-92075000D01*
X106400000Y-90825000D01*
X106411418Y-90767597D01*
X106443934Y-90718934D01*
X106492597Y-90686418D01*
X106550000Y-90675000D01*
X106850000Y-90675000D01*
X106907403Y-90686418D01*
G37*
G36*
X107907403Y-90686418D02*
G01*
X107956066Y-90718934D01*
X107988582Y-90767597D01*
X108000000Y-90825000D01*
X108000000Y-92075000D01*
X107988582Y-92132403D01*
X107956066Y-92181066D01*
X107907403Y-92213582D01*
X107850000Y-92225000D01*
X107550000Y-92225000D01*
X107492597Y-92213582D01*
X107443934Y-92181066D01*
X107411418Y-92132403D01*
X107400000Y-92075000D01*
X107400000Y-90825000D01*
X107411418Y-90767597D01*
X107443934Y-90718934D01*
X107492597Y-90686418D01*
X107550000Y-90675000D01*
X107850000Y-90675000D01*
X107907403Y-90686418D01*
G37*
G36*
X108907403Y-90686418D02*
G01*
X108956066Y-90718934D01*
X108988582Y-90767597D01*
X109000000Y-90825000D01*
X109000000Y-92075000D01*
X108988582Y-92132403D01*
X108956066Y-92181066D01*
X108907403Y-92213582D01*
X108850000Y-92225000D01*
X108550000Y-92225000D01*
X108492597Y-92213582D01*
X108443934Y-92181066D01*
X108411418Y-92132403D01*
X108400000Y-92075000D01*
X108400000Y-90825000D01*
X108411418Y-90767597D01*
X108443934Y-90718934D01*
X108492597Y-90686418D01*
X108550000Y-90675000D01*
X108850000Y-90675000D01*
X108907403Y-90686418D01*
G37*
G36*
X109907403Y-90686418D02*
G01*
X109956066Y-90718934D01*
X109988582Y-90767597D01*
X110000000Y-90825000D01*
X110000000Y-92075000D01*
X109988582Y-92132403D01*
X109956066Y-92181066D01*
X109907403Y-92213582D01*
X109850000Y-92225000D01*
X109550000Y-92225000D01*
X109492597Y-92213582D01*
X109443934Y-92181066D01*
X109411418Y-92132403D01*
X109400000Y-92075000D01*
X109400000Y-90825000D01*
X109411418Y-90767597D01*
X109443934Y-90718934D01*
X109492597Y-90686418D01*
X109550000Y-90675000D01*
X109850000Y-90675000D01*
X109907403Y-90686418D01*
G37*
G36*
X110907403Y-90686418D02*
G01*
X110956066Y-90718934D01*
X110988582Y-90767597D01*
X111000000Y-90825000D01*
X111000000Y-92075000D01*
X110988582Y-92132403D01*
X110956066Y-92181066D01*
X110907403Y-92213582D01*
X110850000Y-92225000D01*
X110550000Y-92225000D01*
X110492597Y-92213582D01*
X110443934Y-92181066D01*
X110411418Y-92132403D01*
X110400000Y-92075000D01*
X110400000Y-90825000D01*
X110411418Y-90767597D01*
X110443934Y-90718934D01*
X110492597Y-90686418D01*
X110550000Y-90675000D01*
X110850000Y-90675000D01*
X110907403Y-90686418D01*
G37*
G36*
X138057403Y-90686418D02*
G01*
X138106066Y-90718934D01*
X138138582Y-90767597D01*
X138150000Y-90825000D01*
X138150000Y-92075000D01*
X138138582Y-92132403D01*
X138106066Y-92181066D01*
X138057403Y-92213582D01*
X138000000Y-92225000D01*
X137700000Y-92225000D01*
X137642597Y-92213582D01*
X137593934Y-92181066D01*
X137561418Y-92132403D01*
X137550000Y-92075000D01*
X137550000Y-90825000D01*
X137561418Y-90767597D01*
X137593934Y-90718934D01*
X137642597Y-90686418D01*
X137700000Y-90675000D01*
X138000000Y-90675000D01*
X138057403Y-90686418D01*
G37*
G36*
X139057403Y-90686418D02*
G01*
X139106066Y-90718934D01*
X139138582Y-90767597D01*
X139150000Y-90825000D01*
X139150000Y-92075000D01*
X139138582Y-92132403D01*
X139106066Y-92181066D01*
X139057403Y-92213582D01*
X139000000Y-92225000D01*
X138700000Y-92225000D01*
X138642597Y-92213582D01*
X138593934Y-92181066D01*
X138561418Y-92132403D01*
X138550000Y-92075000D01*
X138550000Y-90825000D01*
X138561418Y-90767597D01*
X138593934Y-90718934D01*
X138642597Y-90686418D01*
X138700000Y-90675000D01*
X139000000Y-90675000D01*
X139057403Y-90686418D01*
G37*
G36*
X140057403Y-90686418D02*
G01*
X140106066Y-90718934D01*
X140138582Y-90767597D01*
X140150000Y-90825000D01*
X140150000Y-92075000D01*
X140138582Y-92132403D01*
X140106066Y-92181066D01*
X140057403Y-92213582D01*
X140000000Y-92225000D01*
X139700000Y-92225000D01*
X139642597Y-92213582D01*
X139593934Y-92181066D01*
X139561418Y-92132403D01*
X139550000Y-92075000D01*
X139550000Y-90825000D01*
X139561418Y-90767597D01*
X139593934Y-90718934D01*
X139642597Y-90686418D01*
X139700000Y-90675000D01*
X140000000Y-90675000D01*
X140057403Y-90686418D01*
G37*
G36*
X141057403Y-90686418D02*
G01*
X141106066Y-90718934D01*
X141138582Y-90767597D01*
X141150000Y-90825000D01*
X141150000Y-92075000D01*
X141138582Y-92132403D01*
X141106066Y-92181066D01*
X141057403Y-92213582D01*
X141000000Y-92225000D01*
X140700000Y-92225000D01*
X140642597Y-92213582D01*
X140593934Y-92181066D01*
X140561418Y-92132403D01*
X140550000Y-92075000D01*
X140550000Y-90825000D01*
X140561418Y-90767597D01*
X140593934Y-90718934D01*
X140642597Y-90686418D01*
X140700000Y-90675000D01*
X141000000Y-90675000D01*
X141057403Y-90686418D01*
G37*
G36*
X142057403Y-90686418D02*
G01*
X142106066Y-90718934D01*
X142138582Y-90767597D01*
X142150000Y-90825000D01*
X142150000Y-92075000D01*
X142138582Y-92132403D01*
X142106066Y-92181066D01*
X142057403Y-92213582D01*
X142000000Y-92225000D01*
X141700000Y-92225000D01*
X141642597Y-92213582D01*
X141593934Y-92181066D01*
X141561418Y-92132403D01*
X141550000Y-92075000D01*
X141550000Y-90825000D01*
X141561418Y-90767597D01*
X141593934Y-90718934D01*
X141642597Y-90686418D01*
X141700000Y-90675000D01*
X142000000Y-90675000D01*
X142057403Y-90686418D01*
G37*
G36*
X143057403Y-90686418D02*
G01*
X143106066Y-90718934D01*
X143138582Y-90767597D01*
X143150000Y-90825000D01*
X143150000Y-92075000D01*
X143138582Y-92132403D01*
X143106066Y-92181066D01*
X143057403Y-92213582D01*
X143000000Y-92225000D01*
X142700000Y-92225000D01*
X142642597Y-92213582D01*
X142593934Y-92181066D01*
X142561418Y-92132403D01*
X142550000Y-92075000D01*
X142550000Y-90825000D01*
X142561418Y-90767597D01*
X142593934Y-90718934D01*
X142642597Y-90686418D01*
X142700000Y-90675000D01*
X143000000Y-90675000D01*
X143057403Y-90686418D01*
G37*
G36*
X99056790Y-89630393D02*
G01*
X99220952Y-89683733D01*
X99374748Y-89762096D01*
X99514393Y-89863553D01*
X99636447Y-89985607D01*
X99737904Y-90125252D01*
X99816267Y-90279048D01*
X99869607Y-90443210D01*
X99896609Y-90613695D01*
X99896609Y-90786305D01*
X99869607Y-90956790D01*
X99816267Y-91120952D01*
X99737904Y-91274748D01*
X99636447Y-91414393D01*
X99514393Y-91536447D01*
X99374748Y-91637904D01*
X99220952Y-91716267D01*
X99056790Y-91769607D01*
X98886305Y-91796609D01*
X98713695Y-91796609D01*
X98543210Y-91769607D01*
X98379048Y-91716267D01*
X98225252Y-91637904D01*
X98085607Y-91536447D01*
X97963553Y-91414393D01*
X97862096Y-91274748D01*
X97783733Y-91120952D01*
X97730393Y-90956790D01*
X97703391Y-90786305D01*
X97703391Y-90613695D01*
X97730393Y-90443210D01*
X97783733Y-90279048D01*
X97862096Y-90125252D01*
X97963553Y-89985607D01*
X98085607Y-89863553D01*
X98225252Y-89762096D01*
X98379048Y-89683733D01*
X98543210Y-89630393D01*
X98713695Y-89603391D01*
X98886305Y-89603391D01*
X99056790Y-89630393D01*
G37*
G36*
X117506342Y-90418060D02*
G01*
X117619381Y-90483323D01*
X117711677Y-90575619D01*
X117776940Y-90688658D01*
X117810722Y-90814737D01*
X117810722Y-90945263D01*
X117776940Y-91071342D01*
X117711677Y-91184381D01*
X117619381Y-91276677D01*
X117506342Y-91341940D01*
X117380263Y-91375722D01*
X117249737Y-91375722D01*
X117123658Y-91341940D01*
X117010619Y-91276677D01*
X116918323Y-91184381D01*
X116853060Y-91071342D01*
X116819278Y-90945263D01*
X116819278Y-90814737D01*
X116853060Y-90688658D01*
X116918323Y-90575619D01*
X117010619Y-90483323D01*
X117123658Y-90418060D01*
X117249737Y-90384278D01*
X117380263Y-90384278D01*
X117506342Y-90418060D01*
G37*
G36*
X118776342Y-90418060D02*
G01*
X118889381Y-90483323D01*
X118981677Y-90575619D01*
X119046940Y-90688658D01*
X119080722Y-90814737D01*
X119080722Y-90945263D01*
X119046940Y-91071342D01*
X118981677Y-91184381D01*
X118889381Y-91276677D01*
X118776342Y-91341940D01*
X118650263Y-91375722D01*
X118519737Y-91375722D01*
X118393658Y-91341940D01*
X118280619Y-91276677D01*
X118188323Y-91184381D01*
X118123060Y-91071342D01*
X118089278Y-90945263D01*
X118089278Y-90814737D01*
X118123060Y-90688658D01*
X118188323Y-90575619D01*
X118280619Y-90483323D01*
X118393658Y-90418060D01*
X118519737Y-90384278D01*
X118650263Y-90384278D01*
X118776342Y-90418060D01*
G37*
G36*
X124300000Y-90900000D02*
G01*
X123100000Y-90900000D01*
X123100000Y-90899019D01*
X123091609Y-90897351D01*
X123086720Y-90896870D01*
X123041212Y-90896870D01*
X123031142Y-90894867D01*
X123021684Y-90894867D01*
X122994432Y-90887564D01*
X122925900Y-90873933D01*
X122893555Y-90860535D01*
X122870390Y-90854328D01*
X122849618Y-90842335D01*
X122817277Y-90828939D01*
X122759186Y-90790124D01*
X122734743Y-90776012D01*
X122728052Y-90769321D01*
X122719518Y-90763619D01*
X122636380Y-90680481D01*
X122630677Y-90671946D01*
X122623988Y-90665257D01*
X122609877Y-90640816D01*
X122571060Y-90582722D01*
X122557662Y-90550377D01*
X122545672Y-90529610D01*
X122539465Y-90506448D01*
X122526066Y-90474099D01*
X122512433Y-90405562D01*
X122505133Y-90378316D01*
X122504208Y-90364210D01*
X122502889Y-90357577D01*
X122500241Y-90303686D01*
X122500000Y-90300000D01*
X122500000Y-89600000D01*
X122500241Y-89596316D01*
X122502889Y-89542422D01*
X122504208Y-89535787D01*
X122505133Y-89521684D01*
X122512432Y-89494440D01*
X122526066Y-89425900D01*
X122539466Y-89393548D01*
X122545672Y-89370390D01*
X122557660Y-89349624D01*
X122571060Y-89317277D01*
X122609881Y-89259175D01*
X122623988Y-89234743D01*
X122630675Y-89228055D01*
X122636380Y-89219518D01*
X122719518Y-89136380D01*
X122728055Y-89130675D01*
X122734743Y-89123988D01*
X122759175Y-89109881D01*
X122817277Y-89071060D01*
X122849624Y-89057660D01*
X122870390Y-89045672D01*
X122893548Y-89039466D01*
X122925900Y-89026066D01*
X122994437Y-89012433D01*
X123021684Y-89005133D01*
X123031142Y-89005133D01*
X123041212Y-89003130D01*
X123086722Y-89003130D01*
X123091609Y-89002649D01*
X123100000Y-89000979D01*
X123100000Y-89000000D01*
X124300000Y-89000000D01*
X124300000Y-90900000D01*
G37*
G36*
X126350000Y-90900000D02*
G01*
X124850000Y-90900000D01*
X124850000Y-89000000D01*
X126350000Y-89000000D01*
X126350000Y-90900000D01*
G37*
G36*
X128350000Y-90900000D02*
G01*
X126850000Y-90900000D01*
X126850000Y-89000000D01*
X128350000Y-89000000D01*
X128350000Y-90900000D01*
G37*
G36*
X130100000Y-89000979D02*
G01*
X130108391Y-89002649D01*
X130113280Y-89003130D01*
X130158788Y-89003130D01*
X130168858Y-89005133D01*
X130178316Y-89005133D01*
X130205563Y-89012433D01*
X130274099Y-89026066D01*
X130306448Y-89039465D01*
X130329610Y-89045672D01*
X130350377Y-89057662D01*
X130382722Y-89071060D01*
X130440816Y-89109877D01*
X130465257Y-89123988D01*
X130471946Y-89130677D01*
X130480481Y-89136380D01*
X130563619Y-89219518D01*
X130569321Y-89228052D01*
X130576012Y-89234743D01*
X130590124Y-89259186D01*
X130628939Y-89317277D01*
X130642335Y-89349618D01*
X130654328Y-89370390D01*
X130660535Y-89393555D01*
X130673933Y-89425900D01*
X130687563Y-89494426D01*
X130694867Y-89521684D01*
X130695791Y-89535795D01*
X130697110Y-89542422D01*
X130699758Y-89596311D01*
X130700000Y-89600000D01*
X130700000Y-90300000D01*
X130699758Y-90303691D01*
X130697110Y-90357577D01*
X130695791Y-90364203D01*
X130694867Y-90378316D01*
X130687562Y-90405576D01*
X130673933Y-90474099D01*
X130660535Y-90506441D01*
X130654328Y-90529610D01*
X130642334Y-90550383D01*
X130628939Y-90582722D01*
X130590128Y-90640805D01*
X130576012Y-90665257D01*
X130569319Y-90671949D01*
X130563619Y-90680481D01*
X130480481Y-90763619D01*
X130471949Y-90769319D01*
X130465257Y-90776012D01*
X130440805Y-90790128D01*
X130382722Y-90828939D01*
X130350383Y-90842334D01*
X130329610Y-90854328D01*
X130306441Y-90860535D01*
X130274099Y-90873933D01*
X130205569Y-90887564D01*
X130178316Y-90894867D01*
X130168858Y-90894867D01*
X130158788Y-90896870D01*
X130113278Y-90896870D01*
X130108391Y-90897351D01*
X130100000Y-90899019D01*
X130100000Y-90900000D01*
X128900000Y-90900000D01*
X128900000Y-89000000D01*
X130100000Y-89000000D01*
X130100000Y-89000979D01*
G37*
G36*
X117506342Y-89148060D02*
G01*
X117619381Y-89213323D01*
X117711677Y-89305619D01*
X117776940Y-89418658D01*
X117810722Y-89544737D01*
X117810722Y-89675263D01*
X117776940Y-89801342D01*
X117711677Y-89914381D01*
X117619381Y-90006677D01*
X117506342Y-90071940D01*
X117380263Y-90105722D01*
X117249737Y-90105722D01*
X117123658Y-90071940D01*
X117010619Y-90006677D01*
X116918323Y-89914381D01*
X116853060Y-89801342D01*
X116819278Y-89675263D01*
X116819278Y-89544737D01*
X116853060Y-89418658D01*
X116918323Y-89305619D01*
X117010619Y-89213323D01*
X117123658Y-89148060D01*
X117249737Y-89114278D01*
X117380263Y-89114278D01*
X117506342Y-89148060D01*
G37*
G36*
X118776342Y-89148060D02*
G01*
X118889381Y-89213323D01*
X118981677Y-89305619D01*
X119046940Y-89418658D01*
X119080722Y-89544737D01*
X119080722Y-89675263D01*
X119046940Y-89801342D01*
X118981677Y-89914381D01*
X118889381Y-90006677D01*
X118776342Y-90071940D01*
X118650263Y-90105722D01*
X118519737Y-90105722D01*
X118393658Y-90071940D01*
X118280619Y-90006677D01*
X118188323Y-89914381D01*
X118123060Y-89801342D01*
X118089278Y-89675263D01*
X118089278Y-89544737D01*
X118123060Y-89418658D01*
X118188323Y-89305619D01*
X118280619Y-89213323D01*
X118393658Y-89148060D01*
X118519737Y-89114278D01*
X118650263Y-89114278D01*
X118776342Y-89148060D01*
G37*
G36*
X104754047Y-88025805D02*
G01*
X104805408Y-88031764D01*
X104822954Y-88039511D01*
X104845671Y-88044030D01*
X104869991Y-88060280D01*
X104890793Y-88069465D01*
X104905000Y-88083672D01*
X104926777Y-88098223D01*
X104941327Y-88119999D01*
X104955534Y-88134206D01*
X104964718Y-88155006D01*
X104980970Y-88179329D01*
X104985489Y-88202048D01*
X104993235Y-88219591D01*
X104999192Y-88270940D01*
X105000000Y-88275000D01*
X105000000Y-89575000D01*
X104999192Y-89579059D01*
X104993235Y-89630408D01*
X104985489Y-89647950D01*
X104980970Y-89670671D01*
X104964716Y-89694995D01*
X104955534Y-89715793D01*
X104941329Y-89729997D01*
X104926777Y-89751777D01*
X104904997Y-89766329D01*
X104890793Y-89780534D01*
X104869995Y-89789716D01*
X104845671Y-89805970D01*
X104822950Y-89810489D01*
X104805408Y-89818235D01*
X104754061Y-89824192D01*
X104750000Y-89825000D01*
X104050000Y-89825000D01*
X104045941Y-89824192D01*
X103994591Y-89818235D01*
X103977048Y-89810489D01*
X103954329Y-89805970D01*
X103930006Y-89789718D01*
X103909206Y-89780534D01*
X103894999Y-89766327D01*
X103873223Y-89751777D01*
X103858672Y-89730000D01*
X103844465Y-89715793D01*
X103835280Y-89694991D01*
X103819030Y-89670671D01*
X103814511Y-89647954D01*
X103806764Y-89630408D01*
X103800805Y-89579049D01*
X103800000Y-89575000D01*
X103800000Y-88275000D01*
X103800804Y-88270953D01*
X103806764Y-88219591D01*
X103814511Y-88202043D01*
X103819030Y-88179329D01*
X103835278Y-88155010D01*
X103844465Y-88134206D01*
X103858674Y-88119996D01*
X103873223Y-88098223D01*
X103894996Y-88083674D01*
X103909206Y-88069465D01*
X103930010Y-88060278D01*
X103954329Y-88044030D01*
X103977043Y-88039511D01*
X103994591Y-88031764D01*
X104045952Y-88025805D01*
X104050000Y-88025000D01*
X104750000Y-88025000D01*
X104754047Y-88025805D01*
G37*
G36*
X112354047Y-88025805D02*
G01*
X112405408Y-88031764D01*
X112422954Y-88039511D01*
X112445671Y-88044030D01*
X112469991Y-88060280D01*
X112490793Y-88069465D01*
X112505000Y-88083672D01*
X112526777Y-88098223D01*
X112541327Y-88119999D01*
X112555534Y-88134206D01*
X112564718Y-88155006D01*
X112580970Y-88179329D01*
X112585489Y-88202048D01*
X112593235Y-88219591D01*
X112599192Y-88270940D01*
X112600000Y-88275000D01*
X112600000Y-89575000D01*
X112599192Y-89579059D01*
X112593235Y-89630408D01*
X112585489Y-89647950D01*
X112580970Y-89670671D01*
X112564716Y-89694995D01*
X112555534Y-89715793D01*
X112541329Y-89729997D01*
X112526777Y-89751777D01*
X112504997Y-89766329D01*
X112490793Y-89780534D01*
X112469995Y-89789716D01*
X112445671Y-89805970D01*
X112422950Y-89810489D01*
X112405408Y-89818235D01*
X112354061Y-89824192D01*
X112350000Y-89825000D01*
X111650000Y-89825000D01*
X111645941Y-89824192D01*
X111594591Y-89818235D01*
X111577048Y-89810489D01*
X111554329Y-89805970D01*
X111530006Y-89789718D01*
X111509206Y-89780534D01*
X111494999Y-89766327D01*
X111473223Y-89751777D01*
X111458672Y-89730000D01*
X111444465Y-89715793D01*
X111435280Y-89694991D01*
X111419030Y-89670671D01*
X111414511Y-89647954D01*
X111406764Y-89630408D01*
X111400805Y-89579049D01*
X111400000Y-89575000D01*
X111400000Y-88275000D01*
X111400804Y-88270953D01*
X111406764Y-88219591D01*
X111414511Y-88202043D01*
X111419030Y-88179329D01*
X111435278Y-88155010D01*
X111444465Y-88134206D01*
X111458674Y-88119996D01*
X111473223Y-88098223D01*
X111494996Y-88083674D01*
X111509206Y-88069465D01*
X111530010Y-88060278D01*
X111554329Y-88044030D01*
X111577043Y-88039511D01*
X111594591Y-88031764D01*
X111645952Y-88025805D01*
X111650000Y-88025000D01*
X112350000Y-88025000D01*
X112354047Y-88025805D01*
G37*
G36*
X136904047Y-88025805D02*
G01*
X136955408Y-88031764D01*
X136972954Y-88039511D01*
X136995671Y-88044030D01*
X137019991Y-88060280D01*
X137040793Y-88069465D01*
X137055000Y-88083672D01*
X137076777Y-88098223D01*
X137091327Y-88119999D01*
X137105534Y-88134206D01*
X137114718Y-88155006D01*
X137130970Y-88179329D01*
X137135489Y-88202048D01*
X137143235Y-88219591D01*
X137149192Y-88270940D01*
X137150000Y-88275000D01*
X137150000Y-89575000D01*
X137149192Y-89579059D01*
X137143235Y-89630408D01*
X137135489Y-89647950D01*
X137130970Y-89670671D01*
X137114716Y-89694995D01*
X137105534Y-89715793D01*
X137091329Y-89729997D01*
X137076777Y-89751777D01*
X137054997Y-89766329D01*
X137040793Y-89780534D01*
X137019995Y-89789716D01*
X136995671Y-89805970D01*
X136972950Y-89810489D01*
X136955408Y-89818235D01*
X136904061Y-89824192D01*
X136900000Y-89825000D01*
X136200000Y-89825000D01*
X136195941Y-89824192D01*
X136144591Y-89818235D01*
X136127048Y-89810489D01*
X136104329Y-89805970D01*
X136080006Y-89789718D01*
X136059206Y-89780534D01*
X136044999Y-89766327D01*
X136023223Y-89751777D01*
X136008672Y-89730000D01*
X135994465Y-89715793D01*
X135985280Y-89694991D01*
X135969030Y-89670671D01*
X135964511Y-89647954D01*
X135956764Y-89630408D01*
X135950805Y-89579049D01*
X135950000Y-89575000D01*
X135950000Y-88275000D01*
X135950804Y-88270953D01*
X135956764Y-88219591D01*
X135964511Y-88202043D01*
X135969030Y-88179329D01*
X135985278Y-88155010D01*
X135994465Y-88134206D01*
X136008674Y-88119996D01*
X136023223Y-88098223D01*
X136044996Y-88083674D01*
X136059206Y-88069465D01*
X136080010Y-88060278D01*
X136104329Y-88044030D01*
X136127043Y-88039511D01*
X136144591Y-88031764D01*
X136195952Y-88025805D01*
X136200000Y-88025000D01*
X136900000Y-88025000D01*
X136904047Y-88025805D01*
G37*
G36*
X144504047Y-88025805D02*
G01*
X144555408Y-88031764D01*
X144572954Y-88039511D01*
X144595671Y-88044030D01*
X144619991Y-88060280D01*
X144640793Y-88069465D01*
X144655000Y-88083672D01*
X144676777Y-88098223D01*
X144691327Y-88119999D01*
X144705534Y-88134206D01*
X144714718Y-88155006D01*
X144730970Y-88179329D01*
X144735489Y-88202048D01*
X144743235Y-88219591D01*
X144749192Y-88270940D01*
X144750000Y-88275000D01*
X144750000Y-89575000D01*
X144749192Y-89579059D01*
X144743235Y-89630408D01*
X144735489Y-89647950D01*
X144730970Y-89670671D01*
X144714716Y-89694995D01*
X144705534Y-89715793D01*
X144691329Y-89729997D01*
X144676777Y-89751777D01*
X144654997Y-89766329D01*
X144640793Y-89780534D01*
X144619995Y-89789716D01*
X144595671Y-89805970D01*
X144572950Y-89810489D01*
X144555408Y-89818235D01*
X144504061Y-89824192D01*
X144500000Y-89825000D01*
X143800000Y-89825000D01*
X143795941Y-89824192D01*
X143744591Y-89818235D01*
X143727048Y-89810489D01*
X143704329Y-89805970D01*
X143680006Y-89789718D01*
X143659206Y-89780534D01*
X143644999Y-89766327D01*
X143623223Y-89751777D01*
X143608672Y-89730000D01*
X143594465Y-89715793D01*
X143585280Y-89694991D01*
X143569030Y-89670671D01*
X143564511Y-89647954D01*
X143556764Y-89630408D01*
X143550805Y-89579049D01*
X143550000Y-89575000D01*
X143550000Y-88275000D01*
X143550804Y-88270953D01*
X143556764Y-88219591D01*
X143564511Y-88202043D01*
X143569030Y-88179329D01*
X143585278Y-88155010D01*
X143594465Y-88134206D01*
X143608674Y-88119996D01*
X143623223Y-88098223D01*
X143644996Y-88083674D01*
X143659206Y-88069465D01*
X143680010Y-88060278D01*
X143704329Y-88044030D01*
X143727043Y-88039511D01*
X143744591Y-88031764D01*
X143795952Y-88025805D01*
X143800000Y-88025000D01*
X144500000Y-88025000D01*
X144504047Y-88025805D01*
G37*
M02*
