%TF.GenerationSoftware,KiCad,Pcbnew,9.0.6*%
%TF.CreationDate,2026-03-28T21:07:54-04:00*%
%TF.ProjectId,InvictusDES_V2,496e7669-6374-4757-9344-45535f56322e,rev?*%
%TF.SameCoordinates,Original*%
%TF.FileFunction,Copper,L2,Inr*%
%TF.FilePolarity,Positive*%
%FSLAX46Y46*%
G04 Gerber Fmt 4.6, Leading zero omitted, Abs format (unit mm)*
G04 Created by KiCad (PCBNEW 9.0.6) date 2026-03-28 21:07:54*
%MOMM*%
%LPD*%
G01*
G04 APERTURE LIST*
G04 Aperture macros list*
%AMRoundRect*
0 Rectangle with rounded corners*
0 $1 Rounding radius*
0 $2 $3 $4 $5 $6 $7 $8 $9 X,Y pos of 4 corners*
0 Add a 4 corners polygon primitive as box body*
4,1,4,$2,$3,$4,$5,$6,$7,$8,$9,$2,$3,0*
0 Add four circle primitives for the rounded corners*
1,1,$1+$1,$2,$3*
1,1,$1+$1,$4,$5*
1,1,$1+$1,$6,$7*
1,1,$1+$1,$8,$9*
0 Add four rect primitives between the rounded corners*
20,1,$1+$1,$2,$3,$4,$5,0*
20,1,$1+$1,$4,$5,$6,$7,0*
20,1,$1+$1,$6,$7,$8,$9,0*
20,1,$1+$1,$8,$9,$2,$3,0*%
G04 Aperture macros list end*
%TA.AperFunction,ComponentPad*%
%ADD10RoundRect,0.250000X-1.050000X-1.050000X1.050000X-1.050000X1.050000X1.050000X-1.050000X1.050000X0*%
%TD*%
%TA.AperFunction,ComponentPad*%
%ADD11C,2.600000*%
%TD*%
%TA.AperFunction,ComponentPad*%
%ADD12R,1.000000X1.000000*%
%TD*%
%TA.AperFunction,ComponentPad*%
%ADD13C,1.000000*%
%TD*%
%TA.AperFunction,HeatsinkPad*%
%ADD14O,1.200000X1.900000*%
%TD*%
%TA.AperFunction,HeatsinkPad*%
%ADD15C,1.450000*%
%TD*%
%TA.AperFunction,ViaPad*%
%ADD16C,0.600000*%
%TD*%
%TA.AperFunction,Conductor*%
%ADD17C,0.254000*%
%TD*%
G04 APERTURE END LIST*
D10*
%TO.N,GND*%
%TO.C,J1*%
X129450000Y-121817500D03*
D11*
%TO.N,+VBAT*%
X134450000Y-121817500D03*
%TD*%
D12*
%TO.N,+3V3*%
%TO.C,J2*%
X118585000Y-94690000D03*
D13*
%TO.N,SWDIO*%
X117315000Y-94690000D03*
%TO.N,GND*%
X118585000Y-93420000D03*
%TO.N,SWCLK*%
X117315000Y-93420000D03*
%TO.N,GND*%
X118585000Y-92150000D03*
%TO.N,SWO*%
X117315000Y-92150000D03*
%TO.N,unconnected-(J2-Pin_7-Pad7)*%
X118585000Y-90880000D03*
%TO.N,unconnected-(J2-Pin_8-Pad8)*%
X117315000Y-90880000D03*
%TO.N,GND*%
X118585000Y-89610000D03*
%TO.N,NRST*%
X117315000Y-89610000D03*
%TD*%
D14*
%TO.N,GND*%
%TO.C,J10*%
X130100000Y-89950000D03*
D15*
X129100000Y-92650000D03*
X124100000Y-92650000D03*
D14*
X123100000Y-89950000D03*
%TD*%
D16*
%TO.N,SERVO_4*%
X140850000Y-93200000D03*
%TO.N,+3V3*%
X105700000Y-89775000D03*
%TO.N,USART3_RX*%
X107700000Y-89775000D03*
%TO.N,GND*%
X106700000Y-89775000D03*
%TO.N,USART3_TX*%
X108725000Y-89775000D03*
%TO.N,+3V3*%
X114100000Y-91475000D03*
%TO.N,BUZZER*%
X110800000Y-100450000D03*
%TO.N,GND*%
X104850000Y-115450000D03*
X135470000Y-115869999D03*
X134600000Y-117350000D03*
X131602498Y-111799995D03*
X143850000Y-97950000D03*
X103850000Y-104800000D03*
X101500000Y-99200000D03*
X121475000Y-125050000D03*
X117300000Y-113200000D03*
X108300000Y-118525000D03*
X117600000Y-111700000D03*
X117300000Y-118122500D03*
X133250000Y-110600000D03*
X111600000Y-125550000D03*
X138000000Y-110150000D03*
X110050000Y-94250000D03*
X128350000Y-110400000D03*
X108050000Y-100150000D03*
X97350000Y-100650000D03*
X101225000Y-104300000D03*
X125300000Y-94000000D03*
X129300000Y-113000000D03*
X96150000Y-107200000D03*
X126900000Y-94364500D03*
X132350000Y-110600000D03*
X142190000Y-103463125D03*
X129300000Y-113950000D03*
X118970000Y-119067500D03*
X105800000Y-111775000D03*
X132900000Y-115700000D03*
X118750000Y-98700000D03*
X96425000Y-102550000D03*
X99600000Y-124700000D03*
X107350000Y-106050000D03*
X107640638Y-125100000D03*
X114750000Y-120000000D03*
X106950000Y-119800000D03*
X105725000Y-110162500D03*
X137770000Y-109380000D03*
X119875000Y-117822500D03*
X108050000Y-108350000D03*
X98975000Y-95375000D03*
X132650000Y-98475000D03*
X137400000Y-105800000D03*
X136360000Y-93030000D03*
X128350000Y-111400000D03*
X139960000Y-115190000D03*
X134959415Y-104809415D03*
X107800000Y-122050000D03*
X103950000Y-99000000D03*
%TO.N,+3V3*%
X107250000Y-96400000D03*
X116950000Y-99150000D03*
X110547000Y-119503000D03*
X125450000Y-107050000D03*
X125450000Y-107950000D03*
X112650000Y-123350000D03*
X101550000Y-100800000D03*
X121850000Y-108850000D03*
X125450000Y-108850000D03*
X101600000Y-123400000D03*
X103200000Y-112800000D03*
X118850000Y-115300000D03*
X105700000Y-118560000D03*
X124100000Y-96770000D03*
X108730000Y-112600000D03*
X124550000Y-118000000D03*
X116675000Y-121125000D03*
X121850000Y-109750000D03*
X117270000Y-119897500D03*
X140300000Y-97650000D03*
X125450000Y-109750000D03*
X115850000Y-110920000D03*
X121850000Y-107950000D03*
X122475000Y-125075000D03*
X121850000Y-107050000D03*
%TO.N,5V_MUX*%
X134850000Y-107950000D03*
%TO.N,+VBAT*%
X133933333Y-119800000D03*
X138150000Y-114650000D03*
X137150000Y-114650000D03*
X135066667Y-119800000D03*
X131632501Y-118679998D03*
X132800000Y-119800000D03*
X136200000Y-119800000D03*
%TO.N,5V_REG*%
X134425000Y-111350000D03*
X135975000Y-110600000D03*
X135140001Y-109329998D03*
X135200000Y-111350000D03*
X135975000Y-111350000D03*
X134425000Y-110600000D03*
X139960000Y-108389998D03*
X135200000Y-110600000D03*
%TO.N,VUSB*%
X134150000Y-103450000D03*
%TO.N,USART3_RX*%
X112900000Y-96950000D03*
%TO.N,TIM2_CH1*%
X109700000Y-89775000D03*
X114275000Y-95675000D03*
%TO.N,USART3_TX*%
X113550000Y-96400000D03*
%TO.N,NRST*%
X107800000Y-103750000D03*
%TO.N,SERVO_2*%
X119284415Y-103634415D03*
X138830000Y-93200000D03*
%TO.N,SERVO_3*%
X139850000Y-93200000D03*
X120350000Y-103700000D03*
%TO.N,SERVO_6*%
X118750000Y-106100000D03*
X142850000Y-93200000D03*
%TO.N,SERVO_4*%
X120600000Y-104650000D03*
%TO.N,SERVO_5*%
X141870000Y-93200000D03*
X119850000Y-105450000D03*
%TO.N,I2C2_SDA*%
X116450000Y-110100000D03*
X119450000Y-125050000D03*
%TO.N,SERVO_1*%
X115550000Y-103200000D03*
X137850000Y-93200000D03*
%TO.N,SPI2_MOSI*%
X119350000Y-106730000D03*
%TO.N,SD_CS*%
X115200000Y-107150000D03*
%TO.N,SPI2_SCK*%
X119152000Y-108000000D03*
%TO.N,SPI2_MISO*%
X118450000Y-107400000D03*
%TO.N,SPI1_MOSI*%
X112900000Y-121850000D03*
X107800000Y-114450000D03*
X106650000Y-124705000D03*
X110700000Y-113900000D03*
%TO.N,SPI1_SCK*%
X106600000Y-123450000D03*
X109450000Y-114600000D03*
X111400000Y-115750000D03*
X111338638Y-120054577D03*
X111477354Y-118327354D03*
%TO.N,MAG_CS*%
X109875000Y-107600000D03*
X109850000Y-118700000D03*
%TO.N,SPI1_MISO*%
X112750000Y-119150000D03*
X109900000Y-115600000D03*
%TO.N,BARO_CS*%
X107450000Y-113300000D03*
X112505000Y-111800000D03*
%TO.N,FLASH_CS*%
X99329677Y-120879676D03*
X104312500Y-108137500D03*
%TO.N,Net-(U1-EN)*%
X138800000Y-111900000D03*
X132782501Y-114379998D03*
%TD*%
D17*
%TO.N,SERVO_4*%
X121250000Y-104000000D02*
X120600000Y-104650000D01*
X140850000Y-95800000D02*
X132650000Y-104000000D01*
X132650000Y-104000000D02*
X121250000Y-104000000D01*
X140850000Y-93350000D02*
X140850000Y-95800000D01*
%TO.N,SERVO_5*%
X141900000Y-96950000D02*
X133400000Y-105450000D01*
X133400000Y-105450000D02*
X119850000Y-105450000D01*
X141900000Y-93230000D02*
X141900000Y-96950000D01*
X141870000Y-93200000D02*
X141900000Y-93230000D01*
%TO.N,SERVO_3*%
X120500000Y-103550000D02*
X120350000Y-103700000D01*
X139850000Y-95750000D02*
X133150000Y-102450000D01*
X121500000Y-102450000D02*
X120500000Y-103450000D01*
X139850000Y-93150000D02*
X139850000Y-95750000D01*
X133150000Y-102450000D02*
X121500000Y-102450000D01*
X120500000Y-103450000D02*
X120500000Y-103550000D01*
X139800000Y-93100000D02*
X139850000Y-93150000D01*
%TO.N,SERVO_2*%
X119350000Y-103568830D02*
X119284415Y-103634415D01*
X133132500Y-101417500D02*
X121082500Y-101417500D01*
X138830000Y-95720000D02*
X133132500Y-101417500D01*
X119350000Y-103150000D02*
X119350000Y-103568830D01*
X138830000Y-93200000D02*
X138830000Y-95720000D01*
X121082500Y-101417500D02*
X119350000Y-103150000D01*
%TO.N,SERVO_5*%
X141870000Y-93100000D02*
X141870000Y-93200000D01*
%TO.N,SERVO_6*%
X142850000Y-93150000D02*
X142850000Y-98000000D01*
X142850000Y-98000000D02*
X134750000Y-106100000D01*
X134750000Y-106100000D02*
X118750000Y-106100000D01*
%TO.N,SERVO_1*%
X137850000Y-95600000D02*
X133192500Y-100257500D01*
X118492500Y-100257500D02*
X115550000Y-103200000D01*
X137850000Y-93200000D02*
X137850000Y-95600000D01*
X133192500Y-100257500D02*
X118492500Y-100257500D01*
%TD*%
%TA.AperFunction,Conductor*%
%TO.N,GND*%
G36*
X142241834Y-97456678D02*
G01*
X142297767Y-97498550D01*
X142322184Y-97564014D01*
X142322500Y-97572860D01*
X142322500Y-97730141D01*
X142302815Y-97797180D01*
X142286181Y-97817822D01*
X134567822Y-105536181D01*
X134540894Y-105550884D01*
X134515076Y-105567477D01*
X134508875Y-105568368D01*
X134506499Y-105569666D01*
X134480141Y-105572500D01*
X134322859Y-105572500D01*
X134255820Y-105552815D01*
X134210065Y-105500011D01*
X134200121Y-105430853D01*
X134229146Y-105367297D01*
X134235178Y-105360819D01*
X142110819Y-97485179D01*
X142172142Y-97451694D01*
X142241834Y-97456678D01*
G37*
%TD.AperFunction*%
%TA.AperFunction,Conductor*%
G36*
X99660452Y-87400685D02*
G01*
X99660617Y-87399439D01*
X99668676Y-87400500D01*
X144247228Y-87400500D01*
X144252952Y-87400632D01*
X144627728Y-87417950D01*
X144639118Y-87419006D01*
X145007937Y-87470448D01*
X145019173Y-87472548D01*
X145381695Y-87557807D01*
X145392688Y-87560935D01*
X145726120Y-87672687D01*
X145745768Y-87679272D01*
X145756448Y-87683409D01*
X146097108Y-87833822D01*
X146107361Y-87838928D01*
X146432665Y-88020119D01*
X146442404Y-88026148D01*
X146748961Y-88236145D01*
X146749629Y-88236602D01*
X146758769Y-88243505D01*
X147045241Y-88481390D01*
X147053706Y-88489106D01*
X147317026Y-88752429D01*
X147324742Y-88760894D01*
X147562636Y-89047385D01*
X147569514Y-89056491D01*
X147779978Y-89363739D01*
X147786001Y-89373467D01*
X147824838Y-89443195D01*
X147965972Y-89696590D01*
X147967198Y-89698790D01*
X147972300Y-89709038D01*
X148044546Y-89872667D01*
X148122704Y-90049688D01*
X148126842Y-90060368D01*
X148245177Y-90413456D01*
X148248311Y-90424473D01*
X148333558Y-90786962D01*
X148335662Y-90798221D01*
X148387096Y-91167022D01*
X148388153Y-91178427D01*
X148401740Y-91472524D01*
X148399298Y-91495203D01*
X148400561Y-91495370D01*
X148399500Y-91503430D01*
X148399500Y-123297128D01*
X148399368Y-123302855D01*
X148382037Y-123677713D01*
X148380980Y-123689117D01*
X148329533Y-124057928D01*
X148327428Y-124069186D01*
X148242174Y-124431669D01*
X148239040Y-124442686D01*
X148120701Y-124795763D01*
X148116564Y-124806443D01*
X147966146Y-125147109D01*
X147961040Y-125157362D01*
X147779849Y-125482665D01*
X147773820Y-125492402D01*
X147563370Y-125799624D01*
X147556468Y-125808765D01*
X147318573Y-126095253D01*
X147310857Y-126103717D01*
X147047546Y-126367031D01*
X147039082Y-126374747D01*
X146752591Y-126612649D01*
X146743450Y-126619551D01*
X146436248Y-126829991D01*
X146426511Y-126836021D01*
X146101189Y-127017227D01*
X146090936Y-127022332D01*
X145750289Y-127172746D01*
X145739609Y-127176884D01*
X145386524Y-127295229D01*
X145375508Y-127298363D01*
X145013026Y-127383621D01*
X145001767Y-127385726D01*
X144632956Y-127437176D01*
X144621552Y-127438233D01*
X144247668Y-127455523D01*
X144241940Y-127455655D01*
X99674561Y-127455655D01*
X99668834Y-127455523D01*
X99293979Y-127438191D01*
X99282574Y-127437134D01*
X98913763Y-127385686D01*
X98902505Y-127383581D01*
X98540025Y-127298326D01*
X98529009Y-127295192D01*
X98175930Y-127176851D01*
X98165249Y-127172713D01*
X97824601Y-127022301D01*
X97814349Y-127017196D01*
X97707904Y-126957906D01*
X97489030Y-126835993D01*
X97479303Y-126829971D01*
X97172077Y-126619516D01*
X97162937Y-126612613D01*
X96876459Y-126374724D01*
X96867995Y-126367008D01*
X96604689Y-126103702D01*
X96596972Y-126095238D01*
X96489452Y-125965756D01*
X96359072Y-125808744D01*
X96352172Y-125799607D01*
X96335658Y-125775500D01*
X96209217Y-125590917D01*
X96141726Y-125492392D01*
X96135697Y-125482654D01*
X96077727Y-125378578D01*
X95954489Y-125157324D01*
X95949397Y-125147097D01*
X95798978Y-124806429D01*
X95794850Y-124795775D01*
X95676500Y-124442666D01*
X95673372Y-124431669D01*
X95588113Y-124069171D01*
X95586012Y-124057928D01*
X95534563Y-123689111D01*
X95533507Y-123677708D01*
X95532426Y-123654332D01*
X95525599Y-123506650D01*
X95523858Y-123468995D01*
X100899499Y-123468995D01*
X100926418Y-123604322D01*
X100926421Y-123604332D01*
X100979221Y-123731804D01*
X100979228Y-123731817D01*
X101055885Y-123846541D01*
X101055888Y-123846545D01*
X101153454Y-123944111D01*
X101153458Y-123944114D01*
X101268182Y-124020771D01*
X101268195Y-124020778D01*
X101385064Y-124069186D01*
X101395672Y-124073580D01*
X101395676Y-124073580D01*
X101395677Y-124073581D01*
X101531004Y-124100500D01*
X101531007Y-124100500D01*
X101668995Y-124100500D01*
X101760041Y-124082389D01*
X101804328Y-124073580D01*
X101931811Y-124020775D01*
X102046542Y-123944114D01*
X102144114Y-123846542D01*
X102220775Y-123731811D01*
X102273580Y-123604328D01*
X102290554Y-123518995D01*
X105899499Y-123518995D01*
X105926418Y-123654322D01*
X105926421Y-123654332D01*
X105979221Y-123781804D01*
X105979228Y-123781817D01*
X106055885Y-123896541D01*
X106055888Y-123896545D01*
X106153454Y-123994111D01*
X106153460Y-123994116D01*
X106157773Y-123996998D01*
X106202577Y-124050610D01*
X106211284Y-124119935D01*
X106181129Y-124182963D01*
X106176563Y-124187780D01*
X106105885Y-124258458D01*
X106029228Y-124373182D01*
X106029221Y-124373195D01*
X105976421Y-124500667D01*
X105976418Y-124500677D01*
X105949500Y-124636004D01*
X105949500Y-124636007D01*
X105949500Y-124773993D01*
X105949500Y-124773995D01*
X105949499Y-124773995D01*
X105976418Y-124909322D01*
X105976421Y-124909332D01*
X106029221Y-125036804D01*
X106029228Y-125036817D01*
X106105885Y-125151541D01*
X106105888Y-125151545D01*
X106203454Y-125249111D01*
X106203458Y-125249114D01*
X106318182Y-125325771D01*
X106318195Y-125325778D01*
X106445667Y-125378578D01*
X106445672Y-125378580D01*
X106445676Y-125378580D01*
X106445677Y-125378581D01*
X106581004Y-125405500D01*
X106581007Y-125405500D01*
X106718995Y-125405500D01*
X106810041Y-125387389D01*
X106854328Y-125378580D01*
X106981811Y-125325775D01*
X107096542Y-125249114D01*
X107194114Y-125151542D01*
X107215861Y-125118995D01*
X118749499Y-125118995D01*
X118776418Y-125254322D01*
X118776421Y-125254332D01*
X118829221Y-125381804D01*
X118829228Y-125381817D01*
X118905885Y-125496541D01*
X118905888Y-125496545D01*
X119003454Y-125594111D01*
X119003458Y-125594114D01*
X119118182Y-125670771D01*
X119118195Y-125670778D01*
X119245667Y-125723578D01*
X119245672Y-125723580D01*
X119245676Y-125723580D01*
X119245677Y-125723581D01*
X119381004Y-125750500D01*
X119381007Y-125750500D01*
X119518995Y-125750500D01*
X119610041Y-125732389D01*
X119654328Y-125723580D01*
X119781811Y-125670775D01*
X119896542Y-125594114D01*
X119994114Y-125496542D01*
X120070775Y-125381811D01*
X120123580Y-125254328D01*
X120143866Y-125152344D01*
X120145527Y-125143995D01*
X121774499Y-125143995D01*
X121801418Y-125279322D01*
X121801421Y-125279332D01*
X121854221Y-125406804D01*
X121854228Y-125406817D01*
X121930885Y-125521541D01*
X121930888Y-125521545D01*
X122028454Y-125619111D01*
X122028458Y-125619114D01*
X122143182Y-125695771D01*
X122143195Y-125695778D01*
X122270667Y-125748578D01*
X122270672Y-125748580D01*
X122270676Y-125748580D01*
X122270677Y-125748581D01*
X122406004Y-125775500D01*
X122406007Y-125775500D01*
X122543995Y-125775500D01*
X122635041Y-125757389D01*
X122679328Y-125748580D01*
X122806811Y-125695775D01*
X122921542Y-125619114D01*
X123019114Y-125521542D01*
X123095775Y-125406811D01*
X123148580Y-125279328D01*
X123164389Y-125199852D01*
X123175500Y-125143995D01*
X123175500Y-125006004D01*
X123148581Y-124870677D01*
X123148580Y-124870676D01*
X123148580Y-124870672D01*
X123117552Y-124795763D01*
X123095778Y-124743195D01*
X123095771Y-124743182D01*
X123019114Y-124628458D01*
X123019111Y-124628454D01*
X122921545Y-124530888D01*
X122921541Y-124530885D01*
X122806817Y-124454228D01*
X122806804Y-124454221D01*
X122679332Y-124401421D01*
X122679322Y-124401418D01*
X122543995Y-124374500D01*
X122543993Y-124374500D01*
X122406007Y-124374500D01*
X122406005Y-124374500D01*
X122270677Y-124401418D01*
X122270667Y-124401421D01*
X122143195Y-124454221D01*
X122143182Y-124454228D01*
X122028458Y-124530885D01*
X122028454Y-124530888D01*
X121930888Y-124628454D01*
X121930885Y-124628458D01*
X121854228Y-124743182D01*
X121854221Y-124743195D01*
X121801421Y-124870667D01*
X121801418Y-124870677D01*
X121774500Y-125006004D01*
X121774500Y-125006007D01*
X121774500Y-125143993D01*
X121774500Y-125143995D01*
X121774499Y-125143995D01*
X120145527Y-125143995D01*
X120150500Y-125118995D01*
X120150500Y-124981004D01*
X120123581Y-124845677D01*
X120123580Y-124845676D01*
X120123580Y-124845672D01*
X120107331Y-124806443D01*
X120070778Y-124718195D01*
X120070771Y-124718182D01*
X119994114Y-124603458D01*
X119994111Y-124603454D01*
X119896545Y-124505888D01*
X119896541Y-124505885D01*
X119781817Y-124429228D01*
X119781804Y-124429221D01*
X119654332Y-124376421D01*
X119654322Y-124376418D01*
X119518995Y-124349500D01*
X119518993Y-124349500D01*
X119381007Y-124349500D01*
X119381005Y-124349500D01*
X119245677Y-124376418D01*
X119245667Y-124376421D01*
X119118195Y-124429221D01*
X119118182Y-124429228D01*
X119003458Y-124505885D01*
X119003454Y-124505888D01*
X118905888Y-124603454D01*
X118905885Y-124603458D01*
X118829228Y-124718182D01*
X118829221Y-124718195D01*
X118776421Y-124845667D01*
X118776418Y-124845677D01*
X118749500Y-124981004D01*
X118749500Y-124981007D01*
X118749500Y-125118993D01*
X118749500Y-125118995D01*
X118749499Y-125118995D01*
X107215861Y-125118995D01*
X107270775Y-125036811D01*
X107323580Y-124909328D01*
X107336243Y-124845667D01*
X107350500Y-124773995D01*
X107350500Y-124636004D01*
X107323581Y-124500677D01*
X107323580Y-124500676D01*
X107323580Y-124500672D01*
X107323578Y-124500667D01*
X107270778Y-124373195D01*
X107270771Y-124373182D01*
X107194114Y-124258458D01*
X107194111Y-124258454D01*
X107096545Y-124160888D01*
X107096540Y-124160884D01*
X107092224Y-124158000D01*
X107047420Y-124104386D01*
X107041016Y-124053388D01*
X143872500Y-124053388D01*
X143872500Y-124246611D01*
X143902725Y-124437441D01*
X143962429Y-124621194D01*
X144050147Y-124793349D01*
X144106325Y-124870672D01*
X144163715Y-124949663D01*
X144300337Y-125086285D01*
X144456650Y-125199852D01*
X144612617Y-125279322D01*
X144628805Y-125287570D01*
X144720681Y-125317422D01*
X144812560Y-125347275D01*
X144900943Y-125361273D01*
X145003389Y-125377500D01*
X145003394Y-125377500D01*
X145196611Y-125377500D01*
X145289123Y-125362846D01*
X145387440Y-125347275D01*
X145571197Y-125287569D01*
X145743350Y-125199852D01*
X145899663Y-125086285D01*
X146036285Y-124949663D01*
X146149852Y-124793350D01*
X146237569Y-124621197D01*
X146297275Y-124437440D01*
X146312846Y-124339123D01*
X146327500Y-124246611D01*
X146327500Y-124053388D01*
X146309916Y-123942373D01*
X146297275Y-123862560D01*
X146254790Y-123731804D01*
X146237570Y-123678805D01*
X146149852Y-123506650D01*
X146058568Y-123381007D01*
X146036285Y-123350337D01*
X145899663Y-123213715D01*
X145743350Y-123100148D01*
X145743351Y-123100148D01*
X145743349Y-123100147D01*
X145571194Y-123012429D01*
X145387441Y-122952725D01*
X145196611Y-122922500D01*
X145196606Y-122922500D01*
X145003394Y-122922500D01*
X145003389Y-122922500D01*
X144812558Y-122952725D01*
X144628805Y-123012429D01*
X144456650Y-123100147D01*
X144300336Y-123213715D01*
X144163715Y-123350336D01*
X144050147Y-123506650D01*
X143962429Y-123678805D01*
X143902725Y-123862558D01*
X143872500Y-124053388D01*
X107041016Y-124053388D01*
X107038715Y-124035061D01*
X107068872Y-123972034D01*
X107073418Y-123967237D01*
X107144114Y-123896542D01*
X107220775Y-123781811D01*
X107273580Y-123654328D01*
X107293471Y-123554332D01*
X107300500Y-123518995D01*
X107300500Y-123418995D01*
X111949499Y-123418995D01*
X111976418Y-123554322D01*
X111976421Y-123554332D01*
X112029221Y-123681804D01*
X112029228Y-123681817D01*
X112105885Y-123796541D01*
X112105888Y-123796545D01*
X112203454Y-123894111D01*
X112203458Y-123894114D01*
X112318182Y-123970771D01*
X112318195Y-123970778D01*
X112438890Y-124020771D01*
X112445672Y-124023580D01*
X112445676Y-124023580D01*
X112445677Y-124023581D01*
X112581004Y-124050500D01*
X112581007Y-124050500D01*
X112718995Y-124050500D01*
X112810041Y-124032389D01*
X112854328Y-124023580D01*
X112952924Y-123982740D01*
X112981804Y-123970778D01*
X112981804Y-123970777D01*
X112981811Y-123970775D01*
X112981817Y-123970771D01*
X113019758Y-123945420D01*
X113050237Y-123925053D01*
X113096542Y-123894114D01*
X113194114Y-123796542D01*
X113270775Y-123681811D01*
X113272473Y-123677713D01*
X113301760Y-123607006D01*
X113323580Y-123554328D01*
X113350500Y-123418993D01*
X113350500Y-123281007D01*
X113350500Y-123281004D01*
X113323581Y-123145677D01*
X113323580Y-123145676D01*
X113323580Y-123145672D01*
X113312193Y-123118182D01*
X113270778Y-123018195D01*
X113270771Y-123018182D01*
X113194114Y-122903458D01*
X113194111Y-122903454D01*
X113096545Y-122805888D01*
X113096541Y-122805885D01*
X113021661Y-122755851D01*
X112976856Y-122702238D01*
X112968149Y-122632913D01*
X112998304Y-122569886D01*
X113057747Y-122533167D01*
X113066336Y-122531137D01*
X113104328Y-122523580D01*
X113231811Y-122470775D01*
X113346542Y-122394114D01*
X113444114Y-122296542D01*
X113520775Y-122181811D01*
X113573580Y-122054328D01*
X113582975Y-122007098D01*
X113585989Y-121991947D01*
X113585989Y-121991946D01*
X113600500Y-121918995D01*
X113600500Y-121781004D01*
X113573581Y-121645677D01*
X113573580Y-121645676D01*
X113573580Y-121645672D01*
X113573578Y-121645667D01*
X113520778Y-121518195D01*
X113520771Y-121518182D01*
X113444114Y-121403458D01*
X113444111Y-121403454D01*
X113346545Y-121305888D01*
X113346541Y-121305885D01*
X113231817Y-121229228D01*
X113231804Y-121229221D01*
X113146760Y-121193995D01*
X115974499Y-121193995D01*
X116001418Y-121329322D01*
X116001421Y-121329332D01*
X116054221Y-121456804D01*
X116054228Y-121456817D01*
X116130885Y-121571541D01*
X116130888Y-121571545D01*
X116228454Y-121669111D01*
X116228458Y-121669114D01*
X116343182Y-121745771D01*
X116343195Y-121745778D01*
X116470667Y-121798578D01*
X116470672Y-121798580D01*
X116470676Y-121798580D01*
X116470677Y-121798581D01*
X116606004Y-121825500D01*
X116606007Y-121825500D01*
X116743995Y-121825500D01*
X116835041Y-121807389D01*
X116879328Y-121798580D01*
X117006811Y-121745775D01*
X117121542Y-121669114D01*
X117219114Y-121571542D01*
X117295775Y-121456811D01*
X117348580Y-121329328D01*
X117366055Y-121241478D01*
X117375500Y-121193995D01*
X117375500Y-121056004D01*
X117348581Y-120920677D01*
X117348580Y-120920676D01*
X117348580Y-120920672D01*
X117327888Y-120870717D01*
X117295778Y-120793195D01*
X117295771Y-120793182D01*
X117289168Y-120783300D01*
X117288857Y-120782835D01*
X117268372Y-120717513D01*
X127650000Y-120717513D01*
X127650000Y-121567500D01*
X128849999Y-121567500D01*
X128824979Y-121627902D01*
X128800000Y-121753481D01*
X128800000Y-121881519D01*
X128824979Y-122007098D01*
X128849999Y-122067500D01*
X127650001Y-122067500D01*
X127650001Y-122917486D01*
X127660494Y-123020197D01*
X127715641Y-123186619D01*
X127715643Y-123186624D01*
X127807684Y-123335845D01*
X127931654Y-123459815D01*
X128080875Y-123551856D01*
X128080880Y-123551858D01*
X128247302Y-123607005D01*
X128247309Y-123607006D01*
X128350019Y-123617499D01*
X129199999Y-123617499D01*
X129200000Y-123617498D01*
X129200000Y-122417501D01*
X129260402Y-122442521D01*
X129385981Y-122467500D01*
X129514019Y-122467500D01*
X129639598Y-122442521D01*
X129700000Y-122417501D01*
X129700000Y-123617499D01*
X130549972Y-123617499D01*
X130549986Y-123617498D01*
X130652697Y-123607005D01*
X130819119Y-123551858D01*
X130819124Y-123551856D01*
X130968345Y-123459815D01*
X131092315Y-123335845D01*
X131184356Y-123186624D01*
X131184358Y-123186619D01*
X131239505Y-123020197D01*
X131239506Y-123020190D01*
X131249999Y-122917486D01*
X131250000Y-122917473D01*
X131250000Y-122067500D01*
X130050001Y-122067500D01*
X130075021Y-122007098D01*
X130100000Y-121881519D01*
X130100000Y-121753481D01*
X130075021Y-121627902D01*
X130050001Y-121567500D01*
X131249999Y-121567500D01*
X131249999Y-120717528D01*
X131249998Y-120717513D01*
X131239505Y-120614802D01*
X131184358Y-120448380D01*
X131184356Y-120448375D01*
X131092315Y-120299154D01*
X130968345Y-120175184D01*
X130819124Y-120083143D01*
X130819119Y-120083141D01*
X130652697Y-120027994D01*
X130652690Y-120027993D01*
X130549986Y-120017500D01*
X129700000Y-120017500D01*
X129700000Y-121217498D01*
X129639598Y-121192479D01*
X129514019Y-121167500D01*
X129385981Y-121167500D01*
X129260402Y-121192479D01*
X129200000Y-121217498D01*
X129200000Y-120017500D01*
X128350028Y-120017500D01*
X128350012Y-120017501D01*
X128247302Y-120027994D01*
X128080880Y-120083141D01*
X128080875Y-120083143D01*
X127931654Y-120175184D01*
X127807684Y-120299154D01*
X127715643Y-120448375D01*
X127715641Y-120448380D01*
X127660494Y-120614802D01*
X127660493Y-120614809D01*
X127650000Y-120717513D01*
X117268372Y-120717513D01*
X117267950Y-120716167D01*
X117286405Y-120648779D01*
X117338363Y-120602066D01*
X117367736Y-120592282D01*
X117474328Y-120571080D01*
X117572924Y-120530240D01*
X117601804Y-120518278D01*
X117601804Y-120518277D01*
X117601811Y-120518275D01*
X117716542Y-120441614D01*
X117814114Y-120344042D01*
X117890775Y-120229311D01*
X117893313Y-120223185D01*
X117904482Y-120196220D01*
X117943580Y-120101828D01*
X117960354Y-120017500D01*
X117970500Y-119966495D01*
X117970500Y-119828504D01*
X117943581Y-119693177D01*
X117943580Y-119693176D01*
X117943580Y-119693172D01*
X117943578Y-119693167D01*
X117890778Y-119565695D01*
X117890771Y-119565682D01*
X117814114Y-119450958D01*
X117814111Y-119450954D01*
X117716545Y-119353388D01*
X117716541Y-119353385D01*
X117601817Y-119276728D01*
X117601804Y-119276721D01*
X117474332Y-119223921D01*
X117474322Y-119223918D01*
X117338995Y-119197000D01*
X117338993Y-119197000D01*
X117201007Y-119197000D01*
X117201005Y-119197000D01*
X117065677Y-119223918D01*
X117065667Y-119223921D01*
X116938195Y-119276721D01*
X116938182Y-119276728D01*
X116823458Y-119353385D01*
X116823454Y-119353388D01*
X116725888Y-119450954D01*
X116725885Y-119450958D01*
X116649228Y-119565682D01*
X116649221Y-119565695D01*
X116596421Y-119693167D01*
X116596418Y-119693177D01*
X116569500Y-119828504D01*
X116569500Y-119828507D01*
X116569500Y-119966493D01*
X116569500Y-119966495D01*
X116569499Y-119966495D01*
X116596418Y-120101822D01*
X116596421Y-120101832D01*
X116649221Y-120229304D01*
X116649231Y-120229322D01*
X116656172Y-120239710D01*
X116677050Y-120306387D01*
X116658565Y-120373767D01*
X116606586Y-120420457D01*
X116577262Y-120430217D01*
X116470677Y-120451418D01*
X116470667Y-120451421D01*
X116343195Y-120504221D01*
X116343182Y-120504228D01*
X116228458Y-120580885D01*
X116228454Y-120580888D01*
X116130888Y-120678454D01*
X116130885Y-120678458D01*
X116054228Y-120793182D01*
X116054221Y-120793195D01*
X116001421Y-120920667D01*
X116001418Y-120920677D01*
X115974500Y-121056004D01*
X115974500Y-121056007D01*
X115974500Y-121193993D01*
X115974500Y-121193995D01*
X115974499Y-121193995D01*
X113146760Y-121193995D01*
X113104332Y-121176421D01*
X113104320Y-121176418D01*
X113079757Y-121171532D01*
X113079756Y-121171532D01*
X112968995Y-121149500D01*
X112968993Y-121149500D01*
X112831007Y-121149500D01*
X112831005Y-121149500D01*
X112695677Y-121176418D01*
X112695667Y-121176421D01*
X112568195Y-121229221D01*
X112568182Y-121229228D01*
X112453458Y-121305885D01*
X112453454Y-121305888D01*
X112355888Y-121403454D01*
X112355885Y-121403458D01*
X112279228Y-121518182D01*
X112279221Y-121518195D01*
X112226421Y-121645667D01*
X112226418Y-121645677D01*
X112199500Y-121781004D01*
X112199500Y-121781007D01*
X112199500Y-121918993D01*
X112199500Y-121918995D01*
X112199499Y-121918995D01*
X112226418Y-122054322D01*
X112226421Y-122054332D01*
X112279221Y-122181804D01*
X112279228Y-122181817D01*
X112355885Y-122296541D01*
X112355888Y-122296545D01*
X112453454Y-122394111D01*
X112453458Y-122394114D01*
X112528338Y-122444148D01*
X112573143Y-122497760D01*
X112581850Y-122567085D01*
X112551695Y-122630113D01*
X112492252Y-122666832D01*
X112483640Y-122668867D01*
X112445676Y-122676418D01*
X112445667Y-122676421D01*
X112318195Y-122729221D01*
X112318182Y-122729228D01*
X112203458Y-122805885D01*
X112203454Y-122805888D01*
X112105888Y-122903454D01*
X112105885Y-122903458D01*
X112029228Y-123018182D01*
X112029221Y-123018195D01*
X111976421Y-123145667D01*
X111976418Y-123145677D01*
X111949500Y-123281004D01*
X111949500Y-123281007D01*
X111949500Y-123418993D01*
X111949500Y-123418995D01*
X111949499Y-123418995D01*
X107300500Y-123418995D01*
X107300500Y-123381004D01*
X107284209Y-123299107D01*
X107284209Y-123299106D01*
X107273581Y-123245679D01*
X107273581Y-123245677D01*
X107273580Y-123245672D01*
X107268931Y-123234448D01*
X107220778Y-123118195D01*
X107220771Y-123118182D01*
X107144114Y-123003458D01*
X107144111Y-123003454D01*
X107046545Y-122905888D01*
X107046541Y-122905885D01*
X106931817Y-122829228D01*
X106931804Y-122829221D01*
X106804332Y-122776421D01*
X106804322Y-122776418D01*
X106668995Y-122749500D01*
X106668993Y-122749500D01*
X106531007Y-122749500D01*
X106531005Y-122749500D01*
X106395677Y-122776418D01*
X106395667Y-122776421D01*
X106268195Y-122829221D01*
X106268182Y-122829228D01*
X106153458Y-122905885D01*
X106153454Y-122905888D01*
X106055888Y-123003454D01*
X106055885Y-123003458D01*
X105979228Y-123118182D01*
X105979221Y-123118195D01*
X105926421Y-123245667D01*
X105926418Y-123245677D01*
X105899500Y-123381004D01*
X105899500Y-123381007D01*
X105899500Y-123518993D01*
X105899500Y-123518995D01*
X105899499Y-123518995D01*
X102290554Y-123518995D01*
X102293010Y-123506650D01*
X102300500Y-123468995D01*
X102300500Y-123331004D01*
X102273581Y-123195677D01*
X102273580Y-123195676D01*
X102273580Y-123195672D01*
X102269830Y-123186619D01*
X102220778Y-123068195D01*
X102220771Y-123068182D01*
X102144114Y-122953458D01*
X102144111Y-122953454D01*
X102046545Y-122855888D01*
X102046541Y-122855885D01*
X101931817Y-122779228D01*
X101931804Y-122779221D01*
X101804332Y-122726421D01*
X101804322Y-122726418D01*
X101668995Y-122699500D01*
X101668993Y-122699500D01*
X101531007Y-122699500D01*
X101531005Y-122699500D01*
X101395677Y-122726418D01*
X101395667Y-122726421D01*
X101268195Y-122779221D01*
X101268182Y-122779228D01*
X101153458Y-122855885D01*
X101153454Y-122855888D01*
X101055888Y-122953454D01*
X101055885Y-122953458D01*
X100979228Y-123068182D01*
X100979221Y-123068195D01*
X100926421Y-123195667D01*
X100926418Y-123195677D01*
X100899500Y-123331004D01*
X100899500Y-123331007D01*
X100899500Y-123468993D01*
X100899500Y-123468995D01*
X100899499Y-123468995D01*
X95523858Y-123468995D01*
X95517462Y-123330644D01*
X95516165Y-123302599D01*
X95516033Y-123296870D01*
X95516033Y-123233819D01*
X95516027Y-123233733D01*
X95516027Y-120948671D01*
X98629176Y-120948671D01*
X98656095Y-121083998D01*
X98656098Y-121084008D01*
X98708898Y-121211480D01*
X98708905Y-121211493D01*
X98785562Y-121326217D01*
X98785565Y-121326221D01*
X98883131Y-121423787D01*
X98883135Y-121423790D01*
X98997859Y-121500447D01*
X98997872Y-121500454D01*
X99125344Y-121553254D01*
X99125349Y-121553256D01*
X99125353Y-121553256D01*
X99125354Y-121553257D01*
X99260681Y-121580176D01*
X99260684Y-121580176D01*
X99398672Y-121580176D01*
X99489718Y-121562065D01*
X99534005Y-121553256D01*
X99661488Y-121500451D01*
X99776219Y-121423790D01*
X99873791Y-121326218D01*
X99950452Y-121211487D01*
X100003257Y-121084004D01*
X100030177Y-120948669D01*
X100030177Y-120810683D01*
X100030177Y-120810680D01*
X100003258Y-120675353D01*
X100003257Y-120675352D01*
X100003257Y-120675348D01*
X99992252Y-120648779D01*
X99950455Y-120547871D01*
X99950448Y-120547858D01*
X99873791Y-120433134D01*
X99873788Y-120433130D01*
X99776222Y-120335564D01*
X99776218Y-120335561D01*
X99661494Y-120258904D01*
X99661481Y-120258897D01*
X99534009Y-120206097D01*
X99533999Y-120206094D01*
X99398672Y-120179176D01*
X99398670Y-120179176D01*
X99260684Y-120179176D01*
X99260682Y-120179176D01*
X99125354Y-120206094D01*
X99125344Y-120206097D01*
X98997872Y-120258897D01*
X98997859Y-120258904D01*
X98883135Y-120335561D01*
X98883131Y-120335564D01*
X98785565Y-120433130D01*
X98785562Y-120433134D01*
X98708905Y-120547858D01*
X98708898Y-120547871D01*
X98656098Y-120675343D01*
X98656095Y-120675353D01*
X98629177Y-120810680D01*
X98629177Y-120810683D01*
X98629177Y-120948669D01*
X98629177Y-120948671D01*
X98629176Y-120948671D01*
X95516027Y-120948671D01*
X95516027Y-118628995D01*
X104999499Y-118628995D01*
X105026418Y-118764322D01*
X105026421Y-118764332D01*
X105079221Y-118891804D01*
X105079228Y-118891817D01*
X105155885Y-119006541D01*
X105155888Y-119006545D01*
X105253454Y-119104111D01*
X105253458Y-119104114D01*
X105368182Y-119180771D01*
X105368195Y-119180778D01*
X105495667Y-119233578D01*
X105495672Y-119233580D01*
X105495676Y-119233580D01*
X105495677Y-119233581D01*
X105631004Y-119260500D01*
X105631007Y-119260500D01*
X105768995Y-119260500D01*
X105860041Y-119242389D01*
X105904328Y-119233580D01*
X106031811Y-119180775D01*
X106146542Y-119104114D01*
X106244114Y-119006542D01*
X106320775Y-118891811D01*
X106371647Y-118768995D01*
X109149499Y-118768995D01*
X109176418Y-118904322D01*
X109176421Y-118904332D01*
X109229221Y-119031804D01*
X109229228Y-119031817D01*
X109305885Y-119146541D01*
X109305888Y-119146545D01*
X109403454Y-119244111D01*
X109403458Y-119244114D01*
X109518182Y-119320771D01*
X109518195Y-119320778D01*
X109639950Y-119371210D01*
X109645672Y-119373580D01*
X109746691Y-119393674D01*
X109808602Y-119426058D01*
X109843176Y-119486774D01*
X109846500Y-119515291D01*
X109846500Y-119571993D01*
X109846500Y-119571995D01*
X109846499Y-119571995D01*
X109873418Y-119707322D01*
X109873421Y-119707332D01*
X109926221Y-119834804D01*
X109926228Y-119834817D01*
X110002885Y-119949541D01*
X110002888Y-119949545D01*
X110100454Y-120047111D01*
X110100458Y-120047114D01*
X110215182Y-120123771D01*
X110215195Y-120123778D01*
X110339302Y-120175184D01*
X110342672Y-120176580D01*
X110342676Y-120176580D01*
X110342677Y-120176581D01*
X110478004Y-120203500D01*
X110559254Y-120203500D01*
X110626293Y-120223185D01*
X110672048Y-120275989D01*
X110673815Y-120280047D01*
X110717861Y-120386385D01*
X110717866Y-120386394D01*
X110794523Y-120501118D01*
X110794526Y-120501122D01*
X110892092Y-120598688D01*
X110892096Y-120598691D01*
X111006820Y-120675348D01*
X111006833Y-120675355D01*
X111051550Y-120693877D01*
X111134310Y-120728157D01*
X111134314Y-120728157D01*
X111134315Y-120728158D01*
X111269642Y-120755077D01*
X111269645Y-120755077D01*
X111407633Y-120755077D01*
X111498679Y-120736966D01*
X111542966Y-120728157D01*
X111641562Y-120687317D01*
X111670442Y-120675355D01*
X111670442Y-120675354D01*
X111670449Y-120675352D01*
X111785180Y-120598691D01*
X111882752Y-120501119D01*
X111958381Y-120387932D01*
X111959409Y-120386394D01*
X111959409Y-120386393D01*
X111959413Y-120386388D01*
X111965688Y-120371240D01*
X112002167Y-120283170D01*
X112012218Y-120258905D01*
X112028077Y-120179176D01*
X112039138Y-120123572D01*
X112039138Y-119985581D01*
X112012219Y-119850254D01*
X112012218Y-119850253D01*
X112012218Y-119850249D01*
X112005826Y-119834817D01*
X111959416Y-119722772D01*
X111959409Y-119722759D01*
X111882752Y-119608035D01*
X111882749Y-119608031D01*
X111785183Y-119510465D01*
X111785179Y-119510462D01*
X111670455Y-119433805D01*
X111670442Y-119433798D01*
X111542970Y-119380998D01*
X111542960Y-119380995D01*
X111407633Y-119354077D01*
X111407631Y-119354077D01*
X111326383Y-119354077D01*
X111307201Y-119348444D01*
X111287223Y-119347731D01*
X111274362Y-119338802D01*
X111259344Y-119334392D01*
X111246254Y-119319286D01*
X111229831Y-119307883D01*
X111215622Y-119283934D01*
X111213589Y-119281588D01*
X111211822Y-119277529D01*
X111211490Y-119276728D01*
X111170248Y-119177159D01*
X111162779Y-119107690D01*
X111194055Y-119045211D01*
X111254144Y-119009559D01*
X111309001Y-119008090D01*
X111408358Y-119027854D01*
X111408361Y-119027854D01*
X111546349Y-119027854D01*
X111637395Y-119009743D01*
X111681682Y-119000934D01*
X111809165Y-118948129D01*
X111867910Y-118908877D01*
X111934587Y-118887999D01*
X112001967Y-118906483D01*
X112048658Y-118958462D01*
X112059834Y-119027432D01*
X112058418Y-119036170D01*
X112049500Y-119081002D01*
X112049500Y-119081007D01*
X112049500Y-119218993D01*
X112049500Y-119218995D01*
X112049499Y-119218995D01*
X112076418Y-119354322D01*
X112076421Y-119354332D01*
X112129221Y-119481804D01*
X112129228Y-119481817D01*
X112205885Y-119596541D01*
X112205888Y-119596545D01*
X112303454Y-119694111D01*
X112303458Y-119694114D01*
X112418182Y-119770771D01*
X112418195Y-119770778D01*
X112545667Y-119823578D01*
X112545672Y-119823580D01*
X112545676Y-119823580D01*
X112545677Y-119823581D01*
X112681004Y-119850500D01*
X112681007Y-119850500D01*
X112818995Y-119850500D01*
X112929558Y-119828507D01*
X112954328Y-119823580D01*
X113081811Y-119770775D01*
X113196542Y-119694114D01*
X113294114Y-119596542D01*
X113370775Y-119481811D01*
X113376420Y-119468184D01*
X113390661Y-119433802D01*
X113423580Y-119354328D01*
X113438049Y-119281588D01*
X113450500Y-119218995D01*
X113450500Y-119081004D01*
X113423581Y-118945677D01*
X113423580Y-118945676D01*
X113423580Y-118945672D01*
X113408339Y-118908877D01*
X113370778Y-118818195D01*
X113370771Y-118818182D01*
X113324540Y-118748993D01*
X130932000Y-118748993D01*
X130958919Y-118884320D01*
X130958922Y-118884330D01*
X131011722Y-119011802D01*
X131011729Y-119011815D01*
X131088386Y-119126539D01*
X131088389Y-119126543D01*
X131185955Y-119224109D01*
X131185959Y-119224112D01*
X131300683Y-119300769D01*
X131300696Y-119300776D01*
X131427883Y-119353458D01*
X131428173Y-119353578D01*
X131428177Y-119353578D01*
X131428178Y-119353579D01*
X131563505Y-119380498D01*
X131563508Y-119380498D01*
X131701496Y-119380498D01*
X131833038Y-119354332D01*
X131836829Y-119353578D01*
X131947147Y-119307883D01*
X131964305Y-119300776D01*
X131964305Y-119300775D01*
X131964312Y-119300773D01*
X131964317Y-119300769D01*
X131964320Y-119300768D01*
X132000990Y-119276265D01*
X132036322Y-119252656D01*
X132102999Y-119231778D01*
X132170379Y-119250262D01*
X132217070Y-119302240D01*
X132228247Y-119371210D01*
X132208317Y-119424648D01*
X132179227Y-119468184D01*
X132179221Y-119468195D01*
X132126421Y-119595667D01*
X132126418Y-119595677D01*
X132099500Y-119731004D01*
X132099500Y-119731007D01*
X132099500Y-119868993D01*
X132099500Y-119868995D01*
X132099499Y-119868995D01*
X132126418Y-120004322D01*
X132126421Y-120004332D01*
X132179221Y-120131804D01*
X132179228Y-120131817D01*
X132255885Y-120246541D01*
X132255888Y-120246545D01*
X132353454Y-120344111D01*
X132353458Y-120344114D01*
X132468182Y-120420771D01*
X132468195Y-120420778D01*
X132542175Y-120451421D01*
X132595672Y-120473580D01*
X132595676Y-120473580D01*
X132595677Y-120473581D01*
X132731004Y-120500500D01*
X132731007Y-120500500D01*
X132868995Y-120500500D01*
X132960041Y-120482389D01*
X133004328Y-120473580D01*
X133085149Y-120440102D01*
X133154618Y-120432634D01*
X133217097Y-120463909D01*
X133252749Y-120523998D01*
X133250255Y-120593823D01*
X133220283Y-120642344D01*
X133168757Y-120693870D01*
X133168751Y-120693877D01*
X133033058Y-120870717D01*
X133033052Y-120870726D01*
X132921595Y-121063773D01*
X132921593Y-121063777D01*
X132836293Y-121269709D01*
X132836290Y-121269719D01*
X132786158Y-121456817D01*
X132778597Y-121485034D01*
X132778594Y-121485047D01*
X132749501Y-121706033D01*
X132749500Y-121706049D01*
X132749500Y-121928950D01*
X132749501Y-121928966D01*
X132778594Y-122149952D01*
X132778595Y-122149957D01*
X132778596Y-122149963D01*
X132824797Y-122322388D01*
X132836290Y-122365280D01*
X132836293Y-122365290D01*
X132921040Y-122569886D01*
X132921595Y-122571226D01*
X133033052Y-122764274D01*
X133033057Y-122764280D01*
X133033058Y-122764282D01*
X133168751Y-122941122D01*
X133168757Y-122941129D01*
X133326370Y-123098742D01*
X133326377Y-123098748D01*
X133328202Y-123100148D01*
X133503226Y-123234448D01*
X133696274Y-123345905D01*
X133902219Y-123431210D01*
X134117537Y-123488904D01*
X134338543Y-123518000D01*
X134338550Y-123518000D01*
X134561450Y-123518000D01*
X134561457Y-123518000D01*
X134782463Y-123488904D01*
X134997781Y-123431210D01*
X135203726Y-123345905D01*
X135396774Y-123234448D01*
X135573624Y-123098747D01*
X135731247Y-122941124D01*
X135866948Y-122764274D01*
X135978405Y-122571226D01*
X136063710Y-122365281D01*
X136121404Y-122149963D01*
X136150500Y-121928957D01*
X136150500Y-121706043D01*
X136121404Y-121485037D01*
X136063710Y-121269719D01*
X135978405Y-121063774D01*
X135866948Y-120870726D01*
X135778208Y-120755077D01*
X135731248Y-120693877D01*
X135731242Y-120693870D01*
X135573629Y-120536257D01*
X135573619Y-120536249D01*
X135542898Y-120512675D01*
X135532811Y-120498861D01*
X135519118Y-120488610D01*
X135512634Y-120471228D01*
X135501696Y-120456247D01*
X135500678Y-120439173D01*
X135494701Y-120423146D01*
X135498644Y-120405019D01*
X135497541Y-120386501D01*
X135505992Y-120371240D01*
X135509553Y-120354873D01*
X135530704Y-120326619D01*
X135545652Y-120311671D01*
X135606975Y-120278186D01*
X135676667Y-120283170D01*
X135721014Y-120311671D01*
X135753454Y-120344111D01*
X135753458Y-120344114D01*
X135868182Y-120420771D01*
X135868195Y-120420778D01*
X135942175Y-120451421D01*
X135995672Y-120473580D01*
X135995676Y-120473580D01*
X135995677Y-120473581D01*
X136131004Y-120500500D01*
X136131007Y-120500500D01*
X136268995Y-120500500D01*
X136360041Y-120482389D01*
X136404328Y-120473580D01*
X136531811Y-120420775D01*
X136646542Y-120344114D01*
X136744114Y-120246542D01*
X136820775Y-120131811D01*
X136873580Y-120004328D01*
X136900500Y-119868993D01*
X136900500Y-119731007D01*
X136900500Y-119731004D01*
X136873581Y-119595677D01*
X136873580Y-119595676D01*
X136873580Y-119595672D01*
X136861158Y-119565682D01*
X136820778Y-119468195D01*
X136820771Y-119468182D01*
X136744114Y-119353458D01*
X136744111Y-119353454D01*
X136646545Y-119255888D01*
X136646541Y-119255885D01*
X136531817Y-119179228D01*
X136531804Y-119179221D01*
X136404332Y-119126421D01*
X136404322Y-119126418D01*
X136268995Y-119099500D01*
X136268993Y-119099500D01*
X136131007Y-119099500D01*
X136131005Y-119099500D01*
X135995677Y-119126418D01*
X135995667Y-119126421D01*
X135868195Y-119179221D01*
X135868182Y-119179228D01*
X135753458Y-119255885D01*
X135753453Y-119255889D01*
X135721013Y-119288329D01*
X135659689Y-119321814D01*
X135589998Y-119316828D01*
X135545652Y-119288328D01*
X135513212Y-119255888D01*
X135513208Y-119255885D01*
X135398484Y-119179228D01*
X135398471Y-119179221D01*
X135270999Y-119126421D01*
X135270989Y-119126418D01*
X135135662Y-119099500D01*
X135135660Y-119099500D01*
X134997674Y-119099500D01*
X134997672Y-119099500D01*
X134862344Y-119126418D01*
X134862334Y-119126421D01*
X134734862Y-119179221D01*
X134734849Y-119179228D01*
X134620125Y-119255885D01*
X134620121Y-119255888D01*
X134587681Y-119288329D01*
X134526358Y-119321814D01*
X134456666Y-119316830D01*
X134412319Y-119288329D01*
X134379878Y-119255888D01*
X134379874Y-119255885D01*
X134265150Y-119179228D01*
X134265137Y-119179221D01*
X134137665Y-119126421D01*
X134137655Y-119126418D01*
X134002328Y-119099500D01*
X134002326Y-119099500D01*
X133864340Y-119099500D01*
X133864338Y-119099500D01*
X133729010Y-119126418D01*
X133729000Y-119126421D01*
X133601528Y-119179221D01*
X133601515Y-119179228D01*
X133486791Y-119255885D01*
X133486786Y-119255889D01*
X133454346Y-119288329D01*
X133393022Y-119321814D01*
X133323331Y-119316828D01*
X133278985Y-119288328D01*
X133246545Y-119255888D01*
X133246541Y-119255885D01*
X133131817Y-119179228D01*
X133131804Y-119179221D01*
X133004332Y-119126421D01*
X133004322Y-119126418D01*
X132868995Y-119099500D01*
X132868993Y-119099500D01*
X132731007Y-119099500D01*
X132731005Y-119099500D01*
X132595677Y-119126418D01*
X132595667Y-119126421D01*
X132468195Y-119179221D01*
X132468182Y-119179228D01*
X132396177Y-119227341D01*
X132329499Y-119248219D01*
X132262119Y-119229734D01*
X132215429Y-119177755D01*
X132204253Y-119108785D01*
X132224185Y-119055347D01*
X132253271Y-119011817D01*
X132253272Y-119011814D01*
X132253276Y-119011809D01*
X132254817Y-119008090D01*
X132280673Y-118945667D01*
X132306081Y-118884326D01*
X132317003Y-118829420D01*
X132333001Y-118748993D01*
X132333001Y-118611002D01*
X132306082Y-118475675D01*
X132306081Y-118475674D01*
X132306081Y-118475670D01*
X132294016Y-118446542D01*
X132253279Y-118348193D01*
X132253272Y-118348180D01*
X132176615Y-118233456D01*
X132176612Y-118233452D01*
X132079046Y-118135886D01*
X132079042Y-118135883D01*
X131964318Y-118059226D01*
X131964305Y-118059219D01*
X131836833Y-118006419D01*
X131836823Y-118006416D01*
X131701496Y-117979498D01*
X131701494Y-117979498D01*
X131563508Y-117979498D01*
X131563506Y-117979498D01*
X131428178Y-118006416D01*
X131428168Y-118006419D01*
X131300696Y-118059219D01*
X131300683Y-118059226D01*
X131185959Y-118135883D01*
X131185955Y-118135886D01*
X131088389Y-118233452D01*
X131088386Y-118233456D01*
X131011729Y-118348180D01*
X131011722Y-118348193D01*
X130958922Y-118475665D01*
X130958919Y-118475675D01*
X130932001Y-118611002D01*
X130932001Y-118611005D01*
X130932001Y-118748991D01*
X130932001Y-118748993D01*
X130932000Y-118748993D01*
X113324540Y-118748993D01*
X113294114Y-118703458D01*
X113294111Y-118703454D01*
X113196545Y-118605888D01*
X113196541Y-118605885D01*
X113081817Y-118529228D01*
X113081804Y-118529221D01*
X112954332Y-118476421D01*
X112954322Y-118476418D01*
X112818995Y-118449500D01*
X112818993Y-118449500D01*
X112681007Y-118449500D01*
X112681005Y-118449500D01*
X112545677Y-118476418D01*
X112545667Y-118476421D01*
X112418195Y-118529221D01*
X112418179Y-118529230D01*
X112359441Y-118568477D01*
X112292764Y-118589354D01*
X112225384Y-118570869D01*
X112178694Y-118518889D01*
X112167519Y-118449919D01*
X112168930Y-118441209D01*
X112177854Y-118396347D01*
X112177854Y-118258361D01*
X112177854Y-118258358D01*
X112150935Y-118123031D01*
X112150934Y-118123030D01*
X112150934Y-118123026D01*
X112146969Y-118113454D01*
X112128554Y-118068995D01*
X123849499Y-118068995D01*
X123876418Y-118204322D01*
X123876421Y-118204332D01*
X123929221Y-118331804D01*
X123929228Y-118331817D01*
X124005885Y-118446541D01*
X124005888Y-118446545D01*
X124103454Y-118544111D01*
X124103458Y-118544114D01*
X124218182Y-118620771D01*
X124218195Y-118620778D01*
X124310871Y-118659165D01*
X124345672Y-118673580D01*
X124345676Y-118673580D01*
X124345677Y-118673581D01*
X124481004Y-118700500D01*
X124481007Y-118700500D01*
X124618995Y-118700500D01*
X124710041Y-118682389D01*
X124754328Y-118673580D01*
X124881811Y-118620775D01*
X124996542Y-118544114D01*
X125008980Y-118531676D01*
X125023425Y-118517232D01*
X125094111Y-118446545D01*
X125094114Y-118446542D01*
X125170775Y-118331811D01*
X125223580Y-118204328D01*
X125237194Y-118135886D01*
X125250500Y-118068995D01*
X125250500Y-117931004D01*
X125223581Y-117795677D01*
X125223580Y-117795676D01*
X125223580Y-117795672D01*
X125186675Y-117706575D01*
X125170778Y-117668195D01*
X125170771Y-117668182D01*
X125094114Y-117553458D01*
X125094111Y-117553454D01*
X124996545Y-117455888D01*
X124996541Y-117455885D01*
X124881817Y-117379228D01*
X124881804Y-117379221D01*
X124754332Y-117326421D01*
X124754322Y-117326418D01*
X124618995Y-117299500D01*
X124618993Y-117299500D01*
X124481007Y-117299500D01*
X124481005Y-117299500D01*
X124345677Y-117326418D01*
X124345667Y-117326421D01*
X124218195Y-117379221D01*
X124218182Y-117379228D01*
X124103458Y-117455885D01*
X124103454Y-117455888D01*
X124005888Y-117553454D01*
X124005885Y-117553458D01*
X123929228Y-117668182D01*
X123929221Y-117668195D01*
X123876421Y-117795667D01*
X123876418Y-117795677D01*
X123849500Y-117931004D01*
X123849500Y-117931007D01*
X123849500Y-118068993D01*
X123849500Y-118068995D01*
X123849499Y-118068995D01*
X112128554Y-118068995D01*
X112098132Y-117995549D01*
X112098125Y-117995536D01*
X112096969Y-117993806D01*
X112021468Y-117880812D01*
X112021465Y-117880808D01*
X111923899Y-117783242D01*
X111923895Y-117783239D01*
X111809171Y-117706582D01*
X111809158Y-117706575D01*
X111681686Y-117653775D01*
X111681676Y-117653772D01*
X111546349Y-117626854D01*
X111546347Y-117626854D01*
X111408361Y-117626854D01*
X111408359Y-117626854D01*
X111273031Y-117653772D01*
X111273021Y-117653775D01*
X111145549Y-117706575D01*
X111145536Y-117706582D01*
X111030812Y-117783239D01*
X111030808Y-117783242D01*
X110933242Y-117880808D01*
X110933239Y-117880812D01*
X110856582Y-117995536D01*
X110856575Y-117995549D01*
X110803775Y-118123021D01*
X110803772Y-118123031D01*
X110776854Y-118258358D01*
X110776854Y-118258361D01*
X110776854Y-118396347D01*
X110776854Y-118396349D01*
X110776853Y-118396349D01*
X110803772Y-118531676D01*
X110803775Y-118531686D01*
X110854105Y-118653194D01*
X110855191Y-118663298D01*
X110860220Y-118672129D01*
X110858863Y-118697448D01*
X110861574Y-118722663D01*
X110857024Y-118731751D01*
X110856481Y-118741899D01*
X110841649Y-118762465D01*
X110830299Y-118785142D01*
X110821558Y-118790328D01*
X110815614Y-118798571D01*
X110792016Y-118807855D01*
X110770209Y-118820794D01*
X110758321Y-118821112D01*
X110750596Y-118824152D01*
X110715353Y-118822263D01*
X110650309Y-118809325D01*
X110588398Y-118776940D01*
X110553824Y-118716225D01*
X110550500Y-118687708D01*
X110550500Y-118631004D01*
X110523581Y-118495677D01*
X110523580Y-118495676D01*
X110523580Y-118495672D01*
X110521648Y-118491007D01*
X110470778Y-118368195D01*
X110470771Y-118368182D01*
X110394114Y-118253458D01*
X110394111Y-118253454D01*
X110296545Y-118155888D01*
X110296541Y-118155885D01*
X110181817Y-118079228D01*
X110181804Y-118079221D01*
X110054332Y-118026421D01*
X110054322Y-118026418D01*
X109918995Y-117999500D01*
X109918993Y-117999500D01*
X109781007Y-117999500D01*
X109781005Y-117999500D01*
X109645677Y-118026418D01*
X109645667Y-118026421D01*
X109518195Y-118079221D01*
X109518182Y-118079228D01*
X109403458Y-118155885D01*
X109403454Y-118155888D01*
X109305888Y-118253454D01*
X109305885Y-118253458D01*
X109229228Y-118368182D01*
X109229221Y-118368195D01*
X109176421Y-118495667D01*
X109176418Y-118495677D01*
X109149500Y-118631004D01*
X109149500Y-118631007D01*
X109149500Y-118768993D01*
X109149500Y-118768995D01*
X109149499Y-118768995D01*
X106371647Y-118768995D01*
X106373580Y-118764328D01*
X106391631Y-118673580D01*
X106400500Y-118628995D01*
X106400500Y-118491004D01*
X106373581Y-118355677D01*
X106373580Y-118355676D01*
X106373580Y-118355672D01*
X106363699Y-118331817D01*
X106320778Y-118228195D01*
X106320771Y-118228182D01*
X106244114Y-118113458D01*
X106244111Y-118113454D01*
X106146545Y-118015888D01*
X106146541Y-118015885D01*
X106031817Y-117939228D01*
X106031804Y-117939221D01*
X105904332Y-117886421D01*
X105904322Y-117886418D01*
X105768995Y-117859500D01*
X105768993Y-117859500D01*
X105631007Y-117859500D01*
X105631005Y-117859500D01*
X105495677Y-117886418D01*
X105495667Y-117886421D01*
X105368195Y-117939221D01*
X105368182Y-117939228D01*
X105253458Y-118015885D01*
X105253454Y-118015888D01*
X105155888Y-118113454D01*
X105155885Y-118113458D01*
X105079228Y-118228182D01*
X105079221Y-118228195D01*
X105026421Y-118355667D01*
X105026418Y-118355677D01*
X104999500Y-118491004D01*
X104999500Y-118491007D01*
X104999500Y-118628993D01*
X104999500Y-118628995D01*
X104999499Y-118628995D01*
X95516027Y-118628995D01*
X95516027Y-112868995D01*
X102499499Y-112868995D01*
X102526418Y-113004322D01*
X102526421Y-113004332D01*
X102579221Y-113131804D01*
X102579228Y-113131817D01*
X102655885Y-113246541D01*
X102655888Y-113246545D01*
X102753454Y-113344111D01*
X102753458Y-113344114D01*
X102868182Y-113420771D01*
X102868195Y-113420778D01*
X102995667Y-113473578D01*
X102995672Y-113473580D01*
X102995676Y-113473580D01*
X102995677Y-113473581D01*
X103131004Y-113500500D01*
X103131007Y-113500500D01*
X103268995Y-113500500D01*
X103360041Y-113482389D01*
X103404328Y-113473580D01*
X103531811Y-113420775D01*
X103609305Y-113368995D01*
X106749499Y-113368995D01*
X106776418Y-113504322D01*
X106776421Y-113504332D01*
X106829221Y-113631804D01*
X106829228Y-113631817D01*
X106905885Y-113746541D01*
X106905888Y-113746545D01*
X107003454Y-113844111D01*
X107003458Y-113844114D01*
X107118182Y-113920771D01*
X107118191Y-113920776D01*
X107129714Y-113925549D01*
X107184117Y-113969390D01*
X107206182Y-114035684D01*
X107188903Y-114103383D01*
X107185365Y-114108998D01*
X107179229Y-114118181D01*
X107179221Y-114118195D01*
X107126421Y-114245667D01*
X107126418Y-114245677D01*
X107099500Y-114381004D01*
X107099500Y-114381007D01*
X107099500Y-114518993D01*
X107099500Y-114518995D01*
X107099499Y-114518995D01*
X107126418Y-114654322D01*
X107126421Y-114654332D01*
X107179221Y-114781804D01*
X107179228Y-114781817D01*
X107255885Y-114896541D01*
X107255888Y-114896545D01*
X107353454Y-114994111D01*
X107353458Y-114994114D01*
X107468182Y-115070771D01*
X107468195Y-115070778D01*
X107595667Y-115123578D01*
X107595672Y-115123580D01*
X107595676Y-115123580D01*
X107595677Y-115123581D01*
X107731004Y-115150500D01*
X107731007Y-115150500D01*
X107868995Y-115150500D01*
X107960041Y-115132389D01*
X108004328Y-115123580D01*
X108131811Y-115070775D01*
X108246542Y-114994114D01*
X108344114Y-114896542D01*
X108420775Y-114781811D01*
X108467505Y-114668995D01*
X108749499Y-114668995D01*
X108776418Y-114804322D01*
X108776421Y-114804332D01*
X108829221Y-114931804D01*
X108829228Y-114931817D01*
X108905885Y-115046541D01*
X108905888Y-115046545D01*
X109003454Y-115144111D01*
X109003458Y-115144114D01*
X109118182Y-115220771D01*
X109118189Y-115220775D01*
X109157843Y-115237200D01*
X109212246Y-115281039D01*
X109234312Y-115347333D01*
X109226727Y-115389395D01*
X109228189Y-115389839D01*
X109226419Y-115395673D01*
X109199500Y-115531004D01*
X109199500Y-115531007D01*
X109199500Y-115668993D01*
X109199500Y-115668995D01*
X109199499Y-115668995D01*
X109226418Y-115804322D01*
X109226421Y-115804332D01*
X109279221Y-115931804D01*
X109279228Y-115931817D01*
X109355885Y-116046541D01*
X109355888Y-116046545D01*
X109453454Y-116144111D01*
X109453458Y-116144114D01*
X109568182Y-116220771D01*
X109568195Y-116220778D01*
X109695667Y-116273578D01*
X109695672Y-116273580D01*
X109695676Y-116273580D01*
X109695677Y-116273581D01*
X109831004Y-116300500D01*
X109831007Y-116300500D01*
X109968995Y-116300500D01*
X110060041Y-116282389D01*
X110104328Y-116273580D01*
X110231811Y-116220775D01*
X110346542Y-116144114D01*
X110444114Y-116046542D01*
X110513080Y-115943328D01*
X110566692Y-115898522D01*
X110636017Y-115889815D01*
X110699044Y-115919969D01*
X110730743Y-115964765D01*
X110779223Y-116081808D01*
X110779228Y-116081817D01*
X110855885Y-116196541D01*
X110855888Y-116196545D01*
X110953454Y-116294111D01*
X110953458Y-116294114D01*
X111068182Y-116370771D01*
X111068195Y-116370778D01*
X111195667Y-116423578D01*
X111195672Y-116423580D01*
X111195676Y-116423580D01*
X111195677Y-116423581D01*
X111331004Y-116450500D01*
X111331007Y-116450500D01*
X111468995Y-116450500D01*
X111560041Y-116432389D01*
X111604328Y-116423580D01*
X111731811Y-116370775D01*
X111846542Y-116294114D01*
X111944114Y-116196542D01*
X112020775Y-116081811D01*
X112073580Y-115954328D01*
X112100500Y-115818993D01*
X112100500Y-115681007D01*
X112100500Y-115681004D01*
X112073581Y-115545677D01*
X112073580Y-115545676D01*
X112073580Y-115545672D01*
X112067504Y-115531004D01*
X112020778Y-115418195D01*
X112020771Y-115418182D01*
X111987905Y-115368995D01*
X118149499Y-115368995D01*
X118176418Y-115504322D01*
X118176421Y-115504332D01*
X118229221Y-115631804D01*
X118229228Y-115631817D01*
X118305885Y-115746541D01*
X118305888Y-115746545D01*
X118403454Y-115844111D01*
X118403458Y-115844114D01*
X118518182Y-115920771D01*
X118518195Y-115920778D01*
X118645667Y-115973578D01*
X118645672Y-115973580D01*
X118645676Y-115973580D01*
X118645677Y-115973581D01*
X118781004Y-116000500D01*
X118781007Y-116000500D01*
X118918995Y-116000500D01*
X119010041Y-115982389D01*
X119054328Y-115973580D01*
X119181811Y-115920775D01*
X119296542Y-115844114D01*
X119394114Y-115746542D01*
X119470775Y-115631811D01*
X119523580Y-115504328D01*
X119545193Y-115395672D01*
X119550500Y-115368995D01*
X119550500Y-115231004D01*
X119523581Y-115095677D01*
X119523580Y-115095676D01*
X119523580Y-115095672D01*
X119513269Y-115070778D01*
X119470778Y-114968195D01*
X119470771Y-114968182D01*
X119394114Y-114853458D01*
X119394111Y-114853454D01*
X119296545Y-114755888D01*
X119296541Y-114755885D01*
X119181817Y-114679228D01*
X119181804Y-114679221D01*
X119054332Y-114626421D01*
X119054322Y-114626418D01*
X118918995Y-114599500D01*
X118918993Y-114599500D01*
X118781007Y-114599500D01*
X118781005Y-114599500D01*
X118645677Y-114626418D01*
X118645667Y-114626421D01*
X118518195Y-114679221D01*
X118518182Y-114679228D01*
X118403458Y-114755885D01*
X118403454Y-114755888D01*
X118305888Y-114853454D01*
X118305885Y-114853458D01*
X118229228Y-114968182D01*
X118229221Y-114968195D01*
X118176421Y-115095667D01*
X118176418Y-115095677D01*
X118149500Y-115231004D01*
X118149500Y-115231007D01*
X118149500Y-115368993D01*
X118149500Y-115368995D01*
X118149499Y-115368995D01*
X111987905Y-115368995D01*
X111944113Y-115303456D01*
X111846545Y-115205888D01*
X111846541Y-115205885D01*
X111731817Y-115129228D01*
X111731804Y-115129221D01*
X111604332Y-115076421D01*
X111604322Y-115076418D01*
X111468995Y-115049500D01*
X111468993Y-115049500D01*
X111331007Y-115049500D01*
X111331005Y-115049500D01*
X111195677Y-115076418D01*
X111195667Y-115076421D01*
X111068195Y-115129221D01*
X111068182Y-115129228D01*
X110953458Y-115205885D01*
X110953454Y-115205888D01*
X110855888Y-115303454D01*
X110786919Y-115406673D01*
X110733306Y-115451477D01*
X110663981Y-115460184D01*
X110600954Y-115430029D01*
X110569256Y-115385233D01*
X110520778Y-115268195D01*
X110520771Y-115268182D01*
X110444114Y-115153458D01*
X110444111Y-115153454D01*
X110346545Y-115055888D01*
X110346541Y-115055885D01*
X110231817Y-114979228D01*
X110231804Y-114979221D01*
X110192156Y-114962799D01*
X110137752Y-114918958D01*
X110115687Y-114852664D01*
X110116888Y-114830465D01*
X110119110Y-114815118D01*
X110123580Y-114804328D01*
X110150500Y-114668993D01*
X110150500Y-114598373D01*
X110151780Y-114589535D01*
X110162758Y-114565560D01*
X110170185Y-114540269D01*
X110177073Y-114534300D01*
X110180870Y-114526009D01*
X110203069Y-114511774D01*
X110222989Y-114494514D01*
X110232011Y-114493216D01*
X110239687Y-114488295D01*
X110266051Y-114488322D01*
X110292147Y-114484570D01*
X110302035Y-114488359D01*
X110309556Y-114488367D01*
X110320571Y-114495461D01*
X110343391Y-114504206D01*
X110368182Y-114520771D01*
X110368195Y-114520778D01*
X110476310Y-114565560D01*
X110495672Y-114573580D01*
X110495676Y-114573580D01*
X110495677Y-114573581D01*
X110631004Y-114600500D01*
X110631007Y-114600500D01*
X110768995Y-114600500D01*
X110867005Y-114581004D01*
X110904328Y-114573580D01*
X111031811Y-114520775D01*
X111139240Y-114448993D01*
X132082000Y-114448993D01*
X132108919Y-114584320D01*
X132108922Y-114584330D01*
X132161722Y-114711802D01*
X132161729Y-114711815D01*
X132238386Y-114826539D01*
X132238389Y-114826543D01*
X132335955Y-114924109D01*
X132335959Y-114924112D01*
X132450683Y-115000769D01*
X132450696Y-115000776D01*
X132568328Y-115049500D01*
X132578173Y-115053578D01*
X132578177Y-115053578D01*
X132578178Y-115053579D01*
X132713505Y-115080498D01*
X132713508Y-115080498D01*
X132851496Y-115080498D01*
X132942542Y-115062387D01*
X132986829Y-115053578D01*
X133114312Y-115000773D01*
X133229043Y-114924112D01*
X133326615Y-114826540D01*
X133398474Y-114718995D01*
X136449499Y-114718995D01*
X136476418Y-114854322D01*
X136476421Y-114854332D01*
X136529221Y-114981804D01*
X136529228Y-114981817D01*
X136605885Y-115096541D01*
X136605888Y-115096545D01*
X136703454Y-115194111D01*
X136703458Y-115194114D01*
X136818182Y-115270771D01*
X136818195Y-115270778D01*
X136945667Y-115323578D01*
X136945672Y-115323580D01*
X136945676Y-115323580D01*
X136945677Y-115323581D01*
X137081004Y-115350500D01*
X137081007Y-115350500D01*
X137218995Y-115350500D01*
X137310041Y-115332389D01*
X137354328Y-115323580D01*
X137481811Y-115270775D01*
X137581109Y-115204425D01*
X137647786Y-115183548D01*
X137715166Y-115202032D01*
X137718889Y-115204425D01*
X137818189Y-115270775D01*
X137818191Y-115270776D01*
X137818195Y-115270778D01*
X137945667Y-115323578D01*
X137945672Y-115323580D01*
X137945676Y-115323580D01*
X137945677Y-115323581D01*
X138081004Y-115350500D01*
X138081007Y-115350500D01*
X138218995Y-115350500D01*
X138310041Y-115332389D01*
X138354328Y-115323580D01*
X138481811Y-115270775D01*
X138596542Y-115194114D01*
X138694114Y-115096542D01*
X138770775Y-114981811D01*
X138823580Y-114854328D01*
X138833527Y-114804322D01*
X138850500Y-114718995D01*
X138850500Y-114581004D01*
X138823581Y-114445677D01*
X138823580Y-114445676D01*
X138823580Y-114445672D01*
X138822933Y-114444111D01*
X138770778Y-114318195D01*
X138770771Y-114318182D01*
X138694114Y-114203458D01*
X138694111Y-114203454D01*
X138596545Y-114105888D01*
X138596541Y-114105885D01*
X138481817Y-114029228D01*
X138481804Y-114029221D01*
X138354332Y-113976421D01*
X138354322Y-113976418D01*
X138218995Y-113949500D01*
X138218993Y-113949500D01*
X138081007Y-113949500D01*
X138081005Y-113949500D01*
X137945677Y-113976418D01*
X137945667Y-113976421D01*
X137818195Y-114029221D01*
X137818182Y-114029228D01*
X137718891Y-114095573D01*
X137652213Y-114116451D01*
X137584833Y-114097966D01*
X137581109Y-114095573D01*
X137481817Y-114029228D01*
X137481804Y-114029221D01*
X137354332Y-113976421D01*
X137354322Y-113976418D01*
X137218995Y-113949500D01*
X137218993Y-113949500D01*
X137081007Y-113949500D01*
X137081005Y-113949500D01*
X136945677Y-113976418D01*
X136945667Y-113976421D01*
X136818195Y-114029221D01*
X136818182Y-114029228D01*
X136703458Y-114105885D01*
X136703454Y-114105888D01*
X136605888Y-114203454D01*
X136605885Y-114203458D01*
X136529228Y-114318182D01*
X136529221Y-114318195D01*
X136476421Y-114445667D01*
X136476418Y-114445677D01*
X136449500Y-114581004D01*
X136449500Y-114581007D01*
X136449500Y-114718993D01*
X136449500Y-114718995D01*
X136449499Y-114718995D01*
X133398474Y-114718995D01*
X133403276Y-114711809D01*
X133456081Y-114584326D01*
X133483001Y-114448991D01*
X133483001Y-114311005D01*
X133483001Y-114311002D01*
X133456082Y-114175675D01*
X133456081Y-114175674D01*
X133456081Y-114175670D01*
X133432269Y-114118182D01*
X133403279Y-114048193D01*
X133403272Y-114048180D01*
X133326615Y-113933456D01*
X133326612Y-113933452D01*
X133229046Y-113835886D01*
X133229042Y-113835883D01*
X133114318Y-113759226D01*
X133114305Y-113759219D01*
X132986833Y-113706419D01*
X132986823Y-113706416D01*
X132851496Y-113679498D01*
X132851494Y-113679498D01*
X132713508Y-113679498D01*
X132713506Y-113679498D01*
X132578178Y-113706416D01*
X132578168Y-113706419D01*
X132450696Y-113759219D01*
X132450683Y-113759226D01*
X132335959Y-113835883D01*
X132335955Y-113835886D01*
X132238389Y-113933452D01*
X132238386Y-113933456D01*
X132161729Y-114048180D01*
X132161722Y-114048193D01*
X132108922Y-114175665D01*
X132108919Y-114175675D01*
X132082001Y-114311002D01*
X132082001Y-114311005D01*
X132082001Y-114448991D01*
X132082001Y-114448993D01*
X132082000Y-114448993D01*
X111139240Y-114448993D01*
X111146542Y-114444114D01*
X111244114Y-114346542D01*
X111296473Y-114268182D01*
X111317962Y-114236022D01*
X111320771Y-114231817D01*
X111320771Y-114231816D01*
X111320775Y-114231811D01*
X111373580Y-114104328D01*
X111387234Y-114035684D01*
X111400500Y-113968995D01*
X111400500Y-113831004D01*
X111373581Y-113695677D01*
X111373580Y-113695676D01*
X111373580Y-113695672D01*
X111353259Y-113646612D01*
X111320778Y-113568195D01*
X111320771Y-113568182D01*
X111244114Y-113453458D01*
X111244111Y-113453454D01*
X111146545Y-113355888D01*
X111146541Y-113355885D01*
X111031817Y-113279228D01*
X111031804Y-113279221D01*
X110904332Y-113226421D01*
X110904322Y-113226418D01*
X110768995Y-113199500D01*
X110768993Y-113199500D01*
X110631007Y-113199500D01*
X110631005Y-113199500D01*
X110495677Y-113226418D01*
X110495667Y-113226421D01*
X110368195Y-113279221D01*
X110368182Y-113279228D01*
X110253458Y-113355885D01*
X110253454Y-113355888D01*
X110155888Y-113453454D01*
X110155885Y-113453458D01*
X110079228Y-113568182D01*
X110079221Y-113568195D01*
X110026421Y-113695667D01*
X110026418Y-113695677D01*
X109999500Y-113831004D01*
X109999500Y-113892691D01*
X109979815Y-113959730D01*
X109927011Y-114005485D01*
X109857853Y-114015429D01*
X109806611Y-113995795D01*
X109781813Y-113979226D01*
X109781804Y-113979221D01*
X109654332Y-113926421D01*
X109654322Y-113926418D01*
X109518995Y-113899500D01*
X109518993Y-113899500D01*
X109381007Y-113899500D01*
X109381005Y-113899500D01*
X109245677Y-113926418D01*
X109245667Y-113926421D01*
X109118195Y-113979221D01*
X109118182Y-113979228D01*
X109003458Y-114055885D01*
X109003454Y-114055888D01*
X108905888Y-114153454D01*
X108905885Y-114153458D01*
X108829228Y-114268182D01*
X108829221Y-114268195D01*
X108776421Y-114395667D01*
X108776418Y-114395677D01*
X108749500Y-114531004D01*
X108749500Y-114531007D01*
X108749500Y-114668993D01*
X108749500Y-114668995D01*
X108749499Y-114668995D01*
X108467505Y-114668995D01*
X108473580Y-114654328D01*
X108494188Y-114550725D01*
X108500500Y-114518995D01*
X108500500Y-114381004D01*
X108473581Y-114245677D01*
X108473580Y-114245676D01*
X108473580Y-114245672D01*
X108467836Y-114231804D01*
X108420778Y-114118195D01*
X108420771Y-114118182D01*
X108344114Y-114003458D01*
X108344111Y-114003454D01*
X108246545Y-113905888D01*
X108246541Y-113905885D01*
X108131817Y-113829228D01*
X108131808Y-113829223D01*
X108120282Y-113824449D01*
X108065880Y-113780606D01*
X108043817Y-113714311D01*
X108061098Y-113646612D01*
X108064640Y-113640993D01*
X108070770Y-113631819D01*
X108070771Y-113631816D01*
X108070775Y-113631811D01*
X108123580Y-113504328D01*
X108150500Y-113368993D01*
X108150500Y-113287262D01*
X108170185Y-113220223D01*
X108222989Y-113174468D01*
X108292147Y-113164524D01*
X108343389Y-113184159D01*
X108398189Y-113220775D01*
X108398191Y-113220776D01*
X108398195Y-113220778D01*
X108525667Y-113273578D01*
X108525672Y-113273580D01*
X108525676Y-113273580D01*
X108525677Y-113273581D01*
X108661004Y-113300500D01*
X108661007Y-113300500D01*
X108798995Y-113300500D01*
X108890041Y-113282389D01*
X108934328Y-113273580D01*
X109061811Y-113220775D01*
X109176542Y-113144114D01*
X109274114Y-113046542D01*
X109350775Y-112931811D01*
X109403580Y-112804328D01*
X109430500Y-112668993D01*
X109430500Y-112531007D01*
X109430500Y-112531004D01*
X109403581Y-112395677D01*
X109403580Y-112395676D01*
X109403580Y-112395672D01*
X109403578Y-112395667D01*
X109350778Y-112268195D01*
X109350771Y-112268182D01*
X109274114Y-112153458D01*
X109274111Y-112153454D01*
X109176545Y-112055888D01*
X109176541Y-112055885D01*
X109061817Y-111979228D01*
X109061804Y-111979221D01*
X108934332Y-111926421D01*
X108934322Y-111926418D01*
X108798995Y-111899500D01*
X108798993Y-111899500D01*
X108661007Y-111899500D01*
X108661005Y-111899500D01*
X108525677Y-111926418D01*
X108525667Y-111926421D01*
X108398195Y-111979221D01*
X108398182Y-111979228D01*
X108283458Y-112055885D01*
X108283454Y-112055888D01*
X108185888Y-112153454D01*
X108185885Y-112153458D01*
X108109228Y-112268182D01*
X108109221Y-112268195D01*
X108056421Y-112395667D01*
X108056418Y-112395677D01*
X108029500Y-112531004D01*
X108029500Y-112612737D01*
X108009815Y-112679776D01*
X107957011Y-112725531D01*
X107887853Y-112735475D01*
X107836610Y-112715839D01*
X107781822Y-112679231D01*
X107781804Y-112679221D01*
X107654332Y-112626421D01*
X107654322Y-112626418D01*
X107518995Y-112599500D01*
X107518993Y-112599500D01*
X107381007Y-112599500D01*
X107381005Y-112599500D01*
X107245677Y-112626418D01*
X107245667Y-112626421D01*
X107118195Y-112679221D01*
X107118182Y-112679228D01*
X107003458Y-112755885D01*
X107003454Y-112755888D01*
X106905888Y-112853454D01*
X106905885Y-112853458D01*
X106829228Y-112968182D01*
X106829221Y-112968195D01*
X106776421Y-113095667D01*
X106776418Y-113095677D01*
X106749500Y-113231004D01*
X106749500Y-113231007D01*
X106749500Y-113368993D01*
X106749500Y-113368995D01*
X106749499Y-113368995D01*
X103609305Y-113368995D01*
X103646542Y-113344114D01*
X103744114Y-113246542D01*
X103775547Y-113199500D01*
X103804597Y-113156024D01*
X103820771Y-113131817D01*
X103820771Y-113131816D01*
X103820775Y-113131811D01*
X103873580Y-113004328D01*
X103882389Y-112960041D01*
X103900500Y-112868995D01*
X103900500Y-112731004D01*
X103873581Y-112595677D01*
X103873580Y-112595676D01*
X103873580Y-112595672D01*
X103864429Y-112573580D01*
X103820778Y-112468195D01*
X103820771Y-112468182D01*
X103744114Y-112353458D01*
X103744111Y-112353454D01*
X103646545Y-112255888D01*
X103646541Y-112255885D01*
X103531817Y-112179228D01*
X103531804Y-112179221D01*
X103404332Y-112126421D01*
X103404322Y-112126418D01*
X103268995Y-112099500D01*
X103268993Y-112099500D01*
X103131007Y-112099500D01*
X103131005Y-112099500D01*
X102995677Y-112126418D01*
X102995667Y-112126421D01*
X102868195Y-112179221D01*
X102868182Y-112179228D01*
X102753458Y-112255885D01*
X102753454Y-112255888D01*
X102655888Y-112353454D01*
X102655885Y-112353458D01*
X102579228Y-112468182D01*
X102579221Y-112468195D01*
X102526421Y-112595667D01*
X102526418Y-112595677D01*
X102499500Y-112731004D01*
X102499500Y-112731007D01*
X102499500Y-112868993D01*
X102499500Y-112868995D01*
X102499499Y-112868995D01*
X95516027Y-112868995D01*
X95516027Y-111868995D01*
X111804499Y-111868995D01*
X111831418Y-112004322D01*
X111831421Y-112004332D01*
X111884221Y-112131804D01*
X111884228Y-112131817D01*
X111960885Y-112246541D01*
X111960888Y-112246545D01*
X112058454Y-112344111D01*
X112058458Y-112344114D01*
X112173182Y-112420771D01*
X112173195Y-112420778D01*
X112287640Y-112468182D01*
X112300672Y-112473580D01*
X112300676Y-112473580D01*
X112300677Y-112473581D01*
X112436004Y-112500500D01*
X112436007Y-112500500D01*
X112573995Y-112500500D01*
X112665041Y-112482389D01*
X112709328Y-112473580D01*
X112836811Y-112420775D01*
X112951542Y-112344114D01*
X113049114Y-112246542D01*
X113125775Y-112131811D01*
X113178580Y-112004328D01*
X113194077Y-111926420D01*
X113205500Y-111868995D01*
X113205500Y-111731004D01*
X113178581Y-111595677D01*
X113178580Y-111595676D01*
X113178580Y-111595672D01*
X113177714Y-111593581D01*
X113125778Y-111468195D01*
X113125771Y-111468182D01*
X113049114Y-111353458D01*
X113049111Y-111353454D01*
X112951545Y-111255888D01*
X112951541Y-111255885D01*
X112836817Y-111179228D01*
X112836804Y-111179221D01*
X112709332Y-111126421D01*
X112709322Y-111126418D01*
X112573995Y-111099500D01*
X112573993Y-111099500D01*
X112436007Y-111099500D01*
X112436005Y-111099500D01*
X112300677Y-111126418D01*
X112300667Y-111126421D01*
X112173195Y-111179221D01*
X112173182Y-111179228D01*
X112058458Y-111255885D01*
X112058454Y-111255888D01*
X111960888Y-111353454D01*
X111960885Y-111353458D01*
X111884228Y-111468182D01*
X111884221Y-111468195D01*
X111831421Y-111595667D01*
X111831418Y-111595677D01*
X111804500Y-111731004D01*
X111804500Y-111731007D01*
X111804500Y-111868993D01*
X111804500Y-111868995D01*
X111804499Y-111868995D01*
X95516027Y-111868995D01*
X95516027Y-110988995D01*
X115149499Y-110988995D01*
X115176418Y-111124322D01*
X115176421Y-111124332D01*
X115229221Y-111251804D01*
X115229228Y-111251817D01*
X115305885Y-111366541D01*
X115305888Y-111366545D01*
X115403454Y-111464111D01*
X115403458Y-111464114D01*
X115518182Y-111540771D01*
X115518195Y-111540778D01*
X115645667Y-111593578D01*
X115645672Y-111593580D01*
X115645676Y-111593580D01*
X115645677Y-111593581D01*
X115781004Y-111620500D01*
X115781007Y-111620500D01*
X115918995Y-111620500D01*
X116010041Y-111602389D01*
X116054328Y-111593580D01*
X116181811Y-111540775D01*
X116296542Y-111464114D01*
X116394114Y-111366542D01*
X116470775Y-111251811D01*
X116523580Y-111124328D01*
X116532389Y-111080041D01*
X116550500Y-110988995D01*
X116550500Y-110895996D01*
X116570185Y-110828957D01*
X116622989Y-110783202D01*
X116650310Y-110774379D01*
X116654328Y-110773580D01*
X116781811Y-110720775D01*
X116859305Y-110668995D01*
X133724499Y-110668995D01*
X133751418Y-110804322D01*
X133751421Y-110804332D01*
X133802458Y-110927548D01*
X133809927Y-110997018D01*
X133802458Y-111022452D01*
X133751421Y-111145667D01*
X133751418Y-111145677D01*
X133724500Y-111281004D01*
X133724500Y-111281007D01*
X133724500Y-111418993D01*
X133724500Y-111418995D01*
X133724499Y-111418995D01*
X133751418Y-111554322D01*
X133751421Y-111554332D01*
X133804221Y-111681804D01*
X133804228Y-111681817D01*
X133880885Y-111796541D01*
X133880888Y-111796545D01*
X133978454Y-111894111D01*
X133978458Y-111894114D01*
X134093182Y-111970771D01*
X134093195Y-111970778D01*
X134220667Y-112023578D01*
X134220672Y-112023580D01*
X134220676Y-112023580D01*
X134220677Y-112023581D01*
X134356004Y-112050500D01*
X134356007Y-112050500D01*
X134493995Y-112050500D01*
X134585041Y-112032389D01*
X134629328Y-112023580D01*
X134677768Y-112003515D01*
X134762440Y-111968444D01*
X134763228Y-111970347D01*
X134822413Y-111958007D01*
X134862061Y-111969648D01*
X134862560Y-111968444D01*
X134995667Y-112023578D01*
X134995672Y-112023580D01*
X134995676Y-112023580D01*
X134995677Y-112023581D01*
X135131004Y-112050500D01*
X135131007Y-112050500D01*
X135268995Y-112050500D01*
X135360041Y-112032389D01*
X135404328Y-112023580D01*
X135452768Y-112003515D01*
X135537440Y-111968444D01*
X135538228Y-111970347D01*
X135597413Y-111958007D01*
X135637061Y-111969648D01*
X135637560Y-111968444D01*
X135770667Y-112023578D01*
X135770672Y-112023580D01*
X135770676Y-112023580D01*
X135770677Y-112023581D01*
X135906004Y-112050500D01*
X135906007Y-112050500D01*
X136043995Y-112050500D01*
X136135041Y-112032389D01*
X136179328Y-112023580D01*
X136286411Y-111979225D01*
X136306804Y-111970778D01*
X136306804Y-111970777D01*
X136306811Y-111970775D01*
X136309475Y-111968995D01*
X138099499Y-111968995D01*
X138126418Y-112104322D01*
X138126421Y-112104332D01*
X138179221Y-112231804D01*
X138179228Y-112231817D01*
X138255885Y-112346541D01*
X138255888Y-112346545D01*
X138353454Y-112444111D01*
X138353458Y-112444114D01*
X138468182Y-112520771D01*
X138468195Y-112520778D01*
X138595667Y-112573578D01*
X138595672Y-112573580D01*
X138595676Y-112573580D01*
X138595677Y-112573581D01*
X138731004Y-112600500D01*
X138731007Y-112600500D01*
X138868995Y-112600500D01*
X138960041Y-112582389D01*
X139004328Y-112573580D01*
X139131811Y-112520775D01*
X139246542Y-112444114D01*
X139344114Y-112346542D01*
X139420775Y-112231811D01*
X139473580Y-112104328D01*
X139493471Y-112004332D01*
X139500500Y-111968995D01*
X139500500Y-111831004D01*
X139473581Y-111695677D01*
X139473580Y-111695676D01*
X139473580Y-111695672D01*
X139431293Y-111593581D01*
X139420778Y-111568195D01*
X139420771Y-111568182D01*
X139344114Y-111453458D01*
X139344111Y-111453454D01*
X139246545Y-111355888D01*
X139246541Y-111355885D01*
X139131817Y-111279228D01*
X139131804Y-111279221D01*
X139004332Y-111226421D01*
X139004322Y-111226418D01*
X138868995Y-111199500D01*
X138868993Y-111199500D01*
X138731007Y-111199500D01*
X138731005Y-111199500D01*
X138595677Y-111226418D01*
X138595667Y-111226421D01*
X138468195Y-111279221D01*
X138468182Y-111279228D01*
X138353458Y-111355885D01*
X138353454Y-111355888D01*
X138255888Y-111453454D01*
X138255885Y-111453458D01*
X138179228Y-111568182D01*
X138179221Y-111568195D01*
X138126421Y-111695667D01*
X138126418Y-111695677D01*
X138099500Y-111831004D01*
X138099500Y-111831007D01*
X138099500Y-111968993D01*
X138099500Y-111968995D01*
X138099499Y-111968995D01*
X136309475Y-111968995D01*
X136421542Y-111894114D01*
X136519114Y-111796542D01*
X136532647Y-111776287D01*
X136546188Y-111756024D01*
X136595771Y-111681817D01*
X136595771Y-111681816D01*
X136595775Y-111681811D01*
X136648580Y-111554328D01*
X136666525Y-111464114D01*
X136675500Y-111418995D01*
X136675500Y-111281004D01*
X136648581Y-111145677D01*
X136648580Y-111145676D01*
X136648580Y-111145672D01*
X136597540Y-111022452D01*
X136590072Y-110952983D01*
X136597541Y-110927547D01*
X136610610Y-110895996D01*
X136648580Y-110804328D01*
X136675500Y-110668993D01*
X136675500Y-110531007D01*
X136675500Y-110531004D01*
X136648581Y-110395677D01*
X136648580Y-110395676D01*
X136648580Y-110395672D01*
X136640385Y-110375888D01*
X136595778Y-110268195D01*
X136595771Y-110268182D01*
X136519114Y-110153458D01*
X136519111Y-110153454D01*
X136421545Y-110055888D01*
X136421541Y-110055885D01*
X136306817Y-109979228D01*
X136306804Y-109979221D01*
X136179332Y-109926421D01*
X136179322Y-109926418D01*
X136043995Y-109899500D01*
X136043993Y-109899500D01*
X135906007Y-109899500D01*
X135848960Y-109910847D01*
X135779369Y-109904618D01*
X135724192Y-109861755D01*
X135700948Y-109795865D01*
X135717016Y-109727868D01*
X135721658Y-109720351D01*
X135760776Y-109661809D01*
X135813581Y-109534326D01*
X135835045Y-109426420D01*
X135840501Y-109398993D01*
X135840501Y-109261002D01*
X135813582Y-109125675D01*
X135813581Y-109125674D01*
X135813581Y-109125670D01*
X135813579Y-109125665D01*
X135760779Y-108998193D01*
X135760772Y-108998180D01*
X135684115Y-108883456D01*
X135684112Y-108883452D01*
X135586546Y-108785886D01*
X135586542Y-108785883D01*
X135471818Y-108709226D01*
X135471808Y-108709221D01*
X135367225Y-108665901D01*
X135312822Y-108622060D01*
X135290757Y-108555765D01*
X135308036Y-108488066D01*
X135326993Y-108463662D01*
X135331662Y-108458993D01*
X139259499Y-108458993D01*
X139286418Y-108594320D01*
X139286421Y-108594330D01*
X139339221Y-108721802D01*
X139339228Y-108721815D01*
X139415885Y-108836539D01*
X139415888Y-108836543D01*
X139513454Y-108934109D01*
X139513458Y-108934112D01*
X139628182Y-109010769D01*
X139628195Y-109010776D01*
X139733326Y-109054322D01*
X139755672Y-109063578D01*
X139755676Y-109063578D01*
X139755677Y-109063579D01*
X139891004Y-109090498D01*
X139891007Y-109090498D01*
X140028995Y-109090498D01*
X140120041Y-109072387D01*
X140164328Y-109063578D01*
X140291811Y-109010773D01*
X140406542Y-108934112D01*
X140504114Y-108836540D01*
X140580775Y-108721809D01*
X140633580Y-108594326D01*
X140658446Y-108469317D01*
X140660500Y-108458993D01*
X140660500Y-108321002D01*
X140633581Y-108185675D01*
X140633580Y-108185674D01*
X140633580Y-108185670D01*
X140633578Y-108185665D01*
X140580778Y-108058193D01*
X140580771Y-108058180D01*
X140504114Y-107943456D01*
X140504111Y-107943452D01*
X140406545Y-107845886D01*
X140406541Y-107845883D01*
X140291817Y-107769226D01*
X140291804Y-107769219D01*
X140164332Y-107716419D01*
X140164322Y-107716416D01*
X140028995Y-107689498D01*
X140028993Y-107689498D01*
X139891007Y-107689498D01*
X139891005Y-107689498D01*
X139755677Y-107716416D01*
X139755667Y-107716419D01*
X139628195Y-107769219D01*
X139628182Y-107769226D01*
X139513458Y-107845883D01*
X139513454Y-107845886D01*
X139415888Y-107943452D01*
X139415885Y-107943456D01*
X139339228Y-108058180D01*
X139339221Y-108058193D01*
X139286421Y-108185665D01*
X139286418Y-108185675D01*
X139259500Y-108321002D01*
X139259500Y-108321005D01*
X139259500Y-108458991D01*
X139259500Y-108458993D01*
X139259499Y-108458993D01*
X135331662Y-108458993D01*
X135394114Y-108396542D01*
X135470775Y-108281811D01*
X135523580Y-108154328D01*
X135545020Y-108046542D01*
X135550500Y-108018995D01*
X135550500Y-107881004D01*
X135523581Y-107745677D01*
X135523580Y-107745676D01*
X135523580Y-107745672D01*
X135500312Y-107689498D01*
X135470778Y-107618195D01*
X135470771Y-107618182D01*
X135394114Y-107503458D01*
X135394111Y-107503454D01*
X135296545Y-107405888D01*
X135296541Y-107405885D01*
X135181817Y-107329228D01*
X135181804Y-107329221D01*
X135054332Y-107276421D01*
X135054322Y-107276418D01*
X134918995Y-107249500D01*
X134918993Y-107249500D01*
X134781007Y-107249500D01*
X134781005Y-107249500D01*
X134645677Y-107276418D01*
X134645667Y-107276421D01*
X134518195Y-107329221D01*
X134518182Y-107329228D01*
X134403458Y-107405885D01*
X134403454Y-107405888D01*
X134305888Y-107503454D01*
X134305885Y-107503458D01*
X134229228Y-107618182D01*
X134229221Y-107618195D01*
X134176421Y-107745667D01*
X134176418Y-107745677D01*
X134149500Y-107881004D01*
X134149500Y-107881007D01*
X134149500Y-108018993D01*
X134149500Y-108018995D01*
X134149499Y-108018995D01*
X134176418Y-108154322D01*
X134176421Y-108154332D01*
X134229221Y-108281804D01*
X134229228Y-108281817D01*
X134305885Y-108396541D01*
X134305888Y-108396545D01*
X134403454Y-108494111D01*
X134403458Y-108494114D01*
X134518182Y-108570771D01*
X134518191Y-108570776D01*
X134622775Y-108614096D01*
X134677178Y-108657937D01*
X134699243Y-108724231D01*
X134681964Y-108791930D01*
X134663004Y-108816338D01*
X134595886Y-108883456D01*
X134519229Y-108998180D01*
X134519222Y-108998193D01*
X134466422Y-109125665D01*
X134466419Y-109125675D01*
X134439501Y-109261002D01*
X134439501Y-109261005D01*
X134439501Y-109398991D01*
X134439501Y-109398993D01*
X134439500Y-109398993D01*
X134466419Y-109534320D01*
X134466422Y-109534330D01*
X134519222Y-109661802D01*
X134519229Y-109661815D01*
X134549160Y-109706609D01*
X134570038Y-109773286D01*
X134551554Y-109840666D01*
X134499575Y-109887357D01*
X134446058Y-109899500D01*
X134356005Y-109899500D01*
X134220677Y-109926418D01*
X134220667Y-109926421D01*
X134093195Y-109979221D01*
X134093182Y-109979228D01*
X133978458Y-110055885D01*
X133978454Y-110055888D01*
X133880888Y-110153454D01*
X133880885Y-110153458D01*
X133804228Y-110268182D01*
X133804221Y-110268195D01*
X133751421Y-110395667D01*
X133751418Y-110395677D01*
X133724500Y-110531004D01*
X133724500Y-110531007D01*
X133724500Y-110668993D01*
X133724500Y-110668995D01*
X133724499Y-110668995D01*
X116859305Y-110668995D01*
X116896542Y-110644114D01*
X116994114Y-110546542D01*
X117070775Y-110431811D01*
X117123580Y-110304328D01*
X117145020Y-110196542D01*
X117150500Y-110168995D01*
X117150500Y-110031004D01*
X117123581Y-109895677D01*
X117123580Y-109895676D01*
X117123580Y-109895672D01*
X117100796Y-109840666D01*
X117070778Y-109768195D01*
X117070771Y-109768182D01*
X116994114Y-109653458D01*
X116994111Y-109653454D01*
X116896545Y-109555888D01*
X116896541Y-109555885D01*
X116781817Y-109479228D01*
X116781804Y-109479221D01*
X116654332Y-109426421D01*
X116654322Y-109426418D01*
X116518995Y-109399500D01*
X116518993Y-109399500D01*
X116381007Y-109399500D01*
X116381005Y-109399500D01*
X116245677Y-109426418D01*
X116245667Y-109426421D01*
X116118195Y-109479221D01*
X116118182Y-109479228D01*
X116003458Y-109555885D01*
X116003454Y-109555888D01*
X115905888Y-109653454D01*
X115905885Y-109653458D01*
X115829228Y-109768182D01*
X115829221Y-109768195D01*
X115776421Y-109895667D01*
X115776418Y-109895677D01*
X115749500Y-110031004D01*
X115749500Y-110124003D01*
X115729815Y-110191042D01*
X115677011Y-110236797D01*
X115649692Y-110245620D01*
X115645677Y-110246418D01*
X115645667Y-110246421D01*
X115518195Y-110299221D01*
X115518182Y-110299228D01*
X115403458Y-110375885D01*
X115403454Y-110375888D01*
X115305888Y-110473454D01*
X115305885Y-110473458D01*
X115229228Y-110588182D01*
X115229221Y-110588195D01*
X115176421Y-110715667D01*
X115176418Y-110715677D01*
X115149500Y-110851004D01*
X115149500Y-110851007D01*
X115149500Y-110988993D01*
X115149500Y-110988995D01*
X115149499Y-110988995D01*
X95516027Y-110988995D01*
X95516027Y-108206495D01*
X103611999Y-108206495D01*
X103638918Y-108341822D01*
X103638921Y-108341832D01*
X103691721Y-108469304D01*
X103691728Y-108469317D01*
X103768385Y-108584041D01*
X103768388Y-108584045D01*
X103865954Y-108681611D01*
X103865958Y-108681614D01*
X103980682Y-108758271D01*
X103980695Y-108758278D01*
X104108167Y-108811078D01*
X104108172Y-108811080D01*
X104108176Y-108811080D01*
X104108177Y-108811081D01*
X104243504Y-108838000D01*
X104243507Y-108838000D01*
X104381495Y-108838000D01*
X104490394Y-108816338D01*
X104516828Y-108811080D01*
X104644311Y-108758275D01*
X104759042Y-108681614D01*
X104856614Y-108584042D01*
X104933275Y-108469311D01*
X104934992Y-108465167D01*
X104962901Y-108397787D01*
X104986080Y-108341828D01*
X104999655Y-108273581D01*
X105013000Y-108206495D01*
X105013000Y-108068504D01*
X104986081Y-107933177D01*
X104986080Y-107933176D01*
X104986080Y-107933172D01*
X104964473Y-107881007D01*
X104933278Y-107805695D01*
X104933271Y-107805682D01*
X104856614Y-107690958D01*
X104856611Y-107690954D01*
X104834652Y-107668995D01*
X109174499Y-107668995D01*
X109201418Y-107804322D01*
X109201421Y-107804332D01*
X109254221Y-107931804D01*
X109254228Y-107931817D01*
X109330885Y-108046541D01*
X109330888Y-108046545D01*
X109428454Y-108144111D01*
X109428458Y-108144114D01*
X109543182Y-108220771D01*
X109543195Y-108220778D01*
X109655904Y-108267463D01*
X109670672Y-108273580D01*
X109670676Y-108273580D01*
X109670677Y-108273581D01*
X109806004Y-108300500D01*
X109806007Y-108300500D01*
X109943995Y-108300500D01*
X110037983Y-108281804D01*
X110079328Y-108273580D01*
X110206811Y-108220775D01*
X110321542Y-108144114D01*
X110419114Y-108046542D01*
X110495775Y-107931811D01*
X110548580Y-107804328D01*
X110557389Y-107760041D01*
X110575500Y-107668995D01*
X110575500Y-107531004D01*
X110548581Y-107395677D01*
X110548580Y-107395676D01*
X110548580Y-107395672D01*
X110542836Y-107381804D01*
X110495778Y-107268195D01*
X110495771Y-107268182D01*
X110462905Y-107218995D01*
X114499499Y-107218995D01*
X114526418Y-107354322D01*
X114526421Y-107354332D01*
X114579221Y-107481804D01*
X114579228Y-107481817D01*
X114655885Y-107596541D01*
X114655888Y-107596545D01*
X114753454Y-107694111D01*
X114753458Y-107694114D01*
X114868182Y-107770771D01*
X114868195Y-107770778D01*
X114995667Y-107823578D01*
X114995672Y-107823580D01*
X114995676Y-107823580D01*
X114995677Y-107823581D01*
X115131004Y-107850500D01*
X115131007Y-107850500D01*
X115268995Y-107850500D01*
X115360041Y-107832389D01*
X115404328Y-107823580D01*
X115531811Y-107770775D01*
X115646542Y-107694114D01*
X115744114Y-107596542D01*
X115820775Y-107481811D01*
X115828187Y-107463918D01*
X115841777Y-107431108D01*
X115873580Y-107354328D01*
X115889077Y-107276420D01*
X115900500Y-107218995D01*
X115900500Y-107081004D01*
X115873581Y-106945677D01*
X115873580Y-106945676D01*
X115873580Y-106945672D01*
X115854455Y-106899500D01*
X115820778Y-106818195D01*
X115820771Y-106818182D01*
X115744114Y-106703458D01*
X115744111Y-106703454D01*
X115646545Y-106605888D01*
X115646541Y-106605885D01*
X115531817Y-106529228D01*
X115531804Y-106529221D01*
X115404332Y-106476421D01*
X115404322Y-106476418D01*
X115268995Y-106449500D01*
X115268993Y-106449500D01*
X115131007Y-106449500D01*
X115131005Y-106449500D01*
X114995677Y-106476418D01*
X114995667Y-106476421D01*
X114868195Y-106529221D01*
X114868182Y-106529228D01*
X114753458Y-106605885D01*
X114753454Y-106605888D01*
X114655888Y-106703454D01*
X114655885Y-106703458D01*
X114579228Y-106818182D01*
X114579221Y-106818195D01*
X114526421Y-106945667D01*
X114526418Y-106945677D01*
X114499500Y-107081004D01*
X114499500Y-107081007D01*
X114499500Y-107218993D01*
X114499500Y-107218995D01*
X114499499Y-107218995D01*
X110462905Y-107218995D01*
X110419113Y-107153456D01*
X110321545Y-107055888D01*
X110321541Y-107055885D01*
X110206817Y-106979228D01*
X110206804Y-106979221D01*
X110079332Y-106926421D01*
X110079322Y-106926418D01*
X109943995Y-106899500D01*
X109943993Y-106899500D01*
X109806007Y-106899500D01*
X109806005Y-106899500D01*
X109670677Y-106926418D01*
X109670667Y-106926421D01*
X109543195Y-106979221D01*
X109543182Y-106979228D01*
X109428458Y-107055885D01*
X109428454Y-107055888D01*
X109330888Y-107153454D01*
X109330885Y-107153458D01*
X109254228Y-107268182D01*
X109254221Y-107268195D01*
X109201421Y-107395667D01*
X109201418Y-107395677D01*
X109174500Y-107531004D01*
X109174500Y-107531007D01*
X109174500Y-107668993D01*
X109174500Y-107668995D01*
X109174499Y-107668995D01*
X104834652Y-107668995D01*
X104759045Y-107593388D01*
X104759041Y-107593385D01*
X104644317Y-107516728D01*
X104644304Y-107516721D01*
X104516832Y-107463921D01*
X104516822Y-107463918D01*
X104381495Y-107437000D01*
X104381493Y-107437000D01*
X104243507Y-107437000D01*
X104243505Y-107437000D01*
X104108177Y-107463918D01*
X104108167Y-107463921D01*
X103980695Y-107516721D01*
X103980682Y-107516728D01*
X103865958Y-107593385D01*
X103865954Y-107593388D01*
X103768388Y-107690954D01*
X103768385Y-107690958D01*
X103691728Y-107805682D01*
X103691721Y-107805695D01*
X103638921Y-107933167D01*
X103638918Y-107933177D01*
X103612000Y-108068504D01*
X103612000Y-108068507D01*
X103612000Y-108206493D01*
X103612000Y-108206495D01*
X103611999Y-108206495D01*
X95516027Y-108206495D01*
X95516027Y-103818995D01*
X107099499Y-103818995D01*
X107126418Y-103954322D01*
X107126421Y-103954332D01*
X107179221Y-104081804D01*
X107179228Y-104081817D01*
X107255885Y-104196541D01*
X107255888Y-104196545D01*
X107353454Y-104294111D01*
X107353458Y-104294114D01*
X107468182Y-104370771D01*
X107468195Y-104370778D01*
X107592106Y-104422103D01*
X107595672Y-104423580D01*
X107595676Y-104423580D01*
X107595677Y-104423581D01*
X107731004Y-104450500D01*
X107731007Y-104450500D01*
X107868995Y-104450500D01*
X107960041Y-104432389D01*
X108004328Y-104423580D01*
X108131811Y-104370775D01*
X108246542Y-104294114D01*
X108344114Y-104196542D01*
X108420775Y-104081811D01*
X108421128Y-104080960D01*
X108468649Y-103966232D01*
X108473580Y-103954328D01*
X108484287Y-103900500D01*
X108500500Y-103818995D01*
X108500500Y-103681004D01*
X108473581Y-103545677D01*
X108473580Y-103545676D01*
X108473580Y-103545672D01*
X108467836Y-103531804D01*
X108420778Y-103418195D01*
X108420771Y-103418182D01*
X108344114Y-103303458D01*
X108344111Y-103303454D01*
X108309652Y-103268995D01*
X114849499Y-103268995D01*
X114876418Y-103404322D01*
X114876421Y-103404332D01*
X114929221Y-103531804D01*
X114929228Y-103531817D01*
X115005885Y-103646541D01*
X115005888Y-103646545D01*
X115103454Y-103744111D01*
X115103458Y-103744114D01*
X115218182Y-103820771D01*
X115218195Y-103820778D01*
X115261577Y-103838747D01*
X115345672Y-103873580D01*
X115345676Y-103873580D01*
X115345677Y-103873581D01*
X115481004Y-103900500D01*
X115481007Y-103900500D01*
X115618995Y-103900500D01*
X115710041Y-103882389D01*
X115754328Y-103873580D01*
X115881811Y-103820775D01*
X115996542Y-103744114D01*
X116094114Y-103646542D01*
X116170775Y-103531811D01*
X116223580Y-103404328D01*
X116248996Y-103276553D01*
X116281380Y-103214643D01*
X116282873Y-103213123D01*
X118674679Y-100821319D01*
X118736002Y-100787834D01*
X118762360Y-100785000D01*
X120669640Y-100785000D01*
X120736679Y-100804685D01*
X120782434Y-100857489D01*
X120792378Y-100926647D01*
X120763353Y-100990203D01*
X120757321Y-100996681D01*
X118927895Y-102826106D01*
X118927894Y-102826107D01*
X118926099Y-102829218D01*
X118926095Y-102829225D01*
X118858448Y-102946392D01*
X118841541Y-103009491D01*
X118823608Y-103076420D01*
X118821905Y-103082774D01*
X118789811Y-103138362D01*
X118740303Y-103187869D01*
X118740300Y-103187873D01*
X118663643Y-103302597D01*
X118663636Y-103302610D01*
X118610836Y-103430082D01*
X118610833Y-103430092D01*
X118583915Y-103565419D01*
X118583915Y-103565422D01*
X118583915Y-103703408D01*
X118583915Y-103703410D01*
X118583914Y-103703410D01*
X118610833Y-103838737D01*
X118610836Y-103838747D01*
X118663636Y-103966219D01*
X118663643Y-103966232D01*
X118740300Y-104080956D01*
X118740303Y-104080960D01*
X118837869Y-104178526D01*
X118837873Y-104178529D01*
X118952597Y-104255186D01*
X118952610Y-104255193D01*
X119046575Y-104294114D01*
X119080087Y-104307995D01*
X119080091Y-104307995D01*
X119080092Y-104307996D01*
X119215419Y-104334915D01*
X119215422Y-104334915D01*
X119353410Y-104334915D01*
X119445352Y-104316626D01*
X119488743Y-104307995D01*
X119616226Y-104255190D01*
X119710434Y-104192241D01*
X119739128Y-104183257D01*
X119766999Y-104171958D01*
X119772129Y-104172923D01*
X119777111Y-104171364D01*
X119806107Y-104179318D01*
X119835663Y-104184881D01*
X119841287Y-104188969D01*
X119844491Y-104189848D01*
X119864502Y-104205228D01*
X119865779Y-104206435D01*
X119903458Y-104244114D01*
X119910913Y-104249095D01*
X119918505Y-104256271D01*
X119931048Y-104277779D01*
X119947017Y-104296881D01*
X119948344Y-104307435D01*
X119953704Y-104316626D01*
X119952627Y-104341502D01*
X119955734Y-104366205D01*
X119950808Y-104383557D01*
X119950684Y-104386431D01*
X119949527Y-104388070D01*
X119947890Y-104393837D01*
X119926420Y-104445672D01*
X119926419Y-104445675D01*
X119926419Y-104445676D01*
X119926418Y-104445677D01*
X119899500Y-104581004D01*
X119899500Y-104625500D01*
X119879815Y-104692539D01*
X119827011Y-104738294D01*
X119786881Y-104747023D01*
X119787067Y-104748903D01*
X119781004Y-104749499D01*
X119645677Y-104776418D01*
X119645667Y-104776421D01*
X119518195Y-104829221D01*
X119518182Y-104829228D01*
X119403458Y-104905885D01*
X119403454Y-104905888D01*
X119305888Y-105003454D01*
X119305885Y-105003458D01*
X119229228Y-105118182D01*
X119229221Y-105118195D01*
X119176421Y-105245667D01*
X119176418Y-105245677D01*
X119155774Y-105349461D01*
X119123389Y-105411372D01*
X119062673Y-105445946D01*
X118992903Y-105442205D01*
X118986706Y-105439831D01*
X118954328Y-105426420D01*
X118954322Y-105426418D01*
X118818995Y-105399500D01*
X118818993Y-105399500D01*
X118681007Y-105399500D01*
X118681005Y-105399500D01*
X118545677Y-105426418D01*
X118545667Y-105426421D01*
X118418195Y-105479221D01*
X118418182Y-105479228D01*
X118303458Y-105555885D01*
X118303454Y-105555888D01*
X118205888Y-105653454D01*
X118205885Y-105653458D01*
X118129228Y-105768182D01*
X118129221Y-105768195D01*
X118076421Y-105895667D01*
X118076418Y-105895677D01*
X118049500Y-106031004D01*
X118049500Y-106031007D01*
X118049500Y-106168993D01*
X118049500Y-106168995D01*
X118049499Y-106168995D01*
X118076418Y-106304322D01*
X118076421Y-106304332D01*
X118129221Y-106431804D01*
X118129228Y-106431817D01*
X118205885Y-106546541D01*
X118205888Y-106546545D01*
X118213507Y-106554164D01*
X118246992Y-106615487D01*
X118242008Y-106685179D01*
X118200136Y-106741112D01*
X118173278Y-106756406D01*
X118118195Y-106779221D01*
X118118182Y-106779228D01*
X118003458Y-106855885D01*
X118003454Y-106855888D01*
X117905888Y-106953454D01*
X117905885Y-106953458D01*
X117829228Y-107068182D01*
X117829221Y-107068195D01*
X117776421Y-107195667D01*
X117776418Y-107195677D01*
X117749500Y-107331004D01*
X117749500Y-107331007D01*
X117749500Y-107468993D01*
X117749500Y-107468995D01*
X117749499Y-107468995D01*
X117776418Y-107604322D01*
X117776421Y-107604332D01*
X117829221Y-107731804D01*
X117829228Y-107731817D01*
X117905885Y-107846541D01*
X117905888Y-107846545D01*
X118003454Y-107944111D01*
X118003458Y-107944114D01*
X118118182Y-108020771D01*
X118118195Y-108020778D01*
X118234598Y-108068993D01*
X118245672Y-108073580D01*
X118301796Y-108084743D01*
X118379667Y-108100234D01*
X118441578Y-108132619D01*
X118476152Y-108193335D01*
X118477093Y-108197658D01*
X118478418Y-108204323D01*
X118478421Y-108204332D01*
X118531221Y-108331804D01*
X118531228Y-108331817D01*
X118607885Y-108446541D01*
X118607888Y-108446545D01*
X118705454Y-108544111D01*
X118705458Y-108544114D01*
X118820182Y-108620771D01*
X118820195Y-108620778D01*
X118906239Y-108656418D01*
X118947672Y-108673580D01*
X118947676Y-108673580D01*
X118947677Y-108673581D01*
X119083004Y-108700500D01*
X119083007Y-108700500D01*
X119220995Y-108700500D01*
X119315954Y-108681611D01*
X119356328Y-108673580D01*
X119483811Y-108620775D01*
X119598542Y-108544114D01*
X119696114Y-108446542D01*
X119772775Y-108331811D01*
X119825580Y-108204328D01*
X119846286Y-108100234D01*
X119852500Y-108068995D01*
X119852500Y-107931004D01*
X119825581Y-107795677D01*
X119825580Y-107795676D01*
X119825580Y-107795672D01*
X119815269Y-107770778D01*
X119772778Y-107668195D01*
X119772771Y-107668182D01*
X119696114Y-107553458D01*
X119696111Y-107553454D01*
X119675726Y-107533069D01*
X119642241Y-107471746D01*
X119647225Y-107402054D01*
X119689097Y-107346121D01*
X119694516Y-107342286D01*
X119720757Y-107324751D01*
X119796542Y-107274114D01*
X119894114Y-107176542D01*
X119970775Y-107061811D01*
X120023580Y-106934328D01*
X120039183Y-106855886D01*
X120050500Y-106798995D01*
X120050500Y-106751500D01*
X120070185Y-106684461D01*
X120122989Y-106638706D01*
X120174500Y-106627500D01*
X121081211Y-106627500D01*
X121148250Y-106647185D01*
X121194005Y-106699989D01*
X121203949Y-106769147D01*
X121195772Y-106798949D01*
X121187807Y-106818182D01*
X121176420Y-106845671D01*
X121176418Y-106845677D01*
X121149500Y-106981004D01*
X121149500Y-106981007D01*
X121149500Y-107118993D01*
X121149500Y-107118995D01*
X121149499Y-107118995D01*
X121176418Y-107254322D01*
X121176421Y-107254332D01*
X121229221Y-107381804D01*
X121229231Y-107381822D01*
X121262164Y-107431110D01*
X121283042Y-107497787D01*
X121264557Y-107565167D01*
X121262164Y-107568890D01*
X121229231Y-107618177D01*
X121229221Y-107618195D01*
X121176421Y-107745667D01*
X121176418Y-107745677D01*
X121149500Y-107881004D01*
X121149500Y-107881007D01*
X121149500Y-108018993D01*
X121149500Y-108018995D01*
X121149499Y-108018995D01*
X121176418Y-108154322D01*
X121176421Y-108154332D01*
X121229221Y-108281804D01*
X121229231Y-108281822D01*
X121262164Y-108331110D01*
X121283042Y-108397787D01*
X121264557Y-108465167D01*
X121262164Y-108468890D01*
X121229231Y-108518177D01*
X121229221Y-108518195D01*
X121176421Y-108645667D01*
X121176418Y-108645677D01*
X121149500Y-108781004D01*
X121149500Y-108781007D01*
X121149500Y-108918993D01*
X121149500Y-108918995D01*
X121149499Y-108918995D01*
X121176418Y-109054322D01*
X121176421Y-109054332D01*
X121229221Y-109181804D01*
X121229231Y-109181822D01*
X121262164Y-109231110D01*
X121283042Y-109297787D01*
X121264557Y-109365167D01*
X121262164Y-109368890D01*
X121229231Y-109418177D01*
X121229221Y-109418195D01*
X121176421Y-109545667D01*
X121176418Y-109545677D01*
X121149500Y-109681004D01*
X121149500Y-109681007D01*
X121149500Y-109818993D01*
X121149500Y-109818995D01*
X121149499Y-109818995D01*
X121176418Y-109954322D01*
X121176421Y-109954332D01*
X121229221Y-110081804D01*
X121229228Y-110081817D01*
X121305885Y-110196541D01*
X121305888Y-110196545D01*
X121403454Y-110294111D01*
X121403458Y-110294114D01*
X121518182Y-110370771D01*
X121518195Y-110370778D01*
X121613739Y-110410353D01*
X121645672Y-110423580D01*
X121645676Y-110423580D01*
X121645677Y-110423581D01*
X121781004Y-110450500D01*
X121781007Y-110450500D01*
X121918995Y-110450500D01*
X122012983Y-110431804D01*
X122054328Y-110423580D01*
X122181811Y-110370775D01*
X122296542Y-110294114D01*
X122394114Y-110196542D01*
X122470775Y-110081811D01*
X122523580Y-109954328D01*
X122534486Y-109899500D01*
X122550500Y-109818995D01*
X122550500Y-109681004D01*
X122523581Y-109545677D01*
X122523580Y-109545676D01*
X122523580Y-109545672D01*
X122474185Y-109426421D01*
X122470778Y-109418195D01*
X122470774Y-109418188D01*
X122458287Y-109399500D01*
X122437834Y-109368889D01*
X122416957Y-109302215D01*
X122435441Y-109234834D01*
X122437834Y-109231110D01*
X122470775Y-109181811D01*
X122523580Y-109054328D01*
X122547493Y-108934112D01*
X122550500Y-108918995D01*
X122550500Y-108781004D01*
X122523581Y-108645677D01*
X122523580Y-108645676D01*
X122523580Y-108645672D01*
X122513269Y-108620778D01*
X122470778Y-108518195D01*
X122470774Y-108518188D01*
X122470767Y-108518177D01*
X122437834Y-108468889D01*
X122416957Y-108402215D01*
X122435441Y-108334834D01*
X122437834Y-108331110D01*
X122470775Y-108281811D01*
X122523580Y-108154328D01*
X122545020Y-108046542D01*
X122550500Y-108018995D01*
X122550500Y-107881004D01*
X122523581Y-107745677D01*
X122523580Y-107745676D01*
X122523580Y-107745672D01*
X122500312Y-107689498D01*
X122470778Y-107618195D01*
X122470774Y-107618188D01*
X122461509Y-107604322D01*
X122437834Y-107568889D01*
X122416957Y-107502215D01*
X122435441Y-107434834D01*
X122437834Y-107431110D01*
X122470775Y-107381811D01*
X122523580Y-107254328D01*
X122532389Y-107210041D01*
X122550500Y-107118995D01*
X122550500Y-106981004D01*
X122523581Y-106845677D01*
X122523580Y-106845676D01*
X122523580Y-106845672D01*
X122504227Y-106798951D01*
X122496759Y-106729484D01*
X122528034Y-106667004D01*
X122588123Y-106631352D01*
X122618789Y-106627500D01*
X124681211Y-106627500D01*
X124748250Y-106647185D01*
X124794005Y-106699989D01*
X124803949Y-106769147D01*
X124795772Y-106798949D01*
X124787807Y-106818182D01*
X124776420Y-106845671D01*
X124776418Y-106845677D01*
X124749500Y-106981004D01*
X124749500Y-106981007D01*
X124749500Y-107118993D01*
X124749500Y-107118995D01*
X124749499Y-107118995D01*
X124776418Y-107254322D01*
X124776421Y-107254332D01*
X124829221Y-107381804D01*
X124829231Y-107381822D01*
X124862164Y-107431110D01*
X124883042Y-107497787D01*
X124864557Y-107565167D01*
X124862164Y-107568890D01*
X124829231Y-107618177D01*
X124829221Y-107618195D01*
X124776421Y-107745667D01*
X124776418Y-107745677D01*
X124749500Y-107881004D01*
X124749500Y-107881007D01*
X124749500Y-108018993D01*
X124749500Y-108018995D01*
X124749499Y-108018995D01*
X124776418Y-108154322D01*
X124776421Y-108154332D01*
X124829221Y-108281804D01*
X124829231Y-108281822D01*
X124862164Y-108331110D01*
X124883042Y-108397787D01*
X124864557Y-108465167D01*
X124862164Y-108468890D01*
X124829231Y-108518177D01*
X124829221Y-108518195D01*
X124776421Y-108645667D01*
X124776418Y-108645677D01*
X124749500Y-108781004D01*
X124749500Y-108781007D01*
X124749500Y-108918993D01*
X124749500Y-108918995D01*
X124749499Y-108918995D01*
X124776418Y-109054322D01*
X124776421Y-109054332D01*
X124829221Y-109181804D01*
X124829231Y-109181822D01*
X124862164Y-109231110D01*
X124883042Y-109297787D01*
X124864557Y-109365167D01*
X124862164Y-109368890D01*
X124829231Y-109418177D01*
X124829221Y-109418195D01*
X124776421Y-109545667D01*
X124776418Y-109545677D01*
X124749500Y-109681004D01*
X124749500Y-109681007D01*
X124749500Y-109818993D01*
X124749500Y-109818995D01*
X124749499Y-109818995D01*
X124776418Y-109954322D01*
X124776421Y-109954332D01*
X124829221Y-110081804D01*
X124829228Y-110081817D01*
X124905885Y-110196541D01*
X124905888Y-110196545D01*
X125003454Y-110294111D01*
X125003458Y-110294114D01*
X125118182Y-110370771D01*
X125118195Y-110370778D01*
X125213739Y-110410353D01*
X125245672Y-110423580D01*
X125245676Y-110423580D01*
X125245677Y-110423581D01*
X125381004Y-110450500D01*
X125381007Y-110450500D01*
X125518995Y-110450500D01*
X125612983Y-110431804D01*
X125654328Y-110423580D01*
X125781811Y-110370775D01*
X125896542Y-110294114D01*
X125994114Y-110196542D01*
X126070775Y-110081811D01*
X126123580Y-109954328D01*
X126134486Y-109899500D01*
X126150500Y-109818995D01*
X126150500Y-109681004D01*
X126123581Y-109545677D01*
X126123580Y-109545676D01*
X126123580Y-109545672D01*
X126074185Y-109426421D01*
X126070778Y-109418195D01*
X126070774Y-109418188D01*
X126058287Y-109399500D01*
X126037834Y-109368889D01*
X126016957Y-109302215D01*
X126035441Y-109234834D01*
X126037834Y-109231110D01*
X126070775Y-109181811D01*
X126123580Y-109054328D01*
X126147493Y-108934112D01*
X126150500Y-108918995D01*
X126150500Y-108781004D01*
X126123581Y-108645677D01*
X126123580Y-108645676D01*
X126123580Y-108645672D01*
X126113269Y-108620778D01*
X126070778Y-108518195D01*
X126070774Y-108518188D01*
X126070767Y-108518177D01*
X126037834Y-108468889D01*
X126016957Y-108402215D01*
X126035441Y-108334834D01*
X126037834Y-108331110D01*
X126070775Y-108281811D01*
X126123580Y-108154328D01*
X126145020Y-108046542D01*
X126150500Y-108018995D01*
X126150500Y-107881004D01*
X126123581Y-107745677D01*
X126123580Y-107745676D01*
X126123580Y-107745672D01*
X126100312Y-107689498D01*
X126070778Y-107618195D01*
X126070774Y-107618188D01*
X126061509Y-107604322D01*
X126037834Y-107568889D01*
X126016957Y-107502215D01*
X126035441Y-107434834D01*
X126037834Y-107431110D01*
X126070775Y-107381811D01*
X126123580Y-107254328D01*
X126132389Y-107210041D01*
X126150500Y-107118995D01*
X126150500Y-106981004D01*
X126123581Y-106845677D01*
X126123580Y-106845676D01*
X126123580Y-106845672D01*
X126104227Y-106798951D01*
X126096759Y-106729484D01*
X126128034Y-106667004D01*
X126188123Y-106631352D01*
X126218789Y-106627500D01*
X134819445Y-106627500D01*
X134819446Y-106627500D01*
X134819447Y-106627500D01*
X134923945Y-106599500D01*
X134953608Y-106591552D01*
X135013750Y-106556828D01*
X135073893Y-106522105D01*
X135172105Y-106423893D01*
X135172105Y-106423891D01*
X135182309Y-106413688D01*
X135182313Y-106413683D01*
X143163683Y-98432313D01*
X143163688Y-98432309D01*
X143173891Y-98422105D01*
X143173893Y-98422105D01*
X143272105Y-98323893D01*
X143306828Y-98263750D01*
X143341552Y-98203608D01*
X143377500Y-98069446D01*
X143377500Y-97930554D01*
X143377500Y-93709022D01*
X143397185Y-93641983D01*
X143398398Y-93640131D01*
X143470771Y-93531817D01*
X143470771Y-93531816D01*
X143470775Y-93531811D01*
X143523580Y-93404328D01*
X143532389Y-93360041D01*
X143550500Y-93268995D01*
X143550500Y-93131004D01*
X143523581Y-92995677D01*
X143523580Y-92995676D01*
X143523580Y-92995672D01*
X143488490Y-92910956D01*
X143470778Y-92868195D01*
X143470771Y-92868182D01*
X143394114Y-92753458D01*
X143394111Y-92753454D01*
X143296545Y-92655888D01*
X143296541Y-92655885D01*
X143181817Y-92579228D01*
X143181804Y-92579221D01*
X143054332Y-92526421D01*
X143054322Y-92526418D01*
X142918995Y-92499500D01*
X142918993Y-92499500D01*
X142781007Y-92499500D01*
X142781005Y-92499500D01*
X142645677Y-92526418D01*
X142645667Y-92526421D01*
X142518195Y-92579221D01*
X142518177Y-92579231D01*
X142428890Y-92638891D01*
X142362213Y-92659769D01*
X142294833Y-92641284D01*
X142291110Y-92638891D01*
X142201822Y-92579231D01*
X142201804Y-92579221D01*
X142074332Y-92526421D01*
X142074322Y-92526418D01*
X141938995Y-92499500D01*
X141938993Y-92499500D01*
X141801007Y-92499500D01*
X141801005Y-92499500D01*
X141665677Y-92526418D01*
X141665667Y-92526421D01*
X141538195Y-92579221D01*
X141538182Y-92579228D01*
X141428891Y-92652255D01*
X141362213Y-92673133D01*
X141294833Y-92654648D01*
X141291109Y-92652255D01*
X141181817Y-92579228D01*
X141181804Y-92579221D01*
X141054332Y-92526421D01*
X141054322Y-92526418D01*
X140918995Y-92499500D01*
X140918993Y-92499500D01*
X140781007Y-92499500D01*
X140781005Y-92499500D01*
X140645677Y-92526418D01*
X140645667Y-92526421D01*
X140518195Y-92579221D01*
X140518182Y-92579228D01*
X140418891Y-92645573D01*
X140352213Y-92666451D01*
X140284833Y-92647966D01*
X140281109Y-92645573D01*
X140181817Y-92579228D01*
X140181804Y-92579221D01*
X140054332Y-92526421D01*
X140054322Y-92526418D01*
X139918995Y-92499500D01*
X139918993Y-92499500D01*
X139781007Y-92499500D01*
X139781005Y-92499500D01*
X139645677Y-92526418D01*
X139645667Y-92526421D01*
X139518195Y-92579221D01*
X139518182Y-92579228D01*
X139408891Y-92652255D01*
X139342213Y-92673133D01*
X139274833Y-92654648D01*
X139271109Y-92652255D01*
X139161817Y-92579228D01*
X139161804Y-92579221D01*
X139034332Y-92526421D01*
X139034322Y-92526418D01*
X138898995Y-92499500D01*
X138898993Y-92499500D01*
X138761007Y-92499500D01*
X138761005Y-92499500D01*
X138625677Y-92526418D01*
X138625667Y-92526421D01*
X138498195Y-92579221D01*
X138498177Y-92579231D01*
X138408890Y-92638891D01*
X138342213Y-92659769D01*
X138274833Y-92641284D01*
X138271110Y-92638891D01*
X138181822Y-92579231D01*
X138181804Y-92579221D01*
X138054332Y-92526421D01*
X138054322Y-92526418D01*
X137918995Y-92499500D01*
X137918993Y-92499500D01*
X137781007Y-92499500D01*
X137781005Y-92499500D01*
X137645677Y-92526418D01*
X137645667Y-92526421D01*
X137518195Y-92579221D01*
X137518182Y-92579228D01*
X137403458Y-92655885D01*
X137403454Y-92655888D01*
X137305888Y-92753454D01*
X137305885Y-92753458D01*
X137229228Y-92868182D01*
X137229221Y-92868195D01*
X137176421Y-92995667D01*
X137176418Y-92995677D01*
X137149500Y-93131004D01*
X137149500Y-93131007D01*
X137149500Y-93268993D01*
X137149500Y-93268995D01*
X137149499Y-93268995D01*
X137176418Y-93404322D01*
X137176421Y-93404332D01*
X137229221Y-93531804D01*
X137229228Y-93531817D01*
X137301602Y-93640131D01*
X137322480Y-93706808D01*
X137322500Y-93709022D01*
X137322500Y-95330140D01*
X137302815Y-95397179D01*
X137286181Y-95417821D01*
X133010322Y-99693681D01*
X132948999Y-99727166D01*
X132922641Y-99730000D01*
X118423053Y-99730000D01*
X118288893Y-99765948D01*
X118288890Y-99765949D01*
X118189071Y-99823580D01*
X118168610Y-99835393D01*
X118168604Y-99835397D01*
X115536935Y-102467067D01*
X115475612Y-102500552D01*
X115473446Y-102501003D01*
X115345677Y-102526418D01*
X115345667Y-102526421D01*
X115218195Y-102579221D01*
X115218182Y-102579228D01*
X115103458Y-102655885D01*
X115103454Y-102655888D01*
X115005888Y-102753454D01*
X115005885Y-102753458D01*
X114929228Y-102868182D01*
X114929221Y-102868195D01*
X114876421Y-102995667D01*
X114876418Y-102995677D01*
X114849500Y-103131004D01*
X114849500Y-103131007D01*
X114849500Y-103268993D01*
X114849500Y-103268995D01*
X114849499Y-103268995D01*
X108309652Y-103268995D01*
X108246545Y-103205888D01*
X108246541Y-103205885D01*
X108131817Y-103129228D01*
X108131804Y-103129221D01*
X108004332Y-103076421D01*
X108004322Y-103076418D01*
X107868995Y-103049500D01*
X107868993Y-103049500D01*
X107731007Y-103049500D01*
X107731005Y-103049500D01*
X107595677Y-103076418D01*
X107595667Y-103076421D01*
X107468195Y-103129221D01*
X107468182Y-103129228D01*
X107353458Y-103205885D01*
X107353454Y-103205888D01*
X107255888Y-103303454D01*
X107255885Y-103303458D01*
X107179228Y-103418182D01*
X107179221Y-103418195D01*
X107126421Y-103545667D01*
X107126418Y-103545677D01*
X107099500Y-103681004D01*
X107099500Y-103681007D01*
X107099500Y-103818993D01*
X107099500Y-103818995D01*
X107099499Y-103818995D01*
X95516027Y-103818995D01*
X95516027Y-100868995D01*
X100849499Y-100868995D01*
X100876418Y-101004322D01*
X100876421Y-101004332D01*
X100929221Y-101131804D01*
X100929228Y-101131817D01*
X101005885Y-101246541D01*
X101005888Y-101246545D01*
X101103454Y-101344111D01*
X101103458Y-101344114D01*
X101218182Y-101420771D01*
X101218195Y-101420778D01*
X101345667Y-101473578D01*
X101345672Y-101473580D01*
X101345676Y-101473580D01*
X101345677Y-101473581D01*
X101481004Y-101500500D01*
X101481007Y-101500500D01*
X101618995Y-101500500D01*
X101710041Y-101482389D01*
X101754328Y-101473580D01*
X101881811Y-101420775D01*
X101996542Y-101344114D01*
X102094114Y-101246542D01*
X102170775Y-101131811D01*
X102223580Y-101004328D01*
X102245020Y-100896542D01*
X102250500Y-100868995D01*
X102250500Y-100731004D01*
X102223581Y-100595677D01*
X102223580Y-100595676D01*
X102223580Y-100595672D01*
X102223578Y-100595667D01*
X102191820Y-100518995D01*
X110099499Y-100518995D01*
X110126418Y-100654322D01*
X110126421Y-100654332D01*
X110179221Y-100781804D01*
X110179228Y-100781817D01*
X110255885Y-100896541D01*
X110255888Y-100896545D01*
X110353454Y-100994111D01*
X110353458Y-100994114D01*
X110468182Y-101070771D01*
X110468195Y-101070778D01*
X110523315Y-101093609D01*
X110595672Y-101123580D01*
X110595676Y-101123580D01*
X110595677Y-101123581D01*
X110731004Y-101150500D01*
X110731007Y-101150500D01*
X110868995Y-101150500D01*
X110962983Y-101131804D01*
X111004328Y-101123580D01*
X111131811Y-101070775D01*
X111246542Y-100994114D01*
X111344114Y-100896542D01*
X111420775Y-100781811D01*
X111473580Y-100654328D01*
X111482389Y-100610041D01*
X111500500Y-100518995D01*
X111500500Y-100381004D01*
X111473581Y-100245677D01*
X111473580Y-100245676D01*
X111473580Y-100245672D01*
X111424185Y-100126421D01*
X111420778Y-100118195D01*
X111420771Y-100118182D01*
X111344114Y-100003458D01*
X111344111Y-100003454D01*
X111246545Y-99905888D01*
X111246541Y-99905885D01*
X111131817Y-99829228D01*
X111131804Y-99829221D01*
X111004332Y-99776421D01*
X111004322Y-99776418D01*
X110868995Y-99749500D01*
X110868993Y-99749500D01*
X110731007Y-99749500D01*
X110731005Y-99749500D01*
X110595677Y-99776418D01*
X110595667Y-99776421D01*
X110468195Y-99829221D01*
X110468182Y-99829228D01*
X110353458Y-99905885D01*
X110353454Y-99905888D01*
X110255888Y-100003454D01*
X110255885Y-100003458D01*
X110179228Y-100118182D01*
X110179221Y-100118195D01*
X110126421Y-100245667D01*
X110126418Y-100245677D01*
X110099500Y-100381004D01*
X110099500Y-100381007D01*
X110099500Y-100518993D01*
X110099500Y-100518995D01*
X110099499Y-100518995D01*
X102191820Y-100518995D01*
X102170778Y-100468195D01*
X102170770Y-100468180D01*
X102154484Y-100443807D01*
X102154483Y-100443806D01*
X102094114Y-100353458D01*
X102094111Y-100353454D01*
X101996545Y-100255888D01*
X101996541Y-100255885D01*
X101881817Y-100179228D01*
X101881804Y-100179221D01*
X101754332Y-100126421D01*
X101754322Y-100126418D01*
X101618995Y-100099500D01*
X101618993Y-100099500D01*
X101481007Y-100099500D01*
X101481005Y-100099500D01*
X101345677Y-100126418D01*
X101345667Y-100126421D01*
X101218195Y-100179221D01*
X101218182Y-100179228D01*
X101103458Y-100255885D01*
X101103454Y-100255888D01*
X101005888Y-100353454D01*
X101005885Y-100353458D01*
X100929228Y-100468182D01*
X100929221Y-100468195D01*
X100876421Y-100595667D01*
X100876418Y-100595677D01*
X100849500Y-100731004D01*
X100849500Y-100731007D01*
X100849500Y-100868993D01*
X100849500Y-100868995D01*
X100849499Y-100868995D01*
X95516027Y-100868995D01*
X95516027Y-99218995D01*
X116249499Y-99218995D01*
X116276418Y-99354322D01*
X116276421Y-99354332D01*
X116329221Y-99481804D01*
X116329228Y-99481817D01*
X116405885Y-99596541D01*
X116405888Y-99596545D01*
X116503454Y-99694111D01*
X116503458Y-99694114D01*
X116618182Y-99770771D01*
X116618195Y-99770778D01*
X116745667Y-99823578D01*
X116745672Y-99823580D01*
X116745676Y-99823580D01*
X116745677Y-99823581D01*
X116881004Y-99850500D01*
X116881007Y-99850500D01*
X117018995Y-99850500D01*
X117110041Y-99832389D01*
X117154328Y-99823580D01*
X117281811Y-99770775D01*
X117396542Y-99694114D01*
X117494114Y-99596542D01*
X117570775Y-99481811D01*
X117623580Y-99354328D01*
X117650500Y-99218993D01*
X117650500Y-99081007D01*
X117650500Y-99081004D01*
X117623581Y-98945677D01*
X117623580Y-98945676D01*
X117623580Y-98945672D01*
X117623578Y-98945667D01*
X117570778Y-98818195D01*
X117570771Y-98818182D01*
X117494114Y-98703458D01*
X117494111Y-98703454D01*
X117396545Y-98605888D01*
X117396541Y-98605885D01*
X117281817Y-98529228D01*
X117281804Y-98529221D01*
X117154332Y-98476421D01*
X117154322Y-98476418D01*
X117018995Y-98449500D01*
X117018993Y-98449500D01*
X116881007Y-98449500D01*
X116881005Y-98449500D01*
X116745677Y-98476418D01*
X116745667Y-98476421D01*
X116618195Y-98529221D01*
X116618182Y-98529228D01*
X116503458Y-98605885D01*
X116503454Y-98605888D01*
X116405888Y-98703454D01*
X116405885Y-98703458D01*
X116329228Y-98818182D01*
X116329221Y-98818195D01*
X116276421Y-98945667D01*
X116276418Y-98945677D01*
X116249500Y-99081004D01*
X116249500Y-99081007D01*
X116249500Y-99218993D01*
X116249500Y-99218995D01*
X116249499Y-99218995D01*
X95516027Y-99218995D01*
X95516027Y-96468995D01*
X106549499Y-96468995D01*
X106576418Y-96604322D01*
X106576421Y-96604332D01*
X106629221Y-96731804D01*
X106629228Y-96731817D01*
X106705885Y-96846541D01*
X106705888Y-96846545D01*
X106803454Y-96944111D01*
X106803458Y-96944114D01*
X106918182Y-97020771D01*
X106918195Y-97020778D01*
X107045667Y-97073578D01*
X107045672Y-97073580D01*
X107045676Y-97073580D01*
X107045677Y-97073581D01*
X107181004Y-97100500D01*
X107181007Y-97100500D01*
X107318995Y-97100500D01*
X107410041Y-97082389D01*
X107454328Y-97073580D01*
X107581811Y-97020775D01*
X107584475Y-97018995D01*
X112199499Y-97018995D01*
X112226418Y-97154322D01*
X112226421Y-97154332D01*
X112279221Y-97281804D01*
X112279228Y-97281817D01*
X112355885Y-97396541D01*
X112355888Y-97396545D01*
X112453454Y-97494111D01*
X112453458Y-97494114D01*
X112568182Y-97570771D01*
X112568195Y-97570778D01*
X112695667Y-97623578D01*
X112695672Y-97623580D01*
X112695676Y-97623580D01*
X112695677Y-97623581D01*
X112831004Y-97650500D01*
X112831007Y-97650500D01*
X112968995Y-97650500D01*
X113060041Y-97632389D01*
X113104328Y-97623580D01*
X113202924Y-97582740D01*
X113231804Y-97570778D01*
X113231804Y-97570777D01*
X113231811Y-97570775D01*
X113346542Y-97494114D01*
X113444114Y-97396542D01*
X113520775Y-97281811D01*
X113520776Y-97281808D01*
X113520778Y-97281805D01*
X113568436Y-97166746D01*
X113612276Y-97112342D01*
X113658806Y-97092581D01*
X113694661Y-97085448D01*
X113754328Y-97073580D01*
X113881811Y-97020775D01*
X113996542Y-96944114D01*
X114094114Y-96846542D01*
X114099157Y-96838995D01*
X123399499Y-96838995D01*
X123426418Y-96974322D01*
X123426421Y-96974332D01*
X123479221Y-97101804D01*
X123479228Y-97101817D01*
X123555885Y-97216541D01*
X123555888Y-97216545D01*
X123653454Y-97314111D01*
X123653458Y-97314114D01*
X123768182Y-97390771D01*
X123768195Y-97390778D01*
X123895667Y-97443578D01*
X123895672Y-97443580D01*
X123895676Y-97443580D01*
X123895677Y-97443581D01*
X124031004Y-97470500D01*
X124031007Y-97470500D01*
X124168995Y-97470500D01*
X124263536Y-97451694D01*
X124304328Y-97443580D01*
X124431811Y-97390775D01*
X124546542Y-97314114D01*
X124644114Y-97216542D01*
X124720775Y-97101811D01*
X124773580Y-96974328D01*
X124792143Y-96881007D01*
X124800500Y-96838995D01*
X124800500Y-96701004D01*
X124773581Y-96565677D01*
X124773580Y-96565676D01*
X124773580Y-96565672D01*
X124747809Y-96503454D01*
X124720778Y-96438195D01*
X124720771Y-96438182D01*
X124644114Y-96323458D01*
X124644111Y-96323454D01*
X124546545Y-96225888D01*
X124546541Y-96225885D01*
X124431817Y-96149228D01*
X124431804Y-96149221D01*
X124304332Y-96096421D01*
X124304322Y-96096418D01*
X124168995Y-96069500D01*
X124168993Y-96069500D01*
X124031007Y-96069500D01*
X124031005Y-96069500D01*
X123895677Y-96096418D01*
X123895667Y-96096421D01*
X123768195Y-96149221D01*
X123768182Y-96149228D01*
X123653458Y-96225885D01*
X123653454Y-96225888D01*
X123555888Y-96323454D01*
X123555885Y-96323458D01*
X123479228Y-96438182D01*
X123479221Y-96438195D01*
X123426421Y-96565667D01*
X123426418Y-96565677D01*
X123399500Y-96701004D01*
X123399500Y-96701007D01*
X123399500Y-96838993D01*
X123399500Y-96838995D01*
X123399499Y-96838995D01*
X114099157Y-96838995D01*
X114170775Y-96731811D01*
X114223580Y-96604328D01*
X114250500Y-96468993D01*
X114250500Y-96468962D01*
X114251395Y-96465493D01*
X114267591Y-96438353D01*
X114282233Y-96410363D01*
X114285357Y-96408583D01*
X114287201Y-96405495D01*
X114315493Y-96391422D01*
X114342949Y-96375788D01*
X114347274Y-96374848D01*
X114415711Y-96361234D01*
X114479328Y-96348580D01*
X114606811Y-96295775D01*
X114721542Y-96219114D01*
X114819114Y-96121542D01*
X114895775Y-96006811D01*
X114948580Y-95879328D01*
X114957389Y-95835041D01*
X114975500Y-95743995D01*
X114975500Y-95606004D01*
X114948581Y-95470677D01*
X114948580Y-95470676D01*
X114948580Y-95470672D01*
X114943307Y-95457942D01*
X114895778Y-95343195D01*
X114895771Y-95343182D01*
X114819114Y-95228458D01*
X114819111Y-95228454D01*
X114721545Y-95130888D01*
X114721541Y-95130885D01*
X114606817Y-95054228D01*
X114606804Y-95054221D01*
X114479332Y-95001421D01*
X114479322Y-95001418D01*
X114343995Y-94974500D01*
X114343993Y-94974500D01*
X114206007Y-94974500D01*
X114206005Y-94974500D01*
X114070677Y-95001418D01*
X114070667Y-95001421D01*
X113943195Y-95054221D01*
X113943182Y-95054228D01*
X113828458Y-95130885D01*
X113828454Y-95130888D01*
X113730888Y-95228454D01*
X113730885Y-95228458D01*
X113654228Y-95343182D01*
X113654221Y-95343195D01*
X113601421Y-95470667D01*
X113601418Y-95470678D01*
X113575151Y-95602726D01*
X113542765Y-95664637D01*
X113482049Y-95699211D01*
X113477726Y-95700151D01*
X113345678Y-95726418D01*
X113345667Y-95726421D01*
X113218195Y-95779221D01*
X113218182Y-95779228D01*
X113103458Y-95855885D01*
X113103454Y-95855888D01*
X113005888Y-95953454D01*
X113005885Y-95953458D01*
X112929228Y-96068182D01*
X112929223Y-96068192D01*
X112881563Y-96183254D01*
X112837722Y-96237657D01*
X112791195Y-96257418D01*
X112695676Y-96276419D01*
X112695667Y-96276421D01*
X112568195Y-96329221D01*
X112568182Y-96329228D01*
X112453458Y-96405885D01*
X112453454Y-96405888D01*
X112355888Y-96503454D01*
X112355885Y-96503458D01*
X112279228Y-96618182D01*
X112279221Y-96618195D01*
X112226421Y-96745667D01*
X112226418Y-96745677D01*
X112199500Y-96881004D01*
X112199500Y-96881007D01*
X112199500Y-97018993D01*
X112199500Y-97018995D01*
X112199499Y-97018995D01*
X107584475Y-97018995D01*
X107696542Y-96944114D01*
X107794114Y-96846542D01*
X107811600Y-96820372D01*
X107821188Y-96806024D01*
X107870771Y-96731817D01*
X107870771Y-96731816D01*
X107870775Y-96731811D01*
X107923580Y-96604328D01*
X107932389Y-96560041D01*
X107950500Y-96468995D01*
X107950500Y-96331004D01*
X107923581Y-96195677D01*
X107923580Y-96195676D01*
X107923580Y-96195672D01*
X107918436Y-96183254D01*
X107870778Y-96068195D01*
X107870771Y-96068182D01*
X107794114Y-95953458D01*
X107794111Y-95953454D01*
X107696545Y-95855888D01*
X107696541Y-95855885D01*
X107581817Y-95779228D01*
X107581804Y-95779221D01*
X107454332Y-95726421D01*
X107454322Y-95726418D01*
X107318995Y-95699500D01*
X107318993Y-95699500D01*
X107181007Y-95699500D01*
X107181005Y-95699500D01*
X107045677Y-95726418D01*
X107045667Y-95726421D01*
X106918195Y-95779221D01*
X106918182Y-95779228D01*
X106803458Y-95855885D01*
X106803454Y-95855888D01*
X106705888Y-95953454D01*
X106705885Y-95953458D01*
X106629228Y-96068182D01*
X106629221Y-96068195D01*
X106576421Y-96195667D01*
X106576418Y-96195677D01*
X106549500Y-96331004D01*
X106549500Y-96331007D01*
X106549500Y-96468993D01*
X106549500Y-96468995D01*
X106549499Y-96468995D01*
X95516027Y-96468995D01*
X95516027Y-91557434D01*
X95516227Y-91550402D01*
X95520678Y-91472036D01*
X95537556Y-91174868D01*
X95538721Y-91163558D01*
X95594116Y-90793267D01*
X95596306Y-90782140D01*
X95640098Y-90603388D01*
X97572500Y-90603388D01*
X97572500Y-90796611D01*
X97602725Y-90987441D01*
X97662429Y-91171194D01*
X97750147Y-91343349D01*
X97848469Y-91478679D01*
X97863715Y-91499663D01*
X98000337Y-91636285D01*
X98156650Y-91749852D01*
X98268437Y-91806811D01*
X98328805Y-91837570D01*
X98420681Y-91867422D01*
X98512560Y-91897275D01*
X98600943Y-91911273D01*
X98703389Y-91927500D01*
X98703394Y-91927500D01*
X98896611Y-91927500D01*
X98989123Y-91912846D01*
X99087440Y-91897275D01*
X99271197Y-91837569D01*
X99443350Y-91749852D01*
X99599663Y-91636285D01*
X99691953Y-91543995D01*
X113399499Y-91543995D01*
X113426418Y-91679322D01*
X113426421Y-91679332D01*
X113479221Y-91806804D01*
X113479228Y-91806817D01*
X113555885Y-91921541D01*
X113555888Y-91921545D01*
X113653454Y-92019111D01*
X113653458Y-92019114D01*
X113768182Y-92095771D01*
X113768195Y-92095778D01*
X113895667Y-92148578D01*
X113895672Y-92148580D01*
X113895676Y-92148580D01*
X113895677Y-92148581D01*
X114031004Y-92175500D01*
X114031007Y-92175500D01*
X114168995Y-92175500D01*
X114260041Y-92157389D01*
X114304328Y-92148580D01*
X114431811Y-92095775D01*
X114546542Y-92019114D01*
X114644114Y-91921542D01*
X114720775Y-91806811D01*
X114773580Y-91679328D01*
X114790458Y-91594476D01*
X114800500Y-91543995D01*
X114800500Y-91406004D01*
X114773581Y-91270677D01*
X114773580Y-91270676D01*
X114773580Y-91270672D01*
X114764108Y-91247804D01*
X114720778Y-91143195D01*
X114720771Y-91143182D01*
X114644114Y-91028458D01*
X114644111Y-91028454D01*
X114546545Y-90930888D01*
X114546541Y-90930885D01*
X114431817Y-90854228D01*
X114431804Y-90854221D01*
X114304332Y-90801421D01*
X114304322Y-90801418D01*
X114168995Y-90774500D01*
X114168993Y-90774500D01*
X114031007Y-90774500D01*
X114031005Y-90774500D01*
X113895677Y-90801418D01*
X113895667Y-90801421D01*
X113768195Y-90854221D01*
X113768182Y-90854228D01*
X113653458Y-90930885D01*
X113653454Y-90930888D01*
X113555888Y-91028454D01*
X113555885Y-91028458D01*
X113479228Y-91143182D01*
X113479221Y-91143195D01*
X113426421Y-91270667D01*
X113426418Y-91270677D01*
X113399500Y-91406004D01*
X113399500Y-91406007D01*
X113399500Y-91543993D01*
X113399500Y-91543995D01*
X113399499Y-91543995D01*
X99691953Y-91543995D01*
X99736285Y-91499663D01*
X99849852Y-91343350D01*
X99933885Y-91178427D01*
X99937567Y-91171201D01*
X99937569Y-91171197D01*
X99946669Y-91143189D01*
X99997275Y-90987440D01*
X100018375Y-90854221D01*
X100027500Y-90796611D01*
X100027500Y-90603388D01*
X100006321Y-90469674D01*
X99997275Y-90412560D01*
X99937569Y-90228803D01*
X99849852Y-90056650D01*
X99736285Y-89900337D01*
X99679943Y-89843995D01*
X104999499Y-89843995D01*
X105026418Y-89979322D01*
X105026421Y-89979332D01*
X105079221Y-90106804D01*
X105079228Y-90106817D01*
X105155885Y-90221541D01*
X105155888Y-90221545D01*
X105253454Y-90319111D01*
X105253458Y-90319114D01*
X105368182Y-90395771D01*
X105368195Y-90395778D01*
X105423991Y-90418889D01*
X105495672Y-90448580D01*
X105495676Y-90448580D01*
X105495677Y-90448581D01*
X105631004Y-90475500D01*
X105631007Y-90475500D01*
X105768995Y-90475500D01*
X105860041Y-90457389D01*
X105904328Y-90448580D01*
X106031811Y-90395775D01*
X106146542Y-90319114D01*
X106244114Y-90221542D01*
X106320775Y-90106811D01*
X106373580Y-89979328D01*
X106382389Y-89935041D01*
X106400500Y-89843995D01*
X106999499Y-89843995D01*
X107026418Y-89979322D01*
X107026421Y-89979332D01*
X107079221Y-90106804D01*
X107079228Y-90106817D01*
X107155885Y-90221541D01*
X107155888Y-90221545D01*
X107253454Y-90319111D01*
X107253458Y-90319114D01*
X107368182Y-90395771D01*
X107368195Y-90395778D01*
X107423991Y-90418889D01*
X107495672Y-90448580D01*
X107495676Y-90448580D01*
X107495677Y-90448581D01*
X107631004Y-90475500D01*
X107631007Y-90475500D01*
X107768995Y-90475500D01*
X107860041Y-90457389D01*
X107904328Y-90448580D01*
X108031811Y-90395775D01*
X108045586Y-90386571D01*
X108143609Y-90321074D01*
X108210286Y-90300196D01*
X108277666Y-90318680D01*
X108281391Y-90321074D01*
X108393182Y-90395771D01*
X108393195Y-90395778D01*
X108448991Y-90418889D01*
X108520672Y-90448580D01*
X108520676Y-90448580D01*
X108520677Y-90448581D01*
X108656004Y-90475500D01*
X108656007Y-90475500D01*
X108793995Y-90475500D01*
X108885041Y-90457389D01*
X108929328Y-90448580D01*
X109056811Y-90395775D01*
X109143610Y-90337777D01*
X109210286Y-90316900D01*
X109277666Y-90335384D01*
X109281354Y-90337754D01*
X109368189Y-90395775D01*
X109368191Y-90395776D01*
X109368195Y-90395778D01*
X109423991Y-90418889D01*
X109495672Y-90448580D01*
X109495676Y-90448580D01*
X109495677Y-90448581D01*
X109631004Y-90475500D01*
X109631007Y-90475500D01*
X109768995Y-90475500D01*
X109860041Y-90457389D01*
X109904328Y-90448580D01*
X110031811Y-90395775D01*
X110146542Y-90319114D01*
X110244114Y-90221542D01*
X110320775Y-90106811D01*
X110373580Y-89979328D01*
X110382389Y-89935041D01*
X110400500Y-89843995D01*
X110400500Y-89706004D01*
X110373581Y-89570677D01*
X110373579Y-89570670D01*
X110370266Y-89562672D01*
X110353131Y-89521304D01*
X116414500Y-89521304D01*
X116414500Y-89698695D01*
X116449103Y-89872658D01*
X116449106Y-89872667D01*
X116516983Y-90036540D01*
X116516990Y-90036553D01*
X116610239Y-90176109D01*
X116631117Y-90242787D01*
X116612633Y-90310167D01*
X116610239Y-90313891D01*
X116516990Y-90453446D01*
X116516983Y-90453459D01*
X116449106Y-90617332D01*
X116449103Y-90617341D01*
X116414500Y-90791304D01*
X116414500Y-90968695D01*
X116449103Y-91142658D01*
X116449106Y-91142667D01*
X116516983Y-91306540D01*
X116516990Y-91306553D01*
X116610239Y-91446109D01*
X116631117Y-91512787D01*
X116612633Y-91580167D01*
X116610239Y-91583891D01*
X116516990Y-91723446D01*
X116516983Y-91723459D01*
X116449106Y-91887332D01*
X116449103Y-91887341D01*
X116414500Y-92061304D01*
X116414500Y-92238695D01*
X116449103Y-92412658D01*
X116449106Y-92412667D01*
X116516983Y-92576540D01*
X116516990Y-92576553D01*
X116610239Y-92716109D01*
X116631117Y-92782787D01*
X116612633Y-92850167D01*
X116610239Y-92853891D01*
X116516990Y-92993446D01*
X116516983Y-92993459D01*
X116449106Y-93157332D01*
X116449103Y-93157341D01*
X116414500Y-93331304D01*
X116414500Y-93508695D01*
X116449103Y-93682658D01*
X116449106Y-93682667D01*
X116516983Y-93846540D01*
X116516990Y-93846553D01*
X116610239Y-93986109D01*
X116631117Y-94052787D01*
X116612633Y-94120167D01*
X116610239Y-94123891D01*
X116516990Y-94263446D01*
X116516983Y-94263459D01*
X116449106Y-94427332D01*
X116449103Y-94427341D01*
X116414500Y-94601304D01*
X116414500Y-94778695D01*
X116449103Y-94952658D01*
X116449106Y-94952667D01*
X116516983Y-95116540D01*
X116516990Y-95116553D01*
X116615535Y-95264034D01*
X116615538Y-95264038D01*
X116740961Y-95389461D01*
X116740965Y-95389464D01*
X116888446Y-95488009D01*
X116888459Y-95488016D01*
X117011363Y-95538923D01*
X117052334Y-95555894D01*
X117052336Y-95555894D01*
X117052341Y-95555896D01*
X117226304Y-95590499D01*
X117226307Y-95590500D01*
X117226309Y-95590500D01*
X117403693Y-95590500D01*
X117403694Y-95590499D01*
X117478372Y-95575645D01*
X117577658Y-95555896D01*
X117577661Y-95555894D01*
X117577666Y-95555894D01*
X117718085Y-95497730D01*
X117787554Y-95490262D01*
X117836850Y-95514938D01*
X117838759Y-95512311D01*
X117846653Y-95518045D01*
X117846658Y-95518050D01*
X117959694Y-95575645D01*
X117959698Y-95575647D01*
X118053475Y-95590499D01*
X118053481Y-95590500D01*
X119116518Y-95590499D01*
X119210304Y-95575646D01*
X119323342Y-95518050D01*
X119413050Y-95428342D01*
X119470646Y-95315304D01*
X119470646Y-95315302D01*
X119470647Y-95315301D01*
X119484401Y-95228458D01*
X119485500Y-95221519D01*
X119485499Y-94158482D01*
X119470646Y-94064696D01*
X119413050Y-93951658D01*
X119413046Y-93951654D01*
X119413045Y-93951652D01*
X119323347Y-93861954D01*
X119323344Y-93861952D01*
X119323342Y-93861950D01*
X119246517Y-93822805D01*
X119210301Y-93804352D01*
X119116524Y-93789500D01*
X119116519Y-93789500D01*
X118310738Y-93789500D01*
X118290523Y-93783564D01*
X118269486Y-93782437D01*
X118257672Y-93773917D01*
X118243699Y-93769815D01*
X118229903Y-93753894D01*
X118212814Y-93741571D01*
X118207481Y-93728017D01*
X118197944Y-93717011D01*
X118194945Y-93696158D01*
X118187232Y-93676554D01*
X118188560Y-93651752D01*
X118188000Y-93647853D01*
X118189120Y-93641310D01*
X118189355Y-93640131D01*
X118210903Y-93531804D01*
X118215500Y-93508693D01*
X118215500Y-93331306D01*
X118215499Y-93331304D01*
X118180896Y-93157341D01*
X118180893Y-93157332D01*
X118113016Y-92993459D01*
X118113014Y-92993455D01*
X118113013Y-92993453D01*
X118019759Y-92853890D01*
X117998882Y-92787214D01*
X118017366Y-92719834D01*
X118019760Y-92716109D01*
X118048476Y-92673133D01*
X118113013Y-92576547D01*
X118180894Y-92412666D01*
X118215500Y-92238691D01*
X118215500Y-92061309D01*
X118215500Y-92061306D01*
X118181979Y-91892788D01*
X118188206Y-91823196D01*
X118231069Y-91768019D01*
X118296959Y-91744774D01*
X118327788Y-91746979D01*
X118496306Y-91780500D01*
X118496309Y-91780500D01*
X118673693Y-91780500D01*
X118673694Y-91780499D01*
X118736437Y-91768019D01*
X118847658Y-91745896D01*
X118847661Y-91745894D01*
X118847666Y-91745894D01*
X119011547Y-91678013D01*
X119159035Y-91579464D01*
X119284464Y-91454035D01*
X119383013Y-91306547D01*
X119450894Y-91142666D01*
X119485500Y-90968691D01*
X119485500Y-90791309D01*
X119485500Y-90791306D01*
X119485499Y-90791304D01*
X119450896Y-90617341D01*
X119450893Y-90617332D01*
X119383016Y-90453459D01*
X119383009Y-90453446D01*
X119284464Y-90305965D01*
X119284461Y-90305961D01*
X119159038Y-90180538D01*
X119159034Y-90180535D01*
X119011553Y-90081990D01*
X119011540Y-90081983D01*
X118847667Y-90014106D01*
X118847658Y-90014103D01*
X118673694Y-89979500D01*
X118673691Y-89979500D01*
X118496309Y-89979500D01*
X118496304Y-89979500D01*
X118327787Y-90013020D01*
X118258195Y-90006793D01*
X118203018Y-89963930D01*
X118179774Y-89898040D01*
X118181979Y-89867211D01*
X118215500Y-89698693D01*
X118215500Y-89521308D01*
X118215499Y-89521303D01*
X118213933Y-89513428D01*
X122000000Y-89513428D01*
X122000000Y-89700000D01*
X122800000Y-89700000D01*
X122800000Y-90200000D01*
X122000000Y-90200000D01*
X122000000Y-90386571D01*
X122027085Y-90557584D01*
X122080591Y-90722257D01*
X122159195Y-90876524D01*
X122260967Y-91016602D01*
X122383397Y-91139032D01*
X122523475Y-91240804D01*
X122677744Y-91319408D01*
X122842415Y-91372914D01*
X122842414Y-91372914D01*
X122849999Y-91374115D01*
X122850000Y-91374114D01*
X122850000Y-90466988D01*
X122859940Y-90484205D01*
X122915795Y-90540060D01*
X122984204Y-90579556D01*
X123060504Y-90600000D01*
X123139496Y-90600000D01*
X123215796Y-90579556D01*
X123284205Y-90540060D01*
X123340060Y-90484205D01*
X123350000Y-90466988D01*
X123350000Y-91374115D01*
X123357579Y-91372914D01*
X123378665Y-91366063D01*
X123448507Y-91364066D01*
X123508341Y-91400144D01*
X123539171Y-91462844D01*
X123531209Y-91532258D01*
X123486983Y-91586349D01*
X123473288Y-91594475D01*
X123457962Y-91602284D01*
X123457950Y-91602292D01*
X123427771Y-91624216D01*
X123427771Y-91624219D01*
X124031828Y-92228274D01*
X123935956Y-92253963D01*
X123839044Y-92309916D01*
X123759916Y-92389044D01*
X123703963Y-92485956D01*
X123678274Y-92581827D01*
X123074219Y-91977771D01*
X123074216Y-91977771D01*
X123052292Y-92007950D01*
X123052288Y-92007955D01*
X122964747Y-92179762D01*
X122964746Y-92179765D01*
X122905164Y-92363143D01*
X122875000Y-92553590D01*
X122875000Y-92746409D01*
X122905164Y-92936856D01*
X122964746Y-93120234D01*
X122964747Y-93120237D01*
X123052288Y-93292043D01*
X123074217Y-93322227D01*
X123074218Y-93322227D01*
X123678274Y-92718171D01*
X123703963Y-92814044D01*
X123759916Y-92910956D01*
X123839044Y-92990084D01*
X123935956Y-93046037D01*
X124031827Y-93071725D01*
X123427771Y-93675780D01*
X123427771Y-93675781D01*
X123457957Y-93697712D01*
X123629762Y-93785252D01*
X123629765Y-93785253D01*
X123813143Y-93844835D01*
X124003591Y-93875000D01*
X124196409Y-93875000D01*
X124386856Y-93844835D01*
X124570234Y-93785253D01*
X124570237Y-93785252D01*
X124742040Y-93697713D01*
X124772228Y-93675780D01*
X124168173Y-93071725D01*
X124264044Y-93046037D01*
X124360956Y-92990084D01*
X124440084Y-92910956D01*
X124496037Y-92814044D01*
X124521725Y-92718173D01*
X125125780Y-93322228D01*
X125125780Y-93322227D01*
X125147713Y-93292040D01*
X125235252Y-93120237D01*
X125235253Y-93120234D01*
X125294835Y-92936856D01*
X125325000Y-92746409D01*
X125325000Y-92553590D01*
X127875000Y-92553590D01*
X127875000Y-92746409D01*
X127905164Y-92936856D01*
X127964746Y-93120234D01*
X127964747Y-93120237D01*
X128052288Y-93292043D01*
X128074217Y-93322227D01*
X128074218Y-93322227D01*
X128678274Y-92718171D01*
X128703963Y-92814044D01*
X128759916Y-92910956D01*
X128839044Y-92990084D01*
X128935956Y-93046037D01*
X129031827Y-93071725D01*
X128427771Y-93675780D01*
X128427771Y-93675781D01*
X128457957Y-93697712D01*
X128629762Y-93785252D01*
X128629765Y-93785253D01*
X128813143Y-93844835D01*
X129003591Y-93875000D01*
X129196409Y-93875000D01*
X129386856Y-93844835D01*
X129570234Y-93785253D01*
X129570237Y-93785252D01*
X129742040Y-93697713D01*
X129772227Y-93675780D01*
X129772228Y-93675780D01*
X129168173Y-93071725D01*
X129264044Y-93046037D01*
X129360956Y-92990084D01*
X129440084Y-92910956D01*
X129496037Y-92814044D01*
X129521725Y-92718173D01*
X130125780Y-93322228D01*
X130125780Y-93322227D01*
X130147713Y-93292040D01*
X130235252Y-93120237D01*
X130235253Y-93120234D01*
X130294835Y-92936856D01*
X130325000Y-92746409D01*
X130325000Y-92553590D01*
X130294835Y-92363143D01*
X130235253Y-92179765D01*
X130235252Y-92179762D01*
X130147712Y-92007957D01*
X130125781Y-91977771D01*
X129521725Y-92581826D01*
X129496037Y-92485956D01*
X129440084Y-92389044D01*
X129360956Y-92309916D01*
X129264044Y-92253963D01*
X129168172Y-92228274D01*
X129772227Y-91624218D01*
X129772227Y-91624217D01*
X129742040Y-91602286D01*
X129726713Y-91594476D01*
X129675918Y-91546500D01*
X129659125Y-91478679D01*
X129681664Y-91412545D01*
X129736381Y-91369095D01*
X129805902Y-91362124D01*
X129821332Y-91366063D01*
X129842416Y-91372914D01*
X129842414Y-91372914D01*
X129849999Y-91374115D01*
X129850000Y-91374114D01*
X129850000Y-90466988D01*
X129859940Y-90484205D01*
X129915795Y-90540060D01*
X129984204Y-90579556D01*
X130060504Y-90600000D01*
X130139496Y-90600000D01*
X130215796Y-90579556D01*
X130284205Y-90540060D01*
X130340060Y-90484205D01*
X130350000Y-90466988D01*
X130350000Y-91374115D01*
X130357584Y-91372914D01*
X130522255Y-91319408D01*
X130676524Y-91240804D01*
X130816602Y-91139032D01*
X130939032Y-91016602D01*
X131040804Y-90876524D01*
X131119408Y-90722257D01*
X131172914Y-90557584D01*
X131200000Y-90386571D01*
X131200000Y-90200000D01*
X130400000Y-90200000D01*
X130400000Y-89700000D01*
X131200000Y-89700000D01*
X131200000Y-89513428D01*
X131172914Y-89342415D01*
X131119408Y-89177742D01*
X131040804Y-89023475D01*
X130939032Y-88883397D01*
X130816602Y-88760967D01*
X130676524Y-88659195D01*
X130522257Y-88580591D01*
X130357589Y-88527087D01*
X130357581Y-88527085D01*
X130350000Y-88525884D01*
X130350000Y-89433011D01*
X130340060Y-89415795D01*
X130284205Y-89359940D01*
X130215796Y-89320444D01*
X130139496Y-89300000D01*
X130060504Y-89300000D01*
X129984204Y-89320444D01*
X129915795Y-89359940D01*
X129859940Y-89415795D01*
X129850000Y-89433011D01*
X129850000Y-88525884D01*
X129849999Y-88525884D01*
X129842418Y-88527085D01*
X129842410Y-88527087D01*
X129677742Y-88580591D01*
X129523475Y-88659195D01*
X129383397Y-88760967D01*
X129260967Y-88883397D01*
X129159195Y-89023475D01*
X129080591Y-89177742D01*
X129027085Y-89342415D01*
X129000000Y-89513428D01*
X129000000Y-89700000D01*
X129800000Y-89700000D01*
X129800000Y-90200000D01*
X129000000Y-90200000D01*
X129000000Y-90386571D01*
X129027085Y-90557584D01*
X129080591Y-90722257D01*
X129159195Y-90876524D01*
X129260967Y-91016602D01*
X129383397Y-91139032D01*
X129523483Y-91240810D01*
X129527627Y-91243349D01*
X129526718Y-91244831D01*
X129572056Y-91287641D01*
X129588860Y-91355459D01*
X129566330Y-91421597D01*
X129511621Y-91465055D01*
X129442101Y-91472036D01*
X129426656Y-91468095D01*
X129386858Y-91455164D01*
X129196409Y-91425000D01*
X129003591Y-91425000D01*
X128813143Y-91455164D01*
X128629765Y-91514746D01*
X128629762Y-91514747D01*
X128457955Y-91602288D01*
X128457950Y-91602292D01*
X128427771Y-91624216D01*
X128427771Y-91624219D01*
X129031828Y-92228274D01*
X128935956Y-92253963D01*
X128839044Y-92309916D01*
X128759916Y-92389044D01*
X128703963Y-92485956D01*
X128678274Y-92581827D01*
X128074219Y-91977771D01*
X128074216Y-91977771D01*
X128052292Y-92007950D01*
X128052288Y-92007955D01*
X127964747Y-92179762D01*
X127964746Y-92179765D01*
X127905164Y-92363143D01*
X127875000Y-92553590D01*
X125325000Y-92553590D01*
X125294835Y-92363143D01*
X125235253Y-92179765D01*
X125235252Y-92179762D01*
X125147712Y-92007957D01*
X125125781Y-91977771D01*
X125125780Y-91977771D01*
X124521725Y-92581826D01*
X124496037Y-92485956D01*
X124440084Y-92389044D01*
X124360956Y-92309916D01*
X124264044Y-92253963D01*
X124168172Y-92228274D01*
X124772227Y-91624218D01*
X124772227Y-91624217D01*
X124742043Y-91602288D01*
X124570237Y-91514747D01*
X124570234Y-91514746D01*
X124386856Y-91455164D01*
X124196409Y-91425000D01*
X124003591Y-91425000D01*
X123813145Y-91455163D01*
X123773342Y-91468096D01*
X123703501Y-91470090D01*
X123643669Y-91434008D01*
X123612842Y-91371307D01*
X123620807Y-91301893D01*
X123665037Y-91247804D01*
X123672419Y-91243425D01*
X123672373Y-91243349D01*
X123676516Y-91240810D01*
X123816602Y-91139032D01*
X123939032Y-91016602D01*
X124040804Y-90876524D01*
X124119408Y-90722257D01*
X124172914Y-90557584D01*
X124200000Y-90386571D01*
X124200000Y-90200000D01*
X123400000Y-90200000D01*
X123400000Y-89700000D01*
X124200000Y-89700000D01*
X124200000Y-89513428D01*
X124172914Y-89342415D01*
X124119408Y-89177742D01*
X124040804Y-89023475D01*
X123939032Y-88883397D01*
X123816602Y-88760967D01*
X123676524Y-88659195D01*
X123522257Y-88580591D01*
X123357589Y-88527087D01*
X123357581Y-88527085D01*
X123350000Y-88525884D01*
X123350000Y-89433011D01*
X123340060Y-89415795D01*
X123284205Y-89359940D01*
X123215796Y-89320444D01*
X123139496Y-89300000D01*
X123060504Y-89300000D01*
X122984204Y-89320444D01*
X122915795Y-89359940D01*
X122859940Y-89415795D01*
X122850000Y-89433011D01*
X122850000Y-88525884D01*
X122849999Y-88525884D01*
X122842418Y-88527085D01*
X122842410Y-88527087D01*
X122677742Y-88580591D01*
X122523475Y-88659195D01*
X122383397Y-88760967D01*
X122260967Y-88883397D01*
X122159195Y-89023475D01*
X122080591Y-89177742D01*
X122027085Y-89342415D01*
X122000000Y-89513428D01*
X118213933Y-89513428D01*
X118180896Y-89347341D01*
X118180893Y-89347332D01*
X118178856Y-89342415D01*
X118159981Y-89296844D01*
X118113016Y-89183459D01*
X118113009Y-89183446D01*
X118014464Y-89035965D01*
X118014461Y-89035961D01*
X117889038Y-88910538D01*
X117889034Y-88910535D01*
X117741553Y-88811990D01*
X117741540Y-88811983D01*
X117577667Y-88744106D01*
X117577658Y-88744103D01*
X117403694Y-88709500D01*
X117403691Y-88709500D01*
X117226309Y-88709500D01*
X117226306Y-88709500D01*
X117052341Y-88744103D01*
X117052332Y-88744106D01*
X116888459Y-88811983D01*
X116888446Y-88811990D01*
X116740965Y-88910535D01*
X116740961Y-88910538D01*
X116615538Y-89035961D01*
X116615535Y-89035965D01*
X116516990Y-89183446D01*
X116516983Y-89183459D01*
X116449106Y-89347332D01*
X116449103Y-89347341D01*
X116414500Y-89521304D01*
X110353131Y-89521304D01*
X110332916Y-89472500D01*
X110320778Y-89443195D01*
X110320771Y-89443182D01*
X110244114Y-89328458D01*
X110244111Y-89328454D01*
X110146545Y-89230888D01*
X110146541Y-89230885D01*
X110031817Y-89154228D01*
X110031804Y-89154221D01*
X109904332Y-89101421D01*
X109904322Y-89101418D01*
X109768995Y-89074500D01*
X109768993Y-89074500D01*
X109631007Y-89074500D01*
X109631005Y-89074500D01*
X109495677Y-89101418D01*
X109495667Y-89101421D01*
X109368195Y-89154221D01*
X109368182Y-89154228D01*
X109281391Y-89212221D01*
X109214713Y-89233099D01*
X109147333Y-89214614D01*
X109143609Y-89212221D01*
X109056817Y-89154228D01*
X109056804Y-89154221D01*
X108929332Y-89101421D01*
X108929322Y-89101418D01*
X108793995Y-89074500D01*
X108793993Y-89074500D01*
X108656007Y-89074500D01*
X108656005Y-89074500D01*
X108520677Y-89101418D01*
X108520667Y-89101421D01*
X108393195Y-89154221D01*
X108393177Y-89154231D01*
X108281390Y-89228925D01*
X108214713Y-89249803D01*
X108147333Y-89231318D01*
X108143610Y-89228925D01*
X108031822Y-89154231D01*
X108031804Y-89154221D01*
X107904332Y-89101421D01*
X107904322Y-89101418D01*
X107768995Y-89074500D01*
X107768993Y-89074500D01*
X107631007Y-89074500D01*
X107631005Y-89074500D01*
X107495677Y-89101418D01*
X107495667Y-89101421D01*
X107368195Y-89154221D01*
X107368182Y-89154228D01*
X107253458Y-89230885D01*
X107253454Y-89230888D01*
X107155888Y-89328454D01*
X107155885Y-89328458D01*
X107079228Y-89443182D01*
X107079221Y-89443195D01*
X107026421Y-89570667D01*
X107026418Y-89570677D01*
X106999500Y-89706004D01*
X106999500Y-89706007D01*
X106999500Y-89843993D01*
X106999500Y-89843995D01*
X106999499Y-89843995D01*
X106400500Y-89843995D01*
X106400500Y-89706004D01*
X106373581Y-89570677D01*
X106373580Y-89570676D01*
X106373580Y-89570672D01*
X106370265Y-89562669D01*
X106320778Y-89443195D01*
X106320771Y-89443182D01*
X106244114Y-89328458D01*
X106244111Y-89328454D01*
X106146545Y-89230888D01*
X106146541Y-89230885D01*
X106031817Y-89154228D01*
X106031804Y-89154221D01*
X105904332Y-89101421D01*
X105904322Y-89101418D01*
X105768995Y-89074500D01*
X105768993Y-89074500D01*
X105631007Y-89074500D01*
X105631005Y-89074500D01*
X105495677Y-89101418D01*
X105495667Y-89101421D01*
X105368195Y-89154221D01*
X105368182Y-89154228D01*
X105253458Y-89230885D01*
X105253454Y-89230888D01*
X105155888Y-89328454D01*
X105155885Y-89328458D01*
X105079228Y-89443182D01*
X105079221Y-89443195D01*
X105026421Y-89570667D01*
X105026418Y-89570677D01*
X104999500Y-89706004D01*
X104999500Y-89706007D01*
X104999500Y-89843993D01*
X104999500Y-89843995D01*
X104999499Y-89843995D01*
X99679943Y-89843995D01*
X99599663Y-89763715D01*
X99510167Y-89698693D01*
X99443349Y-89650147D01*
X99271194Y-89562429D01*
X99087441Y-89502725D01*
X98896611Y-89472500D01*
X98896606Y-89472500D01*
X98703394Y-89472500D01*
X98703389Y-89472500D01*
X98512558Y-89502725D01*
X98328805Y-89562429D01*
X98156650Y-89650147D01*
X98000336Y-89763715D01*
X97863715Y-89900336D01*
X97750147Y-90056650D01*
X97662429Y-90228805D01*
X97602725Y-90412558D01*
X97572500Y-90603388D01*
X95640098Y-90603388D01*
X95685398Y-90418484D01*
X95688607Y-90407577D01*
X95692676Y-90395775D01*
X95810649Y-90053611D01*
X95814835Y-90043066D01*
X95968804Y-89701758D01*
X95973931Y-89691656D01*
X96158525Y-89365896D01*
X96164580Y-89356271D01*
X96170791Y-89347334D01*
X96378226Y-89048828D01*
X96385137Y-89039798D01*
X96626066Y-88753212D01*
X96633763Y-88744865D01*
X96899956Y-88481546D01*
X96908371Y-88473953D01*
X97197574Y-88236134D01*
X97206653Y-88229341D01*
X97516442Y-88019014D01*
X97526105Y-88013083D01*
X97853841Y-87832041D01*
X97864007Y-87827018D01*
X98206956Y-87676767D01*
X98217566Y-87672688D01*
X98572845Y-87554494D01*
X98583759Y-87551412D01*
X98948360Y-87466272D01*
X98959522Y-87464200D01*
X99330388Y-87412829D01*
X99341708Y-87411788D01*
X99637601Y-87398202D01*
X99660452Y-87400685D01*
G37*
%TD.AperFunction*%
%TD*%
M02*
