%TF.GenerationSoftware,KiCad,Pcbnew,9.0.6*%
%TF.CreationDate,2026-03-28T21:07:54-04:00*%
%TF.ProjectId,InvictusDES_V2,496e7669-6374-4757-9344-45535f56322e,rev?*%
%TF.SameCoordinates,Original*%
%TF.FileFunction,Copper,L4,Bot*%
%TF.FilePolarity,Positive*%
%FSLAX46Y46*%
G04 Gerber Fmt 4.6, Leading zero omitted, Abs format (unit mm)*
G04 Created by KiCad (PCBNEW 9.0.6) date 2026-03-28 21:07:54*
%MOMM*%
%LPD*%
G01*
G04 APERTURE LIST*
G04 Aperture macros list*
%AMRoundRect*
0 Rectangle with rounded corners*
0 $1 Rounding radius*
0 $2 $3 $4 $5 $6 $7 $8 $9 X,Y pos of 4 corners*
0 Add a 4 corners polygon primitive as box body*
4,1,4,$2,$3,$4,$5,$6,$7,$8,$9,$2,$3,0*
0 Add four circle primitives for the rounded corners*
1,1,$1+$1,$2,$3*
1,1,$1+$1,$4,$5*
1,1,$1+$1,$6,$7*
1,1,$1+$1,$8,$9*
0 Add four rect primitives between the rounded corners*
20,1,$1+$1,$2,$3,$4,$5,0*
20,1,$1+$1,$4,$5,$6,$7,0*
20,1,$1+$1,$6,$7,$8,$9,0*
20,1,$1+$1,$8,$9,$2,$3,0*%
%AMFreePoly0*
4,1,29,0.660001,0.499999,0.660003,0.180000,0.610001,0.130000,0.523001,0.130000,0.487001,0.114999,0.139999,-0.232001,0.125000,-0.268000,0.125000,-0.475000,0.075001,-0.525000,-0.400000,-0.525000,-0.450000,-0.475000,-0.450000,-0.350001,-0.500000,-0.300002,-0.799999,-0.300002,-0.849999,-0.250002,-0.849999,-0.100002,-0.799999,-0.050002,-0.500000,-0.050002,-0.450000,0.000000,-0.450000,0.150000,
-0.500000,0.200000,-0.799999,0.200000,-0.849999,0.250000,-0.849999,0.400000,-0.799999,0.449999,-0.500000,0.449999,-0.400000,0.549999,0.610001,0.549999,0.660001,0.499999,0.660001,0.499999,$1*%
%AMFreePoly1*
4,1,29,0.460000,0.325000,0.759999,0.325000,0.809999,0.275001,0.809999,0.125001,0.759999,0.075001,0.460000,0.075001,0.410000,0.025001,0.410000,-0.124999,0.460000,-0.175001,0.759999,-0.175001,0.809999,-0.225001,0.809999,-0.375001,0.759999,-0.425001,0.460000,-0.425001,0.410000,-0.475000,0.410000,-0.599999,0.360000,-0.649999,-0.115001,-0.649999,-0.165000,-0.599999,-0.165000,-0.392999,
-0.179999,-0.357000,-0.527001,-0.010000,-0.563001,0.005001,-0.650001,0.005001,-0.700003,0.055001,-0.700001,0.375000,-0.650001,0.425000,0.360000,0.425000,0.460000,0.325000,0.460000,0.325000,$1*%
G04 Aperture macros list end*
%TA.AperFunction,EtchedComponent*%
%ADD10C,0.100000*%
%TD*%
%TA.AperFunction,SMDPad,CuDef*%
%ADD11R,0.850000X1.100000*%
%TD*%
%TA.AperFunction,SMDPad,CuDef*%
%ADD12R,0.750000X1.100000*%
%TD*%
%TA.AperFunction,SMDPad,CuDef*%
%ADD13R,1.200000X1.000000*%
%TD*%
%TA.AperFunction,SMDPad,CuDef*%
%ADD14R,1.550000X1.350000*%
%TD*%
%TA.AperFunction,SMDPad,CuDef*%
%ADD15R,1.900000X1.350000*%
%TD*%
%TA.AperFunction,SMDPad,CuDef*%
%ADD16R,1.170000X1.800000*%
%TD*%
%TA.AperFunction,SMDPad,CuDef*%
%ADD17RoundRect,0.200000X-0.200000X-0.275000X0.200000X-0.275000X0.200000X0.275000X-0.200000X0.275000X0*%
%TD*%
%TA.AperFunction,SMDPad,CuDef*%
%ADD18R,3.400000X1.300000*%
%TD*%
%TA.AperFunction,SMDPad,CuDef*%
%ADD19FreePoly0,90.000000*%
%TD*%
%TA.AperFunction,SMDPad,CuDef*%
%ADD20R,2.300000X1.500000*%
%TD*%
%TA.AperFunction,SMDPad,CuDef*%
%ADD21FreePoly1,90.000000*%
%TD*%
%TA.AperFunction,SMDPad,CuDef*%
%ADD22R,0.599999X0.220000*%
%TD*%
%TA.AperFunction,ComponentPad*%
%ADD23RoundRect,0.250000X-1.050000X-1.050000X1.050000X-1.050000X1.050000X1.050000X-1.050000X1.050000X0*%
%TD*%
%TA.AperFunction,ComponentPad*%
%ADD24C,2.600000*%
%TD*%
%TA.AperFunction,ComponentPad*%
%ADD25R,1.000000X1.000000*%
%TD*%
%TA.AperFunction,ComponentPad*%
%ADD26C,1.000000*%
%TD*%
%TA.AperFunction,HeatsinkPad*%
%ADD27O,1.200000X1.900000*%
%TD*%
%TA.AperFunction,HeatsinkPad*%
%ADD28C,1.450000*%
%TD*%
%TA.AperFunction,SMDPad,CuDef*%
%ADD29RoundRect,0.200000X0.275000X-0.200000X0.275000X0.200000X-0.275000X0.200000X-0.275000X-0.200000X0*%
%TD*%
%TA.AperFunction,SMDPad,CuDef*%
%ADD30RoundRect,0.050000X-0.100000X0.285000X-0.100000X-0.285000X0.100000X-0.285000X0.100000X0.285000X0*%
%TD*%
%TA.AperFunction,SMDPad,CuDef*%
%ADD31C,1.000000*%
%TD*%
%TA.AperFunction,SMDPad,CuDef*%
%ADD32RoundRect,0.200000X-0.275000X0.200000X-0.275000X-0.200000X0.275000X-0.200000X0.275000X0.200000X0*%
%TD*%
%TA.AperFunction,SMDPad,CuDef*%
%ADD33RoundRect,0.200000X0.200000X0.275000X-0.200000X0.275000X-0.200000X-0.275000X0.200000X-0.275000X0*%
%TD*%
%TA.AperFunction,SMDPad,CuDef*%
%ADD34RoundRect,0.140000X0.170000X-0.140000X0.170000X0.140000X-0.170000X0.140000X-0.170000X-0.140000X0*%
%TD*%
%TA.AperFunction,SMDPad,CuDef*%
%ADD35RoundRect,0.140000X0.140000X0.170000X-0.140000X0.170000X-0.140000X-0.170000X0.140000X-0.170000X0*%
%TD*%
%TA.AperFunction,SMDPad,CuDef*%
%ADD36RoundRect,0.225000X0.225000X0.250000X-0.225000X0.250000X-0.225000X-0.250000X0.225000X-0.250000X0*%
%TD*%
%TA.AperFunction,ViaPad*%
%ADD37C,0.600000*%
%TD*%
%TA.AperFunction,Conductor*%
%ADD38C,0.300000*%
%TD*%
%TA.AperFunction,Conductor*%
%ADD39C,0.500000*%
%TD*%
%TA.AperFunction,Conductor*%
%ADD40C,0.200000*%
%TD*%
%TA.AperFunction,Conductor*%
%ADD41C,0.254000*%
%TD*%
%TA.AperFunction,Conductor*%
%ADD42C,0.150000*%
%TD*%
%TA.AperFunction,Conductor*%
%ADD43C,0.750000*%
%TD*%
%TA.AperFunction,Conductor*%
%ADD44C,0.250000*%
%TD*%
G04 APERTURE END LIST*
%TO.C,U1*%
D10*
X137020001Y-112205000D02*
X136650001Y-112205000D01*
X136650001Y-112075000D01*
X137020001Y-112075000D01*
X137020001Y-112205000D01*
%TA.AperFunction,EtchedComponent*%
G36*
X137020001Y-112205000D02*
G01*
X136650001Y-112205000D01*
X136650001Y-112075000D01*
X137020001Y-112075000D01*
X137020001Y-112205000D01*
G37*
%TD.AperFunction*%
%TD*%
D11*
%TO.P,J12,1,DAT2*%
%TO.N,unconnected-(J12-DAT2-Pad1)*%
X137795000Y-99112500D03*
%TO.P,J12,2,DAT3/CD*%
%TO.N,SD_CS*%
X138895000Y-99112500D03*
%TO.P,J12,3,CMD*%
%TO.N,SPI2_MOSI*%
X139995000Y-99112500D03*
%TO.P,J12,4,VDD*%
%TO.N,+3V3*%
X141095000Y-99112500D03*
%TO.P,J12,5,CLK*%
%TO.N,SPI2_SCK*%
X142195000Y-99112500D03*
%TO.P,J12,6,VSS*%
%TO.N,GND*%
X143295000Y-99112500D03*
%TO.P,J12,7,DAT0*%
%TO.N,SPI2_MISO*%
X144395000Y-99112500D03*
D12*
%TO.P,J12,8,DAT1*%
%TO.N,unconnected-(J12-DAT1-Pad8)*%
X145445000Y-99112500D03*
D13*
%TO.P,J12,9,SHIELD*%
%TO.N,GND*%
X135160000Y-92962500D03*
%TO.P,J12,10*%
%TO.N,N/C*%
X135160000Y-89262500D03*
D14*
%TO.P,J12,11*%
X135335000Y-98987500D03*
D15*
X138660000Y-88287500D03*
X144630000Y-88287500D03*
D16*
X146655000Y-98762500D03*
%TD*%
D17*
%TO.P,R10,1*%
%TO.N,+3V3*%
X117750000Y-121125000D03*
%TO.P,R10,2*%
%TO.N,I2C2_SDA*%
X119400000Y-121125000D03*
%TD*%
D18*
%TO.P,BZ1,1,+*%
%TO.N,BUZZER*%
X104700000Y-97500000D03*
%TO.P,BZ1,2,-*%
%TO.N,GND*%
X104700000Y-106200000D03*
%TD*%
D19*
%TO.P,U1,1,VIN*%
%TO.N,+VBAT*%
X137184999Y-113140000D03*
D20*
%TO.P,U1,2,SW*%
%TO.N,unconnected-(U1-SW-Pad2)*%
X135185000Y-113290000D03*
%TO.P,U1,3,VOUT*%
%TO.N,5V_REG*%
X135185000Y-110990000D03*
D21*
%TO.P,U1,4,PGND*%
%TO.N,GND*%
X137060000Y-111100000D03*
D22*
%TO.P,U1,5,PG*%
%TO.N,unconnected-(U1-PG-Pad5)*%
X137759999Y-111640001D03*
%TO.P,U1,6,EN*%
%TO.N,Net-(U1-EN)*%
X137759999Y-112140000D03*
%TO.P,U1,7,FB*%
%TO.N,Net-(U1-FB)*%
X137759999Y-112639999D03*
%TD*%
D23*
%TO.P,J1,1,Pin_1*%
%TO.N,GND*%
X129450000Y-121817500D03*
D24*
%TO.P,J1,2,Pin_2*%
%TO.N,+VBAT*%
X134450000Y-121817500D03*
%TD*%
D25*
%TO.P,J2,1,Pin_1*%
%TO.N,+3V3*%
X118585000Y-94690000D03*
D26*
%TO.P,J2,2,Pin_2*%
%TO.N,SWDIO*%
X117315000Y-94690000D03*
%TO.P,J2,3,Pin_3*%
%TO.N,GND*%
X118585000Y-93420000D03*
%TO.P,J2,4,Pin_4*%
%TO.N,SWCLK*%
X117315000Y-93420000D03*
%TO.P,J2,5,Pin_5*%
%TO.N,GND*%
X118585000Y-92150000D03*
%TO.P,J2,6,Pin_6*%
%TO.N,SWO*%
X117315000Y-92150000D03*
%TO.P,J2,7,Pin_7*%
%TO.N,unconnected-(J2-Pin_7-Pad7)*%
X118585000Y-90880000D03*
%TO.P,J2,8,Pin_8*%
%TO.N,unconnected-(J2-Pin_8-Pad8)*%
X117315000Y-90880000D03*
%TO.P,J2,9,Pin_9*%
%TO.N,GND*%
X118585000Y-89610000D03*
%TO.P,J2,10,Pin_10*%
%TO.N,NRST*%
X117315000Y-89610000D03*
%TD*%
D27*
%TO.P,J10,6,Shield*%
%TO.N,GND*%
X130100000Y-89950000D03*
D28*
X129100000Y-92650000D03*
X124100000Y-92650000D03*
D27*
X123100000Y-89950000D03*
%TD*%
D29*
%TO.P,R1,1*%
%TO.N,+VBAT*%
X131602500Y-117729999D03*
%TO.P,R1,2*%
%TO.N,Net-(U1-EN)*%
X131602500Y-116079999D03*
%TD*%
D30*
%TO.P,U3,1,GND*%
%TO.N,GND*%
X134940000Y-105648125D03*
%TO.P,U3,2,VOUT*%
%TO.N,5V_MUX*%
X135440000Y-105648125D03*
%TO.P,U3,3,VIN1*%
%TO.N,VUSB*%
X135940000Y-105648125D03*
%TO.P,U3,4,PR1*%
%TO.N,Net-(U3-PR1)*%
X136440000Y-105648125D03*
%TO.P,U3,5,MODE*%
%TO.N,VUSB*%
X136440000Y-107128125D03*
%TO.P,U3,6,VIN2*%
%TO.N,5V_REG*%
X135940000Y-107128125D03*
%TO.P,U3,7,VOUT*%
%TO.N,5V_MUX*%
X135440000Y-107128125D03*
%TO.P,U3,8,ST*%
%TO.N,unconnected-(U3-ST-Pad8)*%
X134940000Y-107128125D03*
%TD*%
D17*
%TO.P,R9,1*%
%TO.N,Net-(U3-PR1)*%
X139565000Y-103500625D03*
%TO.P,R9,2*%
%TO.N,GND*%
X141215000Y-103500625D03*
%TD*%
D31*
%TO.P,TP6,1,1*%
%TO.N,SPI2_SCK*%
X140750000Y-101450000D03*
%TD*%
D29*
%TO.P,R3,1*%
%TO.N,Net-(U1-EN)*%
X131602498Y-114380000D03*
%TO.P,R3,2*%
%TO.N,GND*%
X131602498Y-112730000D03*
%TD*%
D31*
%TO.P,TP5,1,1*%
%TO.N,SPI2_MISO*%
X132702500Y-102550000D03*
%TD*%
%TO.P,TP4,1,1*%
%TO.N,SPI2_MOSI*%
X132600000Y-100100000D03*
%TD*%
D32*
%TO.P,R4,1*%
%TO.N,Net-(U1-FB)*%
X139960000Y-112565000D03*
%TO.P,R4,2*%
%TO.N,GND*%
X139960000Y-114215000D03*
%TD*%
D33*
%TO.P,R8,1*%
%TO.N,Net-(U3-PR1)*%
X137965000Y-103500625D03*
%TO.P,R8,2*%
%TO.N,VUSB*%
X136315000Y-103500625D03*
%TD*%
D34*
%TO.P,C13,1*%
%TO.N,Net-(U1-FB)*%
X141460000Y-110670000D03*
%TO.P,C13,2*%
%TO.N,5V_REG*%
X141460000Y-109710000D03*
%TD*%
D35*
%TO.P,C5,1*%
%TO.N,+VBAT*%
X137189999Y-115870000D03*
%TO.P,C5,2*%
%TO.N,GND*%
X136229999Y-115870000D03*
%TD*%
D36*
%TO.P,C20,1*%
%TO.N,+3V3*%
X108525000Y-120900000D03*
%TO.P,C20,2*%
%TO.N,GND*%
X106975000Y-120900000D03*
%TD*%
D29*
%TO.P,R5,1*%
%TO.N,Net-(U1-FB)*%
X139960000Y-110920000D03*
%TO.P,R5,2*%
%TO.N,5V_REG*%
X139960000Y-109270000D03*
%TD*%
D36*
%TO.P,C3,1*%
%TO.N,+VBAT*%
X137214999Y-117370000D03*
%TO.P,C3,2*%
%TO.N,GND*%
X135664999Y-117370000D03*
%TD*%
D35*
%TO.P,C16,1*%
%TO.N,GND*%
X136940000Y-109330000D03*
%TO.P,C16,2*%
%TO.N,5V_REG*%
X135980000Y-109330000D03*
%TD*%
D37*
%TO.N,SERVO_4*%
X140850000Y-93200000D03*
%TO.N,+3V3*%
X105700000Y-89775000D03*
%TO.N,USART3_RX*%
X107700000Y-89775000D03*
%TO.N,GND*%
X106700000Y-89775000D03*
%TO.N,USART3_TX*%
X108725000Y-89775000D03*
%TO.N,+3V3*%
X114100000Y-91475000D03*
%TO.N,BUZZER*%
X110800000Y-100450000D03*
%TO.N,GND*%
X104850000Y-115450000D03*
X135470000Y-115869999D03*
X134600000Y-117350000D03*
X131602498Y-111799995D03*
X143850000Y-97950000D03*
X103850000Y-104800000D03*
X101500000Y-99200000D03*
X121475000Y-125050000D03*
X117300000Y-113200000D03*
X108300000Y-118525000D03*
X117600000Y-111700000D03*
X117300000Y-118122500D03*
X133250000Y-110600000D03*
X111600000Y-125550000D03*
X138000000Y-110150000D03*
X110050000Y-94250000D03*
X128350000Y-110400000D03*
X108050000Y-100150000D03*
X97350000Y-100650000D03*
X101225000Y-104300000D03*
X125300000Y-94000000D03*
X129300000Y-113000000D03*
X96150000Y-107200000D03*
X126900000Y-94364500D03*
X132350000Y-110600000D03*
X142190000Y-103463125D03*
X129300000Y-113950000D03*
X118970000Y-119067500D03*
X105800000Y-111775000D03*
X132900000Y-115700000D03*
X118750000Y-98700000D03*
X96425000Y-102550000D03*
X99600000Y-124700000D03*
X107350000Y-106050000D03*
X107640638Y-125100000D03*
X114750000Y-120000000D03*
X106950000Y-119800000D03*
X105725000Y-110162500D03*
X137770000Y-109380000D03*
X119875000Y-117822500D03*
X108050000Y-108350000D03*
X98975000Y-95375000D03*
X132650000Y-98475000D03*
X137400000Y-105800000D03*
X136360000Y-93030000D03*
X128350000Y-111400000D03*
X139960000Y-115190000D03*
X134959415Y-104809415D03*
X107800000Y-122050000D03*
X103950000Y-99000000D03*
%TO.N,+3V3*%
X107250000Y-96400000D03*
X116950000Y-99150000D03*
X110547000Y-119503000D03*
X125450000Y-107050000D03*
X125450000Y-107950000D03*
X112650000Y-123350000D03*
X101550000Y-100800000D03*
X121850000Y-108850000D03*
X125450000Y-108850000D03*
X101600000Y-123400000D03*
X103200000Y-112800000D03*
X118850000Y-115300000D03*
X105700000Y-118560000D03*
X124100000Y-96770000D03*
X108730000Y-112600000D03*
X124550000Y-118000000D03*
X116675000Y-121125000D03*
X121850000Y-109750000D03*
X117270000Y-119897500D03*
X140300000Y-97650000D03*
X125450000Y-109750000D03*
X115850000Y-110920000D03*
X121850000Y-107950000D03*
X122475000Y-125075000D03*
X121850000Y-107050000D03*
%TO.N,5V_MUX*%
X134850000Y-107950000D03*
%TO.N,+VBAT*%
X133933333Y-119800000D03*
X138150000Y-114650000D03*
X137150000Y-114650000D03*
X135066667Y-119800000D03*
X131632501Y-118679998D03*
X132800000Y-119800000D03*
X136200000Y-119800000D03*
%TO.N,5V_REG*%
X134425000Y-111350000D03*
X135975000Y-110600000D03*
X135140001Y-109329998D03*
X135200000Y-111350000D03*
X135975000Y-111350000D03*
X134425000Y-110600000D03*
X139960000Y-108389998D03*
X135200000Y-110600000D03*
%TO.N,VUSB*%
X134150000Y-103450000D03*
%TO.N,USART3_RX*%
X112900000Y-96950000D03*
%TO.N,TIM2_CH1*%
X109700000Y-89775000D03*
X114275000Y-95675000D03*
%TO.N,USART3_TX*%
X113550000Y-96400000D03*
%TO.N,NRST*%
X107800000Y-103750000D03*
%TO.N,SERVO_2*%
X119284415Y-103634415D03*
X138830000Y-93200000D03*
%TO.N,SERVO_3*%
X139850000Y-93200000D03*
X120350000Y-103700000D03*
%TO.N,SERVO_6*%
X118750000Y-106100000D03*
X142850000Y-93200000D03*
%TO.N,SERVO_4*%
X120600000Y-104650000D03*
%TO.N,SERVO_5*%
X141870000Y-93200000D03*
X119850000Y-105450000D03*
%TO.N,I2C2_SDA*%
X116450000Y-110100000D03*
X119450000Y-125050000D03*
%TO.N,SERVO_1*%
X115550000Y-103200000D03*
X137850000Y-93200000D03*
%TO.N,SPI2_MOSI*%
X119350000Y-106730000D03*
%TO.N,SD_CS*%
X115200000Y-107150000D03*
%TO.N,SPI2_SCK*%
X119152000Y-108000000D03*
%TO.N,SPI2_MISO*%
X118450000Y-107400000D03*
%TO.N,SPI1_MOSI*%
X112900000Y-121850000D03*
X107800000Y-114450000D03*
X106650000Y-124705000D03*
X110700000Y-113900000D03*
%TO.N,SPI1_SCK*%
X106600000Y-123450000D03*
X109450000Y-114600000D03*
X111400000Y-115750000D03*
X111338638Y-120054577D03*
X111477354Y-118327354D03*
%TO.N,MAG_CS*%
X109875000Y-107600000D03*
X109850000Y-118700000D03*
%TO.N,SPI1_MISO*%
X112750000Y-119150000D03*
X109900000Y-115600000D03*
%TO.N,BARO_CS*%
X107450000Y-113300000D03*
X112505000Y-111800000D03*
%TO.N,FLASH_CS*%
X99329677Y-120879676D03*
X104312500Y-108137500D03*
%TO.N,Net-(U1-EN)*%
X138800000Y-111900000D03*
X132782501Y-114379998D03*
%TD*%
D38*
%TO.N,BUZZER*%
X107850000Y-97500000D02*
X104700000Y-97500000D01*
X110800000Y-100450000D02*
X107850000Y-97500000D01*
D39*
%TO.N,GND*%
X136229999Y-115870000D02*
X135470000Y-115869999D01*
X143850000Y-97950000D02*
X143295000Y-98505000D01*
X131602498Y-111799995D02*
X131602498Y-112730000D01*
D38*
X135227500Y-93030000D02*
X135160000Y-92962500D01*
D39*
X139960000Y-115190000D02*
X139960000Y-114215000D01*
D38*
X134940000Y-104828830D02*
X134940000Y-105648125D01*
D39*
X134600000Y-117350000D02*
X135644999Y-117350000D01*
X141215000Y-103500625D02*
X142152500Y-103500625D01*
X103850000Y-104800000D02*
X103850000Y-105350000D01*
D38*
X135644999Y-117350000D02*
X135664999Y-117370000D01*
X106800000Y-121075000D02*
X106975000Y-120900000D01*
D39*
X106825000Y-121075000D02*
X106800000Y-121075000D01*
X136360000Y-93030000D02*
X135227500Y-93030000D01*
X143295000Y-98505000D02*
X143295000Y-99112500D01*
D38*
X134959415Y-104809415D02*
X134940000Y-104828830D01*
D39*
X103850000Y-105350000D02*
X104900000Y-106400000D01*
X107800000Y-122050000D02*
X106825000Y-121075000D01*
%TO.N,+3V3*%
X140300000Y-97650000D02*
X140352552Y-97650000D01*
X116675000Y-121125000D02*
X117700000Y-121125000D01*
D38*
X110550000Y-119506000D02*
X110544000Y-119506000D01*
D39*
X141100000Y-98397448D02*
X141100000Y-99107500D01*
D38*
X110547000Y-119503000D02*
X110550000Y-119506000D01*
X109150000Y-120900000D02*
X108525000Y-120900000D01*
D39*
X140352552Y-97650000D02*
X141100000Y-98397448D01*
D38*
X110544000Y-119506000D02*
X109150000Y-120900000D01*
%TO.N,5V_MUX*%
X135440000Y-107513729D02*
X135003729Y-107950000D01*
X135440000Y-107128125D02*
X135440000Y-105648125D01*
X135003729Y-107950000D02*
X134850000Y-107950000D01*
X135440000Y-107128125D02*
X135440000Y-107513729D01*
D39*
%TO.N,+VBAT*%
X131632501Y-118679998D02*
X131632501Y-117760000D01*
X131632501Y-117760000D02*
X131602500Y-117729999D01*
X137214999Y-117370000D02*
X137214999Y-115895000D01*
X137214999Y-115895000D02*
X137189999Y-115870000D01*
%TO.N,5V_REG*%
X139960000Y-109270000D02*
X141020000Y-109270000D01*
X135980000Y-109330000D02*
X135140003Y-109330000D01*
X135140003Y-109330000D02*
X135140001Y-109329998D01*
X141020000Y-109270000D02*
X141460000Y-109710000D01*
D38*
X139960000Y-108389998D02*
X139960000Y-109270000D01*
%TO.N,VUSB*%
X135940000Y-105648125D02*
X135940000Y-104898125D01*
X135940000Y-106146875D02*
X135940000Y-105648125D01*
X136440000Y-106646875D02*
X135940000Y-106146875D01*
D39*
X135940000Y-104898125D02*
X136315000Y-104523125D01*
D38*
X136440000Y-107128125D02*
X136440000Y-106646875D01*
D39*
X136315000Y-104523125D02*
X136315000Y-103500625D01*
X134150000Y-103450000D02*
X136264375Y-103450000D01*
X136264375Y-103450000D02*
X136315000Y-103500625D01*
D38*
%TO.N,USART3_RX*%
X107700000Y-93100000D02*
X107700000Y-89775000D01*
X112900000Y-96950000D02*
X111550000Y-96950000D01*
X111550000Y-96950000D02*
X107700000Y-93100000D01*
%TO.N,TIM2_CH1*%
X109700000Y-89700000D02*
X109700000Y-91100000D01*
X109700000Y-91100000D02*
X114275000Y-95675000D01*
%TO.N,USART3_TX*%
X108700000Y-91550000D02*
X108700000Y-89675000D01*
X108700000Y-89675000D02*
X108725000Y-89650000D01*
X113550000Y-96400000D02*
X108700000Y-91550000D01*
%TO.N,NRST*%
X115950000Y-96650000D02*
X115950000Y-90500000D01*
X107800000Y-103750000D02*
X108850000Y-103750000D01*
X116840000Y-89610000D02*
X117315000Y-89610000D01*
X108850000Y-103750000D02*
X115950000Y-96650000D01*
X115950000Y-90500000D02*
X116840000Y-89610000D01*
%TO.N,I2C2_SDA*%
X119400000Y-121075000D02*
X119400000Y-121125000D01*
D40*
X119400000Y-121075000D02*
X119450000Y-121125000D01*
X119450000Y-121125000D02*
X119450000Y-125050000D01*
X119400000Y-119925000D02*
X120775000Y-118550000D01*
X120775000Y-118550000D02*
X120775000Y-112425000D01*
X118450000Y-110100000D02*
X116450000Y-110100000D01*
X119400000Y-119925000D02*
X119400000Y-121125000D01*
X120775000Y-112425000D02*
X118450000Y-110100000D01*
D38*
X119400000Y-121125000D02*
X119475000Y-121200000D01*
X119425000Y-121050000D02*
X119400000Y-121075000D01*
D40*
%TO.N,SPI2_MOSI*%
X128190112Y-100398000D02*
X128190112Y-100150000D01*
X119350000Y-106730000D02*
X119460000Y-106730000D01*
X128810112Y-100150000D02*
X128810112Y-100582000D01*
X126050000Y-100150000D02*
X127322112Y-100150000D01*
X139995000Y-99705000D02*
X139995000Y-99112500D01*
X129678112Y-99470000D02*
X129802112Y-99470000D01*
X139550000Y-100150000D02*
X139995000Y-99705000D01*
X132000000Y-100150000D02*
X139550000Y-100150000D01*
X129430112Y-100150000D02*
X129430112Y-99718000D01*
X130918112Y-99470000D02*
X131042112Y-99470000D01*
X131290112Y-99718000D02*
X131290112Y-99902000D01*
X130050112Y-99718000D02*
X130050112Y-100150000D01*
X130050112Y-100150000D02*
X130050112Y-100582000D01*
X128190112Y-100582000D02*
X128190112Y-100398000D01*
X120000000Y-106190000D02*
X120010000Y-106190000D01*
X120010000Y-106190000D02*
X126050000Y-100150000D01*
X129430112Y-100582000D02*
X129430112Y-100150000D01*
X128190112Y-100150000D02*
X128190112Y-99718000D01*
X119460000Y-106730000D02*
X120000000Y-106190000D01*
X131538112Y-100150000D02*
X131662112Y-100150000D01*
X127818112Y-100830000D02*
X127942112Y-100830000D01*
X128438112Y-99470000D02*
X128562112Y-99470000D01*
X130670112Y-100150000D02*
X130670112Y-99902000D01*
X128810112Y-99718000D02*
X128810112Y-100150000D01*
X129058112Y-100830000D02*
X129182112Y-100830000D01*
X130670112Y-99902000D02*
X130670112Y-99718000D01*
X131662112Y-100150000D02*
X132000000Y-100150000D01*
X127570112Y-100398000D02*
X127570112Y-100582000D01*
X130670112Y-100582000D02*
X130670112Y-100150000D01*
X130298112Y-100830000D02*
X130422112Y-100830000D01*
X127942112Y-100830000D02*
G75*
G03*
X128190100Y-100582000I-12J248000D01*
G01*
X130050112Y-100582000D02*
G75*
G03*
X130298112Y-100829988I247988J0D01*
G01*
X128562112Y-99470000D02*
G75*
G02*
X128810100Y-99718000I-12J-248000D01*
G01*
X130670112Y-99718000D02*
G75*
G02*
X130918112Y-99470012I247988J0D01*
G01*
X131290112Y-99902000D02*
G75*
G03*
X131538112Y-100149988I247988J0D01*
G01*
X129802112Y-99470000D02*
G75*
G02*
X130050100Y-99718000I-12J-248000D01*
G01*
X128190112Y-99718000D02*
G75*
G02*
X128438112Y-99470012I247988J0D01*
G01*
X127322112Y-100150000D02*
G75*
G02*
X127570100Y-100398000I-12J-248000D01*
G01*
X128810112Y-100582000D02*
G75*
G03*
X129058112Y-100829988I247988J0D01*
G01*
X130422112Y-100830000D02*
G75*
G03*
X130670100Y-100582000I-12J248000D01*
G01*
X131042112Y-99470000D02*
G75*
G02*
X131290100Y-99718000I-12J-248000D01*
G01*
X129430112Y-99718000D02*
G75*
G02*
X129678112Y-99470012I247988J0D01*
G01*
X129182112Y-100830000D02*
G75*
G03*
X129430100Y-100582000I-12J248000D01*
G01*
X127570112Y-100582000D02*
G75*
G03*
X127818112Y-100829988I247988J0D01*
G01*
D41*
%TO.N,SD_CS*%
X115200000Y-106200000D02*
X123650000Y-97750000D01*
X138895000Y-98245000D02*
X138895000Y-99112500D01*
X138400000Y-97750000D02*
X138895000Y-98245000D01*
X115200000Y-107150000D02*
X115200000Y-106200000D01*
X123650000Y-97750000D02*
X138400000Y-97750000D01*
D40*
%TO.N,SPI2_SCK*%
X125800000Y-101550000D02*
X140507500Y-101550000D01*
X119350000Y-108000000D02*
X125800000Y-101550000D01*
X140507500Y-101550000D02*
X142195000Y-99862500D01*
X119152000Y-108000000D02*
X119350000Y-108000000D01*
X142195000Y-99862500D02*
X142195000Y-99112500D01*
%TO.N,SPI2_MISO*%
X118450000Y-108300000D02*
X118850000Y-108700000D01*
X132602500Y-102450000D02*
X132702500Y-102550000D01*
X125550000Y-102450000D02*
X132602500Y-102450000D01*
X118450000Y-107400000D02*
X118450000Y-108300000D01*
X118850000Y-108700000D02*
X119300000Y-108700000D01*
X119300000Y-108700000D02*
X125550000Y-102450000D01*
D39*
%TO.N,Net-(U3-PR1)*%
X137965000Y-103500625D02*
X137965000Y-104224125D01*
X137965000Y-104224125D02*
X136541000Y-105648125D01*
X137965000Y-103500625D02*
X139565000Y-103500625D01*
D42*
%TO.N,SPI1_MOSI*%
X112900000Y-121850000D02*
X111250000Y-121850000D01*
X108350000Y-113900000D02*
X107800000Y-114450000D01*
X110700000Y-113900000D02*
X108350000Y-113900000D01*
X106955000Y-124400000D02*
X106650000Y-124705000D01*
X108700000Y-124400000D02*
X106955000Y-124400000D01*
X111250000Y-121850000D02*
X108700000Y-124400000D01*
%TO.N,SPI1_SCK*%
X111338638Y-120054577D02*
X111345423Y-120054577D01*
X111400000Y-115750000D02*
X111400000Y-115100000D01*
X110900000Y-114600000D02*
X109450000Y-114600000D01*
X111345423Y-120054577D02*
X111477354Y-119922646D01*
X111338638Y-120061362D02*
X107950000Y-123450000D01*
X111400000Y-115100000D02*
X110900000Y-114600000D01*
X111477354Y-119922646D02*
X111477354Y-118327354D01*
X107950000Y-123450000D02*
X106600000Y-123450000D01*
X111338638Y-120054577D02*
X111338638Y-120061362D01*
D41*
%TO.N,MAG_CS*%
X106236115Y-115086115D02*
X106236115Y-112763885D01*
X109850000Y-118700000D02*
X106236115Y-115086115D01*
X106236115Y-112763885D02*
X109875000Y-109125000D01*
X109875000Y-109125000D02*
X109875000Y-107600000D01*
D42*
%TO.N,SPI1_MISO*%
X112750000Y-118450000D02*
X112750000Y-119150000D01*
X109900000Y-115600000D02*
X112750000Y-118450000D01*
D40*
%TO.N,BARO_CS*%
X111100000Y-111800000D02*
X112505000Y-111800000D01*
X107453000Y-113303000D02*
X109597000Y-113303000D01*
X109597000Y-113303000D02*
X111100000Y-111800000D01*
X107450000Y-113300000D02*
X107453000Y-113303000D01*
D38*
%TO.N,FLASH_CS*%
X104312500Y-108137500D02*
X104312500Y-108237500D01*
X104312500Y-108237500D02*
X101800000Y-110750000D01*
X101800000Y-118409353D02*
X99329677Y-120879676D01*
X101800000Y-110750000D02*
X101800000Y-118409353D01*
D42*
%TO.N,Net-(U1-EN)*%
X131602504Y-114379998D02*
X131602500Y-114380002D01*
D40*
X138310000Y-112140000D02*
X137759999Y-112140000D01*
X138800000Y-111950000D02*
X138750000Y-111900000D01*
D39*
X131602500Y-114380002D02*
X131602498Y-114380000D01*
D40*
X138750000Y-111900000D02*
X138550000Y-111900000D01*
X138800000Y-111900000D02*
X138800000Y-111950000D01*
D38*
X132782501Y-114379998D02*
X131602504Y-114379998D01*
D40*
X138550000Y-111900000D02*
X138310000Y-112140000D01*
D43*
X131602500Y-116079999D02*
X131602500Y-114380002D01*
D38*
%TO.N,Net-(U1-FB)*%
X139960000Y-110920000D02*
X140680000Y-110920000D01*
X140680000Y-110920000D02*
X140930000Y-110670000D01*
D39*
X139960000Y-110920000D02*
X139960000Y-112565000D01*
D40*
X139885001Y-112639999D02*
X137759999Y-112639999D01*
D44*
X139960000Y-112565000D02*
X139885001Y-112639999D01*
D38*
X140930000Y-110670000D02*
X141460000Y-110670000D01*
D40*
%TO.N,SPI2_MISO*%
X142350000Y-102350000D02*
X144395000Y-100305000D01*
X132902500Y-102350000D02*
X142350000Y-102350000D01*
X132702500Y-102550000D02*
X132902500Y-102350000D01*
X144395000Y-100305000D02*
X144395000Y-99112500D01*
%TD*%
%TA.AperFunction,Conductor*%
%TO.N,+VBAT*%
G36*
X136943039Y-119219685D02*
G01*
X136988794Y-119272489D01*
X137000000Y-119324000D01*
X137000000Y-123476000D01*
X136980315Y-123543039D01*
X136927511Y-123588794D01*
X136876000Y-123600000D01*
X132324000Y-123600000D01*
X132256961Y-123580315D01*
X132211206Y-123527511D01*
X132200000Y-123476000D01*
X132200000Y-119324000D01*
X132219685Y-119256961D01*
X132272489Y-119211206D01*
X132324000Y-119200000D01*
X136876000Y-119200000D01*
X136943039Y-119219685D01*
G37*
%TD.AperFunction*%
%TD*%
%TA.AperFunction,Conductor*%
%TO.N,5V_REG*%
G36*
X136033039Y-106809685D02*
G01*
X136078794Y-106862489D01*
X136090000Y-106914000D01*
X136090000Y-107460001D01*
X136097668Y-107473360D01*
X136097666Y-107473360D01*
X136097679Y-107473378D01*
X136383539Y-107971325D01*
X136400000Y-108033061D01*
X136400000Y-111776000D01*
X136380315Y-111843039D01*
X136327511Y-111888794D01*
X136276000Y-111900000D01*
X134014000Y-111900000D01*
X133946961Y-111880315D01*
X133901206Y-111827511D01*
X133890000Y-111776000D01*
X133890000Y-109287534D01*
X133909685Y-109220495D01*
X133921774Y-109204647D01*
X134563052Y-108491113D01*
X134622504Y-108454410D01*
X134655278Y-108450000D01*
X135350000Y-108450000D01*
X135555139Y-107988438D01*
X135685969Y-107694068D01*
X135691886Y-107682449D01*
X135721885Y-107630490D01*
X135730997Y-107596481D01*
X135737454Y-107578229D01*
X135785691Y-107469696D01*
X135785691Y-107469693D01*
X135790000Y-107460000D01*
X135790000Y-106914000D01*
X135792550Y-106905314D01*
X135791262Y-106896353D01*
X135802240Y-106872312D01*
X135809685Y-106846961D01*
X135816525Y-106841033D01*
X135820287Y-106832797D01*
X135842521Y-106818507D01*
X135862489Y-106801206D01*
X135873003Y-106798918D01*
X135879065Y-106795023D01*
X135914000Y-106790000D01*
X135966000Y-106790000D01*
X136033039Y-106809685D01*
G37*
%TD.AperFunction*%
%TD*%
%TA.AperFunction,Conductor*%
%TO.N,+VBAT*%
G36*
X136947424Y-112556116D02*
G01*
X136949544Y-112555572D01*
X136980795Y-112565915D01*
X137012363Y-112575185D01*
X137013869Y-112576862D01*
X137015874Y-112577526D01*
X137041746Y-112601533D01*
X137050211Y-112612002D01*
X137070000Y-112651579D01*
X137127270Y-112707301D01*
X137131921Y-112713053D01*
X137142617Y-112738755D01*
X137156293Y-112763005D01*
X137155856Y-112770567D01*
X137158766Y-112777560D01*
X137159499Y-112791003D01*
X137159499Y-112794864D01*
X137162413Y-112819987D01*
X137162414Y-112819990D01*
X137207792Y-112922763D01*
X137207793Y-112922764D01*
X137287234Y-113002205D01*
X137390008Y-113047584D01*
X137415134Y-113050499D01*
X137586001Y-113050498D01*
X137653039Y-113070182D01*
X137698794Y-113122986D01*
X137710000Y-113174498D01*
X137710000Y-113541579D01*
X138676000Y-113541579D01*
X138743039Y-113561264D01*
X138788794Y-113614068D01*
X138800000Y-113665579D01*
X138800000Y-118225510D01*
X138780315Y-118292549D01*
X138727511Y-118338304D01*
X138675512Y-118349509D01*
X136784241Y-118342067D01*
X136717280Y-118322119D01*
X136671733Y-118269135D01*
X136660731Y-118217339D01*
X136669868Y-116664000D01*
X136677974Y-116620626D01*
X136796730Y-116308592D01*
X136801718Y-116295485D01*
X136803785Y-116290050D01*
X136800065Y-116278745D01*
X136800000Y-116274734D01*
X136800000Y-116165917D01*
X136806959Y-116124960D01*
X136807709Y-116122819D01*
X136810499Y-116093066D01*
X136810499Y-115646934D01*
X136807709Y-115617181D01*
X136807707Y-115617175D01*
X136806957Y-115615030D01*
X136800000Y-115574079D01*
X136800000Y-115500000D01*
X136656488Y-115250268D01*
X136640000Y-115188485D01*
X136640000Y-112679500D01*
X136659685Y-112612461D01*
X136712489Y-112566706D01*
X136764000Y-112555500D01*
X136945324Y-112555500D01*
X136947424Y-112556116D01*
G37*
%TD.AperFunction*%
%TD*%
%TA.AperFunction,Conductor*%
%TO.N,GND*%
G36*
X138371889Y-108930324D02*
G01*
X138418222Y-108982622D01*
X138430000Y-109035370D01*
X138430000Y-111146000D01*
X138410315Y-111213039D01*
X138357511Y-111258794D01*
X138306000Y-111270000D01*
X137450000Y-111270000D01*
X137435442Y-111284174D01*
X137435440Y-111284176D01*
X137434833Y-111284766D01*
X137434833Y-111284767D01*
X137132459Y-111579184D01*
X137070000Y-111639999D01*
X137070000Y-111676000D01*
X137067449Y-111684685D01*
X137068738Y-111693647D01*
X137057759Y-111717687D01*
X137050315Y-111743039D01*
X137043474Y-111748966D01*
X137039713Y-111757203D01*
X137017478Y-111771492D01*
X136997511Y-111788794D01*
X136986996Y-111791081D01*
X136980935Y-111794977D01*
X136946000Y-111800000D01*
X136734000Y-111800000D01*
X136666961Y-111780315D01*
X136621206Y-111727511D01*
X136610000Y-111676000D01*
X136610000Y-109052645D01*
X136629685Y-108985606D01*
X136682489Y-108939851D01*
X136732633Y-108928652D01*
X137456524Y-108920697D01*
X138304637Y-108911377D01*
X138371889Y-108930324D01*
G37*
%TD.AperFunction*%
%TD*%
M02*
